<?xml version="1.0" encoding="utf-8" standalone="no"?>
<!DOCTYPE svg PUBLIC "-//W3C//DTD SVG 1.1//EN"
  "http://www.w3.org/Graphics/SVG/1.1/DTD/svg11.dtd">
<svg xmlns:xlink="http://www.w3.org/1999/xlink" width="460.8pt" height="345.6pt" viewBox="0 0 460.8 345.6" xmlns="http://www.w3.org/2000/svg" version="1.1">
 <metadata>
  <rdf:RDF xmlns:dc="http://purl.org/dc/elements/1.1/" xmlns:cc="http://creativecommons.org/ns#" xmlns:rdf="http://www.w3.org/1999/02/22-rdf-syntax-ns#">
   <cc:Work>
    <dc:type rdf:resource="http://purl.org/dc/dcmitype/StillImage"/>
    <dc:date>2022-08-18T21:07:46.745307</dc:date>
    <dc:format>image/svg+xml</dc:format>
    <dc:creator>
     <cc:Agent>
      <dc:title>Matplotlib v3.5.3, https://matplotlib.org/</dc:title>
     </cc:Agent>
    </dc:creator>
   </cc:Work>
  </rdf:RDF>
 </metadata>
 <defs>
  <style type="text/css">*{stroke-linejoin: round; stroke-linecap: butt}</style>
 </defs>
 <g id="figure_1">
  <g id="patch_1">
   <path d="M 0 345.6 
L 460.8 345.6 
L 460.8 0 
L 0 0 
z
" style="fill: #ffffff"/>
  </g>
  <g id="axes_1">
   <g id="patch_2">
    <path d="M 57.6 307.584 
L 414.72 307.584 
L 414.72 41.472 
L 57.6 41.472 
z
" style="fill: #ffffff"/>
   </g>
   <g id="matplotlib.axis_1">
    <g id="xtick_1">
     <g id="line2d_1">
      <defs>
       <path id="medc3f2c309" d="M 0 0 
L 0 3.5 
" style="stroke: #000000; stroke-width: 0.8"/>
      </defs>
      <g>
       <use xlink:href="#medc3f2c309" x="73.832727" y="307.584" style="stroke: #000000; stroke-width: 0.8"/>
      </g>
     </g>
     <g id="text_1">
      <!-- 0 -->
      <g transform="translate(70.651477 322.182437)scale(0.1 -0.1)">
       <defs>
        <path id="DejaVuSans-30" d="M 2034 4250 
Q 1547 4250 1301 3770 
Q 1056 3291 1056 2328 
Q 1056 1369 1301 889 
Q 1547 409 2034 409 
Q 2525 409 2770 889 
Q 3016 1369 3016 2328 
Q 3016 3291 2770 3770 
Q 2525 4250 2034 4250 
z
M 2034 4750 
Q 2819 4750 3233 4129 
Q 3647 3509 3647 2328 
Q 3647 1150 3233 529 
Q 2819 -91 2034 -91 
Q 1250 -91 836 529 
Q 422 1150 422 2328 
Q 422 3509 836 4129 
Q 1250 4750 2034 4750 
z
" transform="scale(0.015625)"/>
       </defs>
       <use xlink:href="#DejaVuSans-30"/>
      </g>
     </g>
    </g>
    <g id="xtick_2">
     <g id="line2d_2">
      <g>
       <use xlink:href="#medc3f2c309" x="123.02281" y="307.584" style="stroke: #000000; stroke-width: 0.8"/>
      </g>
     </g>
     <g id="text_2">
      <!-- 25 -->
      <g transform="translate(116.66031 322.182437)scale(0.1 -0.1)">
       <defs>
        <path id="DejaVuSans-32" d="M 1228 531 
L 3431 531 
L 3431 0 
L 469 0 
L 469 531 
Q 828 903 1448 1529 
Q 2069 2156 2228 2338 
Q 2531 2678 2651 2914 
Q 2772 3150 2772 3378 
Q 2772 3750 2511 3984 
Q 2250 4219 1831 4219 
Q 1534 4219 1204 4116 
Q 875 4013 500 3803 
L 500 4441 
Q 881 4594 1212 4672 
Q 1544 4750 1819 4750 
Q 2544 4750 2975 4387 
Q 3406 4025 3406 3419 
Q 3406 3131 3298 2873 
Q 3191 2616 2906 2266 
Q 2828 2175 2409 1742 
Q 1991 1309 1228 531 
z
" transform="scale(0.015625)"/>
        <path id="DejaVuSans-35" d="M 691 4666 
L 3169 4666 
L 3169 4134 
L 1269 4134 
L 1269 2991 
Q 1406 3038 1543 3061 
Q 1681 3084 1819 3084 
Q 2600 3084 3056 2656 
Q 3513 2228 3513 1497 
Q 3513 744 3044 326 
Q 2575 -91 1722 -91 
Q 1428 -91 1123 -41 
Q 819 9 494 109 
L 494 744 
Q 775 591 1075 516 
Q 1375 441 1709 441 
Q 2250 441 2565 725 
Q 2881 1009 2881 1497 
Q 2881 1984 2565 2268 
Q 2250 2553 1709 2553 
Q 1456 2553 1204 2497 
Q 953 2441 691 2322 
L 691 4666 
z
" transform="scale(0.015625)"/>
       </defs>
       <use xlink:href="#DejaVuSans-32"/>
       <use xlink:href="#DejaVuSans-35" x="63.623047"/>
      </g>
     </g>
    </g>
    <g id="xtick_3">
     <g id="line2d_3">
      <g>
       <use xlink:href="#medc3f2c309" x="172.212893" y="307.584" style="stroke: #000000; stroke-width: 0.8"/>
      </g>
     </g>
     <g id="text_3">
      <!-- 50 -->
      <g transform="translate(165.850393 322.182437)scale(0.1 -0.1)">
       <use xlink:href="#DejaVuSans-35"/>
       <use xlink:href="#DejaVuSans-30" x="63.623047"/>
      </g>
     </g>
    </g>
    <g id="xtick_4">
     <g id="line2d_4">
      <g>
       <use xlink:href="#medc3f2c309" x="221.402975" y="307.584" style="stroke: #000000; stroke-width: 0.8"/>
      </g>
     </g>
     <g id="text_4">
      <!-- 75 -->
      <g transform="translate(215.040475 322.182437)scale(0.1 -0.1)">
       <defs>
        <path id="DejaVuSans-37" d="M 525 4666 
L 3525 4666 
L 3525 4397 
L 1831 0 
L 1172 0 
L 2766 4134 
L 525 4134 
L 525 4666 
z
" transform="scale(0.015625)"/>
       </defs>
       <use xlink:href="#DejaVuSans-37"/>
       <use xlink:href="#DejaVuSans-35" x="63.623047"/>
      </g>
     </g>
    </g>
    <g id="xtick_5">
     <g id="line2d_5">
      <g>
       <use xlink:href="#medc3f2c309" x="270.593058" y="307.584" style="stroke: #000000; stroke-width: 0.8"/>
      </g>
     </g>
     <g id="text_5">
      <!-- 100 -->
      <g transform="translate(261.049308 322.182437)scale(0.1 -0.1)">
       <defs>
        <path id="DejaVuSans-31" d="M 794 531 
L 1825 531 
L 1825 4091 
L 703 3866 
L 703 4441 
L 1819 4666 
L 2450 4666 
L 2450 531 
L 3481 531 
L 3481 0 
L 794 0 
L 794 531 
z
" transform="scale(0.015625)"/>
       </defs>
       <use xlink:href="#DejaVuSans-31"/>
       <use xlink:href="#DejaVuSans-30" x="63.623047"/>
       <use xlink:href="#DejaVuSans-30" x="127.246094"/>
      </g>
     </g>
    </g>
    <g id="xtick_6">
     <g id="line2d_6">
      <g>
       <use xlink:href="#medc3f2c309" x="319.78314" y="307.584" style="stroke: #000000; stroke-width: 0.8"/>
      </g>
     </g>
     <g id="text_6">
      <!-- 125 -->
      <g transform="translate(310.23939 322.182437)scale(0.1 -0.1)">
       <use xlink:href="#DejaVuSans-31"/>
       <use xlink:href="#DejaVuSans-32" x="63.623047"/>
       <use xlink:href="#DejaVuSans-35" x="127.246094"/>
      </g>
     </g>
    </g>
    <g id="xtick_7">
     <g id="line2d_7">
      <g>
       <use xlink:href="#medc3f2c309" x="368.973223" y="307.584" style="stroke: #000000; stroke-width: 0.8"/>
      </g>
     </g>
     <g id="text_7">
      <!-- 150 -->
      <g transform="translate(359.429473 322.182437)scale(0.1 -0.1)">
       <use xlink:href="#DejaVuSans-31"/>
       <use xlink:href="#DejaVuSans-35" x="63.623047"/>
       <use xlink:href="#DejaVuSans-30" x="127.246094"/>
      </g>
     </g>
    </g>
    <g id="text_8">
     <!-- Games -->
     <g transform="translate(218.670156 335.860562)scale(0.1 -0.1)">
      <defs>
       <path id="DejaVuSans-47" d="M 3809 666 
L 3809 1919 
L 2778 1919 
L 2778 2438 
L 4434 2438 
L 4434 434 
Q 4069 175 3628 42 
Q 3188 -91 2688 -91 
Q 1594 -91 976 548 
Q 359 1188 359 2328 
Q 359 3472 976 4111 
Q 1594 4750 2688 4750 
Q 3144 4750 3555 4637 
Q 3966 4525 4313 4306 
L 4313 3634 
Q 3963 3931 3569 4081 
Q 3175 4231 2741 4231 
Q 1884 4231 1454 3753 
Q 1025 3275 1025 2328 
Q 1025 1384 1454 906 
Q 1884 428 2741 428 
Q 3075 428 3337 486 
Q 3600 544 3809 666 
z
" transform="scale(0.015625)"/>
       <path id="DejaVuSans-61" d="M 2194 1759 
Q 1497 1759 1228 1600 
Q 959 1441 959 1056 
Q 959 750 1161 570 
Q 1363 391 1709 391 
Q 2188 391 2477 730 
Q 2766 1069 2766 1631 
L 2766 1759 
L 2194 1759 
z
M 3341 1997 
L 3341 0 
L 2766 0 
L 2766 531 
Q 2569 213 2275 61 
Q 1981 -91 1556 -91 
Q 1019 -91 701 211 
Q 384 513 384 1019 
Q 384 1609 779 1909 
Q 1175 2209 1959 2209 
L 2766 2209 
L 2766 2266 
Q 2766 2663 2505 2880 
Q 2244 3097 1772 3097 
Q 1472 3097 1187 3025 
Q 903 2953 641 2809 
L 641 3341 
Q 956 3463 1253 3523 
Q 1550 3584 1831 3584 
Q 2591 3584 2966 3190 
Q 3341 2797 3341 1997 
z
" transform="scale(0.015625)"/>
       <path id="DejaVuSans-6d" d="M 3328 2828 
Q 3544 3216 3844 3400 
Q 4144 3584 4550 3584 
Q 5097 3584 5394 3201 
Q 5691 2819 5691 2113 
L 5691 0 
L 5113 0 
L 5113 2094 
Q 5113 2597 4934 2840 
Q 4756 3084 4391 3084 
Q 3944 3084 3684 2787 
Q 3425 2491 3425 1978 
L 3425 0 
L 2847 0 
L 2847 2094 
Q 2847 2600 2669 2842 
Q 2491 3084 2119 3084 
Q 1678 3084 1418 2786 
Q 1159 2488 1159 1978 
L 1159 0 
L 581 0 
L 581 3500 
L 1159 3500 
L 1159 2956 
Q 1356 3278 1631 3431 
Q 1906 3584 2284 3584 
Q 2666 3584 2933 3390 
Q 3200 3197 3328 2828 
z
" transform="scale(0.015625)"/>
       <path id="DejaVuSans-65" d="M 3597 1894 
L 3597 1613 
L 953 1613 
Q 991 1019 1311 708 
Q 1631 397 2203 397 
Q 2534 397 2845 478 
Q 3156 559 3463 722 
L 3463 178 
Q 3153 47 2828 -22 
Q 2503 -91 2169 -91 
Q 1331 -91 842 396 
Q 353 884 353 1716 
Q 353 2575 817 3079 
Q 1281 3584 2069 3584 
Q 2775 3584 3186 3129 
Q 3597 2675 3597 1894 
z
M 3022 2063 
Q 3016 2534 2758 2815 
Q 2500 3097 2075 3097 
Q 1594 3097 1305 2825 
Q 1016 2553 972 2059 
L 3022 2063 
z
" transform="scale(0.015625)"/>
       <path id="DejaVuSans-73" d="M 2834 3397 
L 2834 2853 
Q 2591 2978 2328 3040 
Q 2066 3103 1784 3103 
Q 1356 3103 1142 2972 
Q 928 2841 928 2578 
Q 928 2378 1081 2264 
Q 1234 2150 1697 2047 
L 1894 2003 
Q 2506 1872 2764 1633 
Q 3022 1394 3022 966 
Q 3022 478 2636 193 
Q 2250 -91 1575 -91 
Q 1294 -91 989 -36 
Q 684 19 347 128 
L 347 722 
Q 666 556 975 473 
Q 1284 391 1588 391 
Q 1994 391 2212 530 
Q 2431 669 2431 922 
Q 2431 1156 2273 1281 
Q 2116 1406 1581 1522 
L 1381 1569 
Q 847 1681 609 1914 
Q 372 2147 372 2553 
Q 372 3047 722 3315 
Q 1072 3584 1716 3584 
Q 2034 3584 2315 3537 
Q 2597 3491 2834 3397 
z
" transform="scale(0.015625)"/>
      </defs>
      <use xlink:href="#DejaVuSans-47"/>
      <use xlink:href="#DejaVuSans-61" x="77.490234"/>
      <use xlink:href="#DejaVuSans-6d" x="138.769531"/>
      <use xlink:href="#DejaVuSans-65" x="236.181641"/>
      <use xlink:href="#DejaVuSans-73" x="297.705078"/>
     </g>
    </g>
   </g>
   <g id="matplotlib.axis_2">
    <g id="ytick_1">
     <g id="line2d_8">
      <defs>
       <path id="md8453cbe60" d="M 0 0 
L -3.5 0 
" style="stroke: #000000; stroke-width: 0.8"/>
      </defs>
      <g>
       <use xlink:href="#md8453cbe60" x="57.6" y="282.691224" style="stroke: #000000; stroke-width: 0.8"/>
      </g>
     </g>
     <g id="text_9">
      <!-- 0 -->
      <g transform="translate(44.2375 286.490443)scale(0.1 -0.1)">
       <use xlink:href="#DejaVuSans-30"/>
      </g>
     </g>
    </g>
    <g id="ytick_2">
     <g id="line2d_9">
      <g>
       <use xlink:href="#md8453cbe60" x="57.6" y="252.22271" style="stroke: #000000; stroke-width: 0.8"/>
      </g>
     </g>
     <g id="text_10">
      <!-- 50 -->
      <g transform="translate(37.875 256.021929)scale(0.1 -0.1)">
       <use xlink:href="#DejaVuSans-35"/>
       <use xlink:href="#DejaVuSans-30" x="63.623047"/>
      </g>
     </g>
    </g>
    <g id="ytick_3">
     <g id="line2d_10">
      <g>
       <use xlink:href="#md8453cbe60" x="57.6" y="221.754196" style="stroke: #000000; stroke-width: 0.8"/>
      </g>
     </g>
     <g id="text_11">
      <!-- 100 -->
      <g transform="translate(31.5125 225.553415)scale(0.1 -0.1)">
       <use xlink:href="#DejaVuSans-31"/>
       <use xlink:href="#DejaVuSans-30" x="63.623047"/>
       <use xlink:href="#DejaVuSans-30" x="127.246094"/>
      </g>
     </g>
    </g>
    <g id="ytick_4">
     <g id="line2d_11">
      <g>
       <use xlink:href="#md8453cbe60" x="57.6" y="191.285683" style="stroke: #000000; stroke-width: 0.8"/>
      </g>
     </g>
     <g id="text_12">
      <!-- 150 -->
      <g transform="translate(31.5125 195.084901)scale(0.1 -0.1)">
       <use xlink:href="#DejaVuSans-31"/>
       <use xlink:href="#DejaVuSans-35" x="63.623047"/>
       <use xlink:href="#DejaVuSans-30" x="127.246094"/>
      </g>
     </g>
    </g>
    <g id="ytick_5">
     <g id="line2d_12">
      <g>
       <use xlink:href="#md8453cbe60" x="57.6" y="160.817169" style="stroke: #000000; stroke-width: 0.8"/>
      </g>
     </g>
     <g id="text_13">
      <!-- 200 -->
      <g transform="translate(31.5125 164.616388)scale(0.1 -0.1)">
       <use xlink:href="#DejaVuSans-32"/>
       <use xlink:href="#DejaVuSans-30" x="63.623047"/>
       <use xlink:href="#DejaVuSans-30" x="127.246094"/>
      </g>
     </g>
    </g>
    <g id="ytick_6">
     <g id="line2d_13">
      <g>
       <use xlink:href="#md8453cbe60" x="57.6" y="130.348655" style="stroke: #000000; stroke-width: 0.8"/>
      </g>
     </g>
     <g id="text_14">
      <!-- 250 -->
      <g transform="translate(31.5125 134.147874)scale(0.1 -0.1)">
       <use xlink:href="#DejaVuSans-32"/>
       <use xlink:href="#DejaVuSans-35" x="63.623047"/>
       <use xlink:href="#DejaVuSans-30" x="127.246094"/>
      </g>
     </g>
    </g>
    <g id="ytick_7">
     <g id="line2d_14">
      <g>
       <use xlink:href="#md8453cbe60" x="57.6" y="99.880141" style="stroke: #000000; stroke-width: 0.8"/>
      </g>
     </g>
     <g id="text_15">
      <!-- 300 -->
      <g transform="translate(31.5125 103.67936)scale(0.1 -0.1)">
       <defs>
        <path id="DejaVuSans-33" d="M 2597 2516 
Q 3050 2419 3304 2112 
Q 3559 1806 3559 1356 
Q 3559 666 3084 287 
Q 2609 -91 1734 -91 
Q 1441 -91 1130 -33 
Q 819 25 488 141 
L 488 750 
Q 750 597 1062 519 
Q 1375 441 1716 441 
Q 2309 441 2620 675 
Q 2931 909 2931 1356 
Q 2931 1769 2642 2001 
Q 2353 2234 1838 2234 
L 1294 2234 
L 1294 2753 
L 1863 2753 
Q 2328 2753 2575 2939 
Q 2822 3125 2822 3475 
Q 2822 3834 2567 4026 
Q 2313 4219 1838 4219 
Q 1578 4219 1281 4162 
Q 984 4106 628 3988 
L 628 4550 
Q 988 4650 1302 4700 
Q 1616 4750 1894 4750 
Q 2613 4750 3031 4423 
Q 3450 4097 3450 3541 
Q 3450 3153 3228 2886 
Q 3006 2619 2597 2516 
z
" transform="scale(0.015625)"/>
       </defs>
       <use xlink:href="#DejaVuSans-33"/>
       <use xlink:href="#DejaVuSans-30" x="63.623047"/>
       <use xlink:href="#DejaVuSans-30" x="127.246094"/>
      </g>
     </g>
    </g>
    <g id="ytick_8">
     <g id="line2d_15">
      <g>
       <use xlink:href="#md8453cbe60" x="57.6" y="69.411627" style="stroke: #000000; stroke-width: 0.8"/>
      </g>
     </g>
     <g id="text_16">
      <!-- 350 -->
      <g transform="translate(31.5125 73.210846)scale(0.1 -0.1)">
       <use xlink:href="#DejaVuSans-33"/>
       <use xlink:href="#DejaVuSans-35" x="63.623047"/>
       <use xlink:href="#DejaVuSans-30" x="127.246094"/>
      </g>
     </g>
    </g>
    <g id="text_17">
     <!-- Home Runs -->
     <g transform="translate(25.432812 203.074875)rotate(-90)scale(0.1 -0.1)">
      <defs>
       <path id="DejaVuSans-48" d="M 628 4666 
L 1259 4666 
L 1259 2753 
L 3553 2753 
L 3553 4666 
L 4184 4666 
L 4184 0 
L 3553 0 
L 3553 2222 
L 1259 2222 
L 1259 0 
L 628 0 
L 628 4666 
z
" transform="scale(0.015625)"/>
       <path id="DejaVuSans-6f" d="M 1959 3097 
Q 1497 3097 1228 2736 
Q 959 2375 959 1747 
Q 959 1119 1226 758 
Q 1494 397 1959 397 
Q 2419 397 2687 759 
Q 2956 1122 2956 1747 
Q 2956 2369 2687 2733 
Q 2419 3097 1959 3097 
z
M 1959 3584 
Q 2709 3584 3137 3096 
Q 3566 2609 3566 1747 
Q 3566 888 3137 398 
Q 2709 -91 1959 -91 
Q 1206 -91 779 398 
Q 353 888 353 1747 
Q 353 2609 779 3096 
Q 1206 3584 1959 3584 
z
" transform="scale(0.015625)"/>
       <path id="DejaVuSans-20" transform="scale(0.015625)"/>
       <path id="DejaVuSans-52" d="M 2841 2188 
Q 3044 2119 3236 1894 
Q 3428 1669 3622 1275 
L 4263 0 
L 3584 0 
L 2988 1197 
Q 2756 1666 2539 1819 
Q 2322 1972 1947 1972 
L 1259 1972 
L 1259 0 
L 628 0 
L 628 4666 
L 2053 4666 
Q 2853 4666 3247 4331 
Q 3641 3997 3641 3322 
Q 3641 2881 3436 2590 
Q 3231 2300 2841 2188 
z
M 1259 4147 
L 1259 2491 
L 2053 2491 
Q 2509 2491 2742 2702 
Q 2975 2913 2975 3322 
Q 2975 3731 2742 3939 
Q 2509 4147 2053 4147 
L 1259 4147 
z
" transform="scale(0.015625)"/>
       <path id="DejaVuSans-75" d="M 544 1381 
L 544 3500 
L 1119 3500 
L 1119 1403 
Q 1119 906 1312 657 
Q 1506 409 1894 409 
Q 2359 409 2629 706 
Q 2900 1003 2900 1516 
L 2900 3500 
L 3475 3500 
L 3475 0 
L 2900 0 
L 2900 538 
Q 2691 219 2414 64 
Q 2138 -91 1772 -91 
Q 1169 -91 856 284 
Q 544 659 544 1381 
z
M 1991 3584 
L 1991 3584 
z
" transform="scale(0.015625)"/>
       <path id="DejaVuSans-6e" d="M 3513 2113 
L 3513 0 
L 2938 0 
L 2938 2094 
Q 2938 2591 2744 2837 
Q 2550 3084 2163 3084 
Q 1697 3084 1428 2787 
Q 1159 2491 1159 1978 
L 1159 0 
L 581 0 
L 581 3500 
L 1159 3500 
L 1159 2956 
Q 1366 3272 1645 3428 
Q 1925 3584 2291 3584 
Q 2894 3584 3203 3211 
Q 3513 2838 3513 2113 
z
" transform="scale(0.015625)"/>
      </defs>
      <use xlink:href="#DejaVuSans-48"/>
      <use xlink:href="#DejaVuSans-6f" x="75.195312"/>
      <use xlink:href="#DejaVuSans-6d" x="136.376953"/>
      <use xlink:href="#DejaVuSans-65" x="233.789062"/>
      <use xlink:href="#DejaVuSans-20" x="295.3125"/>
      <use xlink:href="#DejaVuSans-52" x="327.099609"/>
      <use xlink:href="#DejaVuSans-75" x="392.082031"/>
      <use xlink:href="#DejaVuSans-6e" x="455.460938"/>
      <use xlink:href="#DejaVuSans-73" x="518.839844"/>
     </g>
    </g>
   </g>
   <g id="line2d_16">
    <path d="M 75.800331 282.081854 
L 77.767934 281.472484 
L 79.735537 281.472484 
L 87.60595 279.035003 
L 91.541157 279.035003 
L 93.50876 278.425632 
L 95.476364 278.425632 
L 97.443967 277.816262 
L 99.41157 277.816262 
L 101.379174 277.206892 
L 103.346777 277.206892 
L 109.249587 275.378781 
L 113.184793 275.378781 
L 117.12 274.16004 
L 119.087603 274.16004 
L 132.860826 269.894448 
L 136.796033 269.894448 
L 138.763636 269.285078 
L 142.698843 269.285078 
L 146.63405 268.066338 
L 148.601653 268.066338 
L 150.569256 267.456967 
L 152.53686 267.456967 
L 162.374876 264.410116 
L 164.342479 264.410116 
L 172.212893 261.972635 
L 174.180496 261.972635 
L 176.148099 261.363264 
L 178.115702 261.363264 
L 195.824132 255.878932 
L 201.726942 255.878932 
L 215.500165 251.61334 
L 217.467769 251.61334 
L 223.370579 249.785229 
L 225.338182 249.785229 
L 229.273388 248.566489 
L 233.208595 248.566489 
L 239.111405 246.738378 
L 241.079008 246.738378 
L 252.884628 243.082156 
L 254.852231 243.082156 
L 266.657851 239.425935 
L 268.625455 239.425935 
L 272.560661 238.207194 
L 276.495868 238.207194 
L 278.463471 237.597824 
L 280.431074 237.597824 
L 282.398678 236.988453 
L 284.366281 236.988453 
L 286.333884 236.379083 
L 288.301488 236.379083 
L 290.269091 235.769713 
L 292.236694 235.769713 
L 302.074711 232.722861 
L 309.945124 232.722861 
L 325.68595 227.847899 
L 329.621157 227.847899 
L 333.556364 226.629159 
L 335.523967 226.629159 
L 343.39438 224.191678 
L 345.361983 224.191678 
L 351.264793 222.363567 
L 353.232397 222.363567 
L 363.070413 219.316715 
L 365.038017 219.316715 
L 368.973223 218.097975 
L 370.940826 218.097975 
L 378.81124 215.660494 
L 378.81124 215.660494 
" clip-path="url(#p9e0dd5a487)" style="fill: none; stroke: #008000; stroke-width: 1.5; stroke-linecap: square"/>
   </g>
   <g id="line2d_17">
    <path d="M 75.800331 282.691224 
L 85.638347 279.644373 
L 93.50876 279.644373 
L 101.379174 277.206892 
L 103.346777 277.206892 
L 111.21719 274.769411 
L 117.12 274.769411 
L 119.087603 274.16004 
L 123.02281 274.16004 
L 126.958017 272.9413 
L 134.82843 272.9413 
L 136.796033 272.331929 
L 138.763636 272.331929 
L 144.666446 270.503819 
L 146.63405 270.503819 
L 148.601653 269.894448 
L 150.569256 269.894448 
L 154.504463 268.675708 
L 156.472066 268.675708 
L 158.439669 268.066338 
L 160.407273 268.066338 
L 172.212893 264.410116 
L 174.180496 264.410116 
L 184.018512 261.363264 
L 185.986116 261.363264 
L 189.921322 260.144524 
L 193.856529 260.144524 
L 195.824132 259.535154 
L 197.791736 259.535154 
L 203.694545 257.707043 
L 205.662149 257.707043 
L 211.564959 255.878932 
L 215.500165 255.878932 
L 223.370579 253.441451 
L 225.338182 253.441451 
L 235.176198 250.394599 
L 237.143802 250.394599 
L 239.111405 249.785229 
L 241.079008 249.785229 
L 248.949421 247.347748 
L 252.884628 247.347748 
L 256.819835 246.129008 
L 258.787438 246.129008 
L 266.657851 243.691526 
L 268.625455 243.691526 
L 270.593058 243.082156 
L 274.528264 243.082156 
L 278.463471 241.863416 
L 280.431074 241.863416 
L 298.139504 236.379083 
L 302.074711 236.379083 
L 304.042314 235.769713 
L 306.009917 235.769713 
L 309.945124 234.550972 
L 311.912727 234.550972 
L 317.815537 232.722861 
L 319.78314 232.722861 
L 321.750744 232.113491 
L 323.718347 232.113491 
L 329.621157 230.28538 
L 331.58876 230.28538 
L 333.556364 229.67601 
L 335.523967 229.67601 
L 361.10281 221.754196 
L 365.038017 221.754196 
L 367.00562 221.144826 
L 370.940826 221.144826 
L 372.90843 220.535456 
L 374.876033 220.535456 
L 378.81124 219.316715 
L 380.778843 219.316715 
L 382.746446 218.707345 
L 384.71405 218.707345 
L 386.681653 218.097975 
L 388.649256 218.097975 
L 394.552066 216.269864 
L 394.552066 216.269864 
" clip-path="url(#p9e0dd5a487)" style="fill: none; stroke: #0000ff; stroke-width: 1.5; stroke-linecap: square"/>
   </g>
   <g id="line2d_18">
    <path d="M 75.800331 282.691224 
L 79.735537 282.691224 
L 81.70314 282.081854 
L 83.670744 282.081854 
L 99.41157 277.206892 
L 101.379174 277.206892 
L 113.184793 273.55067 
L 115.152397 273.55067 
L 130.893223 268.675708 
L 132.860826 268.675708 
L 138.763636 266.847597 
L 142.698843 266.847597 
L 152.53686 263.800746 
L 154.504463 263.800746 
L 162.374876 261.363264 
L 164.342479 261.363264 
L 168.277686 260.144524 
L 172.212893 260.144524 
L 189.921322 254.660191 
L 191.888926 254.660191 
L 193.856529 254.050821 
L 197.791736 254.050821 
L 201.726942 252.832081 
L 203.694545 252.832081 
L 205.662149 252.22271 
L 207.629752 252.22271 
L 209.597355 251.61334 
L 211.564959 251.61334 
L 219.435372 249.175859 
L 221.402975 249.175859 
L 241.079008 243.082156 
L 243.046612 243.082156 
L 246.981818 241.863416 
L 250.917025 241.863416 
L 252.884628 241.254045 
L 256.819835 241.254045 
L 264.690248 238.816564 
L 266.657851 238.816564 
L 270.593058 237.597824 
L 272.560661 237.597824 
L 278.463471 235.769713 
L 280.431074 235.769713 
L 286.333884 233.941602 
L 288.301488 233.941602 
L 306.009917 228.45727 
L 307.977521 228.45727 
L 313.880331 226.629159 
L 317.815537 226.629159 
L 321.750744 225.410418 
L 329.621157 225.410418 
L 337.49157 222.972937 
L 339.459174 222.972937 
L 341.426777 222.363567 
L 343.39438 222.363567 
L 345.361983 221.754196 
L 351.264793 221.754196 
L 357.167603 219.926086 
L 363.070413 219.926086 
L 365.038017 219.316715 
L 368.973223 219.316715 
L 372.90843 218.097975 
L 374.876033 218.097975 
L 376.843636 217.488605 
L 378.81124 217.488605 
L 392.584463 213.223013 
L 392.584463 213.223013 
" clip-path="url(#p9e0dd5a487)" style="fill: none; stroke: #ff7f0e; stroke-width: 1.5; stroke-linecap: square"/>
   </g>
   <g id="line2d_19">
    <path d="M 73.832727 282.081854 
L 75.800331 281.472484 
L 77.767934 281.472484 
L 79.735537 281.472484 
L 81.70314 280.863113 
L 83.670744 280.863113 
L 85.638347 280.253743 
L 87.60595 280.253743 
L 89.573554 279.644373 
L 91.541157 279.644373 
L 93.50876 279.035003 
L 95.476364 278.425632 
L 97.443967 278.425632 
L 99.41157 277.816262 
L 101.379174 277.206892 
L 103.346777 276.597521 
L 105.31438 275.988151 
L 107.281983 275.378781 
L 109.249587 274.769411 
L 111.21719 274.16004 
L 113.184793 273.55067 
L 117.12 272.9413 
L 119.087603 272.331929 
L 121.055207 271.722559 
L 123.02281 271.722559 
L 124.990413 271.113189 
L 126.958017 271.113189 
L 128.92562 270.503819 
L 130.893223 269.894448 
L 132.860826 269.285078 
L 134.82843 268.675708 
L 136.796033 268.066338 
L 138.763636 268.066338 
L 140.73124 267.456967 
L 142.698843 266.847597 
L 144.666446 266.238227 
L 146.63405 265.628856 
L 148.601653 265.628856 
L 150.569256 265.019486 
L 152.53686 265.019486 
L 154.504463 265.019486 
L 156.472066 265.019486 
L 158.439669 264.410116 
L 160.407273 263.800746 
L 162.374876 263.191375 
L 164.342479 262.582005 
L 166.310083 262.582005 
L 168.277686 262.582005 
L 170.245289 261.972635 
L 174.180496 261.363264 
L 176.148099 260.753894 
L 178.115702 260.144524 
L 180.083306 259.535154 
L 182.050909 258.925783 
L 184.018512 258.316413 
L 185.986116 258.316413 
L 187.953719 257.707043 
L 189.921322 257.097673 
L 191.888926 256.488302 
L 193.856529 255.878932 
L 195.824132 255.269562 
L 197.791736 254.660191 
L 199.759339 254.050821 
L 201.726942 253.441451 
L 203.694545 252.832081 
L 205.662149 252.832081 
L 207.629752 252.22271 
L 209.597355 252.22271 
L 211.564959 251.61334 
L 213.532562 251.00397 
L 215.500165 251.00397 
L 217.467769 251.00397 
L 219.435372 250.394599 
L 221.402975 249.785229 
L 223.370579 249.175859 
L 225.338182 248.566489 
L 227.305785 248.566489 
L 231.240992 247.957118 
L 233.208595 247.347748 
L 235.176198 247.347748 
L 237.143802 247.347748 
L 239.111405 246.738378 
L 241.079008 246.129008 
L 243.046612 245.519637 
L 245.014215 245.519637 
L 246.981818 245.519637 
L 248.949421 245.519637 
L 250.917025 244.910267 
L 252.884628 244.910267 
L 254.852231 244.910267 
L 256.819835 244.300897 
L 258.787438 243.691526 
L 260.755041 243.691526 
L 262.722645 243.691526 
L 264.690248 243.082156 
L 266.657851 243.082156 
L 268.625455 242.472786 
L 270.593058 242.472786 
L 272.560661 242.472786 
L 274.528264 241.863416 
L 276.495868 241.254045 
L 278.463471 240.644675 
L 280.431074 240.644675 
L 284.366281 240.035305 
L 286.333884 240.035305 
L 288.301488 240.035305 
L 290.269091 240.035305 
L 292.236694 240.035305 
L 294.204298 240.035305 
L 296.171901 239.425935 
L 298.139504 239.425935 
L 300.107107 239.425935 
L 302.074711 239.425935 
L 304.042314 238.816564 
L 306.009917 238.816564 
L 307.977521 238.816564 
L 309.945124 238.816564 
L 311.912727 238.207194 
" clip-path="url(#p9e0dd5a487)" style="fill: none; stroke: #ff0000; stroke-width: 1.5; stroke-linecap: square"/>
   </g>
   <g id="line2d_20">
    <path d="M 75.800331 279.644373 
L 77.767934 275.988151 
L 79.735537 275.988151 
L 83.670744 272.331929 
L 85.638347 265.019486 
L 87.60595 263.191375 
L 91.541157 266.847597 
L 93.50876 262.582005 
L 95.476364 263.191375 
L 97.443967 260.753894 
L 99.41157 261.363264 
L 101.379174 255.878932 
L 103.346777 256.488302 
L 105.31438 254.050821 
L 107.281983 252.22271 
L 109.249587 251.00397 
L 111.21719 252.832081 
L 113.184793 255.878932 
L 115.152397 251.00397 
L 117.12 245.519637 
L 119.087603 246.129008 
L 121.055207 245.519637 
L 123.02281 244.300897 
L 124.990413 243.691526 
L 126.958017 242.472786 
L 128.92562 240.035305 
L 130.893223 235.769713 
L 132.860826 235.160343 
L 136.796033 236.379083 
L 138.763636 233.332232 
L 140.73124 233.941602 
L 142.698843 236.988453 
L 144.666446 233.941602 
L 146.63405 230.28538 
L 148.601653 230.894751 
L 150.569256 226.019788 
L 152.53686 226.629159 
L 154.504463 226.019788 
L 156.472066 221.754196 
L 158.439669 213.832383 
L 160.407273 213.223013 
L 162.374876 212.004272 
L 164.342479 213.223013 
L 166.310083 212.004272 
L 168.277686 210.176161 
L 170.245289 209.566791 
L 172.212893 206.51994 
L 174.180496 207.73868 
L 176.148099 206.51994 
L 178.115702 207.12931 
L 180.083306 202.254348 
L 182.050909 197.988756 
L 184.018512 197.379385 
L 187.953719 192.504423 
L 189.921322 188.848202 
L 191.888926 187.020091 
L 193.856529 186.41072 
L 195.824132 182.145128 
L 197.791736 182.754499 
L 201.726942 185.19198 
L 205.662149 180.317018 
L 207.629752 179.707647 
L 209.597355 176.051426 
L 211.564959 171.785834 
L 213.532562 169.957723 
L 215.500165 169.348353 
L 217.467769 169.957723 
L 219.435372 163.25465 
L 221.402975 151.067244 
L 223.370579 150.457874 
L 225.338182 152.285985 
L 227.305785 151.067244 
L 229.273388 143.754801 
L 231.240992 149.848504 
L 233.208595 151.676615 
L 235.176198 149.848504 
L 237.143802 145.582912 
L 239.111405 144.364171 
L 241.079008 146.192282 
L 243.046612 145.582912 
L 245.014215 143.754801 
L 246.981818 143.145431 
L 248.949421 140.70795 
L 250.917025 137.661098 
L 252.884628 135.832987 
L 254.852231 137.051728 
L 256.819835 135.223617 
L 258.787438 134.614247 
L 260.755041 126.083063 
L 262.722645 120.59873 
L 264.690248 118.77062 
L 266.657851 115.723768 
L 268.625455 116.942509 
L 270.593058 114.505028 
L 272.560661 111.458176 
L 276.495868 112.676917 
L 278.463471 111.458176 
L 280.431074 113.895657 
L 282.398678 112.067547 
L 284.366281 113.895657 
L 286.333884 113.286287 
L 288.301488 117.551879 
L 290.269091 116.942509 
L 292.236694 117.551879 
L 294.204298 115.723768 
L 296.171901 113.286287 
L 298.139504 109.020695 
L 302.074711 107.801955 
L 304.042314 108.411325 
L 306.009917 112.067547 
L 307.977521 113.895657 
L 309.945124 116.942509 
L 311.912727 114.505028 
L 313.880331 110.848806 
L 315.847934 109.630065 
L 317.815537 103.536363 
L 319.78314 101.098882 
L 321.750744 98.05203 
L 323.718347 93.786438 
L 325.68595 87.692736 
L 329.621157 88.911476 
L 331.58876 85.864625 
L 333.556364 78.552181 
L 335.523967 80.380292 
L 337.49157 79.161552 
L 339.459174 78.552181 
L 341.426777 74.89596 
L 343.39438 74.286589 
L 345.361983 76.724071 
L 349.29719 74.286589 
L 351.264793 72.458479 
L 353.232397 73.067849 
L 355.2 70.020997 
L 357.167603 69.411627 
L 359.135207 65.146035 
L 361.10281 64.536665 
L 363.070413 62.099184 
L 365.038017 65.146035 
L 367.00562 64.536665 
L 368.973223 60.880443 
L 370.940826 63.927295 
L 372.90843 62.099184 
L 374.876033 55.396111 
L 376.843636 54.17737 
L 378.81124 53.568 
L 378.81124 53.568 
" clip-path="url(#p9e0dd5a487)" style="fill: none; stroke: #008000; stroke-width: 1.5; stroke-linecap: square"/>
   </g>
   <g id="line2d_21">
    <path d="M 75.800331 286.347446 
L 77.767934 285.128705 
L 79.735537 283.300594 
L 85.638347 279.644373 
L 87.60595 280.863113 
L 89.573554 280.863113 
L 91.541157 282.691224 
L 93.50876 283.300594 
L 95.476364 282.081854 
L 97.443967 281.472484 
L 99.41157 280.253743 
L 101.379174 279.644373 
L 103.346777 280.253743 
L 105.31438 279.035003 
L 107.281983 276.597521 
L 109.249587 274.769411 
L 111.21719 274.16004 
L 115.152397 276.597521 
L 117.12 277.206892 
L 119.087603 274.16004 
L 121.055207 274.769411 
L 123.02281 277.816262 
L 124.990413 277.206892 
L 126.958017 275.988151 
L 130.893223 277.206892 
L 132.860826 278.425632 
L 134.82843 279.035003 
L 136.796033 277.816262 
L 138.763636 278.425632 
L 140.73124 274.769411 
L 142.698843 274.16004 
L 144.666446 272.9413 
L 146.63405 275.988151 
L 148.601653 274.769411 
L 150.569256 275.378781 
L 152.53686 269.894448 
L 154.504463 269.285078 
L 156.472066 270.503819 
L 158.439669 268.066338 
L 160.407273 268.675708 
L 162.374876 263.191375 
L 164.342479 260.753894 
L 168.277686 254.660191 
L 170.245289 252.22271 
L 172.212893 249.175859 
L 174.180496 251.00397 
L 178.115702 248.566489 
L 180.083306 247.957118 
L 182.050909 245.519637 
L 184.018512 244.300897 
L 185.986116 247.347748 
L 187.953719 243.691526 
L 189.921322 243.082156 
L 193.856529 245.519637 
L 195.824132 240.035305 
L 197.791736 240.644675 
L 199.759339 238.207194 
L 201.726942 236.988453 
L 203.694545 233.941602 
L 205.662149 236.379083 
L 207.629752 234.550972 
L 209.597355 232.113491 
L 211.564959 230.894751 
L 213.532562 231.504121 
L 215.500165 232.722861 
L 217.467769 230.28538 
L 219.435372 229.67601 
L 221.402975 224.191678 
L 223.370579 221.754196 
L 225.338182 222.363567 
L 227.305785 218.707345 
L 229.273388 216.269864 
L 231.240992 209.566791 
L 235.176198 205.910569 
L 237.143802 207.73868 
L 239.111405 205.301199 
L 241.079008 208.34805 
L 245.014215 207.12931 
L 246.981818 204.082458 
L 248.949421 202.863718 
L 250.917025 205.301199 
L 252.884628 211.394902 
L 254.852231 209.566791 
L 256.819835 208.34805 
L 258.787438 208.957421 
L 260.755041 206.51994 
L 262.722645 199.207496 
L 264.690248 197.379385 
L 266.657851 196.770015 
L 268.625455 199.207496 
L 270.593058 198.598126 
L 272.560661 201.035607 
L 274.528264 201.644977 
L 276.495868 201.035607 
L 278.463471 196.770015 
L 280.431074 199.816866 
L 282.398678 197.988756 
L 288.301488 196.160645 
L 290.269091 194.332534 
L 292.236694 193.723164 
L 296.171901 191.285683 
L 298.139504 187.020091 
L 300.107107 189.457572 
L 302.074711 195.551275 
L 304.042314 192.504423 
L 306.009917 193.113793 
L 307.977521 192.504423 
L 309.945124 191.285683 
L 311.912727 193.723164 
L 313.880331 193.113793 
L 315.847934 189.457572 
L 317.815537 187.629461 
L 319.78314 188.238831 
L 321.750744 187.020091 
L 323.718347 188.238831 
L 325.68595 186.41072 
L 327.653554 183.973239 
L 329.621157 183.363869 
L 331.58876 185.19198 
L 333.556364 182.754499 
L 335.523967 183.363869 
L 337.49157 182.754499 
L 339.459174 179.707647 
L 341.426777 177.879537 
L 343.39438 176.660796 
L 345.361983 176.051426 
L 347.329587 173.004574 
L 349.29719 168.129612 
L 351.264793 165.692131 
L 353.232397 160.817169 
L 357.167603 159.598428 
L 359.135207 155.942207 
L 361.10281 155.332836 
L 363.070413 158.379688 
L 365.038017 158.989058 
L 367.00562 152.895355 
L 368.973223 154.114096 
L 370.940826 157.770317 
L 372.90843 156.551577 
L 374.876033 157.160947 
L 378.81124 154.723466 
L 380.778843 155.942207 
L 382.746446 152.895355 
L 384.71405 154.114096 
L 386.681653 153.504725 
L 388.649256 154.114096 
L 390.61686 153.504725 
L 392.584463 152.285985 
L 394.552066 151.676615 
L 394.552066 151.676615 
" clip-path="url(#p9e0dd5a487)" style="fill: none; stroke: #0000ff; stroke-width: 1.5; stroke-linecap: square"/>
   </g>
   <g id="line2d_22">
    <path d="M 75.800331 284.519335 
L 77.767934 289.394297 
L 79.735537 291.831778 
L 81.70314 290.613038 
L 83.670744 295.488 
L 85.638347 291.831778 
L 87.60595 291.222408 
L 89.573554 288.784927 
L 93.50876 286.347446 
L 95.476364 284.519335 
L 97.443967 279.035003 
L 99.41157 275.988151 
L 101.379174 276.597521 
L 103.346777 275.988151 
L 105.31438 274.769411 
L 107.281983 269.894448 
L 109.249587 267.456967 
L 113.184793 266.238227 
L 115.152397 268.066338 
L 117.12 266.238227 
L 121.055207 265.019486 
L 123.02281 261.363264 
L 124.990413 255.878932 
L 126.958017 252.832081 
L 128.92562 251.61334 
L 130.893223 249.175859 
L 132.860826 253.441451 
L 134.82843 249.175859 
L 136.796033 248.566489 
L 138.763636 247.347748 
L 140.73124 248.566489 
L 142.698843 249.175859 
L 144.666446 247.347748 
L 148.601653 242.472786 
L 150.569256 240.644675 
L 152.53686 239.425935 
L 154.504463 240.035305 
L 156.472066 234.550972 
L 158.439669 228.45727 
L 160.407273 221.144826 
L 162.374876 219.926086 
L 164.342479 221.754196 
L 166.310083 218.707345 
L 168.277686 216.269864 
L 170.245289 216.879234 
L 172.212893 220.535456 
L 174.180496 219.926086 
L 176.148099 218.097975 
L 178.115702 214.441753 
L 180.083306 211.394902 
L 182.050909 208.957421 
L 184.018512 207.73868 
L 185.986116 205.910569 
L 187.953719 199.816866 
L 189.921322 197.379385 
L 191.888926 198.598126 
L 193.856529 197.379385 
L 195.824132 199.207496 
L 197.791736 200.426237 
L 199.759339 199.207496 
L 201.726942 197.379385 
L 203.694545 199.207496 
L 205.662149 197.988756 
L 207.629752 204.691829 
L 209.597355 203.473088 
L 211.564959 206.51994 
L 213.532562 204.082458 
L 215.500165 200.426237 
L 217.467769 197.988756 
L 219.435372 194.941904 
L 221.402975 195.551275 
L 223.370579 191.285683 
L 225.338182 189.457572 
L 233.208595 187.020091 
L 235.176198 185.80135 
L 237.143802 183.363869 
L 239.111405 182.145128 
L 241.079008 177.879537 
L 243.046612 179.707647 
L 245.014215 176.051426 
L 246.981818 169.348353 
L 248.949421 170.567093 
L 250.917025 172.395204 
L 252.884628 168.129612 
L 254.852231 171.785834 
L 256.819835 172.395204 
L 258.787438 171.785834 
L 260.755041 169.348353 
L 262.722645 162.64528 
L 264.690248 162.035909 
L 266.657851 164.47339 
L 268.625455 162.64528 
L 270.593058 158.989058 
L 272.560661 162.035909 
L 274.528264 160.207798 
L 276.495868 158.989058 
L 278.463471 157.160947 
L 280.431074 158.989058 
L 282.398678 151.067244 
L 284.366281 147.411023 
L 286.333884 144.364171 
L 288.301488 145.582912 
L 290.269091 141.92669 
L 292.236694 134.614247 
L 294.204298 126.692433 
L 296.171901 126.083063 
L 298.139504 123.645582 
L 300.107107 119.37999 
L 302.074711 113.895657 
L 306.009917 111.458176 
L 307.977521 118.161249 
L 309.945124 117.551879 
L 311.912727 113.895657 
L 313.880331 113.286287 
L 315.847934 114.505028 
L 317.815537 117.551879 
L 319.78314 114.505028 
L 321.750744 112.676917 
L 323.718347 113.895657 
L 325.68595 116.333139 
L 327.653554 116.942509 
L 329.621157 118.161249 
L 333.556364 116.942509 
L 335.523967 112.676917 
L 337.49157 109.630065 
L 339.459174 115.723768 
L 341.426777 111.458176 
L 343.39438 112.676917 
L 345.361983 109.630065 
L 347.329587 112.067547 
L 351.264793 113.286287 
L 353.232397 112.676917 
L 355.2 111.458176 
L 357.167603 109.630065 
L 359.135207 110.239436 
L 363.070413 112.676917 
L 365.038017 110.848806 
L 367.00562 113.895657 
L 368.973223 118.161249 
L 370.940826 115.723768 
L 372.90843 109.630065 
L 374.876033 110.848806 
L 376.843636 110.239436 
L 378.81124 112.067547 
L 380.778843 108.411325 
L 384.71405 103.536363 
L 386.681653 101.708252 
L 388.649256 98.661401 
L 390.61686 97.44266 
L 392.584463 94.395809 
L 392.584463 94.395809 
" clip-path="url(#p9e0dd5a487)" style="fill: none; stroke: #ff7f0e; stroke-width: 1.5; stroke-linecap: square"/>
   </g>
   <g id="line2d_23">
    <path d="M 73.832727 282.081854 
L 75.800331 280.863113 
L 77.767934 281.472484 
L 79.735537 283.300594 
L 81.70314 280.863113 
L 83.670744 282.081854 
L 85.638347 280.253743 
L 87.60595 280.863113 
L 89.573554 279.035003 
L 91.541157 282.081854 
L 93.50876 280.863113 
L 95.476364 279.644373 
L 97.443967 281.472484 
L 99.41157 279.644373 
L 101.379174 279.035003 
L 103.346777 274.16004 
L 105.31438 271.722559 
L 107.281983 269.894448 
L 109.249587 266.847597 
L 111.21719 260.753894 
L 113.184793 258.925783 
L 117.12 257.707043 
L 119.087603 257.097673 
L 121.055207 252.22271 
L 123.02281 252.832081 
L 124.990413 252.22271 
L 126.958017 253.441451 
L 128.92562 252.832081 
L 130.893223 252.22271 
L 132.860826 251.00397 
L 134.82843 246.129008 
L 136.796033 242.472786 
L 138.763636 243.082156 
L 140.73124 240.644675 
L 142.698843 238.207194 
L 144.666446 237.597824 
L 146.63405 236.988453 
L 148.601653 238.816564 
L 150.569256 237.597824 
L 152.53686 238.816564 
L 154.504463 241.863416 
L 156.472066 243.082156 
L 158.439669 242.472786 
L 160.407273 241.254045 
L 162.374876 238.207194 
L 164.342479 236.988453 
L 166.310083 238.207194 
L 168.277686 239.425935 
L 170.245289 234.550972 
L 174.180496 231.504121 
L 176.148099 230.894751 
L 178.115702 222.972937 
L 180.083306 221.144826 
L 182.050909 220.535456 
L 184.018512 216.879234 
L 185.986116 221.144826 
L 187.953719 219.316715 
L 189.921322 218.707345 
L 191.888926 213.832383 
L 193.856529 205.301199 
L 195.824132 204.082458 
L 197.791736 203.473088 
L 199.759339 202.863718 
L 201.726942 197.379385 
L 203.694545 194.941904 
L 205.662149 195.551275 
L 207.629752 194.332534 
L 209.597355 194.941904 
L 211.564959 194.332534 
L 213.532562 193.723164 
L 215.500165 194.941904 
L 217.467769 196.770015 
L 219.435372 194.941904 
L 221.402975 192.504423 
L 223.370579 191.895053 
L 225.338182 190.676312 
L 227.305785 191.285683 
L 231.240992 185.80135 
L 233.208595 182.754499 
L 235.176198 183.973239 
L 237.143802 185.80135 
L 239.111405 176.051426 
L 241.079008 175.442055 
L 243.046612 171.176463 
L 245.014215 171.785834 
L 246.981818 174.832685 
L 248.949421 175.442055 
L 250.917025 174.832685 
L 252.884628 175.442055 
L 254.852231 176.051426 
L 256.819835 168.129612 
L 258.787438 161.426539 
L 260.755041 162.035909 
L 262.722645 163.25465 
L 264.690248 162.64528 
L 266.657851 164.47339 
L 268.625455 160.817169 
L 270.593058 162.64528 
L 272.560661 163.25465 
L 274.528264 162.64528 
L 276.495868 158.989058 
L 278.463471 155.332836 
L 280.431074 156.551577 
L 284.366281 153.504725 
L 286.333884 154.723466 
L 288.301488 157.160947 
L 290.269091 157.770317 
L 292.236694 158.379688 
L 294.204298 160.207798 
L 296.171901 157.160947 
L 298.139504 157.770317 
L 300.107107 158.379688 
L 302.074711 158.989058 
L 304.042314 158.379688 
L 306.009917 160.207798 
L 307.977521 162.64528 
L 309.945124 163.86402 
L 311.912727 163.25465 
" clip-path="url(#p9e0dd5a487)" style="fill: none; stroke: #ff0000; stroke-width: 1.5; stroke-linecap: square"/>
   </g>
   <g id="line2d_24">
    <path d="M 73.832727 282.691224 
L 77.767934 282.691224 
L 79.735537 282.081854 
L 91.541157 282.081854 
L 95.476364 280.863113 
L 97.443967 280.863113 
L 99.41157 280.253743 
L 101.379174 280.253743 
L 105.31438 279.035003 
L 119.087603 279.035003 
L 123.02281 277.816262 
L 128.92562 277.816262 
L 130.893223 277.206892 
L 136.796033 277.206892 
L 140.73124 275.988151 
L 144.666446 275.988151 
L 146.63405 275.378781 
L 148.601653 275.378781 
L 150.569256 274.769411 
L 152.53686 274.769411 
L 158.439669 272.9413 
L 166.310083 272.9413 
L 170.245289 271.722559 
L 176.148099 271.722559 
L 178.115702 270.503819 
L 180.083306 269.894448 
L 182.050909 269.894448 
L 184.018512 269.285078 
L 191.888926 269.285078 
L 193.856529 268.066338 
L 203.694545 268.066338 
L 205.662149 267.456967 
L 211.564959 267.456967 
L 213.532562 266.847597 
L 221.402975 266.847597 
L 223.370579 266.238227 
L 225.338182 265.019486 
L 231.240992 265.019486 
L 233.208595 264.410116 
L 252.884628 264.410116 
L 254.852231 263.800746 
L 256.819835 262.582005 
L 260.755041 262.582005 
L 262.722645 261.972635 
L 278.463471 261.972635 
L 280.431074 261.363264 
L 286.333884 261.363264 
L 288.301488 260.753894 
L 294.204298 260.753894 
L 298.139504 259.535154 
L 302.074711 259.535154 
L 304.042314 258.925783 
L 306.009917 258.925783 
L 307.977521 258.316413 
L 313.880331 258.316413 
L 317.815537 257.097673 
L 319.78314 257.097673 
L 321.750744 256.488302 
L 325.68595 255.878932 
L 331.58876 255.878932 
L 333.556364 254.660191 
L 335.523967 254.050821 
L 337.49157 252.832081 
L 343.39438 252.832081 
L 349.29719 251.00397 
L 353.232397 251.00397 
L 355.2 250.394599 
L 361.10281 250.394599 
L 367.00562 248.566489 
L 370.940826 248.566489 
L 372.90843 247.957118 
L 374.876033 246.738378 
L 376.843636 246.129008 
L 378.81124 246.129008 
L 378.81124 246.129008 
" clip-path="url(#p9e0dd5a487)" style="fill: none; stroke: #008000; stroke-width: 1.5; stroke-linecap: square"/>
   </g>
   <g id="line2d_25">
    <path d="M 73.832727 282.691224 
L 91.541157 282.691224 
L 93.50876 282.081854 
L 105.31438 282.081854 
L 107.281983 281.472484 
L 111.21719 281.472484 
L 113.184793 280.863113 
L 128.92562 280.863113 
L 136.796033 278.425632 
L 140.73124 278.425632 
L 142.698843 277.816262 
L 146.63405 277.816262 
L 148.601653 277.206892 
L 150.569256 277.206892 
L 152.53686 275.988151 
L 154.504463 275.378781 
L 158.439669 275.378781 
L 164.342479 273.55067 
L 168.277686 273.55067 
L 172.212893 272.331929 
L 176.148099 272.331929 
L 178.115702 271.722559 
L 182.050909 271.722559 
L 184.018512 270.503819 
L 185.986116 270.503819 
L 189.921322 269.285078 
L 193.856529 269.285078 
L 201.726942 266.847597 
L 203.694545 266.847597 
L 205.662149 266.238227 
L 219.435372 266.238227 
L 223.370579 265.628856 
L 225.338182 264.410116 
L 227.305785 264.410116 
L 231.240992 263.191375 
L 237.143802 263.191375 
L 239.111405 262.582005 
L 241.079008 262.582005 
L 243.046612 261.972635 
L 245.014215 261.972635 
L 246.981818 261.363264 
L 256.819835 261.363264 
L 258.787438 260.753894 
L 262.722645 260.753894 
L 266.657851 258.316413 
L 284.366281 258.316413 
L 286.333884 257.707043 
L 300.107107 257.707043 
L 309.945124 254.660191 
L 311.912727 253.441451 
L 317.815537 253.441451 
L 319.78314 252.832081 
L 321.750744 252.832081 
L 323.718347 252.22271 
L 329.621157 252.22271 
L 331.58876 251.61334 
L 343.39438 251.61334 
L 345.361983 250.394599 
L 353.232397 250.394599 
L 357.167603 249.175859 
L 359.135207 249.175859 
L 361.10281 248.566489 
L 374.876033 248.566489 
L 378.81124 247.347748 
L 382.746446 247.347748 
L 384.71405 246.738378 
L 390.61686 246.738378 
L 392.584463 246.129008 
L 396.519669 246.129008 
L 398.487273 245.519637 
L 398.487273 245.519637 
" clip-path="url(#p9e0dd5a487)" style="fill: none; stroke: #0000ff; stroke-width: 1.5; stroke-linecap: square"/>
   </g>
   <g id="line2d_26">
    <path d="M 73.832727 282.081854 
L 85.638347 282.081854 
L 97.443967 278.425632 
L 99.41157 278.425632 
L 101.379174 277.816262 
L 105.31438 277.816262 
L 107.281983 277.206892 
L 109.249587 277.206892 
L 111.21719 276.597521 
L 113.184793 276.597521 
L 115.152397 275.988151 
L 119.087603 275.988151 
L 124.990413 274.16004 
L 134.82843 274.16004 
L 136.796033 273.55067 
L 144.666446 273.55067 
L 148.601653 272.331929 
L 150.569256 270.503819 
L 152.53686 269.285078 
L 156.472066 268.066338 
L 158.439669 268.066338 
L 160.407273 267.456967 
L 162.374876 267.456967 
L 164.342479 266.847597 
L 168.277686 266.847597 
L 170.245289 265.628856 
L 174.180496 265.019486 
L 178.115702 265.019486 
L 184.018512 263.191375 
L 189.921322 263.191375 
L 191.888926 262.582005 
L 193.856529 262.582005 
L 195.824132 261.972635 
L 197.791736 260.753894 
L 201.726942 260.753894 
L 205.662149 259.535154 
L 207.629752 259.535154 
L 209.597355 258.925783 
L 237.143802 258.925783 
L 239.111405 258.316413 
L 248.949421 258.316413 
L 250.917025 257.097673 
L 264.690248 257.097673 
L 266.657851 255.878932 
L 268.625455 255.269562 
L 274.528264 255.269562 
L 278.463471 254.660191 
L 280.431074 254.660191 
L 282.398678 254.050821 
L 284.366281 254.050821 
L 286.333884 253.441451 
L 288.301488 253.441451 
L 292.236694 252.22271 
L 294.204298 252.22271 
L 296.171901 251.61334 
L 298.139504 251.61334 
L 300.107107 250.394599 
L 302.074711 250.394599 
L 304.042314 249.785229 
L 309.945124 249.785229 
L 311.912727 249.175859 
L 317.815537 249.175859 
L 319.78314 248.566489 
L 325.68595 248.566489 
L 327.653554 247.957118 
L 333.556364 247.957118 
L 337.49157 246.738378 
L 339.459174 246.738378 
L 341.426777 246.129008 
L 345.361983 246.129008 
L 347.329587 244.300897 
L 351.264793 244.300897 
L 353.232397 243.691526 
L 357.167603 243.691526 
L 359.135207 242.472786 
L 361.10281 241.863416 
L 365.038017 241.863416 
L 368.973223 240.644675 
L 374.876033 240.644675 
L 376.843636 240.035305 
L 378.81124 238.816564 
L 380.778843 238.816564 
L 382.746446 238.207194 
L 382.746446 238.207194 
" clip-path="url(#p9e0dd5a487)" style="fill: none; stroke: #ff7f0e; stroke-width: 1.5; stroke-linecap: square"/>
   </g>
   <g id="line2d_27">
    <path d="M 73.832727 282.691224 
L 75.800331 282.691224 
L 77.767934 282.691224 
L 79.735537 282.691224 
L 81.70314 282.691224 
L 83.670744 282.081854 
L 85.638347 282.081854 
L 87.60595 282.081854 
L 89.573554 282.081854 
L 91.541157 282.081854 
L 93.50876 282.081854 
L 95.476364 282.081854 
L 97.443967 282.081854 
L 99.41157 280.863113 
L 101.379174 280.863113 
L 103.346777 280.863113 
L 105.31438 280.253743 
L 107.281983 280.253743 
L 109.249587 279.644373 
L 111.21719 279.035003 
L 115.152397 277.816262 
L 117.12 277.816262 
L 119.087603 277.206892 
L 121.055207 277.206892 
L 123.02281 277.206892 
L 124.990413 277.206892 
L 126.958017 277.206892 
L 128.92562 276.597521 
L 130.893223 276.597521 
L 132.860826 275.988151 
L 134.82843 275.378781 
L 136.796033 275.378781 
L 138.763636 275.378781 
L 140.73124 274.16004 
L 142.698843 274.16004 
L 144.666446 274.16004 
L 146.63405 274.16004 
L 148.601653 273.55067 
L 150.569256 273.55067 
L 152.53686 272.331929 
L 154.504463 272.331929 
L 156.472066 272.331929 
L 158.439669 272.331929 
L 160.407273 272.331929 
L 162.374876 272.331929 
L 164.342479 271.722559 
L 166.310083 271.722559 
L 170.245289 271.113189 
L 172.212893 271.113189 
L 174.180496 270.503819 
L 176.148099 269.894448 
L 178.115702 269.894448 
L 180.083306 269.285078 
L 182.050909 269.285078 
L 184.018512 269.285078 
L 185.986116 269.285078 
L 187.953719 268.066338 
L 189.921322 268.066338 
L 191.888926 268.066338 
L 193.856529 267.456967 
L 195.824132 267.456967 
L 197.791736 267.456967 
L 199.759339 267.456967 
L 201.726942 267.456967 
L 203.694545 267.456967 
L 205.662149 267.456967 
L 207.629752 266.238227 
L 209.597355 266.238227 
L 211.564959 266.238227 
L 213.532562 266.238227 
L 215.500165 265.628856 
L 217.467769 265.628856 
L 219.435372 265.628856 
L 221.402975 265.019486 
L 223.370579 265.019486 
L 227.305785 265.019486 
L 229.273388 265.019486 
L 231.240992 265.019486 
L 233.208595 265.019486 
L 235.176198 264.410116 
L 237.143802 264.410116 
L 239.111405 264.410116 
L 241.079008 264.410116 
L 243.046612 264.410116 
L 245.014215 264.410116 
L 246.981818 263.800746 
L 248.949421 263.800746 
L 250.917025 262.582005 
L 252.884628 262.582005 
L 254.852231 262.582005 
L 256.819835 261.972635 
L 258.787438 260.753894 
L 260.755041 260.753894 
L 262.722645 260.144524 
L 264.690248 259.535154 
L 266.657851 259.535154 
L 268.625455 258.925783 
L 270.593058 257.707043 
L 272.560661 257.097673 
L 274.528264 257.097673 
L 278.463471 256.488302 
L 280.431074 256.488302 
L 282.398678 256.488302 
L 284.366281 256.488302 
L 286.333884 256.488302 
L 288.301488 255.878932 
L 290.269091 255.878932 
L 292.236694 255.269562 
L 294.204298 254.660191 
L 296.171901 254.660191 
L 298.139504 254.660191 
L 300.107107 254.660191 
L 302.074711 254.660191 
L 304.042314 254.660191 
" clip-path="url(#p9e0dd5a487)" style="fill: none; stroke: #ff0000; stroke-width: 1.5; stroke-linecap: square"/>
   </g>
   <g id="patch_3">
    <path d="M 57.6 307.584 
L 57.6 41.472 
" style="fill: none; stroke: #000000; stroke-width: 0.8; stroke-linejoin: miter; stroke-linecap: square"/>
   </g>
   <g id="patch_4">
    <path d="M 414.72 307.584 
L 414.72 41.472 
" style="fill: none; stroke: #000000; stroke-width: 0.8; stroke-linejoin: miter; stroke-linecap: square"/>
   </g>
   <g id="patch_5">
    <path d="M 57.6 307.584 
L 414.72 307.584 
" style="fill: none; stroke: #000000; stroke-width: 0.8; stroke-linejoin: miter; stroke-linecap: square"/>
   </g>
   <g id="patch_6">
    <path d="M 57.6 41.472 
L 414.72 41.472 
" style="fill: none; stroke: #000000; stroke-width: 0.8; stroke-linejoin: miter; stroke-linecap: square"/>
   </g>
   <g id="text_18">
    <!-- Home Run Pace -->
    <g transform="translate(189.106875 35.472)scale(0.12 -0.12)">
     <defs>
      <path id="DejaVuSans-50" d="M 1259 4147 
L 1259 2394 
L 2053 2394 
Q 2494 2394 2734 2622 
Q 2975 2850 2975 3272 
Q 2975 3691 2734 3919 
Q 2494 4147 2053 4147 
L 1259 4147 
z
M 628 4666 
L 2053 4666 
Q 2838 4666 3239 4311 
Q 3641 3956 3641 3272 
Q 3641 2581 3239 2228 
Q 2838 1875 2053 1875 
L 1259 1875 
L 1259 0 
L 628 0 
L 628 4666 
z
" transform="scale(0.015625)"/>
      <path id="DejaVuSans-63" d="M 3122 3366 
L 3122 2828 
Q 2878 2963 2633 3030 
Q 2388 3097 2138 3097 
Q 1578 3097 1268 2742 
Q 959 2388 959 1747 
Q 959 1106 1268 751 
Q 1578 397 2138 397 
Q 2388 397 2633 464 
Q 2878 531 3122 666 
L 3122 134 
Q 2881 22 2623 -34 
Q 2366 -91 2075 -91 
Q 1284 -91 818 406 
Q 353 903 353 1747 
Q 353 2603 823 3093 
Q 1294 3584 2113 3584 
Q 2378 3584 2631 3529 
Q 2884 3475 3122 3366 
z
" transform="scale(0.015625)"/>
     </defs>
     <use xlink:href="#DejaVuSans-48"/>
     <use xlink:href="#DejaVuSans-6f" x="75.195312"/>
     <use xlink:href="#DejaVuSans-6d" x="136.376953"/>
     <use xlink:href="#DejaVuSans-65" x="233.789062"/>
     <use xlink:href="#DejaVuSans-20" x="295.3125"/>
     <use xlink:href="#DejaVuSans-52" x="327.099609"/>
     <use xlink:href="#DejaVuSans-75" x="392.082031"/>
     <use xlink:href="#DejaVuSans-6e" x="455.460938"/>
     <use xlink:href="#DejaVuSans-20" x="518.839844"/>
     <use xlink:href="#DejaVuSans-50" x="550.626953"/>
     <use xlink:href="#DejaVuSans-61" x="606.429688"/>
     <use xlink:href="#DejaVuSans-63" x="667.708984"/>
     <use xlink:href="#DejaVuSans-65" x="722.689453"/>
    </g>
   </g>
   <g id="legend_1">
    <g id="patch_7">
     <path d="M 278.280937 302.584 
L 407.72 302.584 
Q 409.72 302.584 409.72 300.584 
L 409.72 125.4465 
Q 409.72 123.4465 407.72 123.4465 
L 278.280937 123.4465 
Q 276.280937 123.4465 276.280937 125.4465 
L 276.280937 300.584 
Q 276.280937 302.584 278.280937 302.584 
z
" style="fill: #ffffff; opacity: 0.8; stroke: #cccccc; stroke-linejoin: miter"/>
    </g>
    <g id="line2d_28">
     <path d="M 280.280937 131.544938 
L 290.280937 131.544938 
L 300.280937 131.544938 
" style="fill: none; stroke: #008000; stroke-width: 1.5; stroke-linecap: square"/>
    </g>
    <g id="text_19">
     <!--  1927 -->
     <g transform="translate(308.280937 135.044938)scale(0.1 -0.1)">
      <defs>
       <path id="DejaVuSans-39" d="M 703 97 
L 703 672 
Q 941 559 1184 500 
Q 1428 441 1663 441 
Q 2288 441 2617 861 
Q 2947 1281 2994 2138 
Q 2813 1869 2534 1725 
Q 2256 1581 1919 1581 
Q 1219 1581 811 2004 
Q 403 2428 403 3163 
Q 403 3881 828 4315 
Q 1253 4750 1959 4750 
Q 2769 4750 3195 4129 
Q 3622 3509 3622 2328 
Q 3622 1225 3098 567 
Q 2575 -91 1691 -91 
Q 1453 -91 1209 -44 
Q 966 3 703 97 
z
M 1959 2075 
Q 2384 2075 2632 2365 
Q 2881 2656 2881 3163 
Q 2881 3666 2632 3958 
Q 2384 4250 1959 4250 
Q 1534 4250 1286 3958 
Q 1038 3666 1038 3163 
Q 1038 2656 1286 2365 
Q 1534 2075 1959 2075 
z
" transform="scale(0.015625)"/>
      </defs>
      <use xlink:href="#DejaVuSans-20"/>
      <use xlink:href="#DejaVuSans-31" x="31.787109"/>
      <use xlink:href="#DejaVuSans-39" x="95.410156"/>
      <use xlink:href="#DejaVuSans-32" x="159.033203"/>
      <use xlink:href="#DejaVuSans-37" x="222.65625"/>
     </g>
    </g>
    <g id="line2d_29">
     <path d="M 280.280937 146.223063 
L 290.280937 146.223063 
L 300.280937 146.223063 
" style="fill: none; stroke: #0000ff; stroke-width: 1.5; stroke-linecap: square"/>
    </g>
    <g id="text_20">
     <!--  1961 -->
     <g transform="translate(308.280937 149.723063)scale(0.1 -0.1)">
      <defs>
       <path id="DejaVuSans-36" d="M 2113 2584 
Q 1688 2584 1439 2293 
Q 1191 2003 1191 1497 
Q 1191 994 1439 701 
Q 1688 409 2113 409 
Q 2538 409 2786 701 
Q 3034 994 3034 1497 
Q 3034 2003 2786 2293 
Q 2538 2584 2113 2584 
z
M 3366 4563 
L 3366 3988 
Q 3128 4100 2886 4159 
Q 2644 4219 2406 4219 
Q 1781 4219 1451 3797 
Q 1122 3375 1075 2522 
Q 1259 2794 1537 2939 
Q 1816 3084 2150 3084 
Q 2853 3084 3261 2657 
Q 3669 2231 3669 1497 
Q 3669 778 3244 343 
Q 2819 -91 2113 -91 
Q 1303 -91 875 529 
Q 447 1150 447 2328 
Q 447 3434 972 4092 
Q 1497 4750 2381 4750 
Q 2619 4750 2861 4703 
Q 3103 4656 3366 4563 
z
" transform="scale(0.015625)"/>
      </defs>
      <use xlink:href="#DejaVuSans-20"/>
      <use xlink:href="#DejaVuSans-31" x="31.787109"/>
      <use xlink:href="#DejaVuSans-39" x="95.410156"/>
      <use xlink:href="#DejaVuSans-36" x="159.033203"/>
      <use xlink:href="#DejaVuSans-31" x="222.65625"/>
     </g>
    </g>
    <g id="line2d_30">
     <path d="M 280.280937 160.901188 
L 290.280937 160.901188 
L 300.280937 160.901188 
" style="fill: none; stroke: #ff7f0e; stroke-width: 1.5; stroke-linecap: square"/>
    </g>
    <g id="text_21">
     <!--  1998 -->
     <g transform="translate(308.280937 164.401188)scale(0.1 -0.1)">
      <defs>
       <path id="DejaVuSans-38" d="M 2034 2216 
Q 1584 2216 1326 1975 
Q 1069 1734 1069 1313 
Q 1069 891 1326 650 
Q 1584 409 2034 409 
Q 2484 409 2743 651 
Q 3003 894 3003 1313 
Q 3003 1734 2745 1975 
Q 2488 2216 2034 2216 
z
M 1403 2484 
Q 997 2584 770 2862 
Q 544 3141 544 3541 
Q 544 4100 942 4425 
Q 1341 4750 2034 4750 
Q 2731 4750 3128 4425 
Q 3525 4100 3525 3541 
Q 3525 3141 3298 2862 
Q 3072 2584 2669 2484 
Q 3125 2378 3379 2068 
Q 3634 1759 3634 1313 
Q 3634 634 3220 271 
Q 2806 -91 2034 -91 
Q 1263 -91 848 271 
Q 434 634 434 1313 
Q 434 1759 690 2068 
Q 947 2378 1403 2484 
z
M 1172 3481 
Q 1172 3119 1398 2916 
Q 1625 2713 2034 2713 
Q 2441 2713 2670 2916 
Q 2900 3119 2900 3481 
Q 2900 3844 2670 4047 
Q 2441 4250 2034 4250 
Q 1625 4250 1398 4047 
Q 1172 3844 1172 3481 
z
" transform="scale(0.015625)"/>
      </defs>
      <use xlink:href="#DejaVuSans-20"/>
      <use xlink:href="#DejaVuSans-31" x="31.787109"/>
      <use xlink:href="#DejaVuSans-39" x="95.410156"/>
      <use xlink:href="#DejaVuSans-39" x="159.033203"/>
      <use xlink:href="#DejaVuSans-38" x="222.65625"/>
     </g>
    </g>
    <g id="line2d_31">
     <path d="M 280.280937 175.579313 
L 290.280937 175.579313 
L 300.280937 175.579313 
" style="fill: none; stroke: #ff0000; stroke-width: 1.5; stroke-linecap: square"/>
    </g>
    <g id="text_22">
     <!--  2022 -->
     <g transform="translate(308.280937 179.079313)scale(0.1 -0.1)">
      <use xlink:href="#DejaVuSans-20"/>
      <use xlink:href="#DejaVuSans-32" x="31.787109"/>
      <use xlink:href="#DejaVuSans-30" x="95.410156"/>
      <use xlink:href="#DejaVuSans-32" x="159.033203"/>
      <use xlink:href="#DejaVuSans-32" x="222.65625"/>
     </g>
    </g>
    <g id="line2d_32">
     <path d="M 280.280937 190.257438 
L 290.280937 190.257438 
L 300.280937 190.257438 
" style="fill: none; stroke: #008000; stroke-width: 1.5; stroke-linecap: square"/>
    </g>
    <g id="text_23">
     <!--  1927 -->
     <g transform="translate(308.280937 193.757438)scale(0.1 -0.1)">
      <use xlink:href="#DejaVuSans-20"/>
      <use xlink:href="#DejaVuSans-31" x="31.787109"/>
      <use xlink:href="#DejaVuSans-39" x="95.410156"/>
      <use xlink:href="#DejaVuSans-32" x="159.033203"/>
      <use xlink:href="#DejaVuSans-37" x="222.65625"/>
     </g>
    </g>
    <g id="line2d_33">
     <path d="M 280.280937 204.935563 
L 290.280937 204.935563 
L 300.280937 204.935563 
" style="fill: none; stroke: #0000ff; stroke-width: 1.5; stroke-linecap: square"/>
    </g>
    <g id="text_24">
     <!--  1961 -->
     <g transform="translate(308.280937 208.435563)scale(0.1 -0.1)">
      <use xlink:href="#DejaVuSans-20"/>
      <use xlink:href="#DejaVuSans-31" x="31.787109"/>
      <use xlink:href="#DejaVuSans-39" x="95.410156"/>
      <use xlink:href="#DejaVuSans-36" x="159.033203"/>
      <use xlink:href="#DejaVuSans-31" x="222.65625"/>
     </g>
    </g>
    <g id="line2d_34">
     <path d="M 280.280937 219.613688 
L 290.280937 219.613688 
L 300.280937 219.613688 
" style="fill: none; stroke: #ff7f0e; stroke-width: 1.5; stroke-linecap: square"/>
    </g>
    <g id="text_25">
     <!--  1998 -->
     <g transform="translate(308.280937 223.113688)scale(0.1 -0.1)">
      <use xlink:href="#DejaVuSans-20"/>
      <use xlink:href="#DejaVuSans-31" x="31.787109"/>
      <use xlink:href="#DejaVuSans-39" x="95.410156"/>
      <use xlink:href="#DejaVuSans-39" x="159.033203"/>
      <use xlink:href="#DejaVuSans-38" x="222.65625"/>
     </g>
    </g>
    <g id="line2d_35">
     <path d="M 280.280937 234.291812 
L 290.280937 234.291812 
L 300.280937 234.291812 
" style="fill: none; stroke: #ff0000; stroke-width: 1.5; stroke-linecap: square"/>
    </g>
    <g id="text_26">
     <!--  2022 -->
     <g transform="translate(308.280937 237.791812)scale(0.1 -0.1)">
      <use xlink:href="#DejaVuSans-20"/>
      <use xlink:href="#DejaVuSans-32" x="31.787109"/>
      <use xlink:href="#DejaVuSans-30" x="95.410156"/>
      <use xlink:href="#DejaVuSans-32" x="159.033203"/>
      <use xlink:href="#DejaVuSans-32" x="222.65625"/>
     </g>
    </g>
    <g id="line2d_36">
     <path d="M 280.280937 248.969938 
L 290.280937 248.969938 
L 300.280937 248.969938 
" style="fill: none; stroke: #008000; stroke-width: 1.5; stroke-linecap: square"/>
    </g>
    <g id="text_27">
     <!-- Babe Ruth (1927) -->
     <g transform="translate(308.280937 252.469938)scale(0.1 -0.1)">
      <defs>
       <path id="DejaVuSans-42" d="M 1259 2228 
L 1259 519 
L 2272 519 
Q 2781 519 3026 730 
Q 3272 941 3272 1375 
Q 3272 1813 3026 2020 
Q 2781 2228 2272 2228 
L 1259 2228 
z
M 1259 4147 
L 1259 2741 
L 2194 2741 
Q 2656 2741 2882 2914 
Q 3109 3088 3109 3444 
Q 3109 3797 2882 3972 
Q 2656 4147 2194 4147 
L 1259 4147 
z
M 628 4666 
L 2241 4666 
Q 2963 4666 3353 4366 
Q 3744 4066 3744 3513 
Q 3744 3084 3544 2831 
Q 3344 2578 2956 2516 
Q 3422 2416 3680 2098 
Q 3938 1781 3938 1306 
Q 3938 681 3513 340 
Q 3088 0 2303 0 
L 628 0 
L 628 4666 
z
" transform="scale(0.015625)"/>
       <path id="DejaVuSans-62" d="M 3116 1747 
Q 3116 2381 2855 2742 
Q 2594 3103 2138 3103 
Q 1681 3103 1420 2742 
Q 1159 2381 1159 1747 
Q 1159 1113 1420 752 
Q 1681 391 2138 391 
Q 2594 391 2855 752 
Q 3116 1113 3116 1747 
z
M 1159 2969 
Q 1341 3281 1617 3432 
Q 1894 3584 2278 3584 
Q 2916 3584 3314 3078 
Q 3713 2572 3713 1747 
Q 3713 922 3314 415 
Q 2916 -91 2278 -91 
Q 1894 -91 1617 61 
Q 1341 213 1159 525 
L 1159 0 
L 581 0 
L 581 4863 
L 1159 4863 
L 1159 2969 
z
" transform="scale(0.015625)"/>
       <path id="DejaVuSans-74" d="M 1172 4494 
L 1172 3500 
L 2356 3500 
L 2356 3053 
L 1172 3053 
L 1172 1153 
Q 1172 725 1289 603 
Q 1406 481 1766 481 
L 2356 481 
L 2356 0 
L 1766 0 
Q 1100 0 847 248 
Q 594 497 594 1153 
L 594 3053 
L 172 3053 
L 172 3500 
L 594 3500 
L 594 4494 
L 1172 4494 
z
" transform="scale(0.015625)"/>
       <path id="DejaVuSans-68" d="M 3513 2113 
L 3513 0 
L 2938 0 
L 2938 2094 
Q 2938 2591 2744 2837 
Q 2550 3084 2163 3084 
Q 1697 3084 1428 2787 
Q 1159 2491 1159 1978 
L 1159 0 
L 581 0 
L 581 4863 
L 1159 4863 
L 1159 2956 
Q 1366 3272 1645 3428 
Q 1925 3584 2291 3584 
Q 2894 3584 3203 3211 
Q 3513 2838 3513 2113 
z
" transform="scale(0.015625)"/>
       <path id="DejaVuSans-28" d="M 1984 4856 
Q 1566 4138 1362 3434 
Q 1159 2731 1159 2009 
Q 1159 1288 1364 580 
Q 1569 -128 1984 -844 
L 1484 -844 
Q 1016 -109 783 600 
Q 550 1309 550 2009 
Q 550 2706 781 3412 
Q 1013 4119 1484 4856 
L 1984 4856 
z
" transform="scale(0.015625)"/>
       <path id="DejaVuSans-29" d="M 513 4856 
L 1013 4856 
Q 1481 4119 1714 3412 
Q 1947 2706 1947 2009 
Q 1947 1309 1714 600 
Q 1481 -109 1013 -844 
L 513 -844 
Q 928 -128 1133 580 
Q 1338 1288 1338 2009 
Q 1338 2731 1133 3434 
Q 928 4138 513 4856 
z
" transform="scale(0.015625)"/>
      </defs>
      <use xlink:href="#DejaVuSans-42"/>
      <use xlink:href="#DejaVuSans-61" x="68.603516"/>
      <use xlink:href="#DejaVuSans-62" x="129.882812"/>
      <use xlink:href="#DejaVuSans-65" x="193.359375"/>
      <use xlink:href="#DejaVuSans-20" x="254.882812"/>
      <use xlink:href="#DejaVuSans-52" x="286.669922"/>
      <use xlink:href="#DejaVuSans-75" x="351.652344"/>
      <use xlink:href="#DejaVuSans-74" x="415.03125"/>
      <use xlink:href="#DejaVuSans-68" x="454.240234"/>
      <use xlink:href="#DejaVuSans-20" x="517.619141"/>
      <use xlink:href="#DejaVuSans-28" x="549.40625"/>
      <use xlink:href="#DejaVuSans-31" x="588.419922"/>
      <use xlink:href="#DejaVuSans-39" x="652.042969"/>
      <use xlink:href="#DejaVuSans-32" x="715.666016"/>
      <use xlink:href="#DejaVuSans-37" x="779.289062"/>
      <use xlink:href="#DejaVuSans-29" x="842.912109"/>
     </g>
    </g>
    <g id="line2d_37">
     <path d="M 280.280937 263.648062 
L 290.280937 263.648062 
L 300.280937 263.648062 
" style="fill: none; stroke: #0000ff; stroke-width: 1.5; stroke-linecap: square"/>
    </g>
    <g id="text_28">
     <!-- Roger Maris (1961) -->
     <g transform="translate(308.280937 267.148062)scale(0.1 -0.1)">
      <defs>
       <path id="DejaVuSans-67" d="M 2906 1791 
Q 2906 2416 2648 2759 
Q 2391 3103 1925 3103 
Q 1463 3103 1205 2759 
Q 947 2416 947 1791 
Q 947 1169 1205 825 
Q 1463 481 1925 481 
Q 2391 481 2648 825 
Q 2906 1169 2906 1791 
z
M 3481 434 
Q 3481 -459 3084 -895 
Q 2688 -1331 1869 -1331 
Q 1566 -1331 1297 -1286 
Q 1028 -1241 775 -1147 
L 775 -588 
Q 1028 -725 1275 -790 
Q 1522 -856 1778 -856 
Q 2344 -856 2625 -561 
Q 2906 -266 2906 331 
L 2906 616 
Q 2728 306 2450 153 
Q 2172 0 1784 0 
Q 1141 0 747 490 
Q 353 981 353 1791 
Q 353 2603 747 3093 
Q 1141 3584 1784 3584 
Q 2172 3584 2450 3431 
Q 2728 3278 2906 2969 
L 2906 3500 
L 3481 3500 
L 3481 434 
z
" transform="scale(0.015625)"/>
       <path id="DejaVuSans-72" d="M 2631 2963 
Q 2534 3019 2420 3045 
Q 2306 3072 2169 3072 
Q 1681 3072 1420 2755 
Q 1159 2438 1159 1844 
L 1159 0 
L 581 0 
L 581 3500 
L 1159 3500 
L 1159 2956 
Q 1341 3275 1631 3429 
Q 1922 3584 2338 3584 
Q 2397 3584 2469 3576 
Q 2541 3569 2628 3553 
L 2631 2963 
z
" transform="scale(0.015625)"/>
       <path id="DejaVuSans-4d" d="M 628 4666 
L 1569 4666 
L 2759 1491 
L 3956 4666 
L 4897 4666 
L 4897 0 
L 4281 0 
L 4281 4097 
L 3078 897 
L 2444 897 
L 1241 4097 
L 1241 0 
L 628 0 
L 628 4666 
z
" transform="scale(0.015625)"/>
       <path id="DejaVuSans-69" d="M 603 3500 
L 1178 3500 
L 1178 0 
L 603 0 
L 603 3500 
z
M 603 4863 
L 1178 4863 
L 1178 4134 
L 603 4134 
L 603 4863 
z
" transform="scale(0.015625)"/>
      </defs>
      <use xlink:href="#DejaVuSans-52"/>
      <use xlink:href="#DejaVuSans-6f" x="64.982422"/>
      <use xlink:href="#DejaVuSans-67" x="126.164062"/>
      <use xlink:href="#DejaVuSans-65" x="189.640625"/>
      <use xlink:href="#DejaVuSans-72" x="251.164062"/>
      <use xlink:href="#DejaVuSans-20" x="292.277344"/>
      <use xlink:href="#DejaVuSans-4d" x="324.064453"/>
      <use xlink:href="#DejaVuSans-61" x="410.34375"/>
      <use xlink:href="#DejaVuSans-72" x="471.623047"/>
      <use xlink:href="#DejaVuSans-69" x="512.736328"/>
      <use xlink:href="#DejaVuSans-73" x="540.519531"/>
      <use xlink:href="#DejaVuSans-20" x="592.619141"/>
      <use xlink:href="#DejaVuSans-28" x="624.40625"/>
      <use xlink:href="#DejaVuSans-31" x="663.419922"/>
      <use xlink:href="#DejaVuSans-39" x="727.042969"/>
      <use xlink:href="#DejaVuSans-36" x="790.666016"/>
      <use xlink:href="#DejaVuSans-31" x="854.289062"/>
      <use xlink:href="#DejaVuSans-29" x="917.912109"/>
     </g>
    </g>
    <g id="line2d_38">
     <path d="M 280.280937 278.326187 
L 290.280937 278.326187 
L 300.280937 278.326187 
" style="fill: none; stroke: #ff7f0e; stroke-width: 1.5; stroke-linecap: square"/>
    </g>
    <g id="text_29">
     <!-- Barry Bonds (2001) -->
     <g transform="translate(308.280937 281.826187)scale(0.1 -0.1)">
      <defs>
       <path id="DejaVuSans-79" d="M 2059 -325 
Q 1816 -950 1584 -1140 
Q 1353 -1331 966 -1331 
L 506 -1331 
L 506 -850 
L 844 -850 
Q 1081 -850 1212 -737 
Q 1344 -625 1503 -206 
L 1606 56 
L 191 3500 
L 800 3500 
L 1894 763 
L 2988 3500 
L 3597 3500 
L 2059 -325 
z
" transform="scale(0.015625)"/>
       <path id="DejaVuSans-64" d="M 2906 2969 
L 2906 4863 
L 3481 4863 
L 3481 0 
L 2906 0 
L 2906 525 
Q 2725 213 2448 61 
Q 2172 -91 1784 -91 
Q 1150 -91 751 415 
Q 353 922 353 1747 
Q 353 2572 751 3078 
Q 1150 3584 1784 3584 
Q 2172 3584 2448 3432 
Q 2725 3281 2906 2969 
z
M 947 1747 
Q 947 1113 1208 752 
Q 1469 391 1925 391 
Q 2381 391 2643 752 
Q 2906 1113 2906 1747 
Q 2906 2381 2643 2742 
Q 2381 3103 1925 3103 
Q 1469 3103 1208 2742 
Q 947 2381 947 1747 
z
" transform="scale(0.015625)"/>
      </defs>
      <use xlink:href="#DejaVuSans-42"/>
      <use xlink:href="#DejaVuSans-61" x="68.603516"/>
      <use xlink:href="#DejaVuSans-72" x="129.882812"/>
      <use xlink:href="#DejaVuSans-72" x="169.246094"/>
      <use xlink:href="#DejaVuSans-79" x="210.359375"/>
      <use xlink:href="#DejaVuSans-20" x="269.539062"/>
      <use xlink:href="#DejaVuSans-42" x="301.326172"/>
      <use xlink:href="#DejaVuSans-6f" x="369.929688"/>
      <use xlink:href="#DejaVuSans-6e" x="431.111328"/>
      <use xlink:href="#DejaVuSans-64" x="494.490234"/>
      <use xlink:href="#DejaVuSans-73" x="557.966797"/>
      <use xlink:href="#DejaVuSans-20" x="610.066406"/>
      <use xlink:href="#DejaVuSans-28" x="641.853516"/>
      <use xlink:href="#DejaVuSans-32" x="680.867188"/>
      <use xlink:href="#DejaVuSans-30" x="744.490234"/>
      <use xlink:href="#DejaVuSans-30" x="808.113281"/>
      <use xlink:href="#DejaVuSans-31" x="871.736328"/>
      <use xlink:href="#DejaVuSans-29" x="935.359375"/>
     </g>
    </g>
    <g id="line2d_39">
     <path d="M 280.280937 293.004312 
L 290.280937 293.004312 
L 300.280937 293.004312 
" style="fill: none; stroke: #ff0000; stroke-width: 1.5; stroke-linecap: square"/>
    </g>
    <g id="text_30">
     <!-- Aaron Judge (2022) -->
     <g transform="translate(308.280937 296.504312)scale(0.1 -0.1)">
      <defs>
       <path id="DejaVuSans-41" d="M 2188 4044 
L 1331 1722 
L 3047 1722 
L 2188 4044 
z
M 1831 4666 
L 2547 4666 
L 4325 0 
L 3669 0 
L 3244 1197 
L 1141 1197 
L 716 0 
L 50 0 
L 1831 4666 
z
" transform="scale(0.015625)"/>
       <path id="DejaVuSans-4a" d="M 628 4666 
L 1259 4666 
L 1259 325 
Q 1259 -519 939 -900 
Q 619 -1281 -91 -1281 
L -331 -1281 
L -331 -750 
L -134 -750 
Q 284 -750 456 -515 
Q 628 -281 628 325 
L 628 4666 
z
" transform="scale(0.015625)"/>
      </defs>
      <use xlink:href="#DejaVuSans-41"/>
      <use xlink:href="#DejaVuSans-61" x="68.408203"/>
      <use xlink:href="#DejaVuSans-72" x="129.6875"/>
      <use xlink:href="#DejaVuSans-6f" x="168.550781"/>
      <use xlink:href="#DejaVuSans-6e" x="229.732422"/>
      <use xlink:href="#DejaVuSans-20" x="293.111328"/>
      <use xlink:href="#DejaVuSans-4a" x="324.898438"/>
      <use xlink:href="#DejaVuSans-75" x="354.390625"/>
      <use xlink:href="#DejaVuSans-64" x="417.769531"/>
      <use xlink:href="#DejaVuSans-67" x="481.246094"/>
      <use xlink:href="#DejaVuSans-65" x="544.722656"/>
      <use xlink:href="#DejaVuSans-20" x="606.246094"/>
      <use xlink:href="#DejaVuSans-28" x="638.033203"/>
      <use xlink:href="#DejaVuSans-32" x="677.046875"/>
      <use xlink:href="#DejaVuSans-30" x="740.669922"/>
      <use xlink:href="#DejaVuSans-32" x="804.292969"/>
      <use xlink:href="#DejaVuSans-32" x="867.916016"/>
      <use xlink:href="#DejaVuSans-29" x="931.539062"/>
     </g>
    </g>
   </g>
  </g>
 </g>
 <defs>
  <clipPath id="p9e0dd5a487">
   <rect x="57.6" y="41.472" width="357.12" height="266.112"/>
  </clipPath>
 </defs>
</svg>
