<?xml version="1.0" encoding="utf-8" standalone="no"?>
<!DOCTYPE svg PUBLIC "-//W3C//DTD SVG 1.1//EN"
  "http://www.w3.org/Graphics/SVG/1.1/DTD/svg11.dtd">
<svg xmlns:xlink="http://www.w3.org/1999/xlink" width="432pt" height="288pt" viewBox="0 0 432 288" xmlns="http://www.w3.org/2000/svg" version="1.1">
 <metadata>
  <rdf:RDF xmlns:dc="http://purl.org/dc/elements/1.1/" xmlns:cc="http://creativecommons.org/ns#" xmlns:rdf="http://www.w3.org/1999/02/22-rdf-syntax-ns#">
   <cc:Work>
    <dc:type rdf:resource="http://purl.org/dc/dcmitype/StillImage"/>
    <dc:date>2022-08-18T16:28:26.338058</dc:date>
    <dc:format>image/svg+xml</dc:format>
    <dc:creator>
     <cc:Agent>
      <dc:title>Matplotlib v3.5.2, https://matplotlib.org/</dc:title>
     </cc:Agent>
    </dc:creator>
   </cc:Work>
  </rdf:RDF>
 </metadata>
 <defs>
  <style type="text/css">*{stroke-linejoin: round; stroke-linecap: butt}</style>
 </defs>
 <g id="figure_1">
  <g id="patch_1">
   <path d="M 0 288 
L 432 288 
L 432 0 
L 0 0 
L 0 288 
z
" style="fill: none"/>
  </g>
  <g id="axes_1">
   <g id="patch_2">
    <path d="M 54 252 
L 388.8 252 
L 388.8 34.56 
L 54 34.56 
z
" style="fill: #ffffff"/>
   </g>
   <g id="matplotlib.axis_1">
    <g id="xtick_1">
     <g id="line2d_1">
      <defs>
       <path id="m61c3ddc242" d="M 0 0 
L 0 3.5 
" style="stroke: #000000; stroke-width: 0.8"/>
      </defs>
      <g>
       <use xlink:href="#m61c3ddc242" x="69.218182" y="252" style="stroke: #000000; stroke-width: 0.8"/>
      </g>
     </g>
     <g id="text_1">
      <!-- 0 -->
      <g transform="translate(66.036932 266.598437)scale(0.1 -0.1)">
       <defs>
        <path id="DejaVuSans-30" d="M 2034 4250 
Q 1547 4250 1301 3770 
Q 1056 3291 1056 2328 
Q 1056 1369 1301 889 
Q 1547 409 2034 409 
Q 2525 409 2770 889 
Q 3016 1369 3016 2328 
Q 3016 3291 2770 3770 
Q 2525 4250 2034 4250 
z
M 2034 4750 
Q 2819 4750 3233 4129 
Q 3647 3509 3647 2328 
Q 3647 1150 3233 529 
Q 2819 -91 2034 -91 
Q 1250 -91 836 529 
Q 422 1150 422 2328 
Q 422 3509 836 4129 
Q 1250 4750 2034 4750 
z
" transform="scale(0.015625)"/>
       </defs>
       <use xlink:href="#DejaVuSans-30"/>
      </g>
     </g>
    </g>
    <g id="xtick_2">
     <g id="line2d_2">
      <g>
       <use xlink:href="#m61c3ddc242" x="115.333884" y="252" style="stroke: #000000; stroke-width: 0.8"/>
      </g>
     </g>
     <g id="text_2">
      <!-- 25 -->
      <g transform="translate(108.971384 266.598437)scale(0.1 -0.1)">
       <defs>
        <path id="DejaVuSans-32" d="M 1228 531 
L 3431 531 
L 3431 0 
L 469 0 
L 469 531 
Q 828 903 1448 1529 
Q 2069 2156 2228 2338 
Q 2531 2678 2651 2914 
Q 2772 3150 2772 3378 
Q 2772 3750 2511 3984 
Q 2250 4219 1831 4219 
Q 1534 4219 1204 4116 
Q 875 4013 500 3803 
L 500 4441 
Q 881 4594 1212 4672 
Q 1544 4750 1819 4750 
Q 2544 4750 2975 4387 
Q 3406 4025 3406 3419 
Q 3406 3131 3298 2873 
Q 3191 2616 2906 2266 
Q 2828 2175 2409 1742 
Q 1991 1309 1228 531 
z
" transform="scale(0.015625)"/>
        <path id="DejaVuSans-35" d="M 691 4666 
L 3169 4666 
L 3169 4134 
L 1269 4134 
L 1269 2991 
Q 1406 3038 1543 3061 
Q 1681 3084 1819 3084 
Q 2600 3084 3056 2656 
Q 3513 2228 3513 1497 
Q 3513 744 3044 326 
Q 2575 -91 1722 -91 
Q 1428 -91 1123 -41 
Q 819 9 494 109 
L 494 744 
Q 775 591 1075 516 
Q 1375 441 1709 441 
Q 2250 441 2565 725 
Q 2881 1009 2881 1497 
Q 2881 1984 2565 2268 
Q 2250 2553 1709 2553 
Q 1456 2553 1204 2497 
Q 953 2441 691 2322 
L 691 4666 
z
" transform="scale(0.015625)"/>
       </defs>
       <use xlink:href="#DejaVuSans-32"/>
       <use xlink:href="#DejaVuSans-35" x="63.623047"/>
      </g>
     </g>
    </g>
    <g id="xtick_3">
     <g id="line2d_3">
      <g>
       <use xlink:href="#m61c3ddc242" x="161.449587" y="252" style="stroke: #000000; stroke-width: 0.8"/>
      </g>
     </g>
     <g id="text_3">
      <!-- 50 -->
      <g transform="translate(155.087087 266.598437)scale(0.1 -0.1)">
       <use xlink:href="#DejaVuSans-35"/>
       <use xlink:href="#DejaVuSans-30" x="63.623047"/>
      </g>
     </g>
    </g>
    <g id="xtick_4">
     <g id="line2d_4">
      <g>
       <use xlink:href="#m61c3ddc242" x="207.565289" y="252" style="stroke: #000000; stroke-width: 0.8"/>
      </g>
     </g>
     <g id="text_4">
      <!-- 75 -->
      <g transform="translate(201.202789 266.598437)scale(0.1 -0.1)">
       <defs>
        <path id="DejaVuSans-37" d="M 525 4666 
L 3525 4666 
L 3525 4397 
L 1831 0 
L 1172 0 
L 2766 4134 
L 525 4134 
L 525 4666 
z
" transform="scale(0.015625)"/>
       </defs>
       <use xlink:href="#DejaVuSans-37"/>
       <use xlink:href="#DejaVuSans-35" x="63.623047"/>
      </g>
     </g>
    </g>
    <g id="xtick_5">
     <g id="line2d_5">
      <g>
       <use xlink:href="#m61c3ddc242" x="253.680992" y="252" style="stroke: #000000; stroke-width: 0.8"/>
      </g>
     </g>
     <g id="text_5">
      <!-- 100 -->
      <g transform="translate(244.137242 266.598437)scale(0.1 -0.1)">
       <defs>
        <path id="DejaVuSans-31" d="M 794 531 
L 1825 531 
L 1825 4091 
L 703 3866 
L 703 4441 
L 1819 4666 
L 2450 4666 
L 2450 531 
L 3481 531 
L 3481 0 
L 794 0 
L 794 531 
z
" transform="scale(0.015625)"/>
       </defs>
       <use xlink:href="#DejaVuSans-31"/>
       <use xlink:href="#DejaVuSans-30" x="63.623047"/>
       <use xlink:href="#DejaVuSans-30" x="127.246094"/>
      </g>
     </g>
    </g>
    <g id="xtick_6">
     <g id="line2d_6">
      <g>
       <use xlink:href="#m61c3ddc242" x="299.796694" y="252" style="stroke: #000000; stroke-width: 0.8"/>
      </g>
     </g>
     <g id="text_6">
      <!-- 125 -->
      <g transform="translate(290.252944 266.598437)scale(0.1 -0.1)">
       <use xlink:href="#DejaVuSans-31"/>
       <use xlink:href="#DejaVuSans-32" x="63.623047"/>
       <use xlink:href="#DejaVuSans-35" x="127.246094"/>
      </g>
     </g>
    </g>
    <g id="xtick_7">
     <g id="line2d_7">
      <g>
       <use xlink:href="#m61c3ddc242" x="345.912397" y="252" style="stroke: #000000; stroke-width: 0.8"/>
      </g>
     </g>
     <g id="text_7">
      <!-- 150 -->
      <g transform="translate(336.368647 266.598437)scale(0.1 -0.1)">
       <use xlink:href="#DejaVuSans-31"/>
       <use xlink:href="#DejaVuSans-35" x="63.623047"/>
       <use xlink:href="#DejaVuSans-30" x="127.246094"/>
      </g>
     </g>
    </g>
    <g id="text_8">
     <!-- Games -->
     <g transform="translate(203.910156 280.276563)scale(0.1 -0.1)">
      <defs>
       <path id="DejaVuSans-47" d="M 3809 666 
L 3809 1919 
L 2778 1919 
L 2778 2438 
L 4434 2438 
L 4434 434 
Q 4069 175 3628 42 
Q 3188 -91 2688 -91 
Q 1594 -91 976 548 
Q 359 1188 359 2328 
Q 359 3472 976 4111 
Q 1594 4750 2688 4750 
Q 3144 4750 3555 4637 
Q 3966 4525 4313 4306 
L 4313 3634 
Q 3963 3931 3569 4081 
Q 3175 4231 2741 4231 
Q 1884 4231 1454 3753 
Q 1025 3275 1025 2328 
Q 1025 1384 1454 906 
Q 1884 428 2741 428 
Q 3075 428 3337 486 
Q 3600 544 3809 666 
z
" transform="scale(0.015625)"/>
       <path id="DejaVuSans-61" d="M 2194 1759 
Q 1497 1759 1228 1600 
Q 959 1441 959 1056 
Q 959 750 1161 570 
Q 1363 391 1709 391 
Q 2188 391 2477 730 
Q 2766 1069 2766 1631 
L 2766 1759 
L 2194 1759 
z
M 3341 1997 
L 3341 0 
L 2766 0 
L 2766 531 
Q 2569 213 2275 61 
Q 1981 -91 1556 -91 
Q 1019 -91 701 211 
Q 384 513 384 1019 
Q 384 1609 779 1909 
Q 1175 2209 1959 2209 
L 2766 2209 
L 2766 2266 
Q 2766 2663 2505 2880 
Q 2244 3097 1772 3097 
Q 1472 3097 1187 3025 
Q 903 2953 641 2809 
L 641 3341 
Q 956 3463 1253 3523 
Q 1550 3584 1831 3584 
Q 2591 3584 2966 3190 
Q 3341 2797 3341 1997 
z
" transform="scale(0.015625)"/>
       <path id="DejaVuSans-6d" d="M 3328 2828 
Q 3544 3216 3844 3400 
Q 4144 3584 4550 3584 
Q 5097 3584 5394 3201 
Q 5691 2819 5691 2113 
L 5691 0 
L 5113 0 
L 5113 2094 
Q 5113 2597 4934 2840 
Q 4756 3084 4391 3084 
Q 3944 3084 3684 2787 
Q 3425 2491 3425 1978 
L 3425 0 
L 2847 0 
L 2847 2094 
Q 2847 2600 2669 2842 
Q 2491 3084 2119 3084 
Q 1678 3084 1418 2786 
Q 1159 2488 1159 1978 
L 1159 0 
L 581 0 
L 581 3500 
L 1159 3500 
L 1159 2956 
Q 1356 3278 1631 3431 
Q 1906 3584 2284 3584 
Q 2666 3584 2933 3390 
Q 3200 3197 3328 2828 
z
" transform="scale(0.015625)"/>
       <path id="DejaVuSans-65" d="M 3597 1894 
L 3597 1613 
L 953 1613 
Q 991 1019 1311 708 
Q 1631 397 2203 397 
Q 2534 397 2845 478 
Q 3156 559 3463 722 
L 3463 178 
Q 3153 47 2828 -22 
Q 2503 -91 2169 -91 
Q 1331 -91 842 396 
Q 353 884 353 1716 
Q 353 2575 817 3079 
Q 1281 3584 2069 3584 
Q 2775 3584 3186 3129 
Q 3597 2675 3597 1894 
z
M 3022 2063 
Q 3016 2534 2758 2815 
Q 2500 3097 2075 3097 
Q 1594 3097 1305 2825 
Q 1016 2553 972 2059 
L 3022 2063 
z
" transform="scale(0.015625)"/>
       <path id="DejaVuSans-73" d="M 2834 3397 
L 2834 2853 
Q 2591 2978 2328 3040 
Q 2066 3103 1784 3103 
Q 1356 3103 1142 2972 
Q 928 2841 928 2578 
Q 928 2378 1081 2264 
Q 1234 2150 1697 2047 
L 1894 2003 
Q 2506 1872 2764 1633 
Q 3022 1394 3022 966 
Q 3022 478 2636 193 
Q 2250 -91 1575 -91 
Q 1294 -91 989 -36 
Q 684 19 347 128 
L 347 722 
Q 666 556 975 473 
Q 1284 391 1588 391 
Q 1994 391 2212 530 
Q 2431 669 2431 922 
Q 2431 1156 2273 1281 
Q 2116 1406 1581 1522 
L 1381 1569 
Q 847 1681 609 1914 
Q 372 2147 372 2553 
Q 372 3047 722 3315 
Q 1072 3584 1716 3584 
Q 2034 3584 2315 3537 
Q 2597 3491 2834 3397 
z
" transform="scale(0.015625)"/>
      </defs>
      <use xlink:href="#DejaVuSans-47"/>
      <use xlink:href="#DejaVuSans-61" x="77.490234"/>
      <use xlink:href="#DejaVuSans-6d" x="138.769531"/>
      <use xlink:href="#DejaVuSans-65" x="236.181641"/>
      <use xlink:href="#DejaVuSans-73" x="297.705078"/>
     </g>
    </g>
   </g>
   <g id="matplotlib.axis_2">
    <g id="ytick_1">
     <g id="line2d_8">
      <defs>
       <path id="mc1beb3a7cf" d="M 0 0 
L -3.5 0 
" style="stroke: #000000; stroke-width: 0.8"/>
      </defs>
      <g>
       <use xlink:href="#mc1beb3a7cf" x="54" y="242.116364" style="stroke: #000000; stroke-width: 0.8"/>
      </g>
     </g>
     <g id="text_9">
      <!-- 0 -->
      <g transform="translate(40.6375 245.915582)scale(0.1 -0.1)">
       <use xlink:href="#DejaVuSans-30"/>
      </g>
     </g>
    </g>
    <g id="ytick_2">
     <g id="line2d_9">
      <g>
       <use xlink:href="#mc1beb3a7cf" x="54" y="215.037908" style="stroke: #000000; stroke-width: 0.8"/>
      </g>
     </g>
     <g id="text_10">
      <!-- 10 -->
      <g transform="translate(34.275 218.837127)scale(0.1 -0.1)">
       <use xlink:href="#DejaVuSans-31"/>
       <use xlink:href="#DejaVuSans-30" x="63.623047"/>
      </g>
     </g>
    </g>
    <g id="ytick_3">
     <g id="line2d_10">
      <g>
       <use xlink:href="#mc1beb3a7cf" x="54" y="187.959452" style="stroke: #000000; stroke-width: 0.8"/>
      </g>
     </g>
     <g id="text_11">
      <!-- 20 -->
      <g transform="translate(34.275 191.758671)scale(0.1 -0.1)">
       <use xlink:href="#DejaVuSans-32"/>
       <use xlink:href="#DejaVuSans-30" x="63.623047"/>
      </g>
     </g>
    </g>
    <g id="ytick_4">
     <g id="line2d_11">
      <g>
       <use xlink:href="#mc1beb3a7cf" x="54" y="160.880996" style="stroke: #000000; stroke-width: 0.8"/>
      </g>
     </g>
     <g id="text_12">
      <!-- 30 -->
      <g transform="translate(34.275 164.680215)scale(0.1 -0.1)">
       <defs>
        <path id="DejaVuSans-33" d="M 2597 2516 
Q 3050 2419 3304 2112 
Q 3559 1806 3559 1356 
Q 3559 666 3084 287 
Q 2609 -91 1734 -91 
Q 1441 -91 1130 -33 
Q 819 25 488 141 
L 488 750 
Q 750 597 1062 519 
Q 1375 441 1716 441 
Q 2309 441 2620 675 
Q 2931 909 2931 1356 
Q 2931 1769 2642 2001 
Q 2353 2234 1838 2234 
L 1294 2234 
L 1294 2753 
L 1863 2753 
Q 2328 2753 2575 2939 
Q 2822 3125 2822 3475 
Q 2822 3834 2567 4026 
Q 2313 4219 1838 4219 
Q 1578 4219 1281 4162 
Q 984 4106 628 3988 
L 628 4550 
Q 988 4650 1302 4700 
Q 1616 4750 1894 4750 
Q 2613 4750 3031 4423 
Q 3450 4097 3450 3541 
Q 3450 3153 3228 2886 
Q 3006 2619 2597 2516 
z
" transform="scale(0.015625)"/>
       </defs>
       <use xlink:href="#DejaVuSans-33"/>
       <use xlink:href="#DejaVuSans-30" x="63.623047"/>
      </g>
     </g>
    </g>
    <g id="ytick_5">
     <g id="line2d_12">
      <g>
       <use xlink:href="#mc1beb3a7cf" x="54" y="133.80254" style="stroke: #000000; stroke-width: 0.8"/>
      </g>
     </g>
     <g id="text_13">
      <!-- 40 -->
      <g transform="translate(34.275 137.601759)scale(0.1 -0.1)">
       <defs>
        <path id="DejaVuSans-34" d="M 2419 4116 
L 825 1625 
L 2419 1625 
L 2419 4116 
z
M 2253 4666 
L 3047 4666 
L 3047 1625 
L 3713 1625 
L 3713 1100 
L 3047 1100 
L 3047 0 
L 2419 0 
L 2419 1100 
L 313 1100 
L 313 1709 
L 2253 4666 
z
" transform="scale(0.015625)"/>
       </defs>
       <use xlink:href="#DejaVuSans-34"/>
       <use xlink:href="#DejaVuSans-30" x="63.623047"/>
      </g>
     </g>
    </g>
    <g id="ytick_6">
     <g id="line2d_13">
      <g>
       <use xlink:href="#mc1beb3a7cf" x="54" y="106.724085" style="stroke: #000000; stroke-width: 0.8"/>
      </g>
     </g>
     <g id="text_14">
      <!-- 50 -->
      <g transform="translate(34.275 110.523303)scale(0.1 -0.1)">
       <use xlink:href="#DejaVuSans-35"/>
       <use xlink:href="#DejaVuSans-30" x="63.623047"/>
      </g>
     </g>
    </g>
    <g id="ytick_7">
     <g id="line2d_14">
      <g>
       <use xlink:href="#mc1beb3a7cf" x="54" y="79.645629" style="stroke: #000000; stroke-width: 0.8"/>
      </g>
     </g>
     <g id="text_15">
      <!-- 60 -->
      <g transform="translate(34.275 83.444848)scale(0.1 -0.1)">
       <defs>
        <path id="DejaVuSans-36" d="M 2113 2584 
Q 1688 2584 1439 2293 
Q 1191 2003 1191 1497 
Q 1191 994 1439 701 
Q 1688 409 2113 409 
Q 2538 409 2786 701 
Q 3034 994 3034 1497 
Q 3034 2003 2786 2293 
Q 2538 2584 2113 2584 
z
M 3366 4563 
L 3366 3988 
Q 3128 4100 2886 4159 
Q 2644 4219 2406 4219 
Q 1781 4219 1451 3797 
Q 1122 3375 1075 2522 
Q 1259 2794 1537 2939 
Q 1816 3084 2150 3084 
Q 2853 3084 3261 2657 
Q 3669 2231 3669 1497 
Q 3669 778 3244 343 
Q 2819 -91 2113 -91 
Q 1303 -91 875 529 
Q 447 1150 447 2328 
Q 447 3434 972 4092 
Q 1497 4750 2381 4750 
Q 2619 4750 2861 4703 
Q 3103 4656 3366 4563 
z
" transform="scale(0.015625)"/>
       </defs>
       <use xlink:href="#DejaVuSans-36"/>
       <use xlink:href="#DejaVuSans-30" x="63.623047"/>
      </g>
     </g>
    </g>
    <g id="ytick_8">
     <g id="line2d_15">
      <g>
       <use xlink:href="#mc1beb3a7cf" x="54" y="52.567173" style="stroke: #000000; stroke-width: 0.8"/>
      </g>
     </g>
     <g id="text_16">
      <!-- 70 -->
      <g transform="translate(34.275 56.366392)scale(0.1 -0.1)">
       <use xlink:href="#DejaVuSans-37"/>
       <use xlink:href="#DejaVuSans-30" x="63.623047"/>
      </g>
     </g>
    </g>
    <g id="text_17">
     <!-- Home Runs -->
     <g transform="translate(28.195312 171.826875)rotate(-90)scale(0.1 -0.1)">
      <defs>
       <path id="DejaVuSans-48" d="M 628 4666 
L 1259 4666 
L 1259 2753 
L 3553 2753 
L 3553 4666 
L 4184 4666 
L 4184 0 
L 3553 0 
L 3553 2222 
L 1259 2222 
L 1259 0 
L 628 0 
L 628 4666 
z
" transform="scale(0.015625)"/>
       <path id="DejaVuSans-6f" d="M 1959 3097 
Q 1497 3097 1228 2736 
Q 959 2375 959 1747 
Q 959 1119 1226 758 
Q 1494 397 1959 397 
Q 2419 397 2687 759 
Q 2956 1122 2956 1747 
Q 2956 2369 2687 2733 
Q 2419 3097 1959 3097 
z
M 1959 3584 
Q 2709 3584 3137 3096 
Q 3566 2609 3566 1747 
Q 3566 888 3137 398 
Q 2709 -91 1959 -91 
Q 1206 -91 779 398 
Q 353 888 353 1747 
Q 353 2609 779 3096 
Q 1206 3584 1959 3584 
z
" transform="scale(0.015625)"/>
       <path id="DejaVuSans-20" transform="scale(0.015625)"/>
       <path id="DejaVuSans-52" d="M 2841 2188 
Q 3044 2119 3236 1894 
Q 3428 1669 3622 1275 
L 4263 0 
L 3584 0 
L 2988 1197 
Q 2756 1666 2539 1819 
Q 2322 1972 1947 1972 
L 1259 1972 
L 1259 0 
L 628 0 
L 628 4666 
L 2053 4666 
Q 2853 4666 3247 4331 
Q 3641 3997 3641 3322 
Q 3641 2881 3436 2590 
Q 3231 2300 2841 2188 
z
M 1259 4147 
L 1259 2491 
L 2053 2491 
Q 2509 2491 2742 2702 
Q 2975 2913 2975 3322 
Q 2975 3731 2742 3939 
Q 2509 4147 2053 4147 
L 1259 4147 
z
" transform="scale(0.015625)"/>
       <path id="DejaVuSans-75" d="M 544 1381 
L 544 3500 
L 1119 3500 
L 1119 1403 
Q 1119 906 1312 657 
Q 1506 409 1894 409 
Q 2359 409 2629 706 
Q 2900 1003 2900 1516 
L 2900 3500 
L 3475 3500 
L 3475 0 
L 2900 0 
L 2900 538 
Q 2691 219 2414 64 
Q 2138 -91 1772 -91 
Q 1169 -91 856 284 
Q 544 659 544 1381 
z
M 1991 3584 
L 1991 3584 
z
" transform="scale(0.015625)"/>
       <path id="DejaVuSans-6e" d="M 3513 2113 
L 3513 0 
L 2938 0 
L 2938 2094 
Q 2938 2591 2744 2837 
Q 2550 3084 2163 3084 
Q 1697 3084 1428 2787 
Q 1159 2491 1159 1978 
L 1159 0 
L 581 0 
L 581 3500 
L 1159 3500 
L 1159 2956 
Q 1366 3272 1645 3428 
Q 1925 3584 2291 3584 
Q 2894 3584 3203 3211 
Q 3513 2838 3513 2113 
z
" transform="scale(0.015625)"/>
      </defs>
      <use xlink:href="#DejaVuSans-48"/>
      <use xlink:href="#DejaVuSans-6f" x="75.195312"/>
      <use xlink:href="#DejaVuSans-6d" x="136.376953"/>
      <use xlink:href="#DejaVuSans-65" x="233.789062"/>
      <use xlink:href="#DejaVuSans-20" x="295.3125"/>
      <use xlink:href="#DejaVuSans-52" x="327.099609"/>
      <use xlink:href="#DejaVuSans-75" x="392.082031"/>
      <use xlink:href="#DejaVuSans-6e" x="455.460938"/>
      <use xlink:href="#DejaVuSans-73" x="518.839844"/>
     </g>
    </g>
   </g>
   <g id="line2d_16">
    <path d="M 69.218182 242.116364 
L 72.907438 242.116364 
L 74.752066 239.408518 
L 85.819835 239.408518 
L 89.509091 233.992827 
L 91.353719 233.992827 
L 93.198347 231.284981 
L 95.042975 231.284981 
L 98.732231 225.86929 
L 111.644628 225.86929 
L 115.333884 220.453599 
L 120.867769 220.453599 
L 122.712397 217.745753 
L 128.246281 217.745753 
L 131.935537 212.330062 
L 135.624793 212.330062 
L 137.469421 209.622217 
L 139.31405 209.622217 
L 141.158678 206.914371 
L 143.003306 206.914371 
L 148.53719 198.790834 
L 155.915702 198.790834 
L 159.604959 193.375143 
L 165.138843 193.375143 
L 166.983471 187.959452 
L 168.828099 185.251606 
L 170.672727 185.251606 
L 172.517355 182.543761 
L 179.895868 182.543761 
L 181.740496 177.12807 
L 190.963636 177.12807 
L 192.808264 174.420224 
L 198.342149 174.420224 
L 200.186777 171.712379 
L 207.565289 171.712379 
L 209.409917 169.004533 
L 211.254545 163.588842 
L 216.78843 163.588842 
L 218.633058 160.880996 
L 237.079339 160.880996 
L 238.923967 158.173151 
L 240.768595 152.75746 
L 244.457851 152.75746 
L 246.302479 150.049614 
L 261.059504 150.049614 
L 262.904132 147.341768 
L 268.438017 147.341768 
L 270.282645 144.633923 
L 275.816529 144.633923 
L 279.505785 139.218232 
L 283.195041 139.218232 
L 285.039669 136.510386 
L 286.884298 136.510386 
L 288.728926 133.80254 
L 294.26281 133.80254 
L 297.952066 128.386849 
L 299.796694 128.386849 
L 301.641322 125.679004 
L 305.330579 122.971158 
L 310.864463 122.971158 
L 312.709091 117.555467 
L 314.553719 114.847621 
L 316.398347 109.43193 
L 321.932231 109.43193 
L 327.466116 101.308394 
L 331.155372 101.308394 
L 333 98.600548 
L 338.533884 98.600548 
L 344.067769 90.477011 
L 347.757025 90.477011 
L 349.601653 87.769166 
L 351.446281 82.353474 
L 353.290909 79.645629 
L 355.135537 79.645629 
L 355.135537 79.645629 
" clip-path="url(#p54d4ad08ac)" style="fill: none; stroke: #008000; stroke-width: 1.5; stroke-linecap: square"/>
   </g>
   <g id="line2d_17">
    <path d="M 69.218182 242.116364 
L 85.819835 242.116364 
L 87.664463 239.408518 
L 98.732231 239.408518 
L 100.57686 236.700672 
L 104.266116 236.700672 
L 106.110744 233.992827 
L 120.867769 233.992827 
L 128.246281 223.161445 
L 131.935537 223.161445 
L 133.780165 220.453599 
L 137.469421 220.453599 
L 139.31405 217.745753 
L 141.158678 217.745753 
L 143.003306 212.330062 
L 144.847934 209.622217 
L 148.53719 209.622217 
L 154.071074 201.49868 
L 157.760331 201.49868 
L 161.449587 196.082989 
L 165.138843 196.082989 
L 166.983471 193.375143 
L 170.672727 193.375143 
L 172.517355 187.959452 
L 174.361983 187.959452 
L 178.05124 182.543761 
L 181.740496 182.543761 
L 189.119008 171.712379 
L 190.963636 171.712379 
L 192.808264 169.004533 
L 205.720661 169.004533 
L 209.409917 166.296687 
L 211.254545 160.880996 
L 213.099174 160.880996 
L 216.78843 155.465305 
L 222.322314 155.465305 
L 224.166942 152.75746 
L 226.01157 152.75746 
L 227.856198 150.049614 
L 229.700826 150.049614 
L 231.545455 147.341768 
L 240.768595 147.341768 
L 242.613223 144.633923 
L 246.302479 144.633923 
L 249.991736 133.80254 
L 266.593388 133.80254 
L 268.438017 131.094695 
L 281.350413 131.094695 
L 290.573554 117.555467 
L 292.418182 112.139776 
L 297.952066 112.139776 
L 299.796694 109.43193 
L 301.641322 109.43193 
L 303.48595 106.724085 
L 309.019835 106.724085 
L 310.864463 104.016239 
L 321.932231 104.016239 
L 323.77686 98.600548 
L 331.155372 98.600548 
L 334.844628 93.184857 
L 336.689256 93.184857 
L 338.533884 90.477011 
L 351.446281 90.477011 
L 355.135537 85.06132 
L 358.824793 85.06132 
L 360.669421 82.353474 
L 366.203306 82.353474 
L 368.047934 79.645629 
L 371.73719 79.645629 
L 373.581818 76.937783 
L 373.581818 76.937783 
" clip-path="url(#p54d4ad08ac)" style="fill: none; stroke: #0000ff; stroke-width: 1.5; stroke-linecap: square"/>
   </g>
   <g id="line2d_18">
    <path d="M 69.218182 239.408518 
L 80.28595 239.408518 
L 91.353719 223.161445 
L 93.198347 223.161445 
L 95.042975 220.453599 
L 98.732231 220.453599 
L 100.57686 217.745753 
L 102.421488 217.745753 
L 104.266116 215.037908 
L 106.110744 215.037908 
L 107.955372 212.330062 
L 111.644628 212.330062 
L 117.178512 204.206526 
L 126.401653 204.206526 
L 128.246281 201.49868 
L 135.624793 201.49868 
L 139.31405 196.082989 
L 141.158678 187.959452 
L 143.003306 182.543761 
L 146.692562 177.12807 
L 148.53719 177.12807 
L 150.381818 174.420224 
L 152.226446 174.420224 
L 154.071074 171.712379 
L 157.760331 171.712379 
L 159.604959 166.296687 
L 163.294215 163.588842 
L 166.983471 163.588842 
L 172.517355 155.465305 
L 178.05124 155.465305 
L 179.895868 152.75746 
L 181.740496 152.75746 
L 183.585124 150.049614 
L 185.429752 144.633923 
L 189.119008 144.633923 
L 192.808264 139.218232 
L 194.652893 139.218232 
L 196.497521 136.510386 
L 222.322314 136.510386 
L 224.166942 133.80254 
L 233.390083 133.80254 
L 235.234711 128.386849 
L 248.147107 128.386849 
L 249.991736 122.971158 
L 251.836364 120.263313 
L 257.370248 120.263313 
L 261.059504 117.555467 
L 262.904132 117.555467 
L 264.74876 114.847621 
L 266.593388 114.847621 
L 268.438017 112.139776 
L 270.282645 112.139776 
L 273.971901 106.724085 
L 275.816529 106.724085 
L 277.661157 104.016239 
L 279.505785 104.016239 
L 281.350413 98.600548 
L 283.195041 98.600548 
L 285.039669 95.892702 
L 290.573554 95.892702 
L 292.418182 93.184857 
L 297.952066 93.184857 
L 299.796694 90.477011 
L 305.330579 90.477011 
L 307.175207 87.769166 
L 312.709091 87.769166 
L 316.398347 82.353474 
L 318.242975 82.353474 
L 320.087603 79.645629 
L 323.77686 79.645629 
L 325.621488 71.522092 
L 329.310744 71.522092 
L 331.155372 68.814247 
L 334.844628 68.814247 
L 336.689256 63.398555 
L 338.533884 60.69071 
L 342.22314 60.69071 
L 345.912397 55.275019 
L 351.446281 55.275019 
L 353.290909 52.567173 
L 355.135537 47.151482 
L 356.980165 47.151482 
L 358.824793 44.443636 
L 358.824793 44.443636 
" clip-path="url(#p54d4ad08ac)" style="fill: none; stroke: #ff7f0e; stroke-width: 1.5; stroke-linecap: square"/>
   </g>
   <g id="line2d_19">
    <path d="M 69.218182 242.116364 
L 71.06281 242.116364 
L 72.907438 242.116364 
L 74.752066 242.116364 
L 76.596694 242.116364 
L 78.441322 239.408518 
L 80.28595 239.408518 
L 82.130579 239.408518 
L 83.975207 239.408518 
L 85.819835 239.408518 
L 87.664463 239.408518 
L 89.509091 239.408518 
L 91.353719 239.408518 
L 93.198347 233.992827 
L 95.042975 233.992827 
L 96.887603 233.992827 
L 98.732231 231.284981 
L 100.57686 231.284981 
L 102.421488 228.577136 
L 104.266116 225.86929 
L 107.955372 220.453599 
L 109.8 220.453599 
L 111.644628 217.745753 
L 113.489256 217.745753 
L 115.333884 217.745753 
L 117.178512 217.745753 
L 119.02314 217.745753 
L 120.867769 215.037908 
L 122.712397 215.037908 
L 124.557025 212.330062 
L 126.401653 209.622217 
L 128.246281 209.622217 
L 130.090909 209.622217 
L 131.935537 204.206526 
L 133.780165 204.206526 
L 135.624793 204.206526 
L 137.469421 204.206526 
L 139.31405 201.49868 
L 141.158678 201.49868 
L 143.003306 196.082989 
L 144.847934 196.082989 
L 146.692562 196.082989 
L 148.53719 196.082989 
L 150.381818 196.082989 
L 152.226446 196.082989 
L 154.071074 193.375143 
L 155.915702 193.375143 
L 159.604959 190.667298 
L 161.449587 190.667298 
L 163.294215 187.959452 
L 165.138843 185.251606 
L 166.983471 185.251606 
L 168.828099 182.543761 
L 170.672727 182.543761 
L 172.517355 182.543761 
L 174.361983 182.543761 
L 176.206612 177.12807 
L 178.05124 177.12807 
L 179.895868 177.12807 
L 181.740496 174.420224 
L 183.585124 174.420224 
L 185.429752 174.420224 
L 187.27438 174.420224 
L 189.119008 174.420224 
L 190.963636 174.420224 
L 192.808264 174.420224 
L 194.652893 169.004533 
L 196.497521 169.004533 
L 198.342149 169.004533 
L 200.186777 169.004533 
L 202.031405 166.296687 
L 203.876033 166.296687 
L 205.720661 166.296687 
L 207.565289 163.588842 
L 209.409917 163.588842 
L 213.099174 163.588842 
L 214.943802 163.588842 
L 216.78843 163.588842 
L 218.633058 163.588842 
L 220.477686 160.880996 
L 222.322314 160.880996 
L 224.166942 160.880996 
L 226.01157 160.880996 
L 227.856198 160.880996 
L 229.700826 160.880996 
L 231.545455 158.173151 
L 233.390083 158.173151 
L 235.234711 152.75746 
L 237.079339 152.75746 
L 238.923967 152.75746 
L 240.768595 150.049614 
L 242.613223 144.633923 
L 244.457851 144.633923 
L 246.302479 141.926077 
L 248.147107 139.218232 
L 249.991736 139.218232 
L 251.836364 136.510386 
L 253.680992 131.094695 
L 255.52562 128.386849 
L 257.370248 128.386849 
L 261.059504 125.679004 
L 262.904132 125.679004 
L 264.74876 125.679004 
L 266.593388 125.679004 
L 268.438017 125.679004 
L 270.282645 122.971158 
L 272.127273 122.971158 
L 273.971901 120.263313 
L 275.816529 117.555467 
L 277.661157 117.555467 
L 279.505785 117.555467 
L 281.350413 117.555467 
L 283.195041 117.555467 
L 285.039669 117.555467 
" clip-path="url(#p54d4ad08ac)" style="fill: none; stroke: #ff0000; stroke-width: 1.5; stroke-linecap: square"/>
   </g>
   <g id="patch_3">
    <path d="M 54 252 
L 54 34.56 
" style="fill: none; stroke: #000000; stroke-width: 0.8; stroke-linejoin: miter; stroke-linecap: square"/>
   </g>
   <g id="patch_4">
    <path d="M 388.8 252 
L 388.8 34.56 
" style="fill: none; stroke: #000000; stroke-width: 0.8; stroke-linejoin: miter; stroke-linecap: square"/>
   </g>
   <g id="patch_5">
    <path d="M 54 252 
L 388.8 252 
" style="fill: none; stroke: #000000; stroke-width: 0.8; stroke-linejoin: miter; stroke-linecap: square"/>
   </g>
   <g id="patch_6">
    <path d="M 54 34.56 
L 388.8 34.56 
" style="fill: none; stroke: #000000; stroke-width: 0.8; stroke-linejoin: miter; stroke-linecap: square"/>
   </g>
   <g id="text_18">
    <!-- Home Run Pace -->
    <g transform="translate(174.346875 28.56)scale(0.12 -0.12)">
     <defs>
      <path id="DejaVuSans-50" d="M 1259 4147 
L 1259 2394 
L 2053 2394 
Q 2494 2394 2734 2622 
Q 2975 2850 2975 3272 
Q 2975 3691 2734 3919 
Q 2494 4147 2053 4147 
L 1259 4147 
z
M 628 4666 
L 2053 4666 
Q 2838 4666 3239 4311 
Q 3641 3956 3641 3272 
Q 3641 2581 3239 2228 
Q 2838 1875 2053 1875 
L 1259 1875 
L 1259 0 
L 628 0 
L 628 4666 
z
" transform="scale(0.015625)"/>
      <path id="DejaVuSans-63" d="M 3122 3366 
L 3122 2828 
Q 2878 2963 2633 3030 
Q 2388 3097 2138 3097 
Q 1578 3097 1268 2742 
Q 959 2388 959 1747 
Q 959 1106 1268 751 
Q 1578 397 2138 397 
Q 2388 397 2633 464 
Q 2878 531 3122 666 
L 3122 134 
Q 2881 22 2623 -34 
Q 2366 -91 2075 -91 
Q 1284 -91 818 406 
Q 353 903 353 1747 
Q 353 2603 823 3093 
Q 1294 3584 2113 3584 
Q 2378 3584 2631 3529 
Q 2884 3475 3122 3366 
z
" transform="scale(0.015625)"/>
     </defs>
     <use xlink:href="#DejaVuSans-48"/>
     <use xlink:href="#DejaVuSans-6f" x="75.195312"/>
     <use xlink:href="#DejaVuSans-6d" x="136.376953"/>
     <use xlink:href="#DejaVuSans-65" x="233.789062"/>
     <use xlink:href="#DejaVuSans-20" x="295.3125"/>
     <use xlink:href="#DejaVuSans-52" x="327.099609"/>
     <use xlink:href="#DejaVuSans-75" x="392.082031"/>
     <use xlink:href="#DejaVuSans-6e" x="455.460938"/>
     <use xlink:href="#DejaVuSans-20" x="518.839844"/>
     <use xlink:href="#DejaVuSans-50" x="550.626953"/>
     <use xlink:href="#DejaVuSans-61" x="606.429688"/>
     <use xlink:href="#DejaVuSans-63" x="667.708984"/>
     <use xlink:href="#DejaVuSans-65" x="722.689453"/>
    </g>
   </g>
   <g id="legend_1">
    <g id="patch_7">
     <path d="M 252.360938 247 
L 381.8 247 
Q 383.8 247 383.8 245 
L 383.8 187.2875 
Q 383.8 185.2875 381.8 185.2875 
L 252.360938 185.2875 
Q 250.360938 185.2875 250.360938 187.2875 
L 250.360938 245 
Q 250.360938 247 252.360938 247 
z
" style="fill: #ffffff; opacity: 0.8; stroke: #cccccc; stroke-linejoin: miter"/>
    </g>
    <g id="line2d_20">
     <path d="M 254.360938 193.385938 
L 264.360937 193.385938 
L 274.360937 193.385938 
" style="fill: none; stroke: #008000; stroke-width: 1.5; stroke-linecap: square"/>
    </g>
    <g id="text_19">
     <!-- Babe Ruth (1927) -->
     <g transform="translate(282.360937 196.885938)scale(0.1 -0.1)">
      <defs>
       <path id="DejaVuSans-42" d="M 1259 2228 
L 1259 519 
L 2272 519 
Q 2781 519 3026 730 
Q 3272 941 3272 1375 
Q 3272 1813 3026 2020 
Q 2781 2228 2272 2228 
L 1259 2228 
z
M 1259 4147 
L 1259 2741 
L 2194 2741 
Q 2656 2741 2882 2914 
Q 3109 3088 3109 3444 
Q 3109 3797 2882 3972 
Q 2656 4147 2194 4147 
L 1259 4147 
z
M 628 4666 
L 2241 4666 
Q 2963 4666 3353 4366 
Q 3744 4066 3744 3513 
Q 3744 3084 3544 2831 
Q 3344 2578 2956 2516 
Q 3422 2416 3680 2098 
Q 3938 1781 3938 1306 
Q 3938 681 3513 340 
Q 3088 0 2303 0 
L 628 0 
L 628 4666 
z
" transform="scale(0.015625)"/>
       <path id="DejaVuSans-62" d="M 3116 1747 
Q 3116 2381 2855 2742 
Q 2594 3103 2138 3103 
Q 1681 3103 1420 2742 
Q 1159 2381 1159 1747 
Q 1159 1113 1420 752 
Q 1681 391 2138 391 
Q 2594 391 2855 752 
Q 3116 1113 3116 1747 
z
M 1159 2969 
Q 1341 3281 1617 3432 
Q 1894 3584 2278 3584 
Q 2916 3584 3314 3078 
Q 3713 2572 3713 1747 
Q 3713 922 3314 415 
Q 2916 -91 2278 -91 
Q 1894 -91 1617 61 
Q 1341 213 1159 525 
L 1159 0 
L 581 0 
L 581 4863 
L 1159 4863 
L 1159 2969 
z
" transform="scale(0.015625)"/>
       <path id="DejaVuSans-74" d="M 1172 4494 
L 1172 3500 
L 2356 3500 
L 2356 3053 
L 1172 3053 
L 1172 1153 
Q 1172 725 1289 603 
Q 1406 481 1766 481 
L 2356 481 
L 2356 0 
L 1766 0 
Q 1100 0 847 248 
Q 594 497 594 1153 
L 594 3053 
L 172 3053 
L 172 3500 
L 594 3500 
L 594 4494 
L 1172 4494 
z
" transform="scale(0.015625)"/>
       <path id="DejaVuSans-68" d="M 3513 2113 
L 3513 0 
L 2938 0 
L 2938 2094 
Q 2938 2591 2744 2837 
Q 2550 3084 2163 3084 
Q 1697 3084 1428 2787 
Q 1159 2491 1159 1978 
L 1159 0 
L 581 0 
L 581 4863 
L 1159 4863 
L 1159 2956 
Q 1366 3272 1645 3428 
Q 1925 3584 2291 3584 
Q 2894 3584 3203 3211 
Q 3513 2838 3513 2113 
z
" transform="scale(0.015625)"/>
       <path id="DejaVuSans-28" d="M 1984 4856 
Q 1566 4138 1362 3434 
Q 1159 2731 1159 2009 
Q 1159 1288 1364 580 
Q 1569 -128 1984 -844 
L 1484 -844 
Q 1016 -109 783 600 
Q 550 1309 550 2009 
Q 550 2706 781 3412 
Q 1013 4119 1484 4856 
L 1984 4856 
z
" transform="scale(0.015625)"/>
       <path id="DejaVuSans-39" d="M 703 97 
L 703 672 
Q 941 559 1184 500 
Q 1428 441 1663 441 
Q 2288 441 2617 861 
Q 2947 1281 2994 2138 
Q 2813 1869 2534 1725 
Q 2256 1581 1919 1581 
Q 1219 1581 811 2004 
Q 403 2428 403 3163 
Q 403 3881 828 4315 
Q 1253 4750 1959 4750 
Q 2769 4750 3195 4129 
Q 3622 3509 3622 2328 
Q 3622 1225 3098 567 
Q 2575 -91 1691 -91 
Q 1453 -91 1209 -44 
Q 966 3 703 97 
z
M 1959 2075 
Q 2384 2075 2632 2365 
Q 2881 2656 2881 3163 
Q 2881 3666 2632 3958 
Q 2384 4250 1959 4250 
Q 1534 4250 1286 3958 
Q 1038 3666 1038 3163 
Q 1038 2656 1286 2365 
Q 1534 2075 1959 2075 
z
" transform="scale(0.015625)"/>
       <path id="DejaVuSans-29" d="M 513 4856 
L 1013 4856 
Q 1481 4119 1714 3412 
Q 1947 2706 1947 2009 
Q 1947 1309 1714 600 
Q 1481 -109 1013 -844 
L 513 -844 
Q 928 -128 1133 580 
Q 1338 1288 1338 2009 
Q 1338 2731 1133 3434 
Q 928 4138 513 4856 
z
" transform="scale(0.015625)"/>
      </defs>
      <use xlink:href="#DejaVuSans-42"/>
      <use xlink:href="#DejaVuSans-61" x="68.603516"/>
      <use xlink:href="#DejaVuSans-62" x="129.882812"/>
      <use xlink:href="#DejaVuSans-65" x="193.359375"/>
      <use xlink:href="#DejaVuSans-20" x="254.882812"/>
      <use xlink:href="#DejaVuSans-52" x="286.669922"/>
      <use xlink:href="#DejaVuSans-75" x="351.652344"/>
      <use xlink:href="#DejaVuSans-74" x="415.03125"/>
      <use xlink:href="#DejaVuSans-68" x="454.240234"/>
      <use xlink:href="#DejaVuSans-20" x="517.619141"/>
      <use xlink:href="#DejaVuSans-28" x="549.40625"/>
      <use xlink:href="#DejaVuSans-31" x="588.419922"/>
      <use xlink:href="#DejaVuSans-39" x="652.042969"/>
      <use xlink:href="#DejaVuSans-32" x="715.666016"/>
      <use xlink:href="#DejaVuSans-37" x="779.289062"/>
      <use xlink:href="#DejaVuSans-29" x="842.912109"/>
     </g>
    </g>
    <g id="line2d_21">
     <path d="M 254.360938 208.064063 
L 264.360937 208.064063 
L 274.360937 208.064063 
" style="fill: none; stroke: #0000ff; stroke-width: 1.5; stroke-linecap: square"/>
    </g>
    <g id="text_20">
     <!-- Roger Maris (1961) -->
     <g transform="translate(282.360937 211.564063)scale(0.1 -0.1)">
      <defs>
       <path id="DejaVuSans-67" d="M 2906 1791 
Q 2906 2416 2648 2759 
Q 2391 3103 1925 3103 
Q 1463 3103 1205 2759 
Q 947 2416 947 1791 
Q 947 1169 1205 825 
Q 1463 481 1925 481 
Q 2391 481 2648 825 
Q 2906 1169 2906 1791 
z
M 3481 434 
Q 3481 -459 3084 -895 
Q 2688 -1331 1869 -1331 
Q 1566 -1331 1297 -1286 
Q 1028 -1241 775 -1147 
L 775 -588 
Q 1028 -725 1275 -790 
Q 1522 -856 1778 -856 
Q 2344 -856 2625 -561 
Q 2906 -266 2906 331 
L 2906 616 
Q 2728 306 2450 153 
Q 2172 0 1784 0 
Q 1141 0 747 490 
Q 353 981 353 1791 
Q 353 2603 747 3093 
Q 1141 3584 1784 3584 
Q 2172 3584 2450 3431 
Q 2728 3278 2906 2969 
L 2906 3500 
L 3481 3500 
L 3481 434 
z
" transform="scale(0.015625)"/>
       <path id="DejaVuSans-72" d="M 2631 2963 
Q 2534 3019 2420 3045 
Q 2306 3072 2169 3072 
Q 1681 3072 1420 2755 
Q 1159 2438 1159 1844 
L 1159 0 
L 581 0 
L 581 3500 
L 1159 3500 
L 1159 2956 
Q 1341 3275 1631 3429 
Q 1922 3584 2338 3584 
Q 2397 3584 2469 3576 
Q 2541 3569 2628 3553 
L 2631 2963 
z
" transform="scale(0.015625)"/>
       <path id="DejaVuSans-4d" d="M 628 4666 
L 1569 4666 
L 2759 1491 
L 3956 4666 
L 4897 4666 
L 4897 0 
L 4281 0 
L 4281 4097 
L 3078 897 
L 2444 897 
L 1241 4097 
L 1241 0 
L 628 0 
L 628 4666 
z
" transform="scale(0.015625)"/>
       <path id="DejaVuSans-69" d="M 603 3500 
L 1178 3500 
L 1178 0 
L 603 0 
L 603 3500 
z
M 603 4863 
L 1178 4863 
L 1178 4134 
L 603 4134 
L 603 4863 
z
" transform="scale(0.015625)"/>
      </defs>
      <use xlink:href="#DejaVuSans-52"/>
      <use xlink:href="#DejaVuSans-6f" x="64.982422"/>
      <use xlink:href="#DejaVuSans-67" x="126.164062"/>
      <use xlink:href="#DejaVuSans-65" x="189.640625"/>
      <use xlink:href="#DejaVuSans-72" x="251.164062"/>
      <use xlink:href="#DejaVuSans-20" x="292.277344"/>
      <use xlink:href="#DejaVuSans-4d" x="324.064453"/>
      <use xlink:href="#DejaVuSans-61" x="410.34375"/>
      <use xlink:href="#DejaVuSans-72" x="471.623047"/>
      <use xlink:href="#DejaVuSans-69" x="512.736328"/>
      <use xlink:href="#DejaVuSans-73" x="540.519531"/>
      <use xlink:href="#DejaVuSans-20" x="592.619141"/>
      <use xlink:href="#DejaVuSans-28" x="624.40625"/>
      <use xlink:href="#DejaVuSans-31" x="663.419922"/>
      <use xlink:href="#DejaVuSans-39" x="727.042969"/>
      <use xlink:href="#DejaVuSans-36" x="790.666016"/>
      <use xlink:href="#DejaVuSans-31" x="854.289062"/>
      <use xlink:href="#DejaVuSans-29" x="917.912109"/>
     </g>
    </g>
    <g id="line2d_22">
     <path d="M 254.360938 222.742188 
L 264.360937 222.742188 
L 274.360937 222.742188 
" style="fill: none; stroke: #ff7f0e; stroke-width: 1.5; stroke-linecap: square"/>
    </g>
    <g id="text_21">
     <!-- Barry Bonds (2001) -->
     <g transform="translate(282.360937 226.242188)scale(0.1 -0.1)">
      <defs>
       <path id="DejaVuSans-79" d="M 2059 -325 
Q 1816 -950 1584 -1140 
Q 1353 -1331 966 -1331 
L 506 -1331 
L 506 -850 
L 844 -850 
Q 1081 -850 1212 -737 
Q 1344 -625 1503 -206 
L 1606 56 
L 191 3500 
L 800 3500 
L 1894 763 
L 2988 3500 
L 3597 3500 
L 2059 -325 
z
" transform="scale(0.015625)"/>
       <path id="DejaVuSans-64" d="M 2906 2969 
L 2906 4863 
L 3481 4863 
L 3481 0 
L 2906 0 
L 2906 525 
Q 2725 213 2448 61 
Q 2172 -91 1784 -91 
Q 1150 -91 751 415 
Q 353 922 353 1747 
Q 353 2572 751 3078 
Q 1150 3584 1784 3584 
Q 2172 3584 2448 3432 
Q 2725 3281 2906 2969 
z
M 947 1747 
Q 947 1113 1208 752 
Q 1469 391 1925 391 
Q 2381 391 2643 752 
Q 2906 1113 2906 1747 
Q 2906 2381 2643 2742 
Q 2381 3103 1925 3103 
Q 1469 3103 1208 2742 
Q 947 2381 947 1747 
z
" transform="scale(0.015625)"/>
      </defs>
      <use xlink:href="#DejaVuSans-42"/>
      <use xlink:href="#DejaVuSans-61" x="68.603516"/>
      <use xlink:href="#DejaVuSans-72" x="129.882812"/>
      <use xlink:href="#DejaVuSans-72" x="169.246094"/>
      <use xlink:href="#DejaVuSans-79" x="210.359375"/>
      <use xlink:href="#DejaVuSans-20" x="269.539062"/>
      <use xlink:href="#DejaVuSans-42" x="301.326172"/>
      <use xlink:href="#DejaVuSans-6f" x="369.929688"/>
      <use xlink:href="#DejaVuSans-6e" x="431.111328"/>
      <use xlink:href="#DejaVuSans-64" x="494.490234"/>
      <use xlink:href="#DejaVuSans-73" x="557.966797"/>
      <use xlink:href="#DejaVuSans-20" x="610.066406"/>
      <use xlink:href="#DejaVuSans-28" x="641.853516"/>
      <use xlink:href="#DejaVuSans-32" x="680.867188"/>
      <use xlink:href="#DejaVuSans-30" x="744.490234"/>
      <use xlink:href="#DejaVuSans-30" x="808.113281"/>
      <use xlink:href="#DejaVuSans-31" x="871.736328"/>
      <use xlink:href="#DejaVuSans-29" x="935.359375"/>
     </g>
    </g>
    <g id="line2d_23">
     <path d="M 254.360938 237.420312 
L 264.360937 237.420312 
L 274.360937 237.420312 
" style="fill: none; stroke: #ff0000; stroke-width: 1.5; stroke-linecap: square"/>
    </g>
    <g id="text_22">
     <!-- Aaron Judge (2022) -->
     <g transform="translate(282.360937 240.920312)scale(0.1 -0.1)">
      <defs>
       <path id="DejaVuSans-41" d="M 2188 4044 
L 1331 1722 
L 3047 1722 
L 2188 4044 
z
M 1831 4666 
L 2547 4666 
L 4325 0 
L 3669 0 
L 3244 1197 
L 1141 1197 
L 716 0 
L 50 0 
L 1831 4666 
z
" transform="scale(0.015625)"/>
       <path id="DejaVuSans-4a" d="M 628 4666 
L 1259 4666 
L 1259 325 
Q 1259 -519 939 -900 
Q 619 -1281 -91 -1281 
L -331 -1281 
L -331 -750 
L -134 -750 
Q 284 -750 456 -515 
Q 628 -281 628 325 
L 628 4666 
z
" transform="scale(0.015625)"/>
      </defs>
      <use xlink:href="#DejaVuSans-41"/>
      <use xlink:href="#DejaVuSans-61" x="68.408203"/>
      <use xlink:href="#DejaVuSans-72" x="129.6875"/>
      <use xlink:href="#DejaVuSans-6f" x="168.550781"/>
      <use xlink:href="#DejaVuSans-6e" x="229.732422"/>
      <use xlink:href="#DejaVuSans-20" x="293.111328"/>
      <use xlink:href="#DejaVuSans-4a" x="324.898438"/>
      <use xlink:href="#DejaVuSans-75" x="354.390625"/>
      <use xlink:href="#DejaVuSans-64" x="417.769531"/>
      <use xlink:href="#DejaVuSans-67" x="481.246094"/>
      <use xlink:href="#DejaVuSans-65" x="544.722656"/>
      <use xlink:href="#DejaVuSans-20" x="606.246094"/>
      <use xlink:href="#DejaVuSans-28" x="638.033203"/>
      <use xlink:href="#DejaVuSans-32" x="677.046875"/>
      <use xlink:href="#DejaVuSans-30" x="740.669922"/>
      <use xlink:href="#DejaVuSans-32" x="804.292969"/>
      <use xlink:href="#DejaVuSans-32" x="867.916016"/>
      <use xlink:href="#DejaVuSans-29" x="931.539062"/>
     </g>
    </g>
   </g>
  </g>
 </g>
 <defs>
  <clipPath id="p54d4ad08ac">
   <rect x="54" y="34.56" width="334.8" height="217.44"/>
  </clipPath>
 </defs>
</svg>
