<?xml version="1.0" encoding="utf-8" standalone="no"?>
<!DOCTYPE svg PUBLIC "-//W3C//DTD SVG 1.1//EN"
  "http://www.w3.org/Graphics/SVG/1.1/DTD/svg11.dtd">
<svg xmlns:xlink="http://www.w3.org/1999/xlink" width="460.8pt" height="345.6pt" viewBox="0 0 460.8 345.6" xmlns="http://www.w3.org/2000/svg" version="1.1">
 <metadata>
  <rdf:RDF xmlns:dc="http://purl.org/dc/elements/1.1/" xmlns:cc="http://creativecommons.org/ns#" xmlns:rdf="http://www.w3.org/1999/02/22-rdf-syntax-ns#">
   <cc:Work>
    <dc:type rdf:resource="http://purl.org/dc/dcmitype/StillImage"/>
    <dc:date>2022-10-04T13:46:46.945994</dc:date>
    <dc:format>image/svg+xml</dc:format>
    <dc:creator>
     <cc:Agent>
      <dc:title>Matplotlib v3.6.0, https://matplotlib.org/</dc:title>
     </cc:Agent>
    </dc:creator>
   </cc:Work>
  </rdf:RDF>
 </metadata>
 <defs>
  <style type="text/css">*{stroke-linejoin: round; stroke-linecap: butt}</style>
 </defs>
 <g id="figure_1">
  <g id="patch_1">
   <path d="M 0 345.6 
L 460.8 345.6 
L 460.8 0 
L 0 0 
z
" style="fill: #ffffff"/>
  </g>
  <g id="axes_1">
   <g id="patch_2">
    <path d="M 57.6 307.584 
L 414.72 307.584 
L 414.72 41.472 
L 57.6 41.472 
z
" style="fill: #ffffff"/>
   </g>
   <g id="matplotlib.axis_1">
    <g id="xtick_1">
     <g id="line2d_1">
      <defs>
       <path id="meb98764521" d="M 0 0 
L 0 3.5 
" style="stroke: #000000; stroke-width: 0.8"/>
      </defs>
      <g>
       <use xlink:href="#meb98764521" x="73.832727" y="307.584" style="stroke: #000000; stroke-width: 0.8"/>
      </g>
     </g>
     <g id="text_1">
      <!-- 0 -->
      <g transform="translate(70.651477 322.182437) scale(0.1 -0.1)">
       <defs>
        <path id="DejaVuSans-30" d="M 2034 4250 
Q 1547 4250 1301 3770 
Q 1056 3291 1056 2328 
Q 1056 1369 1301 889 
Q 1547 409 2034 409 
Q 2525 409 2770 889 
Q 3016 1369 3016 2328 
Q 3016 3291 2770 3770 
Q 2525 4250 2034 4250 
z
M 2034 4750 
Q 2819 4750 3233 4129 
Q 3647 3509 3647 2328 
Q 3647 1150 3233 529 
Q 2819 -91 2034 -91 
Q 1250 -91 836 529 
Q 422 1150 422 2328 
Q 422 3509 836 4129 
Q 1250 4750 2034 4750 
z
" transform="scale(0.015625)"/>
       </defs>
       <use xlink:href="#DejaVuSans-30"/>
      </g>
     </g>
    </g>
    <g id="xtick_2">
     <g id="line2d_2">
      <g>
       <use xlink:href="#meb98764521" x="123.322749" y="307.584" style="stroke: #000000; stroke-width: 0.8"/>
      </g>
     </g>
     <g id="text_2">
      <!-- 25 -->
      <g transform="translate(116.960249 322.182437) scale(0.1 -0.1)">
       <defs>
        <path id="DejaVuSans-32" d="M 1228 531 
L 3431 531 
L 3431 0 
L 469 0 
L 469 531 
Q 828 903 1448 1529 
Q 2069 2156 2228 2338 
Q 2531 2678 2651 2914 
Q 2772 3150 2772 3378 
Q 2772 3750 2511 3984 
Q 2250 4219 1831 4219 
Q 1534 4219 1204 4116 
Q 875 4013 500 3803 
L 500 4441 
Q 881 4594 1212 4672 
Q 1544 4750 1819 4750 
Q 2544 4750 2975 4387 
Q 3406 4025 3406 3419 
Q 3406 3131 3298 2873 
Q 3191 2616 2906 2266 
Q 2828 2175 2409 1742 
Q 1991 1309 1228 531 
z
" transform="scale(0.015625)"/>
        <path id="DejaVuSans-35" d="M 691 4666 
L 3169 4666 
L 3169 4134 
L 1269 4134 
L 1269 2991 
Q 1406 3038 1543 3061 
Q 1681 3084 1819 3084 
Q 2600 3084 3056 2656 
Q 3513 2228 3513 1497 
Q 3513 744 3044 326 
Q 2575 -91 1722 -91 
Q 1428 -91 1123 -41 
Q 819 9 494 109 
L 494 744 
Q 775 591 1075 516 
Q 1375 441 1709 441 
Q 2250 441 2565 725 
Q 2881 1009 2881 1497 
Q 2881 1984 2565 2268 
Q 2250 2553 1709 2553 
Q 1456 2553 1204 2497 
Q 953 2441 691 2322 
L 691 4666 
z
" transform="scale(0.015625)"/>
       </defs>
       <use xlink:href="#DejaVuSans-32"/>
       <use xlink:href="#DejaVuSans-35" x="63.623047"/>
      </g>
     </g>
    </g>
    <g id="xtick_3">
     <g id="line2d_3">
      <g>
       <use xlink:href="#meb98764521" x="172.812772" y="307.584" style="stroke: #000000; stroke-width: 0.8"/>
      </g>
     </g>
     <g id="text_3">
      <!-- 50 -->
      <g transform="translate(166.450272 322.182437) scale(0.1 -0.1)">
       <use xlink:href="#DejaVuSans-35"/>
       <use xlink:href="#DejaVuSans-30" x="63.623047"/>
      </g>
     </g>
    </g>
    <g id="xtick_4">
     <g id="line2d_4">
      <g>
       <use xlink:href="#meb98764521" x="222.302794" y="307.584" style="stroke: #000000; stroke-width: 0.8"/>
      </g>
     </g>
     <g id="text_4">
      <!-- 75 -->
      <g transform="translate(215.940294 322.182437) scale(0.1 -0.1)">
       <defs>
        <path id="DejaVuSans-37" d="M 525 4666 
L 3525 4666 
L 3525 4397 
L 1831 0 
L 1172 0 
L 2766 4134 
L 525 4134 
L 525 4666 
z
" transform="scale(0.015625)"/>
       </defs>
       <use xlink:href="#DejaVuSans-37"/>
       <use xlink:href="#DejaVuSans-35" x="63.623047"/>
      </g>
     </g>
    </g>
    <g id="xtick_5">
     <g id="line2d_5">
      <g>
       <use xlink:href="#meb98764521" x="271.792816" y="307.584" style="stroke: #000000; stroke-width: 0.8"/>
      </g>
     </g>
     <g id="text_5">
      <!-- 100 -->
      <g transform="translate(262.249066 322.182437) scale(0.1 -0.1)">
       <defs>
        <path id="DejaVuSans-31" d="M 794 531 
L 1825 531 
L 1825 4091 
L 703 3866 
L 703 4441 
L 1819 4666 
L 2450 4666 
L 2450 531 
L 3481 531 
L 3481 0 
L 794 0 
L 794 531 
z
" transform="scale(0.015625)"/>
       </defs>
       <use xlink:href="#DejaVuSans-31"/>
       <use xlink:href="#DejaVuSans-30" x="63.623047"/>
       <use xlink:href="#DejaVuSans-30" x="127.246094"/>
      </g>
     </g>
    </g>
    <g id="xtick_6">
     <g id="line2d_6">
      <g>
       <use xlink:href="#meb98764521" x="321.282838" y="307.584" style="stroke: #000000; stroke-width: 0.8"/>
      </g>
     </g>
     <g id="text_6">
      <!-- 125 -->
      <g transform="translate(311.739088 322.182437) scale(0.1 -0.1)">
       <use xlink:href="#DejaVuSans-31"/>
       <use xlink:href="#DejaVuSans-32" x="63.623047"/>
       <use xlink:href="#DejaVuSans-35" x="127.246094"/>
      </g>
     </g>
    </g>
    <g id="xtick_7">
     <g id="line2d_7">
      <g>
       <use xlink:href="#meb98764521" x="370.77286" y="307.584" style="stroke: #000000; stroke-width: 0.8"/>
      </g>
     </g>
     <g id="text_7">
      <!-- 150 -->
      <g transform="translate(361.22911 322.182437) scale(0.1 -0.1)">
       <use xlink:href="#DejaVuSans-31"/>
       <use xlink:href="#DejaVuSans-35" x="63.623047"/>
       <use xlink:href="#DejaVuSans-30" x="127.246094"/>
      </g>
     </g>
    </g>
    <g id="text_8">
     <!-- Games -->
     <g transform="translate(218.670156 335.860562) scale(0.1 -0.1)">
      <defs>
       <path id="DejaVuSans-47" d="M 3809 666 
L 3809 1919 
L 2778 1919 
L 2778 2438 
L 4434 2438 
L 4434 434 
Q 4069 175 3628 42 
Q 3188 -91 2688 -91 
Q 1594 -91 976 548 
Q 359 1188 359 2328 
Q 359 3472 976 4111 
Q 1594 4750 2688 4750 
Q 3144 4750 3555 4637 
Q 3966 4525 4313 4306 
L 4313 3634 
Q 3963 3931 3569 4081 
Q 3175 4231 2741 4231 
Q 1884 4231 1454 3753 
Q 1025 3275 1025 2328 
Q 1025 1384 1454 906 
Q 1884 428 2741 428 
Q 3075 428 3337 486 
Q 3600 544 3809 666 
z
" transform="scale(0.015625)"/>
       <path id="DejaVuSans-61" d="M 2194 1759 
Q 1497 1759 1228 1600 
Q 959 1441 959 1056 
Q 959 750 1161 570 
Q 1363 391 1709 391 
Q 2188 391 2477 730 
Q 2766 1069 2766 1631 
L 2766 1759 
L 2194 1759 
z
M 3341 1997 
L 3341 0 
L 2766 0 
L 2766 531 
Q 2569 213 2275 61 
Q 1981 -91 1556 -91 
Q 1019 -91 701 211 
Q 384 513 384 1019 
Q 384 1609 779 1909 
Q 1175 2209 1959 2209 
L 2766 2209 
L 2766 2266 
Q 2766 2663 2505 2880 
Q 2244 3097 1772 3097 
Q 1472 3097 1187 3025 
Q 903 2953 641 2809 
L 641 3341 
Q 956 3463 1253 3523 
Q 1550 3584 1831 3584 
Q 2591 3584 2966 3190 
Q 3341 2797 3341 1997 
z
" transform="scale(0.015625)"/>
       <path id="DejaVuSans-6d" d="M 3328 2828 
Q 3544 3216 3844 3400 
Q 4144 3584 4550 3584 
Q 5097 3584 5394 3201 
Q 5691 2819 5691 2113 
L 5691 0 
L 5113 0 
L 5113 2094 
Q 5113 2597 4934 2840 
Q 4756 3084 4391 3084 
Q 3944 3084 3684 2787 
Q 3425 2491 3425 1978 
L 3425 0 
L 2847 0 
L 2847 2094 
Q 2847 2600 2669 2842 
Q 2491 3084 2119 3084 
Q 1678 3084 1418 2786 
Q 1159 2488 1159 1978 
L 1159 0 
L 581 0 
L 581 3500 
L 1159 3500 
L 1159 2956 
Q 1356 3278 1631 3431 
Q 1906 3584 2284 3584 
Q 2666 3584 2933 3390 
Q 3200 3197 3328 2828 
z
" transform="scale(0.015625)"/>
       <path id="DejaVuSans-65" d="M 3597 1894 
L 3597 1613 
L 953 1613 
Q 991 1019 1311 708 
Q 1631 397 2203 397 
Q 2534 397 2845 478 
Q 3156 559 3463 722 
L 3463 178 
Q 3153 47 2828 -22 
Q 2503 -91 2169 -91 
Q 1331 -91 842 396 
Q 353 884 353 1716 
Q 353 2575 817 3079 
Q 1281 3584 2069 3584 
Q 2775 3584 3186 3129 
Q 3597 2675 3597 1894 
z
M 3022 2063 
Q 3016 2534 2758 2815 
Q 2500 3097 2075 3097 
Q 1594 3097 1305 2825 
Q 1016 2553 972 2059 
L 3022 2063 
z
" transform="scale(0.015625)"/>
       <path id="DejaVuSans-73" d="M 2834 3397 
L 2834 2853 
Q 2591 2978 2328 3040 
Q 2066 3103 1784 3103 
Q 1356 3103 1142 2972 
Q 928 2841 928 2578 
Q 928 2378 1081 2264 
Q 1234 2150 1697 2047 
L 1894 2003 
Q 2506 1872 2764 1633 
Q 3022 1394 3022 966 
Q 3022 478 2636 193 
Q 2250 -91 1575 -91 
Q 1294 -91 989 -36 
Q 684 19 347 128 
L 347 722 
Q 666 556 975 473 
Q 1284 391 1588 391 
Q 1994 391 2212 530 
Q 2431 669 2431 922 
Q 2431 1156 2273 1281 
Q 2116 1406 1581 1522 
L 1381 1569 
Q 847 1681 609 1914 
Q 372 2147 372 2553 
Q 372 3047 722 3315 
Q 1072 3584 1716 3584 
Q 2034 3584 2315 3537 
Q 2597 3491 2834 3397 
z
" transform="scale(0.015625)"/>
      </defs>
      <use xlink:href="#DejaVuSans-47"/>
      <use xlink:href="#DejaVuSans-61" x="77.490234"/>
      <use xlink:href="#DejaVuSans-6d" x="138.769531"/>
      <use xlink:href="#DejaVuSans-65" x="236.181641"/>
      <use xlink:href="#DejaVuSans-73" x="297.705078"/>
     </g>
    </g>
   </g>
   <g id="matplotlib.axis_2">
    <g id="ytick_1">
     <g id="line2d_8">
      <defs>
       <path id="ma88d1b49ed" d="M 0 0 
L -3.5 0 
" style="stroke: #000000; stroke-width: 0.8"/>
      </defs>
      <g>
       <use xlink:href="#ma88d1b49ed" x="57.6" y="282.691224" style="stroke: #000000; stroke-width: 0.8"/>
      </g>
     </g>
     <g id="text_9">
      <!-- 0 -->
      <g transform="translate(44.2375 286.490443) scale(0.1 -0.1)">
       <use xlink:href="#DejaVuSans-30"/>
      </g>
     </g>
    </g>
    <g id="ytick_2">
     <g id="line2d_9">
      <g>
       <use xlink:href="#ma88d1b49ed" x="57.6" y="252.22271" style="stroke: #000000; stroke-width: 0.8"/>
      </g>
     </g>
     <g id="text_10">
      <!-- 50 -->
      <g transform="translate(37.875 256.021929) scale(0.1 -0.1)">
       <use xlink:href="#DejaVuSans-35"/>
       <use xlink:href="#DejaVuSans-30" x="63.623047"/>
      </g>
     </g>
    </g>
    <g id="ytick_3">
     <g id="line2d_10">
      <g>
       <use xlink:href="#ma88d1b49ed" x="57.6" y="221.754196" style="stroke: #000000; stroke-width: 0.8"/>
      </g>
     </g>
     <g id="text_11">
      <!-- 100 -->
      <g transform="translate(31.5125 225.553415) scale(0.1 -0.1)">
       <use xlink:href="#DejaVuSans-31"/>
       <use xlink:href="#DejaVuSans-30" x="63.623047"/>
       <use xlink:href="#DejaVuSans-30" x="127.246094"/>
      </g>
     </g>
    </g>
    <g id="ytick_4">
     <g id="line2d_11">
      <g>
       <use xlink:href="#ma88d1b49ed" x="57.6" y="191.285683" style="stroke: #000000; stroke-width: 0.8"/>
      </g>
     </g>
     <g id="text_12">
      <!-- 150 -->
      <g transform="translate(31.5125 195.084901) scale(0.1 -0.1)">
       <use xlink:href="#DejaVuSans-31"/>
       <use xlink:href="#DejaVuSans-35" x="63.623047"/>
       <use xlink:href="#DejaVuSans-30" x="127.246094"/>
      </g>
     </g>
    </g>
    <g id="ytick_5">
     <g id="line2d_12">
      <g>
       <use xlink:href="#ma88d1b49ed" x="57.6" y="160.817169" style="stroke: #000000; stroke-width: 0.8"/>
      </g>
     </g>
     <g id="text_13">
      <!-- 200 -->
      <g transform="translate(31.5125 164.616388) scale(0.1 -0.1)">
       <use xlink:href="#DejaVuSans-32"/>
       <use xlink:href="#DejaVuSans-30" x="63.623047"/>
       <use xlink:href="#DejaVuSans-30" x="127.246094"/>
      </g>
     </g>
    </g>
    <g id="ytick_6">
     <g id="line2d_13">
      <g>
       <use xlink:href="#ma88d1b49ed" x="57.6" y="130.348655" style="stroke: #000000; stroke-width: 0.8"/>
      </g>
     </g>
     <g id="text_14">
      <!-- 250 -->
      <g transform="translate(31.5125 134.147874) scale(0.1 -0.1)">
       <use xlink:href="#DejaVuSans-32"/>
       <use xlink:href="#DejaVuSans-35" x="63.623047"/>
       <use xlink:href="#DejaVuSans-30" x="127.246094"/>
      </g>
     </g>
    </g>
    <g id="ytick_7">
     <g id="line2d_14">
      <g>
       <use xlink:href="#ma88d1b49ed" x="57.6" y="99.880141" style="stroke: #000000; stroke-width: 0.8"/>
      </g>
     </g>
     <g id="text_15">
      <!-- 300 -->
      <g transform="translate(31.5125 103.67936) scale(0.1 -0.1)">
       <defs>
        <path id="DejaVuSans-33" d="M 2597 2516 
Q 3050 2419 3304 2112 
Q 3559 1806 3559 1356 
Q 3559 666 3084 287 
Q 2609 -91 1734 -91 
Q 1441 -91 1130 -33 
Q 819 25 488 141 
L 488 750 
Q 750 597 1062 519 
Q 1375 441 1716 441 
Q 2309 441 2620 675 
Q 2931 909 2931 1356 
Q 2931 1769 2642 2001 
Q 2353 2234 1838 2234 
L 1294 2234 
L 1294 2753 
L 1863 2753 
Q 2328 2753 2575 2939 
Q 2822 3125 2822 3475 
Q 2822 3834 2567 4026 
Q 2313 4219 1838 4219 
Q 1578 4219 1281 4162 
Q 984 4106 628 3988 
L 628 4550 
Q 988 4650 1302 4700 
Q 1616 4750 1894 4750 
Q 2613 4750 3031 4423 
Q 3450 4097 3450 3541 
Q 3450 3153 3228 2886 
Q 3006 2619 2597 2516 
z
" transform="scale(0.015625)"/>
       </defs>
       <use xlink:href="#DejaVuSans-33"/>
       <use xlink:href="#DejaVuSans-30" x="63.623047"/>
       <use xlink:href="#DejaVuSans-30" x="127.246094"/>
      </g>
     </g>
    </g>
    <g id="ytick_8">
     <g id="line2d_15">
      <g>
       <use xlink:href="#ma88d1b49ed" x="57.6" y="69.411627" style="stroke: #000000; stroke-width: 0.8"/>
      </g>
     </g>
     <g id="text_16">
      <!-- 350 -->
      <g transform="translate(31.5125 73.210846) scale(0.1 -0.1)">
       <use xlink:href="#DejaVuSans-33"/>
       <use xlink:href="#DejaVuSans-35" x="63.623047"/>
       <use xlink:href="#DejaVuSans-30" x="127.246094"/>
      </g>
     </g>
    </g>
    <g id="text_17">
     <!-- Runs Scored - Runs Against -->
     <g transform="translate(25.432812 243.028781) rotate(-90) scale(0.1 -0.1)">
      <defs>
       <path id="DejaVuSans-52" d="M 2841 2188 
Q 3044 2119 3236 1894 
Q 3428 1669 3622 1275 
L 4263 0 
L 3584 0 
L 2988 1197 
Q 2756 1666 2539 1819 
Q 2322 1972 1947 1972 
L 1259 1972 
L 1259 0 
L 628 0 
L 628 4666 
L 2053 4666 
Q 2853 4666 3247 4331 
Q 3641 3997 3641 3322 
Q 3641 2881 3436 2590 
Q 3231 2300 2841 2188 
z
M 1259 4147 
L 1259 2491 
L 2053 2491 
Q 2509 2491 2742 2702 
Q 2975 2913 2975 3322 
Q 2975 3731 2742 3939 
Q 2509 4147 2053 4147 
L 1259 4147 
z
" transform="scale(0.015625)"/>
       <path id="DejaVuSans-75" d="M 544 1381 
L 544 3500 
L 1119 3500 
L 1119 1403 
Q 1119 906 1312 657 
Q 1506 409 1894 409 
Q 2359 409 2629 706 
Q 2900 1003 2900 1516 
L 2900 3500 
L 3475 3500 
L 3475 0 
L 2900 0 
L 2900 538 
Q 2691 219 2414 64 
Q 2138 -91 1772 -91 
Q 1169 -91 856 284 
Q 544 659 544 1381 
z
M 1991 3584 
L 1991 3584 
z
" transform="scale(0.015625)"/>
       <path id="DejaVuSans-6e" d="M 3513 2113 
L 3513 0 
L 2938 0 
L 2938 2094 
Q 2938 2591 2744 2837 
Q 2550 3084 2163 3084 
Q 1697 3084 1428 2787 
Q 1159 2491 1159 1978 
L 1159 0 
L 581 0 
L 581 3500 
L 1159 3500 
L 1159 2956 
Q 1366 3272 1645 3428 
Q 1925 3584 2291 3584 
Q 2894 3584 3203 3211 
Q 3513 2838 3513 2113 
z
" transform="scale(0.015625)"/>
       <path id="DejaVuSans-20" transform="scale(0.015625)"/>
       <path id="DejaVuSans-53" d="M 3425 4513 
L 3425 3897 
Q 3066 4069 2747 4153 
Q 2428 4238 2131 4238 
Q 1616 4238 1336 4038 
Q 1056 3838 1056 3469 
Q 1056 3159 1242 3001 
Q 1428 2844 1947 2747 
L 2328 2669 
Q 3034 2534 3370 2195 
Q 3706 1856 3706 1288 
Q 3706 609 3251 259 
Q 2797 -91 1919 -91 
Q 1588 -91 1214 -16 
Q 841 59 441 206 
L 441 856 
Q 825 641 1194 531 
Q 1563 422 1919 422 
Q 2459 422 2753 634 
Q 3047 847 3047 1241 
Q 3047 1584 2836 1778 
Q 2625 1972 2144 2069 
L 1759 2144 
Q 1053 2284 737 2584 
Q 422 2884 422 3419 
Q 422 4038 858 4394 
Q 1294 4750 2059 4750 
Q 2388 4750 2728 4690 
Q 3069 4631 3425 4513 
z
" transform="scale(0.015625)"/>
       <path id="DejaVuSans-63" d="M 3122 3366 
L 3122 2828 
Q 2878 2963 2633 3030 
Q 2388 3097 2138 3097 
Q 1578 3097 1268 2742 
Q 959 2388 959 1747 
Q 959 1106 1268 751 
Q 1578 397 2138 397 
Q 2388 397 2633 464 
Q 2878 531 3122 666 
L 3122 134 
Q 2881 22 2623 -34 
Q 2366 -91 2075 -91 
Q 1284 -91 818 406 
Q 353 903 353 1747 
Q 353 2603 823 3093 
Q 1294 3584 2113 3584 
Q 2378 3584 2631 3529 
Q 2884 3475 3122 3366 
z
" transform="scale(0.015625)"/>
       <path id="DejaVuSans-6f" d="M 1959 3097 
Q 1497 3097 1228 2736 
Q 959 2375 959 1747 
Q 959 1119 1226 758 
Q 1494 397 1959 397 
Q 2419 397 2687 759 
Q 2956 1122 2956 1747 
Q 2956 2369 2687 2733 
Q 2419 3097 1959 3097 
z
M 1959 3584 
Q 2709 3584 3137 3096 
Q 3566 2609 3566 1747 
Q 3566 888 3137 398 
Q 2709 -91 1959 -91 
Q 1206 -91 779 398 
Q 353 888 353 1747 
Q 353 2609 779 3096 
Q 1206 3584 1959 3584 
z
" transform="scale(0.015625)"/>
       <path id="DejaVuSans-72" d="M 2631 2963 
Q 2534 3019 2420 3045 
Q 2306 3072 2169 3072 
Q 1681 3072 1420 2755 
Q 1159 2438 1159 1844 
L 1159 0 
L 581 0 
L 581 3500 
L 1159 3500 
L 1159 2956 
Q 1341 3275 1631 3429 
Q 1922 3584 2338 3584 
Q 2397 3584 2469 3576 
Q 2541 3569 2628 3553 
L 2631 2963 
z
" transform="scale(0.015625)"/>
       <path id="DejaVuSans-64" d="M 2906 2969 
L 2906 4863 
L 3481 4863 
L 3481 0 
L 2906 0 
L 2906 525 
Q 2725 213 2448 61 
Q 2172 -91 1784 -91 
Q 1150 -91 751 415 
Q 353 922 353 1747 
Q 353 2572 751 3078 
Q 1150 3584 1784 3584 
Q 2172 3584 2448 3432 
Q 2725 3281 2906 2969 
z
M 947 1747 
Q 947 1113 1208 752 
Q 1469 391 1925 391 
Q 2381 391 2643 752 
Q 2906 1113 2906 1747 
Q 2906 2381 2643 2742 
Q 2381 3103 1925 3103 
Q 1469 3103 1208 2742 
Q 947 2381 947 1747 
z
" transform="scale(0.015625)"/>
       <path id="DejaVuSans-2d" d="M 313 2009 
L 1997 2009 
L 1997 1497 
L 313 1497 
L 313 2009 
z
" transform="scale(0.015625)"/>
       <path id="DejaVuSans-41" d="M 2188 4044 
L 1331 1722 
L 3047 1722 
L 2188 4044 
z
M 1831 4666 
L 2547 4666 
L 4325 0 
L 3669 0 
L 3244 1197 
L 1141 1197 
L 716 0 
L 50 0 
L 1831 4666 
z
" transform="scale(0.015625)"/>
       <path id="DejaVuSans-67" d="M 2906 1791 
Q 2906 2416 2648 2759 
Q 2391 3103 1925 3103 
Q 1463 3103 1205 2759 
Q 947 2416 947 1791 
Q 947 1169 1205 825 
Q 1463 481 1925 481 
Q 2391 481 2648 825 
Q 2906 1169 2906 1791 
z
M 3481 434 
Q 3481 -459 3084 -895 
Q 2688 -1331 1869 -1331 
Q 1566 -1331 1297 -1286 
Q 1028 -1241 775 -1147 
L 775 -588 
Q 1028 -725 1275 -790 
Q 1522 -856 1778 -856 
Q 2344 -856 2625 -561 
Q 2906 -266 2906 331 
L 2906 616 
Q 2728 306 2450 153 
Q 2172 0 1784 0 
Q 1141 0 747 490 
Q 353 981 353 1791 
Q 353 2603 747 3093 
Q 1141 3584 1784 3584 
Q 2172 3584 2450 3431 
Q 2728 3278 2906 2969 
L 2906 3500 
L 3481 3500 
L 3481 434 
z
" transform="scale(0.015625)"/>
       <path id="DejaVuSans-69" d="M 603 3500 
L 1178 3500 
L 1178 0 
L 603 0 
L 603 3500 
z
M 603 4863 
L 1178 4863 
L 1178 4134 
L 603 4134 
L 603 4863 
z
" transform="scale(0.015625)"/>
       <path id="DejaVuSans-74" d="M 1172 4494 
L 1172 3500 
L 2356 3500 
L 2356 3053 
L 1172 3053 
L 1172 1153 
Q 1172 725 1289 603 
Q 1406 481 1766 481 
L 2356 481 
L 2356 0 
L 1766 0 
Q 1100 0 847 248 
Q 594 497 594 1153 
L 594 3053 
L 172 3053 
L 172 3500 
L 594 3500 
L 594 4494 
L 1172 4494 
z
" transform="scale(0.015625)"/>
      </defs>
      <use xlink:href="#DejaVuSans-52"/>
      <use xlink:href="#DejaVuSans-75" x="64.982422"/>
      <use xlink:href="#DejaVuSans-6e" x="128.361328"/>
      <use xlink:href="#DejaVuSans-73" x="191.740234"/>
      <use xlink:href="#DejaVuSans-20" x="243.839844"/>
      <use xlink:href="#DejaVuSans-53" x="275.626953"/>
      <use xlink:href="#DejaVuSans-63" x="339.103516"/>
      <use xlink:href="#DejaVuSans-6f" x="394.083984"/>
      <use xlink:href="#DejaVuSans-72" x="455.265625"/>
      <use xlink:href="#DejaVuSans-65" x="494.128906"/>
      <use xlink:href="#DejaVuSans-64" x="555.652344"/>
      <use xlink:href="#DejaVuSans-20" x="619.128906"/>
      <use xlink:href="#DejaVuSans-2d" x="650.916016"/>
      <use xlink:href="#DejaVuSans-20" x="687"/>
      <use xlink:href="#DejaVuSans-52" x="718.787109"/>
      <use xlink:href="#DejaVuSans-75" x="783.769531"/>
      <use xlink:href="#DejaVuSans-6e" x="847.148438"/>
      <use xlink:href="#DejaVuSans-73" x="910.527344"/>
      <use xlink:href="#DejaVuSans-20" x="962.626953"/>
      <use xlink:href="#DejaVuSans-41" x="994.414062"/>
      <use xlink:href="#DejaVuSans-67" x="1062.822266"/>
      <use xlink:href="#DejaVuSans-61" x="1126.298828"/>
      <use xlink:href="#DejaVuSans-69" x="1187.578125"/>
      <use xlink:href="#DejaVuSans-6e" x="1215.361328"/>
      <use xlink:href="#DejaVuSans-73" x="1278.740234"/>
      <use xlink:href="#DejaVuSans-74" x="1330.839844"/>
     </g>
    </g>
   </g>
   <g id="line2d_16">
    <path d="M 75.812328 279.644373 
L 77.791929 275.988151 
L 79.77153 275.988151 
L 83.730732 272.331929 
L 85.710333 265.019486 
L 87.689933 263.191375 
L 91.649135 266.847597 
L 93.628736 262.582005 
L 95.608337 263.191375 
L 97.587938 260.753894 
L 99.567539 261.363264 
L 101.54714 255.878932 
L 103.526741 256.488302 
L 105.506341 254.050821 
L 107.485942 252.22271 
L 109.465543 251.00397 
L 111.445144 252.832081 
L 113.424745 255.878932 
L 115.404346 251.00397 
L 117.383947 245.519637 
L 119.363548 246.129008 
L 121.343149 245.519637 
L 123.322749 244.300897 
L 125.30235 243.691526 
L 127.281951 242.472786 
L 129.261552 240.035305 
L 131.241153 235.769713 
L 133.220754 235.160343 
L 137.179956 236.379083 
L 139.159557 233.332232 
L 141.139157 233.941602 
L 143.118758 236.988453 
L 145.098359 233.941602 
L 147.07796 230.28538 
L 149.057561 230.894751 
L 151.037162 226.019788 
L 153.016763 226.629159 
L 154.996364 226.019788 
L 156.975965 221.754196 
L 158.955565 213.832383 
L 160.935166 213.223013 
L 162.914767 212.004272 
L 164.894368 213.223013 
L 166.873969 212.004272 
L 168.85357 210.176161 
L 170.833171 209.566791 
L 172.812772 206.51994 
L 174.792373 207.73868 
L 176.771973 206.51994 
L 178.751574 207.12931 
L 180.731175 202.254348 
L 182.710776 197.988756 
L 184.690377 197.379385 
L 188.649579 192.504423 
L 190.62918 188.848202 
L 192.60878 187.020091 
L 194.588381 186.41072 
L 196.567982 182.145128 
L 198.547583 182.754499 
L 202.506785 185.19198 
L 206.465987 180.317018 
L 208.445588 179.707647 
L 210.425188 176.051426 
L 212.404789 171.785834 
L 214.38439 169.957723 
L 216.363991 169.348353 
L 218.343592 169.957723 
L 220.323193 163.25465 
L 222.302794 151.067244 
L 224.282395 150.457874 
L 226.261996 152.285985 
L 228.241596 151.067244 
L 230.221197 143.754801 
L 232.200798 149.848504 
L 234.180399 151.676615 
L 236.16 149.848504 
L 238.139601 145.582912 
L 240.119202 144.364171 
L 242.098803 146.192282 
L 244.078404 145.582912 
L 246.058004 143.754801 
L 248.037605 143.145431 
L 250.017206 140.70795 
L 251.996807 137.661098 
L 253.976408 135.832987 
L 255.956009 137.051728 
L 257.93561 135.223617 
L 259.915211 134.614247 
L 261.894812 126.083063 
L 263.874412 120.59873 
L 265.854013 118.77062 
L 267.833614 115.723768 
L 269.813215 116.942509 
L 271.792816 114.505028 
L 273.772417 111.458176 
L 277.731619 112.676917 
L 279.71122 111.458176 
L 281.69082 113.895657 
L 283.670421 112.067547 
L 285.650022 113.895657 
L 287.629623 113.286287 
L 289.609224 117.551879 
L 291.588825 116.942509 
L 293.568426 117.551879 
L 295.548027 115.723768 
L 297.527627 113.286287 
L 299.507228 109.020695 
L 303.46643 107.801955 
L 305.446031 108.411325 
L 307.425632 112.067547 
L 309.405233 113.895657 
L 311.384834 116.942509 
L 313.364435 114.505028 
L 315.344035 110.848806 
L 317.323636 109.630065 
L 319.303237 103.536363 
L 321.282838 101.098882 
L 323.262439 98.05203 
L 325.24204 93.786438 
L 327.221641 87.692736 
L 331.180843 88.911476 
L 333.160443 85.864625 
L 335.140044 78.552181 
L 337.119645 80.380292 
L 339.099246 79.161552 
L 341.078847 78.552181 
L 343.058448 74.89596 
L 345.038049 74.286589 
L 347.01765 76.724071 
L 350.976851 74.286589 
L 352.956452 72.458479 
L 354.936053 73.067849 
L 356.915654 70.020997 
L 358.895255 69.411627 
L 360.874856 65.146035 
L 362.854457 64.536665 
L 364.834058 62.099184 
L 366.813659 65.146035 
L 368.793259 64.536665 
L 370.77286 60.880443 
L 372.752461 63.927295 
L 374.732062 62.099184 
L 376.711663 55.396111 
L 378.691264 54.17737 
L 380.670865 53.568 
L 380.670865 53.568 
" clip-path="url(#pfcf964331e)" style="fill: none; stroke: #008000; stroke-width: 1.5; stroke-linecap: square"/>
   </g>
   <g id="line2d_17">
    <path d="M 75.812328 286.347446 
L 77.791929 285.128705 
L 79.77153 283.300594 
L 85.710333 279.644373 
L 87.689933 280.863113 
L 89.669534 280.863113 
L 91.649135 282.691224 
L 93.628736 283.300594 
L 95.608337 282.081854 
L 97.587938 281.472484 
L 99.567539 280.253743 
L 101.54714 279.644373 
L 103.526741 280.253743 
L 105.506341 279.035003 
L 107.485942 276.597521 
L 109.465543 274.769411 
L 111.445144 274.16004 
L 115.404346 276.597521 
L 117.383947 277.206892 
L 119.363548 274.16004 
L 121.343149 274.769411 
L 123.322749 277.816262 
L 125.30235 277.206892 
L 127.281951 275.988151 
L 131.241153 277.206892 
L 133.220754 278.425632 
L 135.200355 279.035003 
L 137.179956 277.816262 
L 139.159557 278.425632 
L 141.139157 274.769411 
L 143.118758 274.16004 
L 145.098359 272.9413 
L 147.07796 275.988151 
L 149.057561 274.769411 
L 151.037162 275.378781 
L 153.016763 269.894448 
L 154.996364 269.285078 
L 156.975965 270.503819 
L 158.955565 268.066338 
L 160.935166 268.675708 
L 162.914767 263.191375 
L 164.894368 260.753894 
L 168.85357 254.660191 
L 170.833171 252.22271 
L 172.812772 249.175859 
L 174.792373 251.00397 
L 178.751574 248.566489 
L 180.731175 247.957118 
L 182.710776 245.519637 
L 184.690377 244.300897 
L 186.669978 247.347748 
L 188.649579 243.691526 
L 190.62918 243.082156 
L 194.588381 245.519637 
L 196.567982 240.035305 
L 198.547583 240.644675 
L 200.527184 238.207194 
L 202.506785 236.988453 
L 204.486386 233.941602 
L 206.465987 236.379083 
L 208.445588 234.550972 
L 210.425188 232.113491 
L 212.404789 230.894751 
L 214.38439 231.504121 
L 216.363991 232.722861 
L 218.343592 230.28538 
L 220.323193 229.67601 
L 222.302794 224.191678 
L 224.282395 221.754196 
L 226.261996 222.363567 
L 228.241596 218.707345 
L 230.221197 216.269864 
L 232.200798 209.566791 
L 236.16 205.910569 
L 238.139601 207.73868 
L 240.119202 205.301199 
L 242.098803 208.34805 
L 246.058004 207.12931 
L 248.037605 204.082458 
L 250.017206 202.863718 
L 251.996807 205.301199 
L 253.976408 211.394902 
L 255.956009 209.566791 
L 257.93561 208.34805 
L 259.915211 208.957421 
L 261.894812 206.51994 
L 263.874412 199.207496 
L 265.854013 197.379385 
L 267.833614 196.770015 
L 269.813215 199.207496 
L 271.792816 198.598126 
L 273.772417 201.035607 
L 275.752018 201.644977 
L 277.731619 201.035607 
L 279.71122 196.770015 
L 281.69082 199.816866 
L 283.670421 197.988756 
L 289.609224 196.160645 
L 291.588825 194.332534 
L 293.568426 193.723164 
L 297.527627 191.285683 
L 299.507228 187.020091 
L 301.486829 189.457572 
L 303.46643 195.551275 
L 305.446031 192.504423 
L 307.425632 193.113793 
L 309.405233 192.504423 
L 311.384834 191.285683 
L 313.364435 193.723164 
L 315.344035 193.113793 
L 317.323636 189.457572 
L 319.303237 187.629461 
L 321.282838 188.238831 
L 323.262439 187.020091 
L 325.24204 188.238831 
L 327.221641 186.41072 
L 329.201242 183.973239 
L 331.180843 183.363869 
L 333.160443 185.19198 
L 335.140044 182.754499 
L 337.119645 183.363869 
L 339.099246 182.754499 
L 341.078847 179.707647 
L 343.058448 177.879537 
L 345.038049 176.660796 
L 347.01765 176.051426 
L 348.997251 173.004574 
L 350.976851 168.129612 
L 352.956452 165.692131 
L 354.936053 160.817169 
L 358.895255 159.598428 
L 360.874856 155.942207 
L 362.854457 155.332836 
L 364.834058 158.379688 
L 366.813659 158.989058 
L 368.793259 152.895355 
L 370.77286 154.114096 
L 372.752461 157.770317 
L 374.732062 156.551577 
L 376.711663 157.160947 
L 380.670865 154.723466 
L 382.650466 155.942207 
L 384.630067 152.895355 
L 386.609667 154.114096 
L 388.589268 153.504725 
L 390.568869 154.114096 
L 392.54847 153.504725 
L 394.528071 152.285985 
L 396.507672 151.676615 
L 396.507672 151.676615 
" clip-path="url(#pfcf964331e)" style="fill: none; stroke: #0000ff; stroke-width: 1.5; stroke-linecap: square"/>
   </g>
   <g id="line2d_18">
    <path d="M 75.812328 284.519335 
L 77.791929 289.394297 
L 79.77153 291.831778 
L 81.751131 290.613038 
L 83.730732 295.488 
L 85.710333 291.831778 
L 87.689933 291.222408 
L 89.669534 288.784927 
L 93.628736 286.347446 
L 95.608337 284.519335 
L 97.587938 279.035003 
L 99.567539 275.988151 
L 101.54714 276.597521 
L 103.526741 275.988151 
L 105.506341 274.769411 
L 107.485942 269.894448 
L 109.465543 267.456967 
L 113.424745 266.238227 
L 115.404346 268.066338 
L 117.383947 266.238227 
L 121.343149 265.019486 
L 123.322749 261.363264 
L 125.30235 255.878932 
L 127.281951 252.832081 
L 129.261552 251.61334 
L 131.241153 249.175859 
L 133.220754 253.441451 
L 135.200355 249.175859 
L 137.179956 248.566489 
L 139.159557 247.347748 
L 141.139157 248.566489 
L 143.118758 249.175859 
L 145.098359 247.347748 
L 149.057561 242.472786 
L 151.037162 240.644675 
L 153.016763 239.425935 
L 154.996364 240.035305 
L 156.975965 234.550972 
L 158.955565 228.45727 
L 160.935166 221.144826 
L 162.914767 219.926086 
L 164.894368 221.754196 
L 166.873969 218.707345 
L 168.85357 216.269864 
L 170.833171 216.879234 
L 172.812772 220.535456 
L 174.792373 219.926086 
L 176.771973 218.097975 
L 178.751574 214.441753 
L 180.731175 211.394902 
L 182.710776 208.957421 
L 184.690377 207.73868 
L 186.669978 205.910569 
L 188.649579 199.816866 
L 190.62918 197.379385 
L 192.60878 198.598126 
L 194.588381 197.379385 
L 196.567982 199.207496 
L 198.547583 200.426237 
L 200.527184 199.207496 
L 202.506785 197.379385 
L 204.486386 199.207496 
L 206.465987 197.988756 
L 208.445588 204.691829 
L 210.425188 203.473088 
L 212.404789 206.51994 
L 214.38439 204.082458 
L 216.363991 200.426237 
L 218.343592 197.988756 
L 220.323193 194.941904 
L 222.302794 195.551275 
L 224.282395 191.285683 
L 226.261996 189.457572 
L 234.180399 187.020091 
L 236.16 185.80135 
L 238.139601 183.363869 
L 240.119202 182.145128 
L 242.098803 177.879537 
L 244.078404 179.707647 
L 246.058004 176.051426 
L 248.037605 169.348353 
L 250.017206 170.567093 
L 251.996807 172.395204 
L 253.976408 168.129612 
L 255.956009 171.785834 
L 257.93561 172.395204 
L 259.915211 171.785834 
L 261.894812 169.348353 
L 263.874412 162.64528 
L 265.854013 162.035909 
L 267.833614 164.47339 
L 269.813215 162.64528 
L 271.792816 158.989058 
L 273.772417 162.035909 
L 275.752018 160.207798 
L 277.731619 158.989058 
L 279.71122 157.160947 
L 281.69082 158.989058 
L 283.670421 151.067244 
L 285.650022 147.411023 
L 287.629623 144.364171 
L 289.609224 145.582912 
L 291.588825 141.92669 
L 293.568426 134.614247 
L 295.548027 126.692433 
L 297.527627 126.083063 
L 299.507228 123.645582 
L 301.486829 119.37999 
L 303.46643 113.895657 
L 307.425632 111.458176 
L 309.405233 118.161249 
L 311.384834 117.551879 
L 313.364435 113.895657 
L 315.344035 113.286287 
L 317.323636 114.505028 
L 319.303237 117.551879 
L 321.282838 114.505028 
L 323.262439 112.676917 
L 325.24204 113.895657 
L 327.221641 116.333139 
L 329.201242 116.942509 
L 331.180843 118.161249 
L 335.140044 116.942509 
L 337.119645 112.676917 
L 339.099246 109.630065 
L 341.078847 115.723768 
L 343.058448 111.458176 
L 345.038049 112.676917 
L 347.01765 109.630065 
L 348.997251 112.067547 
L 352.956452 113.286287 
L 354.936053 112.676917 
L 356.915654 111.458176 
L 358.895255 109.630065 
L 360.874856 110.239436 
L 364.834058 112.676917 
L 366.813659 110.848806 
L 368.793259 113.895657 
L 370.77286 118.161249 
L 372.752461 115.723768 
L 374.732062 109.630065 
L 376.711663 110.848806 
L 378.691264 110.239436 
L 380.670865 112.067547 
L 382.650466 108.411325 
L 386.609667 103.536363 
L 388.589268 101.708252 
L 390.568869 98.661401 
L 392.54847 97.44266 
L 394.528071 94.395809 
L 394.528071 94.395809 
" clip-path="url(#pfcf964331e)" style="fill: none; stroke: #ff7f0e; stroke-width: 1.5; stroke-linecap: square"/>
   </g>
   <g id="line2d_19">
    <path d="M 73.832727 282.081854 
L 75.812328 280.863113 
L 77.791929 281.472484 
L 79.77153 283.300594 
L 81.751131 280.863113 
L 83.730732 282.081854 
L 85.710333 280.253743 
L 87.689933 280.863113 
L 89.669534 279.035003 
L 91.649135 282.081854 
L 95.608337 279.644373 
L 97.587938 281.472484 
L 99.567539 279.644373 
L 101.54714 279.035003 
L 103.526741 274.16004 
L 105.506341 271.722559 
L 107.485942 269.894448 
L 109.465543 266.847597 
L 111.445144 260.753894 
L 113.424745 258.925783 
L 119.363548 257.097673 
L 121.343149 252.22271 
L 123.322749 252.832081 
L 125.30235 252.22271 
L 127.281951 253.441451 
L 131.241153 252.22271 
L 133.220754 251.00397 
L 135.200355 246.129008 
L 137.179956 242.472786 
L 139.159557 243.082156 
L 143.118758 238.207194 
L 147.07796 236.988453 
L 149.057561 238.816564 
L 151.037162 237.597824 
L 153.016763 238.816564 
L 154.996364 241.863416 
L 156.975965 243.082156 
L 158.955565 242.472786 
L 160.935166 241.254045 
L 162.914767 238.207194 
L 164.894368 236.988453 
L 168.85357 239.425935 
L 170.833171 234.550972 
L 174.792373 231.504121 
L 176.771973 230.894751 
L 178.751574 222.972937 
L 180.731175 221.144826 
L 182.710776 220.535456 
L 184.690377 216.879234 
L 186.669978 221.144826 
L 188.649579 219.316715 
L 190.62918 218.707345 
L 192.60878 213.832383 
L 194.588381 205.301199 
L 196.567982 204.082458 
L 200.527184 202.863718 
L 202.506785 197.379385 
L 204.486386 194.941904 
L 206.465987 195.551275 
L 208.445588 194.332534 
L 210.425188 194.941904 
L 214.38439 193.723164 
L 216.363991 194.941904 
L 218.343592 196.770015 
L 220.323193 194.941904 
L 222.302794 192.504423 
L 224.282395 191.895053 
L 226.261996 190.676312 
L 228.241596 191.285683 
L 232.200798 185.80135 
L 234.180399 182.754499 
L 236.16 183.973239 
L 238.139601 185.80135 
L 240.119202 176.051426 
L 242.098803 175.442055 
L 244.078404 171.176463 
L 246.058004 171.785834 
L 248.037605 174.832685 
L 250.017206 175.442055 
L 251.996807 174.832685 
L 255.956009 176.051426 
L 257.93561 168.129612 
L 259.915211 161.426539 
L 261.894812 162.035909 
L 263.874412 163.25465 
L 265.854013 162.64528 
L 267.833614 164.47339 
L 269.813215 160.817169 
L 271.792816 162.64528 
L 273.772417 163.25465 
L 275.752018 162.64528 
L 279.71122 155.332836 
L 281.69082 156.551577 
L 285.650022 153.504725 
L 287.629623 154.723466 
L 289.609224 157.160947 
L 293.568426 158.379688 
L 295.548027 160.207798 
L 297.527627 157.160947 
L 303.46643 158.989058 
L 305.446031 158.379688 
L 307.425632 160.207798 
L 309.405233 162.64528 
L 311.384834 163.86402 
L 313.364435 163.25465 
L 315.344035 167.520242 
L 317.323636 169.957723 
L 319.303237 171.785834 
L 325.24204 168.129612 
L 327.221641 162.64528 
L 329.201242 162.035909 
L 331.180843 162.64528 
L 333.160443 164.47339 
L 335.140044 165.082761 
L 337.119645 163.25465 
L 339.099246 163.86402 
L 343.058448 169.348353 
L 345.038049 169.957723 
L 347.01765 169.348353 
L 348.997251 167.520242 
L 350.976851 166.910872 
L 352.956452 163.25465 
L 354.936053 163.86402 
L 356.915654 165.082761 
L 358.895255 160.817169 
L 360.874856 157.160947 
L 362.854457 156.551577 
L 364.834058 155.332836 
L 366.813659 155.942207 
L 368.793259 157.770317 
L 370.77286 155.332836 
L 372.752461 154.723466 
L 374.732062 147.411023 
L 378.691264 146.192282 
L 382.650466 143.754801 
L 384.630067 144.364171 
L 386.609667 142.53606 
L 388.589268 139.489209 
L 390.568869 140.098579 
L 394.528071 135.223617 
L 396.507672 136.442358 
L 398.487273 135.223617 
L 398.487273 135.223617 
" clip-path="url(#pfcf964331e)" style="fill: none; stroke: #ff0000; stroke-width: 1.5; stroke-linecap: square"/>
   </g>
   <g id="patch_3">
    <path d="M 57.6 307.584 
L 57.6 41.472 
" style="fill: none; stroke: #000000; stroke-width: 0.8; stroke-linejoin: miter; stroke-linecap: square"/>
   </g>
   <g id="patch_4">
    <path d="M 414.72 307.584 
L 414.72 41.472 
" style="fill: none; stroke: #000000; stroke-width: 0.8; stroke-linejoin: miter; stroke-linecap: square"/>
   </g>
   <g id="patch_5">
    <path d="M 57.6 307.584 
L 414.72 307.584 
" style="fill: none; stroke: #000000; stroke-width: 0.8; stroke-linejoin: miter; stroke-linecap: square"/>
   </g>
   <g id="patch_6">
    <path d="M 57.6 41.472 
L 414.72 41.472 
" style="fill: none; stroke: #000000; stroke-width: 0.8; stroke-linejoin: miter; stroke-linecap: square"/>
   </g>
   <g id="text_18">
    <!-- Cumulative Run Differential -->
    <g transform="translate(153.205312 35.472) scale(0.12 -0.12)">
     <defs>
      <path id="DejaVuSans-43" d="M 4122 4306 
L 4122 3641 
Q 3803 3938 3442 4084 
Q 3081 4231 2675 4231 
Q 1875 4231 1450 3742 
Q 1025 3253 1025 2328 
Q 1025 1406 1450 917 
Q 1875 428 2675 428 
Q 3081 428 3442 575 
Q 3803 722 4122 1019 
L 4122 359 
Q 3791 134 3420 21 
Q 3050 -91 2638 -91 
Q 1578 -91 968 557 
Q 359 1206 359 2328 
Q 359 3453 968 4101 
Q 1578 4750 2638 4750 
Q 3056 4750 3426 4639 
Q 3797 4528 4122 4306 
z
" transform="scale(0.015625)"/>
      <path id="DejaVuSans-6c" d="M 603 4863 
L 1178 4863 
L 1178 0 
L 603 0 
L 603 4863 
z
" transform="scale(0.015625)"/>
      <path id="DejaVuSans-76" d="M 191 3500 
L 800 3500 
L 1894 563 
L 2988 3500 
L 3597 3500 
L 2284 0 
L 1503 0 
L 191 3500 
z
" transform="scale(0.015625)"/>
      <path id="DejaVuSans-44" d="M 1259 4147 
L 1259 519 
L 2022 519 
Q 2988 519 3436 956 
Q 3884 1394 3884 2338 
Q 3884 3275 3436 3711 
Q 2988 4147 2022 4147 
L 1259 4147 
z
M 628 4666 
L 1925 4666 
Q 3281 4666 3915 4102 
Q 4550 3538 4550 2338 
Q 4550 1131 3912 565 
Q 3275 0 1925 0 
L 628 0 
L 628 4666 
z
" transform="scale(0.015625)"/>
      <path id="DejaVuSans-66" d="M 2375 4863 
L 2375 4384 
L 1825 4384 
Q 1516 4384 1395 4259 
Q 1275 4134 1275 3809 
L 1275 3500 
L 2222 3500 
L 2222 3053 
L 1275 3053 
L 1275 0 
L 697 0 
L 697 3053 
L 147 3053 
L 147 3500 
L 697 3500 
L 697 3744 
Q 697 4328 969 4595 
Q 1241 4863 1831 4863 
L 2375 4863 
z
" transform="scale(0.015625)"/>
     </defs>
     <use xlink:href="#DejaVuSans-43"/>
     <use xlink:href="#DejaVuSans-75" x="69.824219"/>
     <use xlink:href="#DejaVuSans-6d" x="133.203125"/>
     <use xlink:href="#DejaVuSans-75" x="230.615234"/>
     <use xlink:href="#DejaVuSans-6c" x="293.994141"/>
     <use xlink:href="#DejaVuSans-61" x="321.777344"/>
     <use xlink:href="#DejaVuSans-74" x="383.056641"/>
     <use xlink:href="#DejaVuSans-69" x="422.265625"/>
     <use xlink:href="#DejaVuSans-76" x="450.048828"/>
     <use xlink:href="#DejaVuSans-65" x="509.228516"/>
     <use xlink:href="#DejaVuSans-20" x="570.751953"/>
     <use xlink:href="#DejaVuSans-52" x="602.539062"/>
     <use xlink:href="#DejaVuSans-75" x="667.521484"/>
     <use xlink:href="#DejaVuSans-6e" x="730.900391"/>
     <use xlink:href="#DejaVuSans-20" x="794.279297"/>
     <use xlink:href="#DejaVuSans-44" x="826.066406"/>
     <use xlink:href="#DejaVuSans-69" x="903.068359"/>
     <use xlink:href="#DejaVuSans-66" x="930.851562"/>
     <use xlink:href="#DejaVuSans-66" x="966.056641"/>
     <use xlink:href="#DejaVuSans-65" x="1001.261719"/>
     <use xlink:href="#DejaVuSans-72" x="1062.785156"/>
     <use xlink:href="#DejaVuSans-65" x="1101.648438"/>
     <use xlink:href="#DejaVuSans-6e" x="1163.171875"/>
     <use xlink:href="#DejaVuSans-74" x="1226.550781"/>
     <use xlink:href="#DejaVuSans-69" x="1265.759766"/>
     <use xlink:href="#DejaVuSans-61" x="1293.542969"/>
     <use xlink:href="#DejaVuSans-6c" x="1354.822266"/>
    </g>
   </g>
   <g id="legend_1">
    <g id="patch_7">
     <path d="M 347.091875 302.584 
L 407.72 302.584 
Q 409.72 302.584 409.72 300.584 
L 409.72 242.8715 
Q 409.72 240.8715 407.72 240.8715 
L 347.091875 240.8715 
Q 345.091875 240.8715 345.091875 242.8715 
L 345.091875 300.584 
Q 345.091875 302.584 347.091875 302.584 
z
" style="fill: #ffffff; opacity: 0.8; stroke: #cccccc; stroke-linejoin: miter"/>
    </g>
    <g id="line2d_20">
     <path d="M 349.091875 248.969937 
L 359.091875 248.969937 
L 369.091875 248.969937 
" style="fill: none; stroke: #008000; stroke-width: 1.5; stroke-linecap: square"/>
    </g>
    <g id="text_19">
     <!--  1927 -->
     <g transform="translate(377.091875 252.469937) scale(0.1 -0.1)">
      <defs>
       <path id="DejaVuSans-39" d="M 703 97 
L 703 672 
Q 941 559 1184 500 
Q 1428 441 1663 441 
Q 2288 441 2617 861 
Q 2947 1281 2994 2138 
Q 2813 1869 2534 1725 
Q 2256 1581 1919 1581 
Q 1219 1581 811 2004 
Q 403 2428 403 3163 
Q 403 3881 828 4315 
Q 1253 4750 1959 4750 
Q 2769 4750 3195 4129 
Q 3622 3509 3622 2328 
Q 3622 1225 3098 567 
Q 2575 -91 1691 -91 
Q 1453 -91 1209 -44 
Q 966 3 703 97 
z
M 1959 2075 
Q 2384 2075 2632 2365 
Q 2881 2656 2881 3163 
Q 2881 3666 2632 3958 
Q 2384 4250 1959 4250 
Q 1534 4250 1286 3958 
Q 1038 3666 1038 3163 
Q 1038 2656 1286 2365 
Q 1534 2075 1959 2075 
z
" transform="scale(0.015625)"/>
      </defs>
      <use xlink:href="#DejaVuSans-20"/>
      <use xlink:href="#DejaVuSans-31" x="31.787109"/>
      <use xlink:href="#DejaVuSans-39" x="95.410156"/>
      <use xlink:href="#DejaVuSans-32" x="159.033203"/>
      <use xlink:href="#DejaVuSans-37" x="222.65625"/>
     </g>
    </g>
    <g id="line2d_21">
     <path d="M 349.091875 263.648062 
L 359.091875 263.648062 
L 369.091875 263.648062 
" style="fill: none; stroke: #0000ff; stroke-width: 1.5; stroke-linecap: square"/>
    </g>
    <g id="text_20">
     <!--  1961 -->
     <g transform="translate(377.091875 267.148062) scale(0.1 -0.1)">
      <defs>
       <path id="DejaVuSans-36" d="M 2113 2584 
Q 1688 2584 1439 2293 
Q 1191 2003 1191 1497 
Q 1191 994 1439 701 
Q 1688 409 2113 409 
Q 2538 409 2786 701 
Q 3034 994 3034 1497 
Q 3034 2003 2786 2293 
Q 2538 2584 2113 2584 
z
M 3366 4563 
L 3366 3988 
Q 3128 4100 2886 4159 
Q 2644 4219 2406 4219 
Q 1781 4219 1451 3797 
Q 1122 3375 1075 2522 
Q 1259 2794 1537 2939 
Q 1816 3084 2150 3084 
Q 2853 3084 3261 2657 
Q 3669 2231 3669 1497 
Q 3669 778 3244 343 
Q 2819 -91 2113 -91 
Q 1303 -91 875 529 
Q 447 1150 447 2328 
Q 447 3434 972 4092 
Q 1497 4750 2381 4750 
Q 2619 4750 2861 4703 
Q 3103 4656 3366 4563 
z
" transform="scale(0.015625)"/>
      </defs>
      <use xlink:href="#DejaVuSans-20"/>
      <use xlink:href="#DejaVuSans-31" x="31.787109"/>
      <use xlink:href="#DejaVuSans-39" x="95.410156"/>
      <use xlink:href="#DejaVuSans-36" x="159.033203"/>
      <use xlink:href="#DejaVuSans-31" x="222.65625"/>
     </g>
    </g>
    <g id="line2d_22">
     <path d="M 349.091875 278.326187 
L 359.091875 278.326187 
L 369.091875 278.326187 
" style="fill: none; stroke: #ff7f0e; stroke-width: 1.5; stroke-linecap: square"/>
    </g>
    <g id="text_21">
     <!--  1998 -->
     <g transform="translate(377.091875 281.826187) scale(0.1 -0.1)">
      <defs>
       <path id="DejaVuSans-38" d="M 2034 2216 
Q 1584 2216 1326 1975 
Q 1069 1734 1069 1313 
Q 1069 891 1326 650 
Q 1584 409 2034 409 
Q 2484 409 2743 651 
Q 3003 894 3003 1313 
Q 3003 1734 2745 1975 
Q 2488 2216 2034 2216 
z
M 1403 2484 
Q 997 2584 770 2862 
Q 544 3141 544 3541 
Q 544 4100 942 4425 
Q 1341 4750 2034 4750 
Q 2731 4750 3128 4425 
Q 3525 4100 3525 3541 
Q 3525 3141 3298 2862 
Q 3072 2584 2669 2484 
Q 3125 2378 3379 2068 
Q 3634 1759 3634 1313 
Q 3634 634 3220 271 
Q 2806 -91 2034 -91 
Q 1263 -91 848 271 
Q 434 634 434 1313 
Q 434 1759 690 2068 
Q 947 2378 1403 2484 
z
M 1172 3481 
Q 1172 3119 1398 2916 
Q 1625 2713 2034 2713 
Q 2441 2713 2670 2916 
Q 2900 3119 2900 3481 
Q 2900 3844 2670 4047 
Q 2441 4250 2034 4250 
Q 1625 4250 1398 4047 
Q 1172 3844 1172 3481 
z
" transform="scale(0.015625)"/>
      </defs>
      <use xlink:href="#DejaVuSans-20"/>
      <use xlink:href="#DejaVuSans-31" x="31.787109"/>
      <use xlink:href="#DejaVuSans-39" x="95.410156"/>
      <use xlink:href="#DejaVuSans-39" x="159.033203"/>
      <use xlink:href="#DejaVuSans-38" x="222.65625"/>
     </g>
    </g>
    <g id="line2d_23">
     <path d="M 349.091875 293.004312 
L 359.091875 293.004312 
L 369.091875 293.004312 
" style="fill: none; stroke: #ff0000; stroke-width: 1.5; stroke-linecap: square"/>
    </g>
    <g id="text_22">
     <!--  2022 -->
     <g transform="translate(377.091875 296.504312) scale(0.1 -0.1)">
      <use xlink:href="#DejaVuSans-20"/>
      <use xlink:href="#DejaVuSans-32" x="31.787109"/>
      <use xlink:href="#DejaVuSans-30" x="95.410156"/>
      <use xlink:href="#DejaVuSans-32" x="159.033203"/>
      <use xlink:href="#DejaVuSans-32" x="222.65625"/>
     </g>
    </g>
   </g>
  </g>
 </g>
 <defs>
  <clipPath id="pfcf964331e">
   <rect x="57.6" y="41.472" width="357.12" height="266.112"/>
  </clipPath>
 </defs>
</svg>
