<?xml version="1.0" encoding="utf-8" standalone="no"?>
<!DOCTYPE svg PUBLIC "-//W3C//DTD SVG 1.1//EN"
  "http://www.w3.org/Graphics/SVG/1.1/DTD/svg11.dtd">
<svg xmlns:xlink="http://www.w3.org/1999/xlink" width="460.8pt" height="345.6pt" viewBox="0 0 460.8 345.6" xmlns="http://www.w3.org/2000/svg" version="1.1">
 <metadata>
  <rdf:RDF xmlns:dc="http://purl.org/dc/elements/1.1/" xmlns:cc="http://creativecommons.org/ns#" xmlns:rdf="http://www.w3.org/1999/02/22-rdf-syntax-ns#">
   <cc:Work>
    <dc:type rdf:resource="http://purl.org/dc/dcmitype/StillImage"/>
    <dc:date>2022-09-30T11:02:48.779953</dc:date>
    <dc:format>image/svg+xml</dc:format>
    <dc:creator>
     <cc:Agent>
      <dc:title>Matplotlib v3.6.0, https://matplotlib.org/</dc:title>
     </cc:Agent>
    </dc:creator>
   </cc:Work>
  </rdf:RDF>
 </metadata>
 <defs>
  <style type="text/css">*{stroke-linejoin: round; stroke-linecap: butt}</style>
 </defs>
 <g id="figure_1">
  <g id="patch_1">
   <path d="M 0 345.6 
L 460.8 345.6 
L 460.8 0 
L 0 0 
z
" style="fill: #ffffff"/>
  </g>
  <g id="axes_1">
   <g id="patch_2">
    <path d="M 57.6 307.584 
L 414.72 307.584 
L 414.72 41.472 
L 57.6 41.472 
z
" style="fill: #ffffff"/>
   </g>
   <g id="matplotlib.axis_1">
    <g id="xtick_1">
     <g id="line2d_1">
      <defs>
       <path id="ma852f27341" d="M 0 0 
L 0 3.5 
" style="stroke: #000000; stroke-width: 0.8"/>
      </defs>
      <g>
       <use xlink:href="#ma852f27341" x="73.832727" y="307.584" style="stroke: #000000; stroke-width: 0.8"/>
      </g>
     </g>
     <g id="text_1">
      <!-- 0 -->
      <g transform="translate(70.651477 322.182437) scale(0.1 -0.1)">
       <defs>
        <path id="DejaVuSans-30" d="M 2034 4250 
Q 1547 4250 1301 3770 
Q 1056 3291 1056 2328 
Q 1056 1369 1301 889 
Q 1547 409 2034 409 
Q 2525 409 2770 889 
Q 3016 1369 3016 2328 
Q 3016 3291 2770 3770 
Q 2525 4250 2034 4250 
z
M 2034 4750 
Q 2819 4750 3233 4129 
Q 3647 3509 3647 2328 
Q 3647 1150 3233 529 
Q 2819 -91 2034 -91 
Q 1250 -91 836 529 
Q 422 1150 422 2328 
Q 422 3509 836 4129 
Q 1250 4750 2034 4750 
z
" transform="scale(0.015625)"/>
       </defs>
       <use xlink:href="#DejaVuSans-30"/>
      </g>
     </g>
    </g>
    <g id="xtick_2">
     <g id="line2d_2">
      <g>
       <use xlink:href="#ma852f27341" x="113.667641" y="307.584" style="stroke: #000000; stroke-width: 0.8"/>
      </g>
     </g>
     <g id="text_2">
      <!-- 20 -->
      <g transform="translate(107.305141 322.182437) scale(0.1 -0.1)">
       <defs>
        <path id="DejaVuSans-32" d="M 1228 531 
L 3431 531 
L 3431 0 
L 469 0 
L 469 531 
Q 828 903 1448 1529 
Q 2069 2156 2228 2338 
Q 2531 2678 2651 2914 
Q 2772 3150 2772 3378 
Q 2772 3750 2511 3984 
Q 2250 4219 1831 4219 
Q 1534 4219 1204 4116 
Q 875 4013 500 3803 
L 500 4441 
Q 881 4594 1212 4672 
Q 1544 4750 1819 4750 
Q 2544 4750 2975 4387 
Q 3406 4025 3406 3419 
Q 3406 3131 3298 2873 
Q 3191 2616 2906 2266 
Q 2828 2175 2409 1742 
Q 1991 1309 1228 531 
z
" transform="scale(0.015625)"/>
       </defs>
       <use xlink:href="#DejaVuSans-32"/>
       <use xlink:href="#DejaVuSans-30" x="63.623047"/>
      </g>
     </g>
    </g>
    <g id="xtick_3">
     <g id="line2d_3">
      <g>
       <use xlink:href="#ma852f27341" x="153.502554" y="307.584" style="stroke: #000000; stroke-width: 0.8"/>
      </g>
     </g>
     <g id="text_3">
      <!-- 40 -->
      <g transform="translate(147.140054 322.182437) scale(0.1 -0.1)">
       <defs>
        <path id="DejaVuSans-34" d="M 2419 4116 
L 825 1625 
L 2419 1625 
L 2419 4116 
z
M 2253 4666 
L 3047 4666 
L 3047 1625 
L 3713 1625 
L 3713 1100 
L 3047 1100 
L 3047 0 
L 2419 0 
L 2419 1100 
L 313 1100 
L 313 1709 
L 2253 4666 
z
" transform="scale(0.015625)"/>
       </defs>
       <use xlink:href="#DejaVuSans-34"/>
       <use xlink:href="#DejaVuSans-30" x="63.623047"/>
      </g>
     </g>
    </g>
    <g id="xtick_4">
     <g id="line2d_4">
      <g>
       <use xlink:href="#ma852f27341" x="193.337468" y="307.584" style="stroke: #000000; stroke-width: 0.8"/>
      </g>
     </g>
     <g id="text_4">
      <!-- 60 -->
      <g transform="translate(186.974968 322.182437) scale(0.1 -0.1)">
       <defs>
        <path id="DejaVuSans-36" d="M 2113 2584 
Q 1688 2584 1439 2293 
Q 1191 2003 1191 1497 
Q 1191 994 1439 701 
Q 1688 409 2113 409 
Q 2538 409 2786 701 
Q 3034 994 3034 1497 
Q 3034 2003 2786 2293 
Q 2538 2584 2113 2584 
z
M 3366 4563 
L 3366 3988 
Q 3128 4100 2886 4159 
Q 2644 4219 2406 4219 
Q 1781 4219 1451 3797 
Q 1122 3375 1075 2522 
Q 1259 2794 1537 2939 
Q 1816 3084 2150 3084 
Q 2853 3084 3261 2657 
Q 3669 2231 3669 1497 
Q 3669 778 3244 343 
Q 2819 -91 2113 -91 
Q 1303 -91 875 529 
Q 447 1150 447 2328 
Q 447 3434 972 4092 
Q 1497 4750 2381 4750 
Q 2619 4750 2861 4703 
Q 3103 4656 3366 4563 
z
" transform="scale(0.015625)"/>
       </defs>
       <use xlink:href="#DejaVuSans-36"/>
       <use xlink:href="#DejaVuSans-30" x="63.623047"/>
      </g>
     </g>
    </g>
    <g id="xtick_5">
     <g id="line2d_5">
      <g>
       <use xlink:href="#ma852f27341" x="233.172381" y="307.584" style="stroke: #000000; stroke-width: 0.8"/>
      </g>
     </g>
     <g id="text_5">
      <!-- 80 -->
      <g transform="translate(226.809881 322.182437) scale(0.1 -0.1)">
       <defs>
        <path id="DejaVuSans-38" d="M 2034 2216 
Q 1584 2216 1326 1975 
Q 1069 1734 1069 1313 
Q 1069 891 1326 650 
Q 1584 409 2034 409 
Q 2484 409 2743 651 
Q 3003 894 3003 1313 
Q 3003 1734 2745 1975 
Q 2488 2216 2034 2216 
z
M 1403 2484 
Q 997 2584 770 2862 
Q 544 3141 544 3541 
Q 544 4100 942 4425 
Q 1341 4750 2034 4750 
Q 2731 4750 3128 4425 
Q 3525 4100 3525 3541 
Q 3525 3141 3298 2862 
Q 3072 2584 2669 2484 
Q 3125 2378 3379 2068 
Q 3634 1759 3634 1313 
Q 3634 634 3220 271 
Q 2806 -91 2034 -91 
Q 1263 -91 848 271 
Q 434 634 434 1313 
Q 434 1759 690 2068 
Q 947 2378 1403 2484 
z
M 1172 3481 
Q 1172 3119 1398 2916 
Q 1625 2713 2034 2713 
Q 2441 2713 2670 2916 
Q 2900 3119 2900 3481 
Q 2900 3844 2670 4047 
Q 2441 4250 2034 4250 
Q 1625 4250 1398 4047 
Q 1172 3844 1172 3481 
z
" transform="scale(0.015625)"/>
       </defs>
       <use xlink:href="#DejaVuSans-38"/>
       <use xlink:href="#DejaVuSans-30" x="63.623047"/>
      </g>
     </g>
    </g>
    <g id="xtick_6">
     <g id="line2d_6">
      <g>
       <use xlink:href="#ma852f27341" x="273.007295" y="307.584" style="stroke: #000000; stroke-width: 0.8"/>
      </g>
     </g>
     <g id="text_6">
      <!-- 100 -->
      <g transform="translate(263.463545 322.182437) scale(0.1 -0.1)">
       <defs>
        <path id="DejaVuSans-31" d="M 794 531 
L 1825 531 
L 1825 4091 
L 703 3866 
L 703 4441 
L 1819 4666 
L 2450 4666 
L 2450 531 
L 3481 531 
L 3481 0 
L 794 0 
L 794 531 
z
" transform="scale(0.015625)"/>
       </defs>
       <use xlink:href="#DejaVuSans-31"/>
       <use xlink:href="#DejaVuSans-30" x="63.623047"/>
       <use xlink:href="#DejaVuSans-30" x="127.246094"/>
      </g>
     </g>
    </g>
    <g id="xtick_7">
     <g id="line2d_7">
      <g>
       <use xlink:href="#ma852f27341" x="312.842209" y="307.584" style="stroke: #000000; stroke-width: 0.8"/>
      </g>
     </g>
     <g id="text_7">
      <!-- 120 -->
      <g transform="translate(303.298459 322.182437) scale(0.1 -0.1)">
       <use xlink:href="#DejaVuSans-31"/>
       <use xlink:href="#DejaVuSans-32" x="63.623047"/>
       <use xlink:href="#DejaVuSans-30" x="127.246094"/>
      </g>
     </g>
    </g>
    <g id="xtick_8">
     <g id="line2d_8">
      <g>
       <use xlink:href="#ma852f27341" x="352.677122" y="307.584" style="stroke: #000000; stroke-width: 0.8"/>
      </g>
     </g>
     <g id="text_8">
      <!-- 140 -->
      <g transform="translate(343.133372 322.182437) scale(0.1 -0.1)">
       <use xlink:href="#DejaVuSans-31"/>
       <use xlink:href="#DejaVuSans-34" x="63.623047"/>
       <use xlink:href="#DejaVuSans-30" x="127.246094"/>
      </g>
     </g>
    </g>
    <g id="xtick_9">
     <g id="line2d_9">
      <g>
       <use xlink:href="#ma852f27341" x="392.512036" y="307.584" style="stroke: #000000; stroke-width: 0.8"/>
      </g>
     </g>
     <g id="text_9">
      <!-- 160 -->
      <g transform="translate(382.968286 322.182437) scale(0.1 -0.1)">
       <use xlink:href="#DejaVuSans-31"/>
       <use xlink:href="#DejaVuSans-36" x="63.623047"/>
       <use xlink:href="#DejaVuSans-30" x="127.246094"/>
      </g>
     </g>
    </g>
    <g id="text_10">
     <!-- Games -->
     <g transform="translate(218.670156 335.860562) scale(0.1 -0.1)">
      <defs>
       <path id="DejaVuSans-47" d="M 3809 666 
L 3809 1919 
L 2778 1919 
L 2778 2438 
L 4434 2438 
L 4434 434 
Q 4069 175 3628 42 
Q 3188 -91 2688 -91 
Q 1594 -91 976 548 
Q 359 1188 359 2328 
Q 359 3472 976 4111 
Q 1594 4750 2688 4750 
Q 3144 4750 3555 4637 
Q 3966 4525 4313 4306 
L 4313 3634 
Q 3963 3931 3569 4081 
Q 3175 4231 2741 4231 
Q 1884 4231 1454 3753 
Q 1025 3275 1025 2328 
Q 1025 1384 1454 906 
Q 1884 428 2741 428 
Q 3075 428 3337 486 
Q 3600 544 3809 666 
z
" transform="scale(0.015625)"/>
       <path id="DejaVuSans-61" d="M 2194 1759 
Q 1497 1759 1228 1600 
Q 959 1441 959 1056 
Q 959 750 1161 570 
Q 1363 391 1709 391 
Q 2188 391 2477 730 
Q 2766 1069 2766 1631 
L 2766 1759 
L 2194 1759 
z
M 3341 1997 
L 3341 0 
L 2766 0 
L 2766 531 
Q 2569 213 2275 61 
Q 1981 -91 1556 -91 
Q 1019 -91 701 211 
Q 384 513 384 1019 
Q 384 1609 779 1909 
Q 1175 2209 1959 2209 
L 2766 2209 
L 2766 2266 
Q 2766 2663 2505 2880 
Q 2244 3097 1772 3097 
Q 1472 3097 1187 3025 
Q 903 2953 641 2809 
L 641 3341 
Q 956 3463 1253 3523 
Q 1550 3584 1831 3584 
Q 2591 3584 2966 3190 
Q 3341 2797 3341 1997 
z
" transform="scale(0.015625)"/>
       <path id="DejaVuSans-6d" d="M 3328 2828 
Q 3544 3216 3844 3400 
Q 4144 3584 4550 3584 
Q 5097 3584 5394 3201 
Q 5691 2819 5691 2113 
L 5691 0 
L 5113 0 
L 5113 2094 
Q 5113 2597 4934 2840 
Q 4756 3084 4391 3084 
Q 3944 3084 3684 2787 
Q 3425 2491 3425 1978 
L 3425 0 
L 2847 0 
L 2847 2094 
Q 2847 2600 2669 2842 
Q 2491 3084 2119 3084 
Q 1678 3084 1418 2786 
Q 1159 2488 1159 1978 
L 1159 0 
L 581 0 
L 581 3500 
L 1159 3500 
L 1159 2956 
Q 1356 3278 1631 3431 
Q 1906 3584 2284 3584 
Q 2666 3584 2933 3390 
Q 3200 3197 3328 2828 
z
" transform="scale(0.015625)"/>
       <path id="DejaVuSans-65" d="M 3597 1894 
L 3597 1613 
L 953 1613 
Q 991 1019 1311 708 
Q 1631 397 2203 397 
Q 2534 397 2845 478 
Q 3156 559 3463 722 
L 3463 178 
Q 3153 47 2828 -22 
Q 2503 -91 2169 -91 
Q 1331 -91 842 396 
Q 353 884 353 1716 
Q 353 2575 817 3079 
Q 1281 3584 2069 3584 
Q 2775 3584 3186 3129 
Q 3597 2675 3597 1894 
z
M 3022 2063 
Q 3016 2534 2758 2815 
Q 2500 3097 2075 3097 
Q 1594 3097 1305 2825 
Q 1016 2553 972 2059 
L 3022 2063 
z
" transform="scale(0.015625)"/>
       <path id="DejaVuSans-73" d="M 2834 3397 
L 2834 2853 
Q 2591 2978 2328 3040 
Q 2066 3103 1784 3103 
Q 1356 3103 1142 2972 
Q 928 2841 928 2578 
Q 928 2378 1081 2264 
Q 1234 2150 1697 2047 
L 1894 2003 
Q 2506 1872 2764 1633 
Q 3022 1394 3022 966 
Q 3022 478 2636 193 
Q 2250 -91 1575 -91 
Q 1294 -91 989 -36 
Q 684 19 347 128 
L 347 722 
Q 666 556 975 473 
Q 1284 391 1588 391 
Q 1994 391 2212 530 
Q 2431 669 2431 922 
Q 2431 1156 2273 1281 
Q 2116 1406 1581 1522 
L 1381 1569 
Q 847 1681 609 1914 
Q 372 2147 372 2553 
Q 372 3047 722 3315 
Q 1072 3584 1716 3584 
Q 2034 3584 2315 3537 
Q 2597 3491 2834 3397 
z
" transform="scale(0.015625)"/>
      </defs>
      <use xlink:href="#DejaVuSans-47"/>
      <use xlink:href="#DejaVuSans-61" x="77.490234"/>
      <use xlink:href="#DejaVuSans-6d" x="138.769531"/>
      <use xlink:href="#DejaVuSans-65" x="236.181641"/>
      <use xlink:href="#DejaVuSans-73" x="297.705078"/>
     </g>
    </g>
   </g>
   <g id="matplotlib.axis_2">
    <g id="ytick_1">
     <g id="line2d_10">
      <defs>
       <path id="m6c0f0c53aa" d="M 0 0 
L -3.5 0 
" style="stroke: #000000; stroke-width: 0.8"/>
      </defs>
      <g>
       <use xlink:href="#m6c0f0c53aa" x="57.6" y="282.691224" style="stroke: #000000; stroke-width: 0.8"/>
      </g>
     </g>
     <g id="text_11">
      <!-- 0 -->
      <g transform="translate(44.2375 286.490443) scale(0.1 -0.1)">
       <use xlink:href="#DejaVuSans-30"/>
      </g>
     </g>
    </g>
    <g id="ytick_2">
     <g id="line2d_11">
      <g>
       <use xlink:href="#m6c0f0c53aa" x="57.6" y="252.22271" style="stroke: #000000; stroke-width: 0.8"/>
      </g>
     </g>
     <g id="text_12">
      <!-- 50 -->
      <g transform="translate(37.875 256.021929) scale(0.1 -0.1)">
       <defs>
        <path id="DejaVuSans-35" d="M 691 4666 
L 3169 4666 
L 3169 4134 
L 1269 4134 
L 1269 2991 
Q 1406 3038 1543 3061 
Q 1681 3084 1819 3084 
Q 2600 3084 3056 2656 
Q 3513 2228 3513 1497 
Q 3513 744 3044 326 
Q 2575 -91 1722 -91 
Q 1428 -91 1123 -41 
Q 819 9 494 109 
L 494 744 
Q 775 591 1075 516 
Q 1375 441 1709 441 
Q 2250 441 2565 725 
Q 2881 1009 2881 1497 
Q 2881 1984 2565 2268 
Q 2250 2553 1709 2553 
Q 1456 2553 1204 2497 
Q 953 2441 691 2322 
L 691 4666 
z
" transform="scale(0.015625)"/>
       </defs>
       <use xlink:href="#DejaVuSans-35"/>
       <use xlink:href="#DejaVuSans-30" x="63.623047"/>
      </g>
     </g>
    </g>
    <g id="ytick_3">
     <g id="line2d_12">
      <g>
       <use xlink:href="#m6c0f0c53aa" x="57.6" y="221.754196" style="stroke: #000000; stroke-width: 0.8"/>
      </g>
     </g>
     <g id="text_13">
      <!-- 100 -->
      <g transform="translate(31.5125 225.553415) scale(0.1 -0.1)">
       <use xlink:href="#DejaVuSans-31"/>
       <use xlink:href="#DejaVuSans-30" x="63.623047"/>
       <use xlink:href="#DejaVuSans-30" x="127.246094"/>
      </g>
     </g>
    </g>
    <g id="ytick_4">
     <g id="line2d_13">
      <g>
       <use xlink:href="#m6c0f0c53aa" x="57.6" y="191.285683" style="stroke: #000000; stroke-width: 0.8"/>
      </g>
     </g>
     <g id="text_14">
      <!-- 150 -->
      <g transform="translate(31.5125 195.084901) scale(0.1 -0.1)">
       <use xlink:href="#DejaVuSans-31"/>
       <use xlink:href="#DejaVuSans-35" x="63.623047"/>
       <use xlink:href="#DejaVuSans-30" x="127.246094"/>
      </g>
     </g>
    </g>
    <g id="ytick_5">
     <g id="line2d_14">
      <g>
       <use xlink:href="#m6c0f0c53aa" x="57.6" y="160.817169" style="stroke: #000000; stroke-width: 0.8"/>
      </g>
     </g>
     <g id="text_15">
      <!-- 200 -->
      <g transform="translate(31.5125 164.616388) scale(0.1 -0.1)">
       <use xlink:href="#DejaVuSans-32"/>
       <use xlink:href="#DejaVuSans-30" x="63.623047"/>
       <use xlink:href="#DejaVuSans-30" x="127.246094"/>
      </g>
     </g>
    </g>
    <g id="ytick_6">
     <g id="line2d_15">
      <g>
       <use xlink:href="#m6c0f0c53aa" x="57.6" y="130.348655" style="stroke: #000000; stroke-width: 0.8"/>
      </g>
     </g>
     <g id="text_16">
      <!-- 250 -->
      <g transform="translate(31.5125 134.147874) scale(0.1 -0.1)">
       <use xlink:href="#DejaVuSans-32"/>
       <use xlink:href="#DejaVuSans-35" x="63.623047"/>
       <use xlink:href="#DejaVuSans-30" x="127.246094"/>
      </g>
     </g>
    </g>
    <g id="ytick_7">
     <g id="line2d_16">
      <g>
       <use xlink:href="#m6c0f0c53aa" x="57.6" y="99.880141" style="stroke: #000000; stroke-width: 0.8"/>
      </g>
     </g>
     <g id="text_17">
      <!-- 300 -->
      <g transform="translate(31.5125 103.67936) scale(0.1 -0.1)">
       <defs>
        <path id="DejaVuSans-33" d="M 2597 2516 
Q 3050 2419 3304 2112 
Q 3559 1806 3559 1356 
Q 3559 666 3084 287 
Q 2609 -91 1734 -91 
Q 1441 -91 1130 -33 
Q 819 25 488 141 
L 488 750 
Q 750 597 1062 519 
Q 1375 441 1716 441 
Q 2309 441 2620 675 
Q 2931 909 2931 1356 
Q 2931 1769 2642 2001 
Q 2353 2234 1838 2234 
L 1294 2234 
L 1294 2753 
L 1863 2753 
Q 2328 2753 2575 2939 
Q 2822 3125 2822 3475 
Q 2822 3834 2567 4026 
Q 2313 4219 1838 4219 
Q 1578 4219 1281 4162 
Q 984 4106 628 3988 
L 628 4550 
Q 988 4650 1302 4700 
Q 1616 4750 1894 4750 
Q 2613 4750 3031 4423 
Q 3450 4097 3450 3541 
Q 3450 3153 3228 2886 
Q 3006 2619 2597 2516 
z
" transform="scale(0.015625)"/>
       </defs>
       <use xlink:href="#DejaVuSans-33"/>
       <use xlink:href="#DejaVuSans-30" x="63.623047"/>
       <use xlink:href="#DejaVuSans-30" x="127.246094"/>
      </g>
     </g>
    </g>
    <g id="ytick_8">
     <g id="line2d_17">
      <g>
       <use xlink:href="#m6c0f0c53aa" x="57.6" y="69.411627" style="stroke: #000000; stroke-width: 0.8"/>
      </g>
     </g>
     <g id="text_18">
      <!-- 350 -->
      <g transform="translate(31.5125 73.210846) scale(0.1 -0.1)">
       <use xlink:href="#DejaVuSans-33"/>
       <use xlink:href="#DejaVuSans-35" x="63.623047"/>
       <use xlink:href="#DejaVuSans-30" x="127.246094"/>
      </g>
     </g>
    </g>
    <g id="text_19">
     <!-- Runs Scored - Runs Against -->
     <g transform="translate(25.432812 243.028781) rotate(-90) scale(0.1 -0.1)">
      <defs>
       <path id="DejaVuSans-52" d="M 2841 2188 
Q 3044 2119 3236 1894 
Q 3428 1669 3622 1275 
L 4263 0 
L 3584 0 
L 2988 1197 
Q 2756 1666 2539 1819 
Q 2322 1972 1947 1972 
L 1259 1972 
L 1259 0 
L 628 0 
L 628 4666 
L 2053 4666 
Q 2853 4666 3247 4331 
Q 3641 3997 3641 3322 
Q 3641 2881 3436 2590 
Q 3231 2300 2841 2188 
z
M 1259 4147 
L 1259 2491 
L 2053 2491 
Q 2509 2491 2742 2702 
Q 2975 2913 2975 3322 
Q 2975 3731 2742 3939 
Q 2509 4147 2053 4147 
L 1259 4147 
z
" transform="scale(0.015625)"/>
       <path id="DejaVuSans-75" d="M 544 1381 
L 544 3500 
L 1119 3500 
L 1119 1403 
Q 1119 906 1312 657 
Q 1506 409 1894 409 
Q 2359 409 2629 706 
Q 2900 1003 2900 1516 
L 2900 3500 
L 3475 3500 
L 3475 0 
L 2900 0 
L 2900 538 
Q 2691 219 2414 64 
Q 2138 -91 1772 -91 
Q 1169 -91 856 284 
Q 544 659 544 1381 
z
M 1991 3584 
L 1991 3584 
z
" transform="scale(0.015625)"/>
       <path id="DejaVuSans-6e" d="M 3513 2113 
L 3513 0 
L 2938 0 
L 2938 2094 
Q 2938 2591 2744 2837 
Q 2550 3084 2163 3084 
Q 1697 3084 1428 2787 
Q 1159 2491 1159 1978 
L 1159 0 
L 581 0 
L 581 3500 
L 1159 3500 
L 1159 2956 
Q 1366 3272 1645 3428 
Q 1925 3584 2291 3584 
Q 2894 3584 3203 3211 
Q 3513 2838 3513 2113 
z
" transform="scale(0.015625)"/>
       <path id="DejaVuSans-20" transform="scale(0.015625)"/>
       <path id="DejaVuSans-53" d="M 3425 4513 
L 3425 3897 
Q 3066 4069 2747 4153 
Q 2428 4238 2131 4238 
Q 1616 4238 1336 4038 
Q 1056 3838 1056 3469 
Q 1056 3159 1242 3001 
Q 1428 2844 1947 2747 
L 2328 2669 
Q 3034 2534 3370 2195 
Q 3706 1856 3706 1288 
Q 3706 609 3251 259 
Q 2797 -91 1919 -91 
Q 1588 -91 1214 -16 
Q 841 59 441 206 
L 441 856 
Q 825 641 1194 531 
Q 1563 422 1919 422 
Q 2459 422 2753 634 
Q 3047 847 3047 1241 
Q 3047 1584 2836 1778 
Q 2625 1972 2144 2069 
L 1759 2144 
Q 1053 2284 737 2584 
Q 422 2884 422 3419 
Q 422 4038 858 4394 
Q 1294 4750 2059 4750 
Q 2388 4750 2728 4690 
Q 3069 4631 3425 4513 
z
" transform="scale(0.015625)"/>
       <path id="DejaVuSans-63" d="M 3122 3366 
L 3122 2828 
Q 2878 2963 2633 3030 
Q 2388 3097 2138 3097 
Q 1578 3097 1268 2742 
Q 959 2388 959 1747 
Q 959 1106 1268 751 
Q 1578 397 2138 397 
Q 2388 397 2633 464 
Q 2878 531 3122 666 
L 3122 134 
Q 2881 22 2623 -34 
Q 2366 -91 2075 -91 
Q 1284 -91 818 406 
Q 353 903 353 1747 
Q 353 2603 823 3093 
Q 1294 3584 2113 3584 
Q 2378 3584 2631 3529 
Q 2884 3475 3122 3366 
z
" transform="scale(0.015625)"/>
       <path id="DejaVuSans-6f" d="M 1959 3097 
Q 1497 3097 1228 2736 
Q 959 2375 959 1747 
Q 959 1119 1226 758 
Q 1494 397 1959 397 
Q 2419 397 2687 759 
Q 2956 1122 2956 1747 
Q 2956 2369 2687 2733 
Q 2419 3097 1959 3097 
z
M 1959 3584 
Q 2709 3584 3137 3096 
Q 3566 2609 3566 1747 
Q 3566 888 3137 398 
Q 2709 -91 1959 -91 
Q 1206 -91 779 398 
Q 353 888 353 1747 
Q 353 2609 779 3096 
Q 1206 3584 1959 3584 
z
" transform="scale(0.015625)"/>
       <path id="DejaVuSans-72" d="M 2631 2963 
Q 2534 3019 2420 3045 
Q 2306 3072 2169 3072 
Q 1681 3072 1420 2755 
Q 1159 2438 1159 1844 
L 1159 0 
L 581 0 
L 581 3500 
L 1159 3500 
L 1159 2956 
Q 1341 3275 1631 3429 
Q 1922 3584 2338 3584 
Q 2397 3584 2469 3576 
Q 2541 3569 2628 3553 
L 2631 2963 
z
" transform="scale(0.015625)"/>
       <path id="DejaVuSans-64" d="M 2906 2969 
L 2906 4863 
L 3481 4863 
L 3481 0 
L 2906 0 
L 2906 525 
Q 2725 213 2448 61 
Q 2172 -91 1784 -91 
Q 1150 -91 751 415 
Q 353 922 353 1747 
Q 353 2572 751 3078 
Q 1150 3584 1784 3584 
Q 2172 3584 2448 3432 
Q 2725 3281 2906 2969 
z
M 947 1747 
Q 947 1113 1208 752 
Q 1469 391 1925 391 
Q 2381 391 2643 752 
Q 2906 1113 2906 1747 
Q 2906 2381 2643 2742 
Q 2381 3103 1925 3103 
Q 1469 3103 1208 2742 
Q 947 2381 947 1747 
z
" transform="scale(0.015625)"/>
       <path id="DejaVuSans-2d" d="M 313 2009 
L 1997 2009 
L 1997 1497 
L 313 1497 
L 313 2009 
z
" transform="scale(0.015625)"/>
       <path id="DejaVuSans-41" d="M 2188 4044 
L 1331 1722 
L 3047 1722 
L 2188 4044 
z
M 1831 4666 
L 2547 4666 
L 4325 0 
L 3669 0 
L 3244 1197 
L 1141 1197 
L 716 0 
L 50 0 
L 1831 4666 
z
" transform="scale(0.015625)"/>
       <path id="DejaVuSans-67" d="M 2906 1791 
Q 2906 2416 2648 2759 
Q 2391 3103 1925 3103 
Q 1463 3103 1205 2759 
Q 947 2416 947 1791 
Q 947 1169 1205 825 
Q 1463 481 1925 481 
Q 2391 481 2648 825 
Q 2906 1169 2906 1791 
z
M 3481 434 
Q 3481 -459 3084 -895 
Q 2688 -1331 1869 -1331 
Q 1566 -1331 1297 -1286 
Q 1028 -1241 775 -1147 
L 775 -588 
Q 1028 -725 1275 -790 
Q 1522 -856 1778 -856 
Q 2344 -856 2625 -561 
Q 2906 -266 2906 331 
L 2906 616 
Q 2728 306 2450 153 
Q 2172 0 1784 0 
Q 1141 0 747 490 
Q 353 981 353 1791 
Q 353 2603 747 3093 
Q 1141 3584 1784 3584 
Q 2172 3584 2450 3431 
Q 2728 3278 2906 2969 
L 2906 3500 
L 3481 3500 
L 3481 434 
z
" transform="scale(0.015625)"/>
       <path id="DejaVuSans-69" d="M 603 3500 
L 1178 3500 
L 1178 0 
L 603 0 
L 603 3500 
z
M 603 4863 
L 1178 4863 
L 1178 4134 
L 603 4134 
L 603 4863 
z
" transform="scale(0.015625)"/>
       <path id="DejaVuSans-74" d="M 1172 4494 
L 1172 3500 
L 2356 3500 
L 2356 3053 
L 1172 3053 
L 1172 1153 
Q 1172 725 1289 603 
Q 1406 481 1766 481 
L 2356 481 
L 2356 0 
L 1766 0 
Q 1100 0 847 248 
Q 594 497 594 1153 
L 594 3053 
L 172 3053 
L 172 3500 
L 594 3500 
L 594 4494 
L 1172 4494 
z
" transform="scale(0.015625)"/>
      </defs>
      <use xlink:href="#DejaVuSans-52"/>
      <use xlink:href="#DejaVuSans-75" x="64.982422"/>
      <use xlink:href="#DejaVuSans-6e" x="128.361328"/>
      <use xlink:href="#DejaVuSans-73" x="191.740234"/>
      <use xlink:href="#DejaVuSans-20" x="243.839844"/>
      <use xlink:href="#DejaVuSans-53" x="275.626953"/>
      <use xlink:href="#DejaVuSans-63" x="339.103516"/>
      <use xlink:href="#DejaVuSans-6f" x="394.083984"/>
      <use xlink:href="#DejaVuSans-72" x="455.265625"/>
      <use xlink:href="#DejaVuSans-65" x="494.128906"/>
      <use xlink:href="#DejaVuSans-64" x="555.652344"/>
      <use xlink:href="#DejaVuSans-20" x="619.128906"/>
      <use xlink:href="#DejaVuSans-2d" x="650.916016"/>
      <use xlink:href="#DejaVuSans-20" x="687"/>
      <use xlink:href="#DejaVuSans-52" x="718.787109"/>
      <use xlink:href="#DejaVuSans-75" x="783.769531"/>
      <use xlink:href="#DejaVuSans-6e" x="847.148438"/>
      <use xlink:href="#DejaVuSans-73" x="910.527344"/>
      <use xlink:href="#DejaVuSans-20" x="962.626953"/>
      <use xlink:href="#DejaVuSans-41" x="994.414062"/>
      <use xlink:href="#DejaVuSans-67" x="1062.822266"/>
      <use xlink:href="#DejaVuSans-61" x="1126.298828"/>
      <use xlink:href="#DejaVuSans-69" x="1187.578125"/>
      <use xlink:href="#DejaVuSans-6e" x="1215.361328"/>
      <use xlink:href="#DejaVuSans-73" x="1278.740234"/>
      <use xlink:href="#DejaVuSans-74" x="1330.839844"/>
     </g>
    </g>
   </g>
   <g id="line2d_18">
    <path d="M 75.824473 279.644373 
L 77.816219 275.988151 
L 79.807964 275.988151 
L 83.791456 272.331929 
L 85.783201 265.019486 
L 87.774947 263.191375 
L 91.758438 266.847597 
L 93.750184 262.582005 
L 95.74193 263.191375 
L 97.733675 260.753894 
L 99.725421 261.363264 
L 101.717167 255.878932 
L 103.708912 256.488302 
L 105.700658 254.050821 
L 107.692404 252.22271 
L 109.684149 251.00397 
L 111.675895 252.832081 
L 113.667641 255.878932 
L 115.659387 251.00397 
L 117.651132 245.519637 
L 119.642878 246.129008 
L 121.634624 245.519637 
L 123.626369 244.300897 
L 125.618115 243.691526 
L 127.609861 242.472786 
L 129.601606 240.035305 
L 131.593352 235.769713 
L 133.585098 235.160343 
L 137.568589 236.379083 
L 139.560335 233.332232 
L 141.55208 233.941602 
L 143.543826 236.988453 
L 145.535572 233.941602 
L 147.527317 230.28538 
L 149.519063 230.894751 
L 151.510809 226.019788 
L 153.502554 226.629159 
L 155.4943 226.019788 
L 157.486046 221.754196 
L 159.477791 213.832383 
L 161.469537 213.223013 
L 163.461283 212.004272 
L 165.453028 213.223013 
L 167.444774 212.004272 
L 169.43652 210.176161 
L 171.428265 209.566791 
L 173.420011 206.51994 
L 175.411757 207.73868 
L 177.403503 206.51994 
L 179.395248 207.12931 
L 181.386994 202.254348 
L 183.37874 197.988756 
L 185.370485 197.379385 
L 189.353977 192.504423 
L 191.345722 188.848202 
L 193.337468 187.020091 
L 195.329214 186.41072 
L 197.320959 182.145128 
L 199.312705 182.754499 
L 203.296196 185.19198 
L 207.279688 180.317018 
L 209.271433 179.707647 
L 211.263179 176.051426 
L 213.254925 171.785834 
L 215.24667 169.957723 
L 217.238416 169.348353 
L 219.230162 169.957723 
L 221.221907 163.25465 
L 223.213653 151.067244 
L 225.205399 150.457874 
L 227.197144 152.285985 
L 229.18889 151.067244 
L 231.180636 143.754801 
L 233.172381 149.848504 
L 235.164127 151.676615 
L 237.155873 149.848504 
L 239.147619 145.582912 
L 241.139364 144.364171 
L 243.13111 146.192282 
L 245.122856 145.582912 
L 247.114601 143.754801 
L 249.106347 143.145431 
L 251.098093 140.70795 
L 253.089838 137.661098 
L 255.081584 135.832987 
L 257.07333 137.051728 
L 259.065075 135.223617 
L 261.056821 134.614247 
L 263.048567 126.083063 
L 265.040312 120.59873 
L 267.032058 118.77062 
L 269.023804 115.723768 
L 271.015549 116.942509 
L 273.007295 114.505028 
L 274.999041 111.458176 
L 278.982532 112.676917 
L 280.974278 111.458176 
L 282.966023 113.895657 
L 284.957769 112.067547 
L 286.949515 113.895657 
L 288.94126 113.286287 
L 290.933006 117.551879 
L 292.924752 116.942509 
L 294.916497 117.551879 
L 296.908243 115.723768 
L 298.899989 113.286287 
L 300.891735 109.020695 
L 304.875226 107.801955 
L 306.866972 108.411325 
L 308.858717 112.067547 
L 310.850463 113.895657 
L 312.842209 116.942509 
L 314.833954 114.505028 
L 316.8257 110.848806 
L 318.817446 109.630065 
L 320.809191 103.536363 
L 322.800937 101.098882 
L 324.792683 98.05203 
L 326.784428 93.786438 
L 328.776174 87.692736 
L 332.759665 88.911476 
L 334.751411 85.864625 
L 336.743157 78.552181 
L 338.734902 80.380292 
L 340.726648 79.161552 
L 342.718394 78.552181 
L 344.710139 74.89596 
L 346.701885 74.286589 
L 348.693631 76.724071 
L 352.677122 74.286589 
L 354.668868 72.458479 
L 356.660613 73.067849 
L 358.652359 70.020997 
L 360.644105 69.411627 
L 362.635851 65.146035 
L 364.627596 64.536665 
L 366.619342 62.099184 
L 368.611088 65.146035 
L 370.602833 64.536665 
L 372.594579 60.880443 
L 374.586325 63.927295 
L 376.57807 62.099184 
L 378.569816 55.396111 
L 380.561562 54.17737 
L 382.553307 53.568 
L 382.553307 53.568 
" clip-path="url(#pf3985125b3)" style="fill: none; stroke: #008000; stroke-width: 1.5; stroke-linecap: square"/>
   </g>
   <g id="line2d_19">
    <path d="M 75.824473 286.347446 
L 77.816219 285.128705 
L 79.807964 283.300594 
L 85.783201 279.644373 
L 87.774947 280.863113 
L 89.766693 280.863113 
L 91.758438 282.691224 
L 93.750184 283.300594 
L 95.74193 282.081854 
L 97.733675 281.472484 
L 99.725421 280.253743 
L 101.717167 279.644373 
L 103.708912 280.253743 
L 105.700658 279.035003 
L 107.692404 276.597521 
L 109.684149 274.769411 
L 111.675895 274.16004 
L 115.659387 276.597521 
L 117.651132 277.206892 
L 119.642878 274.16004 
L 121.634624 274.769411 
L 123.626369 277.816262 
L 125.618115 277.206892 
L 127.609861 275.988151 
L 131.593352 277.206892 
L 133.585098 278.425632 
L 135.576843 279.035003 
L 137.568589 277.816262 
L 139.560335 278.425632 
L 141.55208 274.769411 
L 143.543826 274.16004 
L 145.535572 272.9413 
L 147.527317 275.988151 
L 149.519063 274.769411 
L 151.510809 275.378781 
L 153.502554 269.894448 
L 155.4943 269.285078 
L 157.486046 270.503819 
L 159.477791 268.066338 
L 161.469537 268.675708 
L 163.461283 263.191375 
L 165.453028 260.753894 
L 169.43652 254.660191 
L 171.428265 252.22271 
L 173.420011 249.175859 
L 175.411757 251.00397 
L 179.395248 248.566489 
L 181.386994 247.957118 
L 183.37874 245.519637 
L 185.370485 244.300897 
L 187.362231 247.347748 
L 189.353977 243.691526 
L 191.345722 243.082156 
L 195.329214 245.519637 
L 197.320959 240.035305 
L 199.312705 240.644675 
L 201.304451 238.207194 
L 203.296196 236.988453 
L 205.287942 233.941602 
L 207.279688 236.379083 
L 209.271433 234.550972 
L 211.263179 232.113491 
L 213.254925 230.894751 
L 215.24667 231.504121 
L 217.238416 232.722861 
L 219.230162 230.28538 
L 221.221907 229.67601 
L 223.213653 224.191678 
L 225.205399 221.754196 
L 227.197144 222.363567 
L 229.18889 218.707345 
L 231.180636 216.269864 
L 233.172381 209.566791 
L 237.155873 205.910569 
L 239.147619 207.73868 
L 241.139364 205.301199 
L 243.13111 208.34805 
L 247.114601 207.12931 
L 249.106347 204.082458 
L 251.098093 202.863718 
L 253.089838 205.301199 
L 255.081584 211.394902 
L 257.07333 209.566791 
L 259.065075 208.34805 
L 261.056821 208.957421 
L 263.048567 206.51994 
L 265.040312 199.207496 
L 267.032058 197.379385 
L 269.023804 196.770015 
L 271.015549 199.207496 
L 273.007295 198.598126 
L 274.999041 201.035607 
L 276.990786 201.644977 
L 278.982532 201.035607 
L 280.974278 196.770015 
L 282.966023 199.816866 
L 284.957769 197.988756 
L 290.933006 196.160645 
L 292.924752 194.332534 
L 294.916497 193.723164 
L 298.899989 191.285683 
L 300.891735 187.020091 
L 302.88348 189.457572 
L 304.875226 195.551275 
L 306.866972 192.504423 
L 308.858717 193.113793 
L 310.850463 192.504423 
L 312.842209 191.285683 
L 314.833954 193.723164 
L 316.8257 193.113793 
L 318.817446 189.457572 
L 320.809191 187.629461 
L 322.800937 188.238831 
L 324.792683 187.020091 
L 326.784428 188.238831 
L 328.776174 186.41072 
L 330.76792 183.973239 
L 332.759665 183.363869 
L 334.751411 185.19198 
L 336.743157 182.754499 
L 338.734902 183.363869 
L 340.726648 182.754499 
L 342.718394 179.707647 
L 344.710139 177.879537 
L 346.701885 176.660796 
L 348.693631 176.051426 
L 350.685376 173.004574 
L 352.677122 168.129612 
L 354.668868 165.692131 
L 356.660613 160.817169 
L 360.644105 159.598428 
L 362.635851 155.942207 
L 364.627596 155.332836 
L 366.619342 158.379688 
L 368.611088 158.989058 
L 370.602833 152.895355 
L 372.594579 154.114096 
L 374.586325 157.770317 
L 376.57807 156.551577 
L 378.569816 157.160947 
L 382.553307 154.723466 
L 384.545053 155.942207 
L 386.536799 152.895355 
L 388.528544 154.114096 
L 390.52029 153.504725 
L 392.512036 154.114096 
L 394.503781 153.504725 
L 396.495527 152.285985 
L 398.487273 151.676615 
L 398.487273 151.676615 
" clip-path="url(#pf3985125b3)" style="fill: none; stroke: #0000ff; stroke-width: 1.5; stroke-linecap: square"/>
   </g>
   <g id="line2d_20">
    <path d="M 75.824473 284.519335 
L 77.816219 289.394297 
L 79.807964 291.831778 
L 81.79971 290.613038 
L 83.791456 295.488 
L 85.783201 291.831778 
L 87.774947 291.222408 
L 89.766693 288.784927 
L 93.750184 286.347446 
L 95.74193 284.519335 
L 97.733675 279.035003 
L 99.725421 275.988151 
L 101.717167 276.597521 
L 103.708912 275.988151 
L 105.700658 274.769411 
L 107.692404 269.894448 
L 109.684149 267.456967 
L 113.667641 266.238227 
L 115.659387 268.066338 
L 117.651132 266.238227 
L 121.634624 265.019486 
L 123.626369 261.363264 
L 125.618115 255.878932 
L 127.609861 252.832081 
L 129.601606 251.61334 
L 131.593352 249.175859 
L 133.585098 253.441451 
L 135.576843 249.175859 
L 137.568589 248.566489 
L 139.560335 247.347748 
L 141.55208 248.566489 
L 143.543826 249.175859 
L 145.535572 247.347748 
L 149.519063 242.472786 
L 151.510809 240.644675 
L 153.502554 239.425935 
L 155.4943 240.035305 
L 157.486046 234.550972 
L 159.477791 228.45727 
L 161.469537 221.144826 
L 163.461283 219.926086 
L 165.453028 221.754196 
L 167.444774 218.707345 
L 169.43652 216.269864 
L 171.428265 216.879234 
L 173.420011 220.535456 
L 175.411757 219.926086 
L 177.403503 218.097975 
L 179.395248 214.441753 
L 181.386994 211.394902 
L 183.37874 208.957421 
L 185.370485 207.73868 
L 187.362231 205.910569 
L 189.353977 199.816866 
L 191.345722 197.379385 
L 193.337468 198.598126 
L 195.329214 197.379385 
L 197.320959 199.207496 
L 199.312705 200.426237 
L 201.304451 199.207496 
L 203.296196 197.379385 
L 205.287942 199.207496 
L 207.279688 197.988756 
L 209.271433 204.691829 
L 211.263179 203.473088 
L 213.254925 206.51994 
L 215.24667 204.082458 
L 217.238416 200.426237 
L 219.230162 197.988756 
L 221.221907 194.941904 
L 223.213653 195.551275 
L 225.205399 191.285683 
L 227.197144 189.457572 
L 235.164127 187.020091 
L 237.155873 185.80135 
L 239.147619 183.363869 
L 241.139364 182.145128 
L 243.13111 177.879537 
L 245.122856 179.707647 
L 247.114601 176.051426 
L 249.106347 169.348353 
L 251.098093 170.567093 
L 253.089838 172.395204 
L 255.081584 168.129612 
L 257.07333 171.785834 
L 259.065075 172.395204 
L 261.056821 171.785834 
L 263.048567 169.348353 
L 265.040312 162.64528 
L 267.032058 162.035909 
L 269.023804 164.47339 
L 271.015549 162.64528 
L 273.007295 158.989058 
L 274.999041 162.035909 
L 276.990786 160.207798 
L 278.982532 158.989058 
L 280.974278 157.160947 
L 282.966023 158.989058 
L 284.957769 151.067244 
L 286.949515 147.411023 
L 288.94126 144.364171 
L 290.933006 145.582912 
L 292.924752 141.92669 
L 294.916497 134.614247 
L 296.908243 126.692433 
L 298.899989 126.083063 
L 300.891735 123.645582 
L 302.88348 119.37999 
L 304.875226 113.895657 
L 308.858717 111.458176 
L 310.850463 118.161249 
L 312.842209 117.551879 
L 314.833954 113.895657 
L 316.8257 113.286287 
L 318.817446 114.505028 
L 320.809191 117.551879 
L 322.800937 114.505028 
L 324.792683 112.676917 
L 326.784428 113.895657 
L 328.776174 116.333139 
L 330.76792 116.942509 
L 332.759665 118.161249 
L 336.743157 116.942509 
L 338.734902 112.676917 
L 340.726648 109.630065 
L 342.718394 115.723768 
L 344.710139 111.458176 
L 346.701885 112.676917 
L 348.693631 109.630065 
L 350.685376 112.067547 
L 354.668868 113.286287 
L 356.660613 112.676917 
L 358.652359 111.458176 
L 360.644105 109.630065 
L 362.635851 110.239436 
L 366.619342 112.676917 
L 368.611088 110.848806 
L 370.602833 113.895657 
L 372.594579 118.161249 
L 374.586325 115.723768 
L 376.57807 109.630065 
L 378.569816 110.848806 
L 380.561562 110.239436 
L 382.553307 112.067547 
L 384.545053 108.411325 
L 388.528544 103.536363 
L 390.52029 101.708252 
L 392.512036 98.661401 
L 394.503781 97.44266 
L 396.495527 94.395809 
L 396.495527 94.395809 
" clip-path="url(#pf3985125b3)" style="fill: none; stroke: #ff7f0e; stroke-width: 1.5; stroke-linecap: square"/>
   </g>
   <g id="line2d_21">
    <path d="M 73.832727 282.081854 
L 75.824473 280.863113 
L 77.816219 281.472484 
L 79.807964 283.300594 
L 81.79971 280.863113 
L 83.791456 282.081854 
L 85.783201 280.253743 
L 87.774947 280.863113 
L 89.766693 279.035003 
L 91.758438 282.081854 
L 95.74193 279.644373 
L 97.733675 281.472484 
L 99.725421 279.644373 
L 101.717167 279.035003 
L 103.708912 274.16004 
L 105.700658 271.722559 
L 107.692404 269.894448 
L 109.684149 266.847597 
L 111.675895 260.753894 
L 113.667641 258.925783 
L 119.642878 257.097673 
L 121.634624 252.22271 
L 123.626369 252.832081 
L 125.618115 252.22271 
L 127.609861 253.441451 
L 131.593352 252.22271 
L 133.585098 251.00397 
L 135.576843 246.129008 
L 137.568589 242.472786 
L 139.560335 243.082156 
L 143.543826 238.207194 
L 147.527317 236.988453 
L 149.519063 238.816564 
L 151.510809 237.597824 
L 153.502554 238.816564 
L 155.4943 241.863416 
L 157.486046 243.082156 
L 159.477791 242.472786 
L 161.469537 241.254045 
L 163.461283 238.207194 
L 165.453028 236.988453 
L 169.43652 239.425935 
L 171.428265 234.550972 
L 175.411757 231.504121 
L 177.403503 230.894751 
L 179.395248 222.972937 
L 181.386994 221.144826 
L 183.37874 220.535456 
L 185.370485 216.879234 
L 187.362231 221.144826 
L 189.353977 219.316715 
L 191.345722 218.707345 
L 193.337468 213.832383 
L 195.329214 205.301199 
L 197.320959 204.082458 
L 201.304451 202.863718 
L 203.296196 197.379385 
L 205.287942 194.941904 
L 207.279688 195.551275 
L 209.271433 194.332534 
L 211.263179 194.941904 
L 215.24667 193.723164 
L 217.238416 194.941904 
L 219.230162 196.770015 
L 221.221907 194.941904 
L 223.213653 192.504423 
L 225.205399 191.895053 
L 227.197144 190.676312 
L 229.18889 191.285683 
L 233.172381 185.80135 
L 235.164127 182.754499 
L 237.155873 183.973239 
L 239.147619 185.80135 
L 241.139364 176.051426 
L 243.13111 175.442055 
L 245.122856 171.176463 
L 247.114601 171.785834 
L 249.106347 174.832685 
L 251.098093 175.442055 
L 253.089838 174.832685 
L 257.07333 176.051426 
L 259.065075 168.129612 
L 261.056821 161.426539 
L 263.048567 162.035909 
L 265.040312 163.25465 
L 267.032058 162.64528 
L 269.023804 164.47339 
L 271.015549 160.817169 
L 273.007295 162.64528 
L 274.999041 163.25465 
L 276.990786 162.64528 
L 280.974278 155.332836 
L 282.966023 156.551577 
L 286.949515 153.504725 
L 288.94126 154.723466 
L 290.933006 157.160947 
L 294.916497 158.379688 
L 296.908243 160.207798 
L 298.899989 157.160947 
L 304.875226 158.989058 
L 306.866972 158.379688 
L 308.858717 160.207798 
L 310.850463 162.64528 
L 312.842209 163.86402 
L 314.833954 163.25465 
L 316.8257 167.520242 
L 318.817446 169.957723 
L 320.809191 171.785834 
L 326.784428 168.129612 
L 328.776174 162.64528 
L 330.76792 162.035909 
L 332.759665 162.64528 
L 334.751411 164.47339 
L 336.743157 165.082761 
L 338.734902 163.25465 
L 340.726648 163.86402 
L 344.710139 169.348353 
L 346.701885 169.957723 
L 348.693631 169.348353 
L 350.685376 167.520242 
L 352.677122 166.910872 
L 354.668868 163.25465 
L 356.660613 163.86402 
L 358.652359 165.082761 
L 360.644105 160.817169 
L 362.635851 157.160947 
L 364.627596 156.551577 
L 366.619342 155.332836 
L 368.611088 155.942207 
L 370.602833 157.770317 
L 372.594579 155.332836 
L 374.586325 154.723466 
L 376.57807 147.411023 
L 380.561562 146.192282 
L 384.545053 143.754801 
L 386.536799 144.364171 
L 388.528544 142.53606 
L 390.52029 139.489209 
L 390.52029 139.489209 
" clip-path="url(#pf3985125b3)" style="fill: none; stroke: #ff0000; stroke-width: 1.5; stroke-linecap: square"/>
   </g>
   <g id="patch_3">
    <path d="M 57.6 307.584 
L 57.6 41.472 
" style="fill: none; stroke: #000000; stroke-width: 0.8; stroke-linejoin: miter; stroke-linecap: square"/>
   </g>
   <g id="patch_4">
    <path d="M 414.72 307.584 
L 414.72 41.472 
" style="fill: none; stroke: #000000; stroke-width: 0.8; stroke-linejoin: miter; stroke-linecap: square"/>
   </g>
   <g id="patch_5">
    <path d="M 57.6 307.584 
L 414.72 307.584 
" style="fill: none; stroke: #000000; stroke-width: 0.8; stroke-linejoin: miter; stroke-linecap: square"/>
   </g>
   <g id="patch_6">
    <path d="M 57.6 41.472 
L 414.72 41.472 
" style="fill: none; stroke: #000000; stroke-width: 0.8; stroke-linejoin: miter; stroke-linecap: square"/>
   </g>
   <g id="text_20">
    <!-- Cumulative Run Differential -->
    <g transform="translate(153.205312 35.472) scale(0.12 -0.12)">
     <defs>
      <path id="DejaVuSans-43" d="M 4122 4306 
L 4122 3641 
Q 3803 3938 3442 4084 
Q 3081 4231 2675 4231 
Q 1875 4231 1450 3742 
Q 1025 3253 1025 2328 
Q 1025 1406 1450 917 
Q 1875 428 2675 428 
Q 3081 428 3442 575 
Q 3803 722 4122 1019 
L 4122 359 
Q 3791 134 3420 21 
Q 3050 -91 2638 -91 
Q 1578 -91 968 557 
Q 359 1206 359 2328 
Q 359 3453 968 4101 
Q 1578 4750 2638 4750 
Q 3056 4750 3426 4639 
Q 3797 4528 4122 4306 
z
" transform="scale(0.015625)"/>
      <path id="DejaVuSans-6c" d="M 603 4863 
L 1178 4863 
L 1178 0 
L 603 0 
L 603 4863 
z
" transform="scale(0.015625)"/>
      <path id="DejaVuSans-76" d="M 191 3500 
L 800 3500 
L 1894 563 
L 2988 3500 
L 3597 3500 
L 2284 0 
L 1503 0 
L 191 3500 
z
" transform="scale(0.015625)"/>
      <path id="DejaVuSans-44" d="M 1259 4147 
L 1259 519 
L 2022 519 
Q 2988 519 3436 956 
Q 3884 1394 3884 2338 
Q 3884 3275 3436 3711 
Q 2988 4147 2022 4147 
L 1259 4147 
z
M 628 4666 
L 1925 4666 
Q 3281 4666 3915 4102 
Q 4550 3538 4550 2338 
Q 4550 1131 3912 565 
Q 3275 0 1925 0 
L 628 0 
L 628 4666 
z
" transform="scale(0.015625)"/>
      <path id="DejaVuSans-66" d="M 2375 4863 
L 2375 4384 
L 1825 4384 
Q 1516 4384 1395 4259 
Q 1275 4134 1275 3809 
L 1275 3500 
L 2222 3500 
L 2222 3053 
L 1275 3053 
L 1275 0 
L 697 0 
L 697 3053 
L 147 3053 
L 147 3500 
L 697 3500 
L 697 3744 
Q 697 4328 969 4595 
Q 1241 4863 1831 4863 
L 2375 4863 
z
" transform="scale(0.015625)"/>
     </defs>
     <use xlink:href="#DejaVuSans-43"/>
     <use xlink:href="#DejaVuSans-75" x="69.824219"/>
     <use xlink:href="#DejaVuSans-6d" x="133.203125"/>
     <use xlink:href="#DejaVuSans-75" x="230.615234"/>
     <use xlink:href="#DejaVuSans-6c" x="293.994141"/>
     <use xlink:href="#DejaVuSans-61" x="321.777344"/>
     <use xlink:href="#DejaVuSans-74" x="383.056641"/>
     <use xlink:href="#DejaVuSans-69" x="422.265625"/>
     <use xlink:href="#DejaVuSans-76" x="450.048828"/>
     <use xlink:href="#DejaVuSans-65" x="509.228516"/>
     <use xlink:href="#DejaVuSans-20" x="570.751953"/>
     <use xlink:href="#DejaVuSans-52" x="602.539062"/>
     <use xlink:href="#DejaVuSans-75" x="667.521484"/>
     <use xlink:href="#DejaVuSans-6e" x="730.900391"/>
     <use xlink:href="#DejaVuSans-20" x="794.279297"/>
     <use xlink:href="#DejaVuSans-44" x="826.066406"/>
     <use xlink:href="#DejaVuSans-69" x="903.068359"/>
     <use xlink:href="#DejaVuSans-66" x="930.851562"/>
     <use xlink:href="#DejaVuSans-66" x="966.056641"/>
     <use xlink:href="#DejaVuSans-65" x="1001.261719"/>
     <use xlink:href="#DejaVuSans-72" x="1062.785156"/>
     <use xlink:href="#DejaVuSans-65" x="1101.648438"/>
     <use xlink:href="#DejaVuSans-6e" x="1163.171875"/>
     <use xlink:href="#DejaVuSans-74" x="1226.550781"/>
     <use xlink:href="#DejaVuSans-69" x="1265.759766"/>
     <use xlink:href="#DejaVuSans-61" x="1293.542969"/>
     <use xlink:href="#DejaVuSans-6c" x="1354.822266"/>
    </g>
   </g>
   <g id="legend_1">
    <g id="patch_7">
     <path d="M 347.091875 302.584 
L 407.72 302.584 
Q 409.72 302.584 409.72 300.584 
L 409.72 242.8715 
Q 409.72 240.8715 407.72 240.8715 
L 347.091875 240.8715 
Q 345.091875 240.8715 345.091875 242.8715 
L 345.091875 300.584 
Q 345.091875 302.584 347.091875 302.584 
z
" style="fill: #ffffff; opacity: 0.8; stroke: #cccccc; stroke-linejoin: miter"/>
    </g>
    <g id="line2d_22">
     <path d="M 349.091875 248.969937 
L 359.091875 248.969937 
L 369.091875 248.969937 
" style="fill: none; stroke: #008000; stroke-width: 1.5; stroke-linecap: square"/>
    </g>
    <g id="text_21">
     <!--  1927 -->
     <g transform="translate(377.091875 252.469937) scale(0.1 -0.1)">
      <defs>
       <path id="DejaVuSans-39" d="M 703 97 
L 703 672 
Q 941 559 1184 500 
Q 1428 441 1663 441 
Q 2288 441 2617 861 
Q 2947 1281 2994 2138 
Q 2813 1869 2534 1725 
Q 2256 1581 1919 1581 
Q 1219 1581 811 2004 
Q 403 2428 403 3163 
Q 403 3881 828 4315 
Q 1253 4750 1959 4750 
Q 2769 4750 3195 4129 
Q 3622 3509 3622 2328 
Q 3622 1225 3098 567 
Q 2575 -91 1691 -91 
Q 1453 -91 1209 -44 
Q 966 3 703 97 
z
M 1959 2075 
Q 2384 2075 2632 2365 
Q 2881 2656 2881 3163 
Q 2881 3666 2632 3958 
Q 2384 4250 1959 4250 
Q 1534 4250 1286 3958 
Q 1038 3666 1038 3163 
Q 1038 2656 1286 2365 
Q 1534 2075 1959 2075 
z
" transform="scale(0.015625)"/>
       <path id="DejaVuSans-37" d="M 525 4666 
L 3525 4666 
L 3525 4397 
L 1831 0 
L 1172 0 
L 2766 4134 
L 525 4134 
L 525 4666 
z
" transform="scale(0.015625)"/>
      </defs>
      <use xlink:href="#DejaVuSans-20"/>
      <use xlink:href="#DejaVuSans-31" x="31.787109"/>
      <use xlink:href="#DejaVuSans-39" x="95.410156"/>
      <use xlink:href="#DejaVuSans-32" x="159.033203"/>
      <use xlink:href="#DejaVuSans-37" x="222.65625"/>
     </g>
    </g>
    <g id="line2d_23">
     <path d="M 349.091875 263.648062 
L 359.091875 263.648062 
L 369.091875 263.648062 
" style="fill: none; stroke: #0000ff; stroke-width: 1.5; stroke-linecap: square"/>
    </g>
    <g id="text_22">
     <!--  1961 -->
     <g transform="translate(377.091875 267.148062) scale(0.1 -0.1)">
      <use xlink:href="#DejaVuSans-20"/>
      <use xlink:href="#DejaVuSans-31" x="31.787109"/>
      <use xlink:href="#DejaVuSans-39" x="95.410156"/>
      <use xlink:href="#DejaVuSans-36" x="159.033203"/>
      <use xlink:href="#DejaVuSans-31" x="222.65625"/>
     </g>
    </g>
    <g id="line2d_24">
     <path d="M 349.091875 278.326187 
L 359.091875 278.326187 
L 369.091875 278.326187 
" style="fill: none; stroke: #ff7f0e; stroke-width: 1.5; stroke-linecap: square"/>
    </g>
    <g id="text_23">
     <!--  1998 -->
     <g transform="translate(377.091875 281.826187) scale(0.1 -0.1)">
      <use xlink:href="#DejaVuSans-20"/>
      <use xlink:href="#DejaVuSans-31" x="31.787109"/>
      <use xlink:href="#DejaVuSans-39" x="95.410156"/>
      <use xlink:href="#DejaVuSans-39" x="159.033203"/>
      <use xlink:href="#DejaVuSans-38" x="222.65625"/>
     </g>
    </g>
    <g id="line2d_25">
     <path d="M 349.091875 293.004312 
L 359.091875 293.004312 
L 369.091875 293.004312 
" style="fill: none; stroke: #ff0000; stroke-width: 1.5; stroke-linecap: square"/>
    </g>
    <g id="text_24">
     <!--  2022 -->
     <g transform="translate(377.091875 296.504312) scale(0.1 -0.1)">
      <use xlink:href="#DejaVuSans-20"/>
      <use xlink:href="#DejaVuSans-32" x="31.787109"/>
      <use xlink:href="#DejaVuSans-30" x="95.410156"/>
      <use xlink:href="#DejaVuSans-32" x="159.033203"/>
      <use xlink:href="#DejaVuSans-32" x="222.65625"/>
     </g>
    </g>
   </g>
  </g>
 </g>
 <defs>
  <clipPath id="pf3985125b3">
   <rect x="57.6" y="41.472" width="357.12" height="266.112"/>
  </clipPath>
 </defs>
</svg>
