<?xml version="1.0" encoding="utf-8" standalone="no"?>
<!DOCTYPE svg PUBLIC "-//W3C//DTD SVG 1.1//EN"
  "http://www.w3.org/Graphics/SVG/1.1/DTD/svg11.dtd">
<svg xmlns:xlink="http://www.w3.org/1999/xlink" width="460.8pt" height="345.6pt" viewBox="0 0 460.8 345.6" xmlns="http://www.w3.org/2000/svg" version="1.1">
 <metadata>
  <rdf:RDF xmlns:dc="http://purl.org/dc/elements/1.1/" xmlns:cc="http://creativecommons.org/ns#" xmlns:rdf="http://www.w3.org/1999/02/22-rdf-syntax-ns#">
   <cc:Work>
    <dc:type rdf:resource="http://purl.org/dc/dcmitype/StillImage"/>
    <dc:date>2022-10-05T11:10:29.503052</dc:date>
    <dc:format>image/svg+xml</dc:format>
    <dc:creator>
     <cc:Agent>
      <dc:title>Matplotlib v3.6.0, https://matplotlib.org/</dc:title>
     </cc:Agent>
    </dc:creator>
   </cc:Work>
  </rdf:RDF>
 </metadata>
 <defs>
  <style type="text/css">*{stroke-linejoin: round; stroke-linecap: butt}</style>
 </defs>
 <g id="figure_1">
  <g id="patch_1">
   <path d="M 0 345.6 
L 460.8 345.6 
L 460.8 0 
L 0 0 
z
" style="fill: #ffffff"/>
  </g>
  <g id="axes_1">
   <g id="patch_2">
    <path d="M 57.6 307.584 
L 414.72 307.584 
L 414.72 41.472 
L 57.6 41.472 
z
" style="fill: #ffffff"/>
   </g>
   <g id="matplotlib.axis_1">
    <g id="xtick_1">
     <g id="line2d_1">
      <defs>
       <path id="m0c913f370b" d="M 0 0 
L 0 3.5 
" style="stroke: #000000; stroke-width: 0.8"/>
      </defs>
      <g>
       <use xlink:href="#m0c913f370b" x="73.832727" y="307.584" style="stroke: #000000; stroke-width: 0.8"/>
      </g>
     </g>
     <g id="text_1">
      <!-- 0 -->
      <g transform="translate(70.651477 322.182437) scale(0.1 -0.1)">
       <defs>
        <path id="DejaVuSans-30" d="M 2034 4250 
Q 1547 4250 1301 3770 
Q 1056 3291 1056 2328 
Q 1056 1369 1301 889 
Q 1547 409 2034 409 
Q 2525 409 2770 889 
Q 3016 1369 3016 2328 
Q 3016 3291 2770 3770 
Q 2525 4250 2034 4250 
z
M 2034 4750 
Q 2819 4750 3233 4129 
Q 3647 3509 3647 2328 
Q 3647 1150 3233 529 
Q 2819 -91 2034 -91 
Q 1250 -91 836 529 
Q 422 1150 422 2328 
Q 422 3509 836 4129 
Q 1250 4750 2034 4750 
z
" transform="scale(0.015625)"/>
       </defs>
       <use xlink:href="#DejaVuSans-30"/>
      </g>
     </g>
    </g>
    <g id="xtick_2">
     <g id="line2d_2">
      <g>
       <use xlink:href="#m0c913f370b" x="122.726484" y="307.584" style="stroke: #000000; stroke-width: 0.8"/>
      </g>
     </g>
     <g id="text_2">
      <!-- 25 -->
      <g transform="translate(116.363984 322.182437) scale(0.1 -0.1)">
       <defs>
        <path id="DejaVuSans-32" d="M 1228 531 
L 3431 531 
L 3431 0 
L 469 0 
L 469 531 
Q 828 903 1448 1529 
Q 2069 2156 2228 2338 
Q 2531 2678 2651 2914 
Q 2772 3150 2772 3378 
Q 2772 3750 2511 3984 
Q 2250 4219 1831 4219 
Q 1534 4219 1204 4116 
Q 875 4013 500 3803 
L 500 4441 
Q 881 4594 1212 4672 
Q 1544 4750 1819 4750 
Q 2544 4750 2975 4387 
Q 3406 4025 3406 3419 
Q 3406 3131 3298 2873 
Q 3191 2616 2906 2266 
Q 2828 2175 2409 1742 
Q 1991 1309 1228 531 
z
" transform="scale(0.015625)"/>
        <path id="DejaVuSans-35" d="M 691 4666 
L 3169 4666 
L 3169 4134 
L 1269 4134 
L 1269 2991 
Q 1406 3038 1543 3061 
Q 1681 3084 1819 3084 
Q 2600 3084 3056 2656 
Q 3513 2228 3513 1497 
Q 3513 744 3044 326 
Q 2575 -91 1722 -91 
Q 1428 -91 1123 -41 
Q 819 9 494 109 
L 494 744 
Q 775 591 1075 516 
Q 1375 441 1709 441 
Q 2250 441 2565 725 
Q 2881 1009 2881 1497 
Q 2881 1984 2565 2268 
Q 2250 2553 1709 2553 
Q 1456 2553 1204 2497 
Q 953 2441 691 2322 
L 691 4666 
z
" transform="scale(0.015625)"/>
       </defs>
       <use xlink:href="#DejaVuSans-32"/>
       <use xlink:href="#DejaVuSans-35" x="63.623047"/>
      </g>
     </g>
    </g>
    <g id="xtick_3">
     <g id="line2d_3">
      <g>
       <use xlink:href="#m0c913f370b" x="171.620241" y="307.584" style="stroke: #000000; stroke-width: 0.8"/>
      </g>
     </g>
     <g id="text_3">
      <!-- 50 -->
      <g transform="translate(165.257741 322.182437) scale(0.1 -0.1)">
       <use xlink:href="#DejaVuSans-35"/>
       <use xlink:href="#DejaVuSans-30" x="63.623047"/>
      </g>
     </g>
    </g>
    <g id="xtick_4">
     <g id="line2d_4">
      <g>
       <use xlink:href="#m0c913f370b" x="220.513998" y="307.584" style="stroke: #000000; stroke-width: 0.8"/>
      </g>
     </g>
     <g id="text_4">
      <!-- 75 -->
      <g transform="translate(214.151498 322.182437) scale(0.1 -0.1)">
       <defs>
        <path id="DejaVuSans-37" d="M 525 4666 
L 3525 4666 
L 3525 4397 
L 1831 0 
L 1172 0 
L 2766 4134 
L 525 4134 
L 525 4666 
z
" transform="scale(0.015625)"/>
       </defs>
       <use xlink:href="#DejaVuSans-37"/>
       <use xlink:href="#DejaVuSans-35" x="63.623047"/>
      </g>
     </g>
    </g>
    <g id="xtick_5">
     <g id="line2d_5">
      <g>
       <use xlink:href="#m0c913f370b" x="269.407755" y="307.584" style="stroke: #000000; stroke-width: 0.8"/>
      </g>
     </g>
     <g id="text_5">
      <!-- 100 -->
      <g transform="translate(259.864005 322.182437) scale(0.1 -0.1)">
       <defs>
        <path id="DejaVuSans-31" d="M 794 531 
L 1825 531 
L 1825 4091 
L 703 3866 
L 703 4441 
L 1819 4666 
L 2450 4666 
L 2450 531 
L 3481 531 
L 3481 0 
L 794 0 
L 794 531 
z
" transform="scale(0.015625)"/>
       </defs>
       <use xlink:href="#DejaVuSans-31"/>
       <use xlink:href="#DejaVuSans-30" x="63.623047"/>
       <use xlink:href="#DejaVuSans-30" x="127.246094"/>
      </g>
     </g>
    </g>
    <g id="xtick_6">
     <g id="line2d_6">
      <g>
       <use xlink:href="#m0c913f370b" x="318.301512" y="307.584" style="stroke: #000000; stroke-width: 0.8"/>
      </g>
     </g>
     <g id="text_6">
      <!-- 125 -->
      <g transform="translate(308.757762 322.182437) scale(0.1 -0.1)">
       <use xlink:href="#DejaVuSans-31"/>
       <use xlink:href="#DejaVuSans-32" x="63.623047"/>
       <use xlink:href="#DejaVuSans-35" x="127.246094"/>
      </g>
     </g>
    </g>
    <g id="xtick_7">
     <g id="line2d_7">
      <g>
       <use xlink:href="#m0c913f370b" x="367.195268" y="307.584" style="stroke: #000000; stroke-width: 0.8"/>
      </g>
     </g>
     <g id="text_7">
      <!-- 150 -->
      <g transform="translate(357.651518 322.182437) scale(0.1 -0.1)">
       <use xlink:href="#DejaVuSans-31"/>
       <use xlink:href="#DejaVuSans-35" x="63.623047"/>
       <use xlink:href="#DejaVuSans-30" x="127.246094"/>
      </g>
     </g>
    </g>
    <g id="text_8">
     <!-- Games -->
     <g transform="translate(218.670156 335.860562) scale(0.1 -0.1)">
      <defs>
       <path id="DejaVuSans-47" d="M 3809 666 
L 3809 1919 
L 2778 1919 
L 2778 2438 
L 4434 2438 
L 4434 434 
Q 4069 175 3628 42 
Q 3188 -91 2688 -91 
Q 1594 -91 976 548 
Q 359 1188 359 2328 
Q 359 3472 976 4111 
Q 1594 4750 2688 4750 
Q 3144 4750 3555 4637 
Q 3966 4525 4313 4306 
L 4313 3634 
Q 3963 3931 3569 4081 
Q 3175 4231 2741 4231 
Q 1884 4231 1454 3753 
Q 1025 3275 1025 2328 
Q 1025 1384 1454 906 
Q 1884 428 2741 428 
Q 3075 428 3337 486 
Q 3600 544 3809 666 
z
" transform="scale(0.015625)"/>
       <path id="DejaVuSans-61" d="M 2194 1759 
Q 1497 1759 1228 1600 
Q 959 1441 959 1056 
Q 959 750 1161 570 
Q 1363 391 1709 391 
Q 2188 391 2477 730 
Q 2766 1069 2766 1631 
L 2766 1759 
L 2194 1759 
z
M 3341 1997 
L 3341 0 
L 2766 0 
L 2766 531 
Q 2569 213 2275 61 
Q 1981 -91 1556 -91 
Q 1019 -91 701 211 
Q 384 513 384 1019 
Q 384 1609 779 1909 
Q 1175 2209 1959 2209 
L 2766 2209 
L 2766 2266 
Q 2766 2663 2505 2880 
Q 2244 3097 1772 3097 
Q 1472 3097 1187 3025 
Q 903 2953 641 2809 
L 641 3341 
Q 956 3463 1253 3523 
Q 1550 3584 1831 3584 
Q 2591 3584 2966 3190 
Q 3341 2797 3341 1997 
z
" transform="scale(0.015625)"/>
       <path id="DejaVuSans-6d" d="M 3328 2828 
Q 3544 3216 3844 3400 
Q 4144 3584 4550 3584 
Q 5097 3584 5394 3201 
Q 5691 2819 5691 2113 
L 5691 0 
L 5113 0 
L 5113 2094 
Q 5113 2597 4934 2840 
Q 4756 3084 4391 3084 
Q 3944 3084 3684 2787 
Q 3425 2491 3425 1978 
L 3425 0 
L 2847 0 
L 2847 2094 
Q 2847 2600 2669 2842 
Q 2491 3084 2119 3084 
Q 1678 3084 1418 2786 
Q 1159 2488 1159 1978 
L 1159 0 
L 581 0 
L 581 3500 
L 1159 3500 
L 1159 2956 
Q 1356 3278 1631 3431 
Q 1906 3584 2284 3584 
Q 2666 3584 2933 3390 
Q 3200 3197 3328 2828 
z
" transform="scale(0.015625)"/>
       <path id="DejaVuSans-65" d="M 3597 1894 
L 3597 1613 
L 953 1613 
Q 991 1019 1311 708 
Q 1631 397 2203 397 
Q 2534 397 2845 478 
Q 3156 559 3463 722 
L 3463 178 
Q 3153 47 2828 -22 
Q 2503 -91 2169 -91 
Q 1331 -91 842 396 
Q 353 884 353 1716 
Q 353 2575 817 3079 
Q 1281 3584 2069 3584 
Q 2775 3584 3186 3129 
Q 3597 2675 3597 1894 
z
M 3022 2063 
Q 3016 2534 2758 2815 
Q 2500 3097 2075 3097 
Q 1594 3097 1305 2825 
Q 1016 2553 972 2059 
L 3022 2063 
z
" transform="scale(0.015625)"/>
       <path id="DejaVuSans-73" d="M 2834 3397 
L 2834 2853 
Q 2591 2978 2328 3040 
Q 2066 3103 1784 3103 
Q 1356 3103 1142 2972 
Q 928 2841 928 2578 
Q 928 2378 1081 2264 
Q 1234 2150 1697 2047 
L 1894 2003 
Q 2506 1872 2764 1633 
Q 3022 1394 3022 966 
Q 3022 478 2636 193 
Q 2250 -91 1575 -91 
Q 1294 -91 989 -36 
Q 684 19 347 128 
L 347 722 
Q 666 556 975 473 
Q 1284 391 1588 391 
Q 1994 391 2212 530 
Q 2431 669 2431 922 
Q 2431 1156 2273 1281 
Q 2116 1406 1581 1522 
L 1381 1569 
Q 847 1681 609 1914 
Q 372 2147 372 2553 
Q 372 3047 722 3315 
Q 1072 3584 1716 3584 
Q 2034 3584 2315 3537 
Q 2597 3491 2834 3397 
z
" transform="scale(0.015625)"/>
      </defs>
      <use xlink:href="#DejaVuSans-47"/>
      <use xlink:href="#DejaVuSans-61" x="77.490234"/>
      <use xlink:href="#DejaVuSans-6d" x="138.769531"/>
      <use xlink:href="#DejaVuSans-65" x="236.181641"/>
      <use xlink:href="#DejaVuSans-73" x="297.705078"/>
     </g>
    </g>
   </g>
   <g id="matplotlib.axis_2">
    <g id="ytick_1">
     <g id="line2d_8">
      <defs>
       <path id="m78ed099e32" d="M 0 0 
L -3.5 0 
" style="stroke: #000000; stroke-width: 0.8"/>
      </defs>
      <g>
       <use xlink:href="#m78ed099e32" x="57.6" y="282.691224" style="stroke: #000000; stroke-width: 0.8"/>
      </g>
     </g>
     <g id="text_9">
      <!-- 0 -->
      <g transform="translate(44.2375 286.490443) scale(0.1 -0.1)">
       <use xlink:href="#DejaVuSans-30"/>
      </g>
     </g>
    </g>
    <g id="ytick_2">
     <g id="line2d_9">
      <g>
       <use xlink:href="#m78ed099e32" x="57.6" y="252.22271" style="stroke: #000000; stroke-width: 0.8"/>
      </g>
     </g>
     <g id="text_10">
      <!-- 50 -->
      <g transform="translate(37.875 256.021929) scale(0.1 -0.1)">
       <use xlink:href="#DejaVuSans-35"/>
       <use xlink:href="#DejaVuSans-30" x="63.623047"/>
      </g>
     </g>
    </g>
    <g id="ytick_3">
     <g id="line2d_10">
      <g>
       <use xlink:href="#m78ed099e32" x="57.6" y="221.754196" style="stroke: #000000; stroke-width: 0.8"/>
      </g>
     </g>
     <g id="text_11">
      <!-- 100 -->
      <g transform="translate(31.5125 225.553415) scale(0.1 -0.1)">
       <use xlink:href="#DejaVuSans-31"/>
       <use xlink:href="#DejaVuSans-30" x="63.623047"/>
       <use xlink:href="#DejaVuSans-30" x="127.246094"/>
      </g>
     </g>
    </g>
    <g id="ytick_4">
     <g id="line2d_11">
      <g>
       <use xlink:href="#m78ed099e32" x="57.6" y="191.285683" style="stroke: #000000; stroke-width: 0.8"/>
      </g>
     </g>
     <g id="text_12">
      <!-- 150 -->
      <g transform="translate(31.5125 195.084901) scale(0.1 -0.1)">
       <use xlink:href="#DejaVuSans-31"/>
       <use xlink:href="#DejaVuSans-35" x="63.623047"/>
       <use xlink:href="#DejaVuSans-30" x="127.246094"/>
      </g>
     </g>
    </g>
    <g id="ytick_5">
     <g id="line2d_12">
      <g>
       <use xlink:href="#m78ed099e32" x="57.6" y="160.817169" style="stroke: #000000; stroke-width: 0.8"/>
      </g>
     </g>
     <g id="text_13">
      <!-- 200 -->
      <g transform="translate(31.5125 164.616388) scale(0.1 -0.1)">
       <use xlink:href="#DejaVuSans-32"/>
       <use xlink:href="#DejaVuSans-30" x="63.623047"/>
       <use xlink:href="#DejaVuSans-30" x="127.246094"/>
      </g>
     </g>
    </g>
    <g id="ytick_6">
     <g id="line2d_13">
      <g>
       <use xlink:href="#m78ed099e32" x="57.6" y="130.348655" style="stroke: #000000; stroke-width: 0.8"/>
      </g>
     </g>
     <g id="text_14">
      <!-- 250 -->
      <g transform="translate(31.5125 134.147874) scale(0.1 -0.1)">
       <use xlink:href="#DejaVuSans-32"/>
       <use xlink:href="#DejaVuSans-35" x="63.623047"/>
       <use xlink:href="#DejaVuSans-30" x="127.246094"/>
      </g>
     </g>
    </g>
    <g id="ytick_7">
     <g id="line2d_14">
      <g>
       <use xlink:href="#m78ed099e32" x="57.6" y="99.880141" style="stroke: #000000; stroke-width: 0.8"/>
      </g>
     </g>
     <g id="text_15">
      <!-- 300 -->
      <g transform="translate(31.5125 103.67936) scale(0.1 -0.1)">
       <defs>
        <path id="DejaVuSans-33" d="M 2597 2516 
Q 3050 2419 3304 2112 
Q 3559 1806 3559 1356 
Q 3559 666 3084 287 
Q 2609 -91 1734 -91 
Q 1441 -91 1130 -33 
Q 819 25 488 141 
L 488 750 
Q 750 597 1062 519 
Q 1375 441 1716 441 
Q 2309 441 2620 675 
Q 2931 909 2931 1356 
Q 2931 1769 2642 2001 
Q 2353 2234 1838 2234 
L 1294 2234 
L 1294 2753 
L 1863 2753 
Q 2328 2753 2575 2939 
Q 2822 3125 2822 3475 
Q 2822 3834 2567 4026 
Q 2313 4219 1838 4219 
Q 1578 4219 1281 4162 
Q 984 4106 628 3988 
L 628 4550 
Q 988 4650 1302 4700 
Q 1616 4750 1894 4750 
Q 2613 4750 3031 4423 
Q 3450 4097 3450 3541 
Q 3450 3153 3228 2886 
Q 3006 2619 2597 2516 
z
" transform="scale(0.015625)"/>
       </defs>
       <use xlink:href="#DejaVuSans-33"/>
       <use xlink:href="#DejaVuSans-30" x="63.623047"/>
       <use xlink:href="#DejaVuSans-30" x="127.246094"/>
      </g>
     </g>
    </g>
    <g id="ytick_8">
     <g id="line2d_15">
      <g>
       <use xlink:href="#m78ed099e32" x="57.6" y="69.411627" style="stroke: #000000; stroke-width: 0.8"/>
      </g>
     </g>
     <g id="text_16">
      <!-- 350 -->
      <g transform="translate(31.5125 73.210846) scale(0.1 -0.1)">
       <use xlink:href="#DejaVuSans-33"/>
       <use xlink:href="#DejaVuSans-35" x="63.623047"/>
       <use xlink:href="#DejaVuSans-30" x="127.246094"/>
      </g>
     </g>
    </g>
    <g id="text_17">
     <!-- Runs Scored - Runs Against -->
     <g transform="translate(25.432812 243.028781) rotate(-90) scale(0.1 -0.1)">
      <defs>
       <path id="DejaVuSans-52" d="M 2841 2188 
Q 3044 2119 3236 1894 
Q 3428 1669 3622 1275 
L 4263 0 
L 3584 0 
L 2988 1197 
Q 2756 1666 2539 1819 
Q 2322 1972 1947 1972 
L 1259 1972 
L 1259 0 
L 628 0 
L 628 4666 
L 2053 4666 
Q 2853 4666 3247 4331 
Q 3641 3997 3641 3322 
Q 3641 2881 3436 2590 
Q 3231 2300 2841 2188 
z
M 1259 4147 
L 1259 2491 
L 2053 2491 
Q 2509 2491 2742 2702 
Q 2975 2913 2975 3322 
Q 2975 3731 2742 3939 
Q 2509 4147 2053 4147 
L 1259 4147 
z
" transform="scale(0.015625)"/>
       <path id="DejaVuSans-75" d="M 544 1381 
L 544 3500 
L 1119 3500 
L 1119 1403 
Q 1119 906 1312 657 
Q 1506 409 1894 409 
Q 2359 409 2629 706 
Q 2900 1003 2900 1516 
L 2900 3500 
L 3475 3500 
L 3475 0 
L 2900 0 
L 2900 538 
Q 2691 219 2414 64 
Q 2138 -91 1772 -91 
Q 1169 -91 856 284 
Q 544 659 544 1381 
z
M 1991 3584 
L 1991 3584 
z
" transform="scale(0.015625)"/>
       <path id="DejaVuSans-6e" d="M 3513 2113 
L 3513 0 
L 2938 0 
L 2938 2094 
Q 2938 2591 2744 2837 
Q 2550 3084 2163 3084 
Q 1697 3084 1428 2787 
Q 1159 2491 1159 1978 
L 1159 0 
L 581 0 
L 581 3500 
L 1159 3500 
L 1159 2956 
Q 1366 3272 1645 3428 
Q 1925 3584 2291 3584 
Q 2894 3584 3203 3211 
Q 3513 2838 3513 2113 
z
" transform="scale(0.015625)"/>
       <path id="DejaVuSans-20" transform="scale(0.015625)"/>
       <path id="DejaVuSans-53" d="M 3425 4513 
L 3425 3897 
Q 3066 4069 2747 4153 
Q 2428 4238 2131 4238 
Q 1616 4238 1336 4038 
Q 1056 3838 1056 3469 
Q 1056 3159 1242 3001 
Q 1428 2844 1947 2747 
L 2328 2669 
Q 3034 2534 3370 2195 
Q 3706 1856 3706 1288 
Q 3706 609 3251 259 
Q 2797 -91 1919 -91 
Q 1588 -91 1214 -16 
Q 841 59 441 206 
L 441 856 
Q 825 641 1194 531 
Q 1563 422 1919 422 
Q 2459 422 2753 634 
Q 3047 847 3047 1241 
Q 3047 1584 2836 1778 
Q 2625 1972 2144 2069 
L 1759 2144 
Q 1053 2284 737 2584 
Q 422 2884 422 3419 
Q 422 4038 858 4394 
Q 1294 4750 2059 4750 
Q 2388 4750 2728 4690 
Q 3069 4631 3425 4513 
z
" transform="scale(0.015625)"/>
       <path id="DejaVuSans-63" d="M 3122 3366 
L 3122 2828 
Q 2878 2963 2633 3030 
Q 2388 3097 2138 3097 
Q 1578 3097 1268 2742 
Q 959 2388 959 1747 
Q 959 1106 1268 751 
Q 1578 397 2138 397 
Q 2388 397 2633 464 
Q 2878 531 3122 666 
L 3122 134 
Q 2881 22 2623 -34 
Q 2366 -91 2075 -91 
Q 1284 -91 818 406 
Q 353 903 353 1747 
Q 353 2603 823 3093 
Q 1294 3584 2113 3584 
Q 2378 3584 2631 3529 
Q 2884 3475 3122 3366 
z
" transform="scale(0.015625)"/>
       <path id="DejaVuSans-6f" d="M 1959 3097 
Q 1497 3097 1228 2736 
Q 959 2375 959 1747 
Q 959 1119 1226 758 
Q 1494 397 1959 397 
Q 2419 397 2687 759 
Q 2956 1122 2956 1747 
Q 2956 2369 2687 2733 
Q 2419 3097 1959 3097 
z
M 1959 3584 
Q 2709 3584 3137 3096 
Q 3566 2609 3566 1747 
Q 3566 888 3137 398 
Q 2709 -91 1959 -91 
Q 1206 -91 779 398 
Q 353 888 353 1747 
Q 353 2609 779 3096 
Q 1206 3584 1959 3584 
z
" transform="scale(0.015625)"/>
       <path id="DejaVuSans-72" d="M 2631 2963 
Q 2534 3019 2420 3045 
Q 2306 3072 2169 3072 
Q 1681 3072 1420 2755 
Q 1159 2438 1159 1844 
L 1159 0 
L 581 0 
L 581 3500 
L 1159 3500 
L 1159 2956 
Q 1341 3275 1631 3429 
Q 1922 3584 2338 3584 
Q 2397 3584 2469 3576 
Q 2541 3569 2628 3553 
L 2631 2963 
z
" transform="scale(0.015625)"/>
       <path id="DejaVuSans-64" d="M 2906 2969 
L 2906 4863 
L 3481 4863 
L 3481 0 
L 2906 0 
L 2906 525 
Q 2725 213 2448 61 
Q 2172 -91 1784 -91 
Q 1150 -91 751 415 
Q 353 922 353 1747 
Q 353 2572 751 3078 
Q 1150 3584 1784 3584 
Q 2172 3584 2448 3432 
Q 2725 3281 2906 2969 
z
M 947 1747 
Q 947 1113 1208 752 
Q 1469 391 1925 391 
Q 2381 391 2643 752 
Q 2906 1113 2906 1747 
Q 2906 2381 2643 2742 
Q 2381 3103 1925 3103 
Q 1469 3103 1208 2742 
Q 947 2381 947 1747 
z
" transform="scale(0.015625)"/>
       <path id="DejaVuSans-2d" d="M 313 2009 
L 1997 2009 
L 1997 1497 
L 313 1497 
L 313 2009 
z
" transform="scale(0.015625)"/>
       <path id="DejaVuSans-41" d="M 2188 4044 
L 1331 1722 
L 3047 1722 
L 2188 4044 
z
M 1831 4666 
L 2547 4666 
L 4325 0 
L 3669 0 
L 3244 1197 
L 1141 1197 
L 716 0 
L 50 0 
L 1831 4666 
z
" transform="scale(0.015625)"/>
       <path id="DejaVuSans-67" d="M 2906 1791 
Q 2906 2416 2648 2759 
Q 2391 3103 1925 3103 
Q 1463 3103 1205 2759 
Q 947 2416 947 1791 
Q 947 1169 1205 825 
Q 1463 481 1925 481 
Q 2391 481 2648 825 
Q 2906 1169 2906 1791 
z
M 3481 434 
Q 3481 -459 3084 -895 
Q 2688 -1331 1869 -1331 
Q 1566 -1331 1297 -1286 
Q 1028 -1241 775 -1147 
L 775 -588 
Q 1028 -725 1275 -790 
Q 1522 -856 1778 -856 
Q 2344 -856 2625 -561 
Q 2906 -266 2906 331 
L 2906 616 
Q 2728 306 2450 153 
Q 2172 0 1784 0 
Q 1141 0 747 490 
Q 353 981 353 1791 
Q 353 2603 747 3093 
Q 1141 3584 1784 3584 
Q 2172 3584 2450 3431 
Q 2728 3278 2906 2969 
L 2906 3500 
L 3481 3500 
L 3481 434 
z
" transform="scale(0.015625)"/>
       <path id="DejaVuSans-69" d="M 603 3500 
L 1178 3500 
L 1178 0 
L 603 0 
L 603 3500 
z
M 603 4863 
L 1178 4863 
L 1178 4134 
L 603 4134 
L 603 4863 
z
" transform="scale(0.015625)"/>
       <path id="DejaVuSans-74" d="M 1172 4494 
L 1172 3500 
L 2356 3500 
L 2356 3053 
L 1172 3053 
L 1172 1153 
Q 1172 725 1289 603 
Q 1406 481 1766 481 
L 2356 481 
L 2356 0 
L 1766 0 
Q 1100 0 847 248 
Q 594 497 594 1153 
L 594 3053 
L 172 3053 
L 172 3500 
L 594 3500 
L 594 4494 
L 1172 4494 
z
" transform="scale(0.015625)"/>
      </defs>
      <use xlink:href="#DejaVuSans-52"/>
      <use xlink:href="#DejaVuSans-75" x="64.982422"/>
      <use xlink:href="#DejaVuSans-6e" x="128.361328"/>
      <use xlink:href="#DejaVuSans-73" x="191.740234"/>
      <use xlink:href="#DejaVuSans-20" x="243.839844"/>
      <use xlink:href="#DejaVuSans-53" x="275.626953"/>
      <use xlink:href="#DejaVuSans-63" x="339.103516"/>
      <use xlink:href="#DejaVuSans-6f" x="394.083984"/>
      <use xlink:href="#DejaVuSans-72" x="455.265625"/>
      <use xlink:href="#DejaVuSans-65" x="494.128906"/>
      <use xlink:href="#DejaVuSans-64" x="555.652344"/>
      <use xlink:href="#DejaVuSans-20" x="619.128906"/>
      <use xlink:href="#DejaVuSans-2d" x="650.916016"/>
      <use xlink:href="#DejaVuSans-20" x="687"/>
      <use xlink:href="#DejaVuSans-52" x="718.787109"/>
      <use xlink:href="#DejaVuSans-75" x="783.769531"/>
      <use xlink:href="#DejaVuSans-6e" x="847.148438"/>
      <use xlink:href="#DejaVuSans-73" x="910.527344"/>
      <use xlink:href="#DejaVuSans-20" x="962.626953"/>
      <use xlink:href="#DejaVuSans-41" x="994.414062"/>
      <use xlink:href="#DejaVuSans-67" x="1062.822266"/>
      <use xlink:href="#DejaVuSans-61" x="1126.298828"/>
      <use xlink:href="#DejaVuSans-69" x="1187.578125"/>
      <use xlink:href="#DejaVuSans-6e" x="1215.361328"/>
      <use xlink:href="#DejaVuSans-73" x="1278.740234"/>
      <use xlink:href="#DejaVuSans-74" x="1330.839844"/>
     </g>
    </g>
   </g>
   <g id="line2d_16">
    <path d="M 75.788478 279.644373 
L 77.744228 275.988151 
L 79.699978 275.988151 
L 83.611479 272.331929 
L 85.567229 265.019486 
L 87.522979 263.191375 
L 91.43448 266.847597 
L 93.39023 262.582005 
L 95.34598 263.191375 
L 97.301731 260.753894 
L 99.257481 261.363264 
L 101.213231 255.878932 
L 103.168981 256.488302 
L 105.124732 254.050821 
L 107.080482 252.22271 
L 109.036232 251.00397 
L 110.991982 252.832081 
L 112.947733 255.878932 
L 114.903483 251.00397 
L 116.859233 245.519637 
L 118.814984 246.129008 
L 120.770734 245.519637 
L 122.726484 244.300897 
L 124.682234 243.691526 
L 126.637985 242.472786 
L 128.593735 240.035305 
L 130.549485 235.769713 
L 132.505235 235.160343 
L 136.416736 236.379083 
L 138.372486 233.332232 
L 140.328237 233.941602 
L 142.283987 236.988453 
L 144.239737 233.941602 
L 146.195487 230.28538 
L 148.151238 230.894751 
L 150.106988 226.019788 
L 152.062738 226.629159 
L 154.018488 226.019788 
L 155.974239 221.754196 
L 157.929989 213.832383 
L 159.885739 213.223013 
L 161.84149 212.004272 
L 163.79724 213.223013 
L 165.75299 212.004272 
L 167.70874 210.176161 
L 169.664491 209.566791 
L 171.620241 206.51994 
L 173.575991 207.73868 
L 175.531742 206.51994 
L 177.487492 207.12931 
L 179.443242 202.254348 
L 181.398992 197.988756 
L 183.354743 197.379385 
L 187.266243 192.504423 
L 189.221993 188.848202 
L 191.177744 187.020091 
L 193.133494 186.41072 
L 195.089244 182.145128 
L 197.044995 182.754499 
L 200.956495 185.19198 
L 204.867996 180.317018 
L 206.823746 179.707647 
L 208.779496 176.051426 
L 210.735246 171.785834 
L 212.690997 169.957723 
L 214.646747 169.348353 
L 216.602497 169.957723 
L 218.558248 163.25465 
L 220.513998 151.067244 
L 222.469748 150.457874 
L 224.425498 152.285985 
L 226.381249 151.067244 
L 228.336999 143.754801 
L 230.292749 149.848504 
L 232.248499 151.676615 
L 234.20425 149.848504 
L 236.16 145.582912 
L 238.11575 144.364171 
L 240.071501 146.192282 
L 242.027251 145.582912 
L 243.983001 143.754801 
L 245.938751 143.145431 
L 247.894502 140.70795 
L 249.850252 137.661098 
L 251.806002 135.832987 
L 253.761752 137.051728 
L 255.717503 135.223617 
L 257.673253 134.614247 
L 259.629003 126.083063 
L 261.584754 120.59873 
L 263.540504 118.77062 
L 265.496254 115.723768 
L 267.452004 116.942509 
L 269.407755 114.505028 
L 271.363505 111.458176 
L 275.275005 112.676917 
L 277.230756 111.458176 
L 279.186506 113.895657 
L 281.142256 112.067547 
L 283.098007 113.895657 
L 285.053757 113.286287 
L 287.009507 117.551879 
L 288.965257 116.942509 
L 290.921008 117.551879 
L 292.876758 115.723768 
L 294.832508 113.286287 
L 296.788258 109.020695 
L 300.699759 107.801955 
L 302.655509 108.411325 
L 304.61126 112.067547 
L 306.56701 113.895657 
L 308.52276 116.942509 
L 310.47851 114.505028 
L 312.434261 110.848806 
L 314.390011 109.630065 
L 316.345761 103.536363 
L 318.301512 101.098882 
L 320.257262 98.05203 
L 322.213012 93.786438 
L 324.168762 87.692736 
L 328.080263 88.911476 
L 330.036013 85.864625 
L 331.991763 78.552181 
L 333.947514 80.380292 
L 335.903264 79.161552 
L 337.859014 78.552181 
L 339.814765 74.89596 
L 341.770515 74.286589 
L 343.726265 76.724071 
L 347.637766 74.286589 
L 349.593516 72.458479 
L 351.549266 73.067849 
L 353.505016 70.020997 
L 355.460767 69.411627 
L 357.416517 65.146035 
L 359.372267 64.536665 
L 361.328018 62.099184 
L 363.283768 65.146035 
L 365.239518 64.536665 
L 367.195268 60.880443 
L 369.151019 63.927295 
L 371.106769 62.099184 
L 373.062519 55.396111 
L 375.018269 54.17737 
L 376.97402 53.568 
L 376.97402 53.568 
" clip-path="url(#p0f99e84c5a)" style="fill: none; stroke: #008000; stroke-width: 1.5; stroke-linecap: square"/>
   </g>
   <g id="line2d_17">
    <path d="M 75.788478 286.347446 
L 77.744228 285.128705 
L 79.699978 283.300594 
L 85.567229 279.644373 
L 87.522979 280.863113 
L 89.478729 280.863113 
L 91.43448 282.691224 
L 93.39023 283.300594 
L 95.34598 282.081854 
L 97.301731 281.472484 
L 99.257481 280.253743 
L 101.213231 279.644373 
L 103.168981 280.253743 
L 105.124732 279.035003 
L 107.080482 276.597521 
L 109.036232 274.769411 
L 110.991982 274.16004 
L 114.903483 276.597521 
L 116.859233 277.206892 
L 118.814984 274.16004 
L 120.770734 274.769411 
L 122.726484 277.816262 
L 124.682234 277.206892 
L 126.637985 275.988151 
L 130.549485 277.206892 
L 132.505235 278.425632 
L 134.460986 279.035003 
L 136.416736 277.816262 
L 138.372486 278.425632 
L 140.328237 274.769411 
L 142.283987 274.16004 
L 144.239737 272.9413 
L 146.195487 275.988151 
L 148.151238 274.769411 
L 150.106988 275.378781 
L 152.062738 269.894448 
L 154.018488 269.285078 
L 155.974239 270.503819 
L 157.929989 268.066338 
L 159.885739 268.675708 
L 161.84149 263.191375 
L 163.79724 260.753894 
L 167.70874 254.660191 
L 169.664491 252.22271 
L 171.620241 249.175859 
L 173.575991 251.00397 
L 177.487492 248.566489 
L 179.443242 247.957118 
L 181.398992 245.519637 
L 183.354743 244.300897 
L 185.310493 247.347748 
L 187.266243 243.691526 
L 189.221993 243.082156 
L 193.133494 245.519637 
L 195.089244 240.035305 
L 197.044995 240.644675 
L 199.000745 238.207194 
L 200.956495 236.988453 
L 202.912245 233.941602 
L 204.867996 236.379083 
L 206.823746 234.550972 
L 208.779496 232.113491 
L 210.735246 230.894751 
L 212.690997 231.504121 
L 214.646747 232.722861 
L 216.602497 230.28538 
L 218.558248 229.67601 
L 220.513998 224.191678 
L 222.469748 221.754196 
L 224.425498 222.363567 
L 226.381249 218.707345 
L 228.336999 216.269864 
L 230.292749 209.566791 
L 234.20425 205.910569 
L 236.16 207.73868 
L 238.11575 205.301199 
L 240.071501 208.34805 
L 243.983001 207.12931 
L 245.938751 204.082458 
L 247.894502 202.863718 
L 249.850252 205.301199 
L 251.806002 211.394902 
L 253.761752 209.566791 
L 255.717503 208.34805 
L 257.673253 208.957421 
L 259.629003 206.51994 
L 261.584754 199.207496 
L 263.540504 197.379385 
L 265.496254 196.770015 
L 267.452004 199.207496 
L 269.407755 198.598126 
L 271.363505 201.035607 
L 273.319255 201.644977 
L 275.275005 201.035607 
L 277.230756 196.770015 
L 279.186506 199.816866 
L 281.142256 197.988756 
L 287.009507 196.160645 
L 288.965257 194.332534 
L 290.921008 193.723164 
L 294.832508 191.285683 
L 296.788258 187.020091 
L 298.744009 189.457572 
L 300.699759 195.551275 
L 302.655509 192.504423 
L 304.61126 193.113793 
L 306.56701 192.504423 
L 308.52276 191.285683 
L 310.47851 193.723164 
L 312.434261 193.113793 
L 314.390011 189.457572 
L 316.345761 187.629461 
L 318.301512 188.238831 
L 320.257262 187.020091 
L 322.213012 188.238831 
L 324.168762 186.41072 
L 326.124513 183.973239 
L 328.080263 183.363869 
L 330.036013 185.19198 
L 331.991763 182.754499 
L 333.947514 183.363869 
L 335.903264 182.754499 
L 337.859014 179.707647 
L 339.814765 177.879537 
L 341.770515 176.660796 
L 343.726265 176.051426 
L 345.682015 173.004574 
L 347.637766 168.129612 
L 349.593516 165.692131 
L 351.549266 160.817169 
L 355.460767 159.598428 
L 357.416517 155.942207 
L 359.372267 155.332836 
L 361.328018 158.379688 
L 363.283768 158.989058 
L 365.239518 152.895355 
L 367.195268 154.114096 
L 369.151019 157.770317 
L 371.106769 156.551577 
L 373.062519 157.160947 
L 376.97402 154.723466 
L 378.92977 155.942207 
L 380.88552 152.895355 
L 382.841271 154.114096 
L 384.797021 153.504725 
L 386.752771 154.114096 
L 388.708521 153.504725 
L 390.664272 152.285985 
L 392.620022 151.676615 
L 392.620022 151.676615 
" clip-path="url(#p0f99e84c5a)" style="fill: none; stroke: #0000ff; stroke-width: 1.5; stroke-linecap: square"/>
   </g>
   <g id="line2d_18">
    <path d="M 75.788478 284.519335 
L 77.744228 289.394297 
L 79.699978 291.831778 
L 81.655728 290.613038 
L 83.611479 295.488 
L 85.567229 291.831778 
L 87.522979 291.222408 
L 89.478729 288.784927 
L 93.39023 286.347446 
L 95.34598 284.519335 
L 97.301731 279.035003 
L 99.257481 275.988151 
L 101.213231 276.597521 
L 103.168981 275.988151 
L 105.124732 274.769411 
L 107.080482 269.894448 
L 109.036232 267.456967 
L 112.947733 266.238227 
L 114.903483 268.066338 
L 116.859233 266.238227 
L 120.770734 265.019486 
L 122.726484 261.363264 
L 124.682234 255.878932 
L 126.637985 252.832081 
L 128.593735 251.61334 
L 130.549485 249.175859 
L 132.505235 253.441451 
L 134.460986 249.175859 
L 136.416736 248.566489 
L 138.372486 247.347748 
L 140.328237 248.566489 
L 142.283987 249.175859 
L 144.239737 247.347748 
L 148.151238 242.472786 
L 150.106988 240.644675 
L 152.062738 239.425935 
L 154.018488 240.035305 
L 155.974239 234.550972 
L 157.929989 228.45727 
L 159.885739 221.144826 
L 161.84149 219.926086 
L 163.79724 221.754196 
L 165.75299 218.707345 
L 167.70874 216.269864 
L 169.664491 216.879234 
L 171.620241 220.535456 
L 173.575991 219.926086 
L 175.531742 218.097975 
L 177.487492 214.441753 
L 179.443242 211.394902 
L 181.398992 208.957421 
L 183.354743 207.73868 
L 185.310493 205.910569 
L 187.266243 199.816866 
L 189.221993 197.379385 
L 191.177744 198.598126 
L 193.133494 197.379385 
L 195.089244 199.207496 
L 197.044995 200.426237 
L 199.000745 199.207496 
L 200.956495 197.379385 
L 202.912245 199.207496 
L 204.867996 197.988756 
L 206.823746 204.691829 
L 208.779496 203.473088 
L 210.735246 206.51994 
L 212.690997 204.082458 
L 214.646747 200.426237 
L 216.602497 197.988756 
L 218.558248 194.941904 
L 220.513998 195.551275 
L 222.469748 191.285683 
L 224.425498 189.457572 
L 232.248499 187.020091 
L 234.20425 185.80135 
L 236.16 183.363869 
L 238.11575 182.145128 
L 240.071501 177.879537 
L 242.027251 179.707647 
L 243.983001 176.051426 
L 245.938751 169.348353 
L 247.894502 170.567093 
L 249.850252 172.395204 
L 251.806002 168.129612 
L 253.761752 171.785834 
L 255.717503 172.395204 
L 257.673253 171.785834 
L 259.629003 169.348353 
L 261.584754 162.64528 
L 263.540504 162.035909 
L 265.496254 164.47339 
L 267.452004 162.64528 
L 269.407755 158.989058 
L 271.363505 162.035909 
L 273.319255 160.207798 
L 275.275005 158.989058 
L 277.230756 157.160947 
L 279.186506 158.989058 
L 281.142256 151.067244 
L 283.098007 147.411023 
L 285.053757 144.364171 
L 287.009507 145.582912 
L 288.965257 141.92669 
L 290.921008 134.614247 
L 292.876758 126.692433 
L 294.832508 126.083063 
L 296.788258 123.645582 
L 298.744009 119.37999 
L 300.699759 113.895657 
L 304.61126 111.458176 
L 306.56701 118.161249 
L 308.52276 117.551879 
L 310.47851 113.895657 
L 312.434261 113.286287 
L 314.390011 114.505028 
L 316.345761 117.551879 
L 318.301512 114.505028 
L 320.257262 112.676917 
L 322.213012 113.895657 
L 324.168762 116.333139 
L 326.124513 116.942509 
L 328.080263 118.161249 
L 331.991763 116.942509 
L 333.947514 112.676917 
L 335.903264 109.630065 
L 337.859014 115.723768 
L 339.814765 111.458176 
L 341.770515 112.676917 
L 343.726265 109.630065 
L 345.682015 112.067547 
L 349.593516 113.286287 
L 351.549266 112.676917 
L 353.505016 111.458176 
L 355.460767 109.630065 
L 357.416517 110.239436 
L 361.328018 112.676917 
L 363.283768 110.848806 
L 365.239518 113.895657 
L 367.195268 118.161249 
L 369.151019 115.723768 
L 371.106769 109.630065 
L 373.062519 110.848806 
L 375.018269 110.239436 
L 376.97402 112.067547 
L 378.92977 108.411325 
L 382.841271 103.536363 
L 384.797021 101.708252 
L 386.752771 98.661401 
L 388.708521 97.44266 
L 390.664272 94.395809 
L 390.664272 94.395809 
" clip-path="url(#p0f99e84c5a)" style="fill: none; stroke: #ff7f0e; stroke-width: 1.5; stroke-linecap: square"/>
   </g>
   <g id="line2d_19">
    <path d="M 73.832727 282.081854 
L 75.788478 280.863113 
L 77.744228 281.472484 
L 79.699978 283.300594 
L 81.655728 280.863113 
L 83.611479 282.081854 
L 85.567229 280.253743 
L 87.522979 280.863113 
L 89.478729 279.035003 
L 91.43448 282.081854 
L 95.34598 279.644373 
L 97.301731 281.472484 
L 99.257481 279.644373 
L 101.213231 279.035003 
L 103.168981 274.16004 
L 105.124732 271.722559 
L 107.080482 269.894448 
L 109.036232 266.847597 
L 110.991982 260.753894 
L 112.947733 258.925783 
L 118.814984 257.097673 
L 120.770734 252.22271 
L 122.726484 252.832081 
L 124.682234 252.22271 
L 126.637985 253.441451 
L 130.549485 252.22271 
L 132.505235 251.00397 
L 134.460986 246.129008 
L 136.416736 242.472786 
L 138.372486 243.082156 
L 142.283987 238.207194 
L 146.195487 236.988453 
L 148.151238 238.816564 
L 150.106988 237.597824 
L 152.062738 238.816564 
L 154.018488 241.863416 
L 155.974239 243.082156 
L 157.929989 242.472786 
L 159.885739 241.254045 
L 161.84149 238.207194 
L 163.79724 236.988453 
L 167.70874 239.425935 
L 169.664491 234.550972 
L 173.575991 231.504121 
L 175.531742 230.894751 
L 177.487492 222.972937 
L 179.443242 221.144826 
L 181.398992 220.535456 
L 183.354743 216.879234 
L 185.310493 221.144826 
L 187.266243 219.316715 
L 189.221993 218.707345 
L 191.177744 213.832383 
L 193.133494 205.301199 
L 195.089244 204.082458 
L 199.000745 202.863718 
L 200.956495 197.379385 
L 202.912245 194.941904 
L 204.867996 195.551275 
L 206.823746 194.332534 
L 208.779496 194.941904 
L 212.690997 193.723164 
L 214.646747 194.941904 
L 216.602497 196.770015 
L 218.558248 194.941904 
L 220.513998 192.504423 
L 222.469748 191.895053 
L 224.425498 190.676312 
L 226.381249 191.285683 
L 230.292749 185.80135 
L 232.248499 182.754499 
L 234.20425 183.973239 
L 236.16 185.80135 
L 238.11575 176.051426 
L 240.071501 175.442055 
L 242.027251 171.176463 
L 243.983001 171.785834 
L 245.938751 174.832685 
L 247.894502 175.442055 
L 249.850252 174.832685 
L 253.761752 176.051426 
L 255.717503 168.129612 
L 257.673253 161.426539 
L 259.629003 162.035909 
L 261.584754 163.25465 
L 263.540504 162.64528 
L 265.496254 164.47339 
L 267.452004 160.817169 
L 269.407755 162.64528 
L 271.363505 163.25465 
L 273.319255 162.64528 
L 277.230756 155.332836 
L 279.186506 156.551577 
L 283.098007 153.504725 
L 285.053757 154.723466 
L 287.009507 157.160947 
L 290.921008 158.379688 
L 292.876758 160.207798 
L 294.832508 157.160947 
L 300.699759 158.989058 
L 302.655509 158.379688 
L 304.61126 160.207798 
L 306.56701 162.64528 
L 308.52276 163.86402 
L 310.47851 163.25465 
L 312.434261 167.520242 
L 314.390011 169.957723 
L 316.345761 171.785834 
L 322.213012 168.129612 
L 324.168762 162.64528 
L 326.124513 162.035909 
L 328.080263 162.64528 
L 330.036013 164.47339 
L 331.991763 165.082761 
L 333.947514 163.25465 
L 335.903264 163.86402 
L 339.814765 169.348353 
L 341.770515 169.957723 
L 343.726265 169.348353 
L 345.682015 167.520242 
L 347.637766 166.910872 
L 349.593516 163.25465 
L 351.549266 163.86402 
L 353.505016 165.082761 
L 355.460767 160.817169 
L 357.416517 157.160947 
L 359.372267 156.551577 
L 361.328018 155.332836 
L 363.283768 155.942207 
L 365.239518 157.770317 
L 367.195268 155.332836 
L 369.151019 154.723466 
L 371.106769 147.411023 
L 375.018269 146.192282 
L 378.92977 143.754801 
L 380.88552 144.364171 
L 382.841271 142.53606 
L 384.797021 139.489209 
L 386.752771 140.098579 
L 390.664272 135.223617 
L 392.620022 136.442358 
L 394.575772 135.223617 
L 396.531522 134.614247 
L 398.487273 135.223617 
L 398.487273 135.223617 
" clip-path="url(#p0f99e84c5a)" style="fill: none; stroke: #ff0000; stroke-width: 1.5; stroke-linecap: square"/>
   </g>
   <g id="patch_3">
    <path d="M 57.6 307.584 
L 57.6 41.472 
" style="fill: none; stroke: #000000; stroke-width: 0.8; stroke-linejoin: miter; stroke-linecap: square"/>
   </g>
   <g id="patch_4">
    <path d="M 414.72 307.584 
L 414.72 41.472 
" style="fill: none; stroke: #000000; stroke-width: 0.8; stroke-linejoin: miter; stroke-linecap: square"/>
   </g>
   <g id="patch_5">
    <path d="M 57.6 307.584 
L 414.72 307.584 
" style="fill: none; stroke: #000000; stroke-width: 0.8; stroke-linejoin: miter; stroke-linecap: square"/>
   </g>
   <g id="patch_6">
    <path d="M 57.6 41.472 
L 414.72 41.472 
" style="fill: none; stroke: #000000; stroke-width: 0.8; stroke-linejoin: miter; stroke-linecap: square"/>
   </g>
   <g id="text_18">
    <!-- Cumulative Run Differential -->
    <g transform="translate(153.205312 35.472) scale(0.12 -0.12)">
     <defs>
      <path id="DejaVuSans-43" d="M 4122 4306 
L 4122 3641 
Q 3803 3938 3442 4084 
Q 3081 4231 2675 4231 
Q 1875 4231 1450 3742 
Q 1025 3253 1025 2328 
Q 1025 1406 1450 917 
Q 1875 428 2675 428 
Q 3081 428 3442 575 
Q 3803 722 4122 1019 
L 4122 359 
Q 3791 134 3420 21 
Q 3050 -91 2638 -91 
Q 1578 -91 968 557 
Q 359 1206 359 2328 
Q 359 3453 968 4101 
Q 1578 4750 2638 4750 
Q 3056 4750 3426 4639 
Q 3797 4528 4122 4306 
z
" transform="scale(0.015625)"/>
      <path id="DejaVuSans-6c" d="M 603 4863 
L 1178 4863 
L 1178 0 
L 603 0 
L 603 4863 
z
" transform="scale(0.015625)"/>
      <path id="DejaVuSans-76" d="M 191 3500 
L 800 3500 
L 1894 563 
L 2988 3500 
L 3597 3500 
L 2284 0 
L 1503 0 
L 191 3500 
z
" transform="scale(0.015625)"/>
      <path id="DejaVuSans-44" d="M 1259 4147 
L 1259 519 
L 2022 519 
Q 2988 519 3436 956 
Q 3884 1394 3884 2338 
Q 3884 3275 3436 3711 
Q 2988 4147 2022 4147 
L 1259 4147 
z
M 628 4666 
L 1925 4666 
Q 3281 4666 3915 4102 
Q 4550 3538 4550 2338 
Q 4550 1131 3912 565 
Q 3275 0 1925 0 
L 628 0 
L 628 4666 
z
" transform="scale(0.015625)"/>
      <path id="DejaVuSans-66" d="M 2375 4863 
L 2375 4384 
L 1825 4384 
Q 1516 4384 1395 4259 
Q 1275 4134 1275 3809 
L 1275 3500 
L 2222 3500 
L 2222 3053 
L 1275 3053 
L 1275 0 
L 697 0 
L 697 3053 
L 147 3053 
L 147 3500 
L 697 3500 
L 697 3744 
Q 697 4328 969 4595 
Q 1241 4863 1831 4863 
L 2375 4863 
z
" transform="scale(0.015625)"/>
     </defs>
     <use xlink:href="#DejaVuSans-43"/>
     <use xlink:href="#DejaVuSans-75" x="69.824219"/>
     <use xlink:href="#DejaVuSans-6d" x="133.203125"/>
     <use xlink:href="#DejaVuSans-75" x="230.615234"/>
     <use xlink:href="#DejaVuSans-6c" x="293.994141"/>
     <use xlink:href="#DejaVuSans-61" x="321.777344"/>
     <use xlink:href="#DejaVuSans-74" x="383.056641"/>
     <use xlink:href="#DejaVuSans-69" x="422.265625"/>
     <use xlink:href="#DejaVuSans-76" x="450.048828"/>
     <use xlink:href="#DejaVuSans-65" x="509.228516"/>
     <use xlink:href="#DejaVuSans-20" x="570.751953"/>
     <use xlink:href="#DejaVuSans-52" x="602.539062"/>
     <use xlink:href="#DejaVuSans-75" x="667.521484"/>
     <use xlink:href="#DejaVuSans-6e" x="730.900391"/>
     <use xlink:href="#DejaVuSans-20" x="794.279297"/>
     <use xlink:href="#DejaVuSans-44" x="826.066406"/>
     <use xlink:href="#DejaVuSans-69" x="903.068359"/>
     <use xlink:href="#DejaVuSans-66" x="930.851562"/>
     <use xlink:href="#DejaVuSans-66" x="966.056641"/>
     <use xlink:href="#DejaVuSans-65" x="1001.261719"/>
     <use xlink:href="#DejaVuSans-72" x="1062.785156"/>
     <use xlink:href="#DejaVuSans-65" x="1101.648438"/>
     <use xlink:href="#DejaVuSans-6e" x="1163.171875"/>
     <use xlink:href="#DejaVuSans-74" x="1226.550781"/>
     <use xlink:href="#DejaVuSans-69" x="1265.759766"/>
     <use xlink:href="#DejaVuSans-61" x="1293.542969"/>
     <use xlink:href="#DejaVuSans-6c" x="1354.822266"/>
    </g>
   </g>
   <g id="legend_1">
    <g id="patch_7">
     <path d="M 347.091875 302.584 
L 407.72 302.584 
Q 409.72 302.584 409.72 300.584 
L 409.72 242.8715 
Q 409.72 240.8715 407.72 240.8715 
L 347.091875 240.8715 
Q 345.091875 240.8715 345.091875 242.8715 
L 345.091875 300.584 
Q 345.091875 302.584 347.091875 302.584 
z
" style="fill: #ffffff; opacity: 0.8; stroke: #cccccc; stroke-linejoin: miter"/>
    </g>
    <g id="line2d_20">
     <path d="M 349.091875 248.969937 
L 359.091875 248.969937 
L 369.091875 248.969937 
" style="fill: none; stroke: #008000; stroke-width: 1.5; stroke-linecap: square"/>
    </g>
    <g id="text_19">
     <!--  1927 -->
     <g transform="translate(377.091875 252.469937) scale(0.1 -0.1)">
      <defs>
       <path id="DejaVuSans-39" d="M 703 97 
L 703 672 
Q 941 559 1184 500 
Q 1428 441 1663 441 
Q 2288 441 2617 861 
Q 2947 1281 2994 2138 
Q 2813 1869 2534 1725 
Q 2256 1581 1919 1581 
Q 1219 1581 811 2004 
Q 403 2428 403 3163 
Q 403 3881 828 4315 
Q 1253 4750 1959 4750 
Q 2769 4750 3195 4129 
Q 3622 3509 3622 2328 
Q 3622 1225 3098 567 
Q 2575 -91 1691 -91 
Q 1453 -91 1209 -44 
Q 966 3 703 97 
z
M 1959 2075 
Q 2384 2075 2632 2365 
Q 2881 2656 2881 3163 
Q 2881 3666 2632 3958 
Q 2384 4250 1959 4250 
Q 1534 4250 1286 3958 
Q 1038 3666 1038 3163 
Q 1038 2656 1286 2365 
Q 1534 2075 1959 2075 
z
" transform="scale(0.015625)"/>
      </defs>
      <use xlink:href="#DejaVuSans-20"/>
      <use xlink:href="#DejaVuSans-31" x="31.787109"/>
      <use xlink:href="#DejaVuSans-39" x="95.410156"/>
      <use xlink:href="#DejaVuSans-32" x="159.033203"/>
      <use xlink:href="#DejaVuSans-37" x="222.65625"/>
     </g>
    </g>
    <g id="line2d_21">
     <path d="M 349.091875 263.648062 
L 359.091875 263.648062 
L 369.091875 263.648062 
" style="fill: none; stroke: #0000ff; stroke-width: 1.5; stroke-linecap: square"/>
    </g>
    <g id="text_20">
     <!--  1961 -->
     <g transform="translate(377.091875 267.148062) scale(0.1 -0.1)">
      <defs>
       <path id="DejaVuSans-36" d="M 2113 2584 
Q 1688 2584 1439 2293 
Q 1191 2003 1191 1497 
Q 1191 994 1439 701 
Q 1688 409 2113 409 
Q 2538 409 2786 701 
Q 3034 994 3034 1497 
Q 3034 2003 2786 2293 
Q 2538 2584 2113 2584 
z
M 3366 4563 
L 3366 3988 
Q 3128 4100 2886 4159 
Q 2644 4219 2406 4219 
Q 1781 4219 1451 3797 
Q 1122 3375 1075 2522 
Q 1259 2794 1537 2939 
Q 1816 3084 2150 3084 
Q 2853 3084 3261 2657 
Q 3669 2231 3669 1497 
Q 3669 778 3244 343 
Q 2819 -91 2113 -91 
Q 1303 -91 875 529 
Q 447 1150 447 2328 
Q 447 3434 972 4092 
Q 1497 4750 2381 4750 
Q 2619 4750 2861 4703 
Q 3103 4656 3366 4563 
z
" transform="scale(0.015625)"/>
      </defs>
      <use xlink:href="#DejaVuSans-20"/>
      <use xlink:href="#DejaVuSans-31" x="31.787109"/>
      <use xlink:href="#DejaVuSans-39" x="95.410156"/>
      <use xlink:href="#DejaVuSans-36" x="159.033203"/>
      <use xlink:href="#DejaVuSans-31" x="222.65625"/>
     </g>
    </g>
    <g id="line2d_22">
     <path d="M 349.091875 278.326187 
L 359.091875 278.326187 
L 369.091875 278.326187 
" style="fill: none; stroke: #ff7f0e; stroke-width: 1.5; stroke-linecap: square"/>
    </g>
    <g id="text_21">
     <!--  1998 -->
     <g transform="translate(377.091875 281.826187) scale(0.1 -0.1)">
      <defs>
       <path id="DejaVuSans-38" d="M 2034 2216 
Q 1584 2216 1326 1975 
Q 1069 1734 1069 1313 
Q 1069 891 1326 650 
Q 1584 409 2034 409 
Q 2484 409 2743 651 
Q 3003 894 3003 1313 
Q 3003 1734 2745 1975 
Q 2488 2216 2034 2216 
z
M 1403 2484 
Q 997 2584 770 2862 
Q 544 3141 544 3541 
Q 544 4100 942 4425 
Q 1341 4750 2034 4750 
Q 2731 4750 3128 4425 
Q 3525 4100 3525 3541 
Q 3525 3141 3298 2862 
Q 3072 2584 2669 2484 
Q 3125 2378 3379 2068 
Q 3634 1759 3634 1313 
Q 3634 634 3220 271 
Q 2806 -91 2034 -91 
Q 1263 -91 848 271 
Q 434 634 434 1313 
Q 434 1759 690 2068 
Q 947 2378 1403 2484 
z
M 1172 3481 
Q 1172 3119 1398 2916 
Q 1625 2713 2034 2713 
Q 2441 2713 2670 2916 
Q 2900 3119 2900 3481 
Q 2900 3844 2670 4047 
Q 2441 4250 2034 4250 
Q 1625 4250 1398 4047 
Q 1172 3844 1172 3481 
z
" transform="scale(0.015625)"/>
      </defs>
      <use xlink:href="#DejaVuSans-20"/>
      <use xlink:href="#DejaVuSans-31" x="31.787109"/>
      <use xlink:href="#DejaVuSans-39" x="95.410156"/>
      <use xlink:href="#DejaVuSans-39" x="159.033203"/>
      <use xlink:href="#DejaVuSans-38" x="222.65625"/>
     </g>
    </g>
    <g id="line2d_23">
     <path d="M 349.091875 293.004312 
L 359.091875 293.004312 
L 369.091875 293.004312 
" style="fill: none; stroke: #ff0000; stroke-width: 1.5; stroke-linecap: square"/>
    </g>
    <g id="text_22">
     <!--  2022 -->
     <g transform="translate(377.091875 296.504312) scale(0.1 -0.1)">
      <use xlink:href="#DejaVuSans-20"/>
      <use xlink:href="#DejaVuSans-32" x="31.787109"/>
      <use xlink:href="#DejaVuSans-30" x="95.410156"/>
      <use xlink:href="#DejaVuSans-32" x="159.033203"/>
      <use xlink:href="#DejaVuSans-32" x="222.65625"/>
     </g>
    </g>
   </g>
  </g>
 </g>
 <defs>
  <clipPath id="p0f99e84c5a">
   <rect x="57.6" y="41.472" width="357.12" height="266.112"/>
  </clipPath>
 </defs>
</svg>
