<?xml version="1.0" encoding="utf-8" standalone="no"?>
<!DOCTYPE svg PUBLIC "-//W3C//DTD SVG 1.1//EN"
  "http://www.w3.org/Graphics/SVG/1.1/DTD/svg11.dtd">
<svg xmlns:xlink="http://www.w3.org/1999/xlink" width="432pt" height="288pt" viewBox="0 0 432 288" xmlns="http://www.w3.org/2000/svg" version="1.1">
 <metadata>
  <rdf:RDF xmlns:dc="http://purl.org/dc/elements/1.1/" xmlns:cc="http://creativecommons.org/ns#" xmlns:rdf="http://www.w3.org/1999/02/22-rdf-syntax-ns#">
   <cc:Work>
    <dc:type rdf:resource="http://purl.org/dc/dcmitype/StillImage"/>
    <dc:date>2022-08-18T15:24:57.932537</dc:date>
    <dc:format>image/svg+xml</dc:format>
    <dc:creator>
     <cc:Agent>
      <dc:title>Matplotlib v3.5.2, https://matplotlib.org/</dc:title>
     </cc:Agent>
    </dc:creator>
   </cc:Work>
  </rdf:RDF>
 </metadata>
 <defs>
  <style type="text/css">*{stroke-linejoin: round; stroke-linecap: butt}</style>
 </defs>
 <g id="figure_1">
  <g id="patch_1">
   <path d="M 0 288 
L 432 288 
L 432 0 
L 0 0 
L 0 288 
z
" style="fill: none"/>
  </g>
  <g id="axes_1">
   <g id="patch_2">
    <path d="M 54 252 
L 388.8 252 
L 388.8 34.56 
L 54 34.56 
z
" style="fill: #ffffff"/>
   </g>
   <g id="matplotlib.axis_1">
    <g id="xtick_1">
     <g id="line2d_1">
      <defs>
       <path id="m1cc89808e4" d="M 0 0 
L 0 3.5 
" style="stroke: #000000; stroke-width: 0.8"/>
      </defs>
      <g>
       <use xlink:href="#m1cc89808e4" x="69.218182" y="252" style="stroke: #000000; stroke-width: 0.8"/>
      </g>
     </g>
     <g id="text_1">
      <!-- 0 -->
      <g transform="translate(66.036932 266.598437)scale(0.1 -0.1)">
       <defs>
        <path id="DejaVuSans-30" d="M 2034 4250 
Q 1547 4250 1301 3770 
Q 1056 3291 1056 2328 
Q 1056 1369 1301 889 
Q 1547 409 2034 409 
Q 2525 409 2770 889 
Q 3016 1369 3016 2328 
Q 3016 3291 2770 3770 
Q 2525 4250 2034 4250 
z
M 2034 4750 
Q 2819 4750 3233 4129 
Q 3647 3509 3647 2328 
Q 3647 1150 3233 529 
Q 2819 -91 2034 -91 
Q 1250 -91 836 529 
Q 422 1150 422 2328 
Q 422 3509 836 4129 
Q 1250 4750 2034 4750 
z
" transform="scale(0.015625)"/>
       </defs>
       <use xlink:href="#DejaVuSans-30"/>
      </g>
     </g>
    </g>
    <g id="xtick_2">
     <g id="line2d_2">
      <g>
       <use xlink:href="#m1cc89808e4" x="106.563413" y="252" style="stroke: #000000; stroke-width: 0.8"/>
      </g>
     </g>
     <g id="text_2">
      <!-- 20 -->
      <g transform="translate(100.200913 266.598437)scale(0.1 -0.1)">
       <defs>
        <path id="DejaVuSans-32" d="M 1228 531 
L 3431 531 
L 3431 0 
L 469 0 
L 469 531 
Q 828 903 1448 1529 
Q 2069 2156 2228 2338 
Q 2531 2678 2651 2914 
Q 2772 3150 2772 3378 
Q 2772 3750 2511 3984 
Q 2250 4219 1831 4219 
Q 1534 4219 1204 4116 
Q 875 4013 500 3803 
L 500 4441 
Q 881 4594 1212 4672 
Q 1544 4750 1819 4750 
Q 2544 4750 2975 4387 
Q 3406 4025 3406 3419 
Q 3406 3131 3298 2873 
Q 3191 2616 2906 2266 
Q 2828 2175 2409 1742 
Q 1991 1309 1228 531 
z
" transform="scale(0.015625)"/>
       </defs>
       <use xlink:href="#DejaVuSans-32"/>
       <use xlink:href="#DejaVuSans-30" x="63.623047"/>
      </g>
     </g>
    </g>
    <g id="xtick_3">
     <g id="line2d_3">
      <g>
       <use xlink:href="#m1cc89808e4" x="143.908645" y="252" style="stroke: #000000; stroke-width: 0.8"/>
      </g>
     </g>
     <g id="text_3">
      <!-- 40 -->
      <g transform="translate(137.546145 266.598437)scale(0.1 -0.1)">
       <defs>
        <path id="DejaVuSans-34" d="M 2419 4116 
L 825 1625 
L 2419 1625 
L 2419 4116 
z
M 2253 4666 
L 3047 4666 
L 3047 1625 
L 3713 1625 
L 3713 1100 
L 3047 1100 
L 3047 0 
L 2419 0 
L 2419 1100 
L 313 1100 
L 313 1709 
L 2253 4666 
z
" transform="scale(0.015625)"/>
       </defs>
       <use xlink:href="#DejaVuSans-34"/>
       <use xlink:href="#DejaVuSans-30" x="63.623047"/>
      </g>
     </g>
    </g>
    <g id="xtick_4">
     <g id="line2d_4">
      <g>
       <use xlink:href="#m1cc89808e4" x="181.253876" y="252" style="stroke: #000000; stroke-width: 0.8"/>
      </g>
     </g>
     <g id="text_4">
      <!-- 60 -->
      <g transform="translate(174.891376 266.598437)scale(0.1 -0.1)">
       <defs>
        <path id="DejaVuSans-36" d="M 2113 2584 
Q 1688 2584 1439 2293 
Q 1191 2003 1191 1497 
Q 1191 994 1439 701 
Q 1688 409 2113 409 
Q 2538 409 2786 701 
Q 3034 994 3034 1497 
Q 3034 2003 2786 2293 
Q 2538 2584 2113 2584 
z
M 3366 4563 
L 3366 3988 
Q 3128 4100 2886 4159 
Q 2644 4219 2406 4219 
Q 1781 4219 1451 3797 
Q 1122 3375 1075 2522 
Q 1259 2794 1537 2939 
Q 1816 3084 2150 3084 
Q 2853 3084 3261 2657 
Q 3669 2231 3669 1497 
Q 3669 778 3244 343 
Q 2819 -91 2113 -91 
Q 1303 -91 875 529 
Q 447 1150 447 2328 
Q 447 3434 972 4092 
Q 1497 4750 2381 4750 
Q 2619 4750 2861 4703 
Q 3103 4656 3366 4563 
z
" transform="scale(0.015625)"/>
       </defs>
       <use xlink:href="#DejaVuSans-36"/>
       <use xlink:href="#DejaVuSans-30" x="63.623047"/>
      </g>
     </g>
    </g>
    <g id="xtick_5">
     <g id="line2d_5">
      <g>
       <use xlink:href="#m1cc89808e4" x="218.599108" y="252" style="stroke: #000000; stroke-width: 0.8"/>
      </g>
     </g>
     <g id="text_5">
      <!-- 80 -->
      <g transform="translate(212.236608 266.598437)scale(0.1 -0.1)">
       <defs>
        <path id="DejaVuSans-38" d="M 2034 2216 
Q 1584 2216 1326 1975 
Q 1069 1734 1069 1313 
Q 1069 891 1326 650 
Q 1584 409 2034 409 
Q 2484 409 2743 651 
Q 3003 894 3003 1313 
Q 3003 1734 2745 1975 
Q 2488 2216 2034 2216 
z
M 1403 2484 
Q 997 2584 770 2862 
Q 544 3141 544 3541 
Q 544 4100 942 4425 
Q 1341 4750 2034 4750 
Q 2731 4750 3128 4425 
Q 3525 4100 3525 3541 
Q 3525 3141 3298 2862 
Q 3072 2584 2669 2484 
Q 3125 2378 3379 2068 
Q 3634 1759 3634 1313 
Q 3634 634 3220 271 
Q 2806 -91 2034 -91 
Q 1263 -91 848 271 
Q 434 634 434 1313 
Q 434 1759 690 2068 
Q 947 2378 1403 2484 
z
M 1172 3481 
Q 1172 3119 1398 2916 
Q 1625 2713 2034 2713 
Q 2441 2713 2670 2916 
Q 2900 3119 2900 3481 
Q 2900 3844 2670 4047 
Q 2441 4250 2034 4250 
Q 1625 4250 1398 4047 
Q 1172 3844 1172 3481 
z
" transform="scale(0.015625)"/>
       </defs>
       <use xlink:href="#DejaVuSans-38"/>
       <use xlink:href="#DejaVuSans-30" x="63.623047"/>
      </g>
     </g>
    </g>
    <g id="xtick_6">
     <g id="line2d_6">
      <g>
       <use xlink:href="#m1cc89808e4" x="255.944339" y="252" style="stroke: #000000; stroke-width: 0.8"/>
      </g>
     </g>
     <g id="text_6">
      <!-- 100 -->
      <g transform="translate(246.400589 266.598437)scale(0.1 -0.1)">
       <defs>
        <path id="DejaVuSans-31" d="M 794 531 
L 1825 531 
L 1825 4091 
L 703 3866 
L 703 4441 
L 1819 4666 
L 2450 4666 
L 2450 531 
L 3481 531 
L 3481 0 
L 794 0 
L 794 531 
z
" transform="scale(0.015625)"/>
       </defs>
       <use xlink:href="#DejaVuSans-31"/>
       <use xlink:href="#DejaVuSans-30" x="63.623047"/>
       <use xlink:href="#DejaVuSans-30" x="127.246094"/>
      </g>
     </g>
    </g>
    <g id="xtick_7">
     <g id="line2d_7">
      <g>
       <use xlink:href="#m1cc89808e4" x="293.289571" y="252" style="stroke: #000000; stroke-width: 0.8"/>
      </g>
     </g>
     <g id="text_7">
      <!-- 120 -->
      <g transform="translate(283.745821 266.598437)scale(0.1 -0.1)">
       <use xlink:href="#DejaVuSans-31"/>
       <use xlink:href="#DejaVuSans-32" x="63.623047"/>
       <use xlink:href="#DejaVuSans-30" x="127.246094"/>
      </g>
     </g>
    </g>
    <g id="xtick_8">
     <g id="line2d_8">
      <g>
       <use xlink:href="#m1cc89808e4" x="330.634802" y="252" style="stroke: #000000; stroke-width: 0.8"/>
      </g>
     </g>
     <g id="text_8">
      <!-- 140 -->
      <g transform="translate(321.091052 266.598437)scale(0.1 -0.1)">
       <use xlink:href="#DejaVuSans-31"/>
       <use xlink:href="#DejaVuSans-34" x="63.623047"/>
       <use xlink:href="#DejaVuSans-30" x="127.246094"/>
      </g>
     </g>
    </g>
    <g id="xtick_9">
     <g id="line2d_9">
      <g>
       <use xlink:href="#m1cc89808e4" x="367.980033" y="252" style="stroke: #000000; stroke-width: 0.8"/>
      </g>
     </g>
     <g id="text_9">
      <!-- 160 -->
      <g transform="translate(358.436283 266.598437)scale(0.1 -0.1)">
       <use xlink:href="#DejaVuSans-31"/>
       <use xlink:href="#DejaVuSans-36" x="63.623047"/>
       <use xlink:href="#DejaVuSans-30" x="127.246094"/>
      </g>
     </g>
    </g>
    <g id="text_10">
     <!-- Games -->
     <g transform="translate(203.910156 280.276563)scale(0.1 -0.1)">
      <defs>
       <path id="DejaVuSans-47" d="M 3809 666 
L 3809 1919 
L 2778 1919 
L 2778 2438 
L 4434 2438 
L 4434 434 
Q 4069 175 3628 42 
Q 3188 -91 2688 -91 
Q 1594 -91 976 548 
Q 359 1188 359 2328 
Q 359 3472 976 4111 
Q 1594 4750 2688 4750 
Q 3144 4750 3555 4637 
Q 3966 4525 4313 4306 
L 4313 3634 
Q 3963 3931 3569 4081 
Q 3175 4231 2741 4231 
Q 1884 4231 1454 3753 
Q 1025 3275 1025 2328 
Q 1025 1384 1454 906 
Q 1884 428 2741 428 
Q 3075 428 3337 486 
Q 3600 544 3809 666 
z
" transform="scale(0.015625)"/>
       <path id="DejaVuSans-61" d="M 2194 1759 
Q 1497 1759 1228 1600 
Q 959 1441 959 1056 
Q 959 750 1161 570 
Q 1363 391 1709 391 
Q 2188 391 2477 730 
Q 2766 1069 2766 1631 
L 2766 1759 
L 2194 1759 
z
M 3341 1997 
L 3341 0 
L 2766 0 
L 2766 531 
Q 2569 213 2275 61 
Q 1981 -91 1556 -91 
Q 1019 -91 701 211 
Q 384 513 384 1019 
Q 384 1609 779 1909 
Q 1175 2209 1959 2209 
L 2766 2209 
L 2766 2266 
Q 2766 2663 2505 2880 
Q 2244 3097 1772 3097 
Q 1472 3097 1187 3025 
Q 903 2953 641 2809 
L 641 3341 
Q 956 3463 1253 3523 
Q 1550 3584 1831 3584 
Q 2591 3584 2966 3190 
Q 3341 2797 3341 1997 
z
" transform="scale(0.015625)"/>
       <path id="DejaVuSans-6d" d="M 3328 2828 
Q 3544 3216 3844 3400 
Q 4144 3584 4550 3584 
Q 5097 3584 5394 3201 
Q 5691 2819 5691 2113 
L 5691 0 
L 5113 0 
L 5113 2094 
Q 5113 2597 4934 2840 
Q 4756 3084 4391 3084 
Q 3944 3084 3684 2787 
Q 3425 2491 3425 1978 
L 3425 0 
L 2847 0 
L 2847 2094 
Q 2847 2600 2669 2842 
Q 2491 3084 2119 3084 
Q 1678 3084 1418 2786 
Q 1159 2488 1159 1978 
L 1159 0 
L 581 0 
L 581 3500 
L 1159 3500 
L 1159 2956 
Q 1356 3278 1631 3431 
Q 1906 3584 2284 3584 
Q 2666 3584 2933 3390 
Q 3200 3197 3328 2828 
z
" transform="scale(0.015625)"/>
       <path id="DejaVuSans-65" d="M 3597 1894 
L 3597 1613 
L 953 1613 
Q 991 1019 1311 708 
Q 1631 397 2203 397 
Q 2534 397 2845 478 
Q 3156 559 3463 722 
L 3463 178 
Q 3153 47 2828 -22 
Q 2503 -91 2169 -91 
Q 1331 -91 842 396 
Q 353 884 353 1716 
Q 353 2575 817 3079 
Q 1281 3584 2069 3584 
Q 2775 3584 3186 3129 
Q 3597 2675 3597 1894 
z
M 3022 2063 
Q 3016 2534 2758 2815 
Q 2500 3097 2075 3097 
Q 1594 3097 1305 2825 
Q 1016 2553 972 2059 
L 3022 2063 
z
" transform="scale(0.015625)"/>
       <path id="DejaVuSans-73" d="M 2834 3397 
L 2834 2853 
Q 2591 2978 2328 3040 
Q 2066 3103 1784 3103 
Q 1356 3103 1142 2972 
Q 928 2841 928 2578 
Q 928 2378 1081 2264 
Q 1234 2150 1697 2047 
L 1894 2003 
Q 2506 1872 2764 1633 
Q 3022 1394 3022 966 
Q 3022 478 2636 193 
Q 2250 -91 1575 -91 
Q 1294 -91 989 -36 
Q 684 19 347 128 
L 347 722 
Q 666 556 975 473 
Q 1284 391 1588 391 
Q 1994 391 2212 530 
Q 2431 669 2431 922 
Q 2431 1156 2273 1281 
Q 2116 1406 1581 1522 
L 1381 1569 
Q 847 1681 609 1914 
Q 372 2147 372 2553 
Q 372 3047 722 3315 
Q 1072 3584 1716 3584 
Q 2034 3584 2315 3537 
Q 2597 3491 2834 3397 
z
" transform="scale(0.015625)"/>
      </defs>
      <use xlink:href="#DejaVuSans-47"/>
      <use xlink:href="#DejaVuSans-61" x="77.490234"/>
      <use xlink:href="#DejaVuSans-6d" x="138.769531"/>
      <use xlink:href="#DejaVuSans-65" x="236.181641"/>
      <use xlink:href="#DejaVuSans-73" x="297.705078"/>
     </g>
    </g>
   </g>
   <g id="matplotlib.axis_2">
    <g id="ytick_1">
     <g id="line2d_10">
      <defs>
       <path id="m69f9ebfa3d" d="M 0 0 
L -3.5 0 
" style="stroke: #000000; stroke-width: 0.8"/>
      </defs>
      <g>
       <use xlink:href="#m69f9ebfa3d" x="54" y="231.660124" style="stroke: #000000; stroke-width: 0.8"/>
      </g>
     </g>
     <g id="text_11">
      <!-- 0 -->
      <g transform="translate(40.6375 235.459342)scale(0.1 -0.1)">
       <use xlink:href="#DejaVuSans-30"/>
      </g>
     </g>
    </g>
    <g id="ytick_2">
     <g id="line2d_11">
      <g>
       <use xlink:href="#m69f9ebfa3d" x="54" y="206.764314" style="stroke: #000000; stroke-width: 0.8"/>
      </g>
     </g>
     <g id="text_12">
      <!-- 50 -->
      <g transform="translate(34.275 210.563533)scale(0.1 -0.1)">
       <defs>
        <path id="DejaVuSans-35" d="M 691 4666 
L 3169 4666 
L 3169 4134 
L 1269 4134 
L 1269 2991 
Q 1406 3038 1543 3061 
Q 1681 3084 1819 3084 
Q 2600 3084 3056 2656 
Q 3513 2228 3513 1497 
Q 3513 744 3044 326 
Q 2575 -91 1722 -91 
Q 1428 -91 1123 -41 
Q 819 9 494 109 
L 494 744 
Q 775 591 1075 516 
Q 1375 441 1709 441 
Q 2250 441 2565 725 
Q 2881 1009 2881 1497 
Q 2881 1984 2565 2268 
Q 2250 2553 1709 2553 
Q 1456 2553 1204 2497 
Q 953 2441 691 2322 
L 691 4666 
z
" transform="scale(0.015625)"/>
       </defs>
       <use xlink:href="#DejaVuSans-35"/>
       <use xlink:href="#DejaVuSans-30" x="63.623047"/>
      </g>
     </g>
    </g>
    <g id="ytick_3">
     <g id="line2d_12">
      <g>
       <use xlink:href="#m69f9ebfa3d" x="54" y="181.868505" style="stroke: #000000; stroke-width: 0.8"/>
      </g>
     </g>
     <g id="text_13">
      <!-- 100 -->
      <g transform="translate(27.9125 185.667723)scale(0.1 -0.1)">
       <use xlink:href="#DejaVuSans-31"/>
       <use xlink:href="#DejaVuSans-30" x="63.623047"/>
       <use xlink:href="#DejaVuSans-30" x="127.246094"/>
      </g>
     </g>
    </g>
    <g id="ytick_4">
     <g id="line2d_13">
      <g>
       <use xlink:href="#m69f9ebfa3d" x="54" y="156.972695" style="stroke: #000000; stroke-width: 0.8"/>
      </g>
     </g>
     <g id="text_14">
      <!-- 150 -->
      <g transform="translate(27.9125 160.771914)scale(0.1 -0.1)">
       <use xlink:href="#DejaVuSans-31"/>
       <use xlink:href="#DejaVuSans-35" x="63.623047"/>
       <use xlink:href="#DejaVuSans-30" x="127.246094"/>
      </g>
     </g>
    </g>
    <g id="ytick_5">
     <g id="line2d_14">
      <g>
       <use xlink:href="#m69f9ebfa3d" x="54" y="132.076886" style="stroke: #000000; stroke-width: 0.8"/>
      </g>
     </g>
     <g id="text_15">
      <!-- 200 -->
      <g transform="translate(27.9125 135.876104)scale(0.1 -0.1)">
       <use xlink:href="#DejaVuSans-32"/>
       <use xlink:href="#DejaVuSans-30" x="63.623047"/>
       <use xlink:href="#DejaVuSans-30" x="127.246094"/>
      </g>
     </g>
    </g>
    <g id="ytick_6">
     <g id="line2d_15">
      <g>
       <use xlink:href="#m69f9ebfa3d" x="54" y="107.181076" style="stroke: #000000; stroke-width: 0.8"/>
      </g>
     </g>
     <g id="text_16">
      <!-- 250 -->
      <g transform="translate(27.9125 110.980295)scale(0.1 -0.1)">
       <use xlink:href="#DejaVuSans-32"/>
       <use xlink:href="#DejaVuSans-35" x="63.623047"/>
       <use xlink:href="#DejaVuSans-30" x="127.246094"/>
      </g>
     </g>
    </g>
    <g id="ytick_7">
     <g id="line2d_16">
      <g>
       <use xlink:href="#m69f9ebfa3d" x="54" y="82.285267" style="stroke: #000000; stroke-width: 0.8"/>
      </g>
     </g>
     <g id="text_17">
      <!-- 300 -->
      <g transform="translate(27.9125 86.084486)scale(0.1 -0.1)">
       <defs>
        <path id="DejaVuSans-33" d="M 2597 2516 
Q 3050 2419 3304 2112 
Q 3559 1806 3559 1356 
Q 3559 666 3084 287 
Q 2609 -91 1734 -91 
Q 1441 -91 1130 -33 
Q 819 25 488 141 
L 488 750 
Q 750 597 1062 519 
Q 1375 441 1716 441 
Q 2309 441 2620 675 
Q 2931 909 2931 1356 
Q 2931 1769 2642 2001 
Q 2353 2234 1838 2234 
L 1294 2234 
L 1294 2753 
L 1863 2753 
Q 2328 2753 2575 2939 
Q 2822 3125 2822 3475 
Q 2822 3834 2567 4026 
Q 2313 4219 1838 4219 
Q 1578 4219 1281 4162 
Q 984 4106 628 3988 
L 628 4550 
Q 988 4650 1302 4700 
Q 1616 4750 1894 4750 
Q 2613 4750 3031 4423 
Q 3450 4097 3450 3541 
Q 3450 3153 3228 2886 
Q 3006 2619 2597 2516 
z
" transform="scale(0.015625)"/>
       </defs>
       <use xlink:href="#DejaVuSans-33"/>
       <use xlink:href="#DejaVuSans-30" x="63.623047"/>
       <use xlink:href="#DejaVuSans-30" x="127.246094"/>
      </g>
     </g>
    </g>
    <g id="ytick_8">
     <g id="line2d_17">
      <g>
       <use xlink:href="#m69f9ebfa3d" x="54" y="57.389457" style="stroke: #000000; stroke-width: 0.8"/>
      </g>
     </g>
     <g id="text_18">
      <!-- 350 -->
      <g transform="translate(27.9125 61.188676)scale(0.1 -0.1)">
       <use xlink:href="#DejaVuSans-33"/>
       <use xlink:href="#DejaVuSans-35" x="63.623047"/>
       <use xlink:href="#DejaVuSans-30" x="127.246094"/>
      </g>
     </g>
    </g>
    <g id="text_19">
     <!-- Runs Scored - Runs Against -->
     <g transform="translate(21.832812 211.780781)rotate(-90)scale(0.1 -0.1)">
      <defs>
       <path id="DejaVuSans-52" d="M 2841 2188 
Q 3044 2119 3236 1894 
Q 3428 1669 3622 1275 
L 4263 0 
L 3584 0 
L 2988 1197 
Q 2756 1666 2539 1819 
Q 2322 1972 1947 1972 
L 1259 1972 
L 1259 0 
L 628 0 
L 628 4666 
L 2053 4666 
Q 2853 4666 3247 4331 
Q 3641 3997 3641 3322 
Q 3641 2881 3436 2590 
Q 3231 2300 2841 2188 
z
M 1259 4147 
L 1259 2491 
L 2053 2491 
Q 2509 2491 2742 2702 
Q 2975 2913 2975 3322 
Q 2975 3731 2742 3939 
Q 2509 4147 2053 4147 
L 1259 4147 
z
" transform="scale(0.015625)"/>
       <path id="DejaVuSans-75" d="M 544 1381 
L 544 3500 
L 1119 3500 
L 1119 1403 
Q 1119 906 1312 657 
Q 1506 409 1894 409 
Q 2359 409 2629 706 
Q 2900 1003 2900 1516 
L 2900 3500 
L 3475 3500 
L 3475 0 
L 2900 0 
L 2900 538 
Q 2691 219 2414 64 
Q 2138 -91 1772 -91 
Q 1169 -91 856 284 
Q 544 659 544 1381 
z
M 1991 3584 
L 1991 3584 
z
" transform="scale(0.015625)"/>
       <path id="DejaVuSans-6e" d="M 3513 2113 
L 3513 0 
L 2938 0 
L 2938 2094 
Q 2938 2591 2744 2837 
Q 2550 3084 2163 3084 
Q 1697 3084 1428 2787 
Q 1159 2491 1159 1978 
L 1159 0 
L 581 0 
L 581 3500 
L 1159 3500 
L 1159 2956 
Q 1366 3272 1645 3428 
Q 1925 3584 2291 3584 
Q 2894 3584 3203 3211 
Q 3513 2838 3513 2113 
z
" transform="scale(0.015625)"/>
       <path id="DejaVuSans-20" transform="scale(0.015625)"/>
       <path id="DejaVuSans-53" d="M 3425 4513 
L 3425 3897 
Q 3066 4069 2747 4153 
Q 2428 4238 2131 4238 
Q 1616 4238 1336 4038 
Q 1056 3838 1056 3469 
Q 1056 3159 1242 3001 
Q 1428 2844 1947 2747 
L 2328 2669 
Q 3034 2534 3370 2195 
Q 3706 1856 3706 1288 
Q 3706 609 3251 259 
Q 2797 -91 1919 -91 
Q 1588 -91 1214 -16 
Q 841 59 441 206 
L 441 856 
Q 825 641 1194 531 
Q 1563 422 1919 422 
Q 2459 422 2753 634 
Q 3047 847 3047 1241 
Q 3047 1584 2836 1778 
Q 2625 1972 2144 2069 
L 1759 2144 
Q 1053 2284 737 2584 
Q 422 2884 422 3419 
Q 422 4038 858 4394 
Q 1294 4750 2059 4750 
Q 2388 4750 2728 4690 
Q 3069 4631 3425 4513 
z
" transform="scale(0.015625)"/>
       <path id="DejaVuSans-63" d="M 3122 3366 
L 3122 2828 
Q 2878 2963 2633 3030 
Q 2388 3097 2138 3097 
Q 1578 3097 1268 2742 
Q 959 2388 959 1747 
Q 959 1106 1268 751 
Q 1578 397 2138 397 
Q 2388 397 2633 464 
Q 2878 531 3122 666 
L 3122 134 
Q 2881 22 2623 -34 
Q 2366 -91 2075 -91 
Q 1284 -91 818 406 
Q 353 903 353 1747 
Q 353 2603 823 3093 
Q 1294 3584 2113 3584 
Q 2378 3584 2631 3529 
Q 2884 3475 3122 3366 
z
" transform="scale(0.015625)"/>
       <path id="DejaVuSans-6f" d="M 1959 3097 
Q 1497 3097 1228 2736 
Q 959 2375 959 1747 
Q 959 1119 1226 758 
Q 1494 397 1959 397 
Q 2419 397 2687 759 
Q 2956 1122 2956 1747 
Q 2956 2369 2687 2733 
Q 2419 3097 1959 3097 
z
M 1959 3584 
Q 2709 3584 3137 3096 
Q 3566 2609 3566 1747 
Q 3566 888 3137 398 
Q 2709 -91 1959 -91 
Q 1206 -91 779 398 
Q 353 888 353 1747 
Q 353 2609 779 3096 
Q 1206 3584 1959 3584 
z
" transform="scale(0.015625)"/>
       <path id="DejaVuSans-72" d="M 2631 2963 
Q 2534 3019 2420 3045 
Q 2306 3072 2169 3072 
Q 1681 3072 1420 2755 
Q 1159 2438 1159 1844 
L 1159 0 
L 581 0 
L 581 3500 
L 1159 3500 
L 1159 2956 
Q 1341 3275 1631 3429 
Q 1922 3584 2338 3584 
Q 2397 3584 2469 3576 
Q 2541 3569 2628 3553 
L 2631 2963 
z
" transform="scale(0.015625)"/>
       <path id="DejaVuSans-64" d="M 2906 2969 
L 2906 4863 
L 3481 4863 
L 3481 0 
L 2906 0 
L 2906 525 
Q 2725 213 2448 61 
Q 2172 -91 1784 -91 
Q 1150 -91 751 415 
Q 353 922 353 1747 
Q 353 2572 751 3078 
Q 1150 3584 1784 3584 
Q 2172 3584 2448 3432 
Q 2725 3281 2906 2969 
z
M 947 1747 
Q 947 1113 1208 752 
Q 1469 391 1925 391 
Q 2381 391 2643 752 
Q 2906 1113 2906 1747 
Q 2906 2381 2643 2742 
Q 2381 3103 1925 3103 
Q 1469 3103 1208 2742 
Q 947 2381 947 1747 
z
" transform="scale(0.015625)"/>
       <path id="DejaVuSans-2d" d="M 313 2009 
L 1997 2009 
L 1997 1497 
L 313 1497 
L 313 2009 
z
" transform="scale(0.015625)"/>
       <path id="DejaVuSans-41" d="M 2188 4044 
L 1331 1722 
L 3047 1722 
L 2188 4044 
z
M 1831 4666 
L 2547 4666 
L 4325 0 
L 3669 0 
L 3244 1197 
L 1141 1197 
L 716 0 
L 50 0 
L 1831 4666 
z
" transform="scale(0.015625)"/>
       <path id="DejaVuSans-67" d="M 2906 1791 
Q 2906 2416 2648 2759 
Q 2391 3103 1925 3103 
Q 1463 3103 1205 2759 
Q 947 2416 947 1791 
Q 947 1169 1205 825 
Q 1463 481 1925 481 
Q 2391 481 2648 825 
Q 2906 1169 2906 1791 
z
M 3481 434 
Q 3481 -459 3084 -895 
Q 2688 -1331 1869 -1331 
Q 1566 -1331 1297 -1286 
Q 1028 -1241 775 -1147 
L 775 -588 
Q 1028 -725 1275 -790 
Q 1522 -856 1778 -856 
Q 2344 -856 2625 -561 
Q 2906 -266 2906 331 
L 2906 616 
Q 2728 306 2450 153 
Q 2172 0 1784 0 
Q 1141 0 747 490 
Q 353 981 353 1791 
Q 353 2603 747 3093 
Q 1141 3584 1784 3584 
Q 2172 3584 2450 3431 
Q 2728 3278 2906 2969 
L 2906 3500 
L 3481 3500 
L 3481 434 
z
" transform="scale(0.015625)"/>
       <path id="DejaVuSans-69" d="M 603 3500 
L 1178 3500 
L 1178 0 
L 603 0 
L 603 3500 
z
M 603 4863 
L 1178 4863 
L 1178 4134 
L 603 4134 
L 603 4863 
z
" transform="scale(0.015625)"/>
       <path id="DejaVuSans-74" d="M 1172 4494 
L 1172 3500 
L 2356 3500 
L 2356 3053 
L 1172 3053 
L 1172 1153 
Q 1172 725 1289 603 
Q 1406 481 1766 481 
L 2356 481 
L 2356 0 
L 1766 0 
Q 1100 0 847 248 
Q 594 497 594 1153 
L 594 3053 
L 172 3053 
L 172 3500 
L 594 3500 
L 594 4494 
L 1172 4494 
z
" transform="scale(0.015625)"/>
      </defs>
      <use xlink:href="#DejaVuSans-52"/>
      <use xlink:href="#DejaVuSans-75" x="64.982422"/>
      <use xlink:href="#DejaVuSans-6e" x="128.361328"/>
      <use xlink:href="#DejaVuSans-73" x="191.740234"/>
      <use xlink:href="#DejaVuSans-20" x="243.839844"/>
      <use xlink:href="#DejaVuSans-53" x="275.626953"/>
      <use xlink:href="#DejaVuSans-63" x="339.103516"/>
      <use xlink:href="#DejaVuSans-6f" x="394.083984"/>
      <use xlink:href="#DejaVuSans-72" x="455.265625"/>
      <use xlink:href="#DejaVuSans-65" x="494.128906"/>
      <use xlink:href="#DejaVuSans-64" x="555.652344"/>
      <use xlink:href="#DejaVuSans-20" x="619.128906"/>
      <use xlink:href="#DejaVuSans-2d" x="650.916016"/>
      <use xlink:href="#DejaVuSans-20" x="687"/>
      <use xlink:href="#DejaVuSans-52" x="718.787109"/>
      <use xlink:href="#DejaVuSans-75" x="783.769531"/>
      <use xlink:href="#DejaVuSans-6e" x="847.148438"/>
      <use xlink:href="#DejaVuSans-73" x="910.527344"/>
      <use xlink:href="#DejaVuSans-20" x="962.626953"/>
      <use xlink:href="#DejaVuSans-41" x="994.414062"/>
      <use xlink:href="#DejaVuSans-67" x="1062.822266"/>
      <use xlink:href="#DejaVuSans-61" x="1126.298828"/>
      <use xlink:href="#DejaVuSans-69" x="1187.578125"/>
      <use xlink:href="#DejaVuSans-6e" x="1215.361328"/>
      <use xlink:href="#DejaVuSans-73" x="1278.740234"/>
      <use xlink:href="#DejaVuSans-74" x="1330.839844"/>
     </g>
    </g>
   </g>
   <g id="line2d_18">
    <path d="M 71.085443 229.170543 
L 72.952705 226.183046 
L 74.819967 226.183046 
L 78.55449 223.195548 
L 80.421751 217.220554 
L 82.289013 215.726806 
L 86.023536 218.714303 
L 87.890798 215.228889 
L 89.758059 215.726806 
L 91.625321 213.735141 
L 93.492582 214.233057 
L 95.359844 209.751811 
L 97.227105 210.249728 
L 99.094367 208.258063 
L 100.961629 206.764314 
L 102.82889 205.768482 
L 104.696152 207.26223 
L 106.563413 209.751811 
L 108.430675 205.768482 
L 110.297936 201.287236 
L 112.165198 201.785152 
L 114.03246 201.287236 
L 115.899721 200.291404 
L 117.766983 199.793488 
L 119.634244 198.797655 
L 121.501506 196.80599 
L 123.368767 193.320577 
L 125.236029 192.822661 
L 128.970552 193.818493 
L 130.837814 191.328912 
L 132.705075 191.826828 
L 134.572337 194.316409 
L 136.439598 191.826828 
L 138.30686 188.839331 
L 140.174122 189.337248 
L 142.041383 185.353918 
L 143.908645 185.851834 
L 145.775906 185.353918 
L 147.643168 181.868505 
L 149.510429 175.395594 
L 151.377691 174.897678 
L 153.244953 173.901846 
L 155.112214 174.897678 
L 156.979476 173.901846 
L 158.846737 172.408097 
L 160.713999 171.910181 
L 162.58126 169.4206 
L 164.448522 170.416432 
L 166.315784 169.4206 
L 168.183045 169.918516 
L 170.050307 165.935187 
L 171.917568 162.449773 
L 173.78483 161.951857 
L 177.519353 157.968528 
L 179.386615 154.98103 
L 181.253876 153.487282 
L 183.121138 152.989366 
L 184.988399 149.503952 
L 186.855661 150.001869 
L 190.590184 151.993533 
L 194.324707 148.010204 
L 196.191969 147.512288 
L 198.05923 144.52479 
L 199.926492 141.039377 
L 201.793753 139.545629 
L 203.661015 139.047712 
L 205.528277 139.545629 
L 207.395538 134.06855 
L 209.2628 124.110227 
L 211.130061 123.612311 
L 212.997323 125.106059 
L 214.864584 124.110227 
L 216.731846 118.135232 
L 218.599108 123.114394 
L 220.466369 124.608143 
L 222.333631 123.114394 
L 224.200892 119.628981 
L 226.068154 118.633149 
L 227.935416 120.126897 
L 229.802677 119.628981 
L 231.669939 118.135232 
L 233.5372 117.637316 
L 235.404462 115.645651 
L 237.271723 113.156071 
L 239.138985 111.662322 
L 241.006247 112.658154 
L 242.873508 111.164406 
L 244.74077 110.66649 
L 246.608031 103.695663 
L 248.475293 99.214417 
L 250.342554 97.720669 
L 252.209816 95.231088 
L 254.077078 96.22692 
L 255.944339 94.235255 
L 257.811601 91.745674 
L 261.546124 92.741507 
L 263.413385 91.745674 
L 265.280647 93.737339 
L 267.147909 92.243591 
L 269.01517 93.737339 
L 270.882432 93.239423 
L 272.749693 96.724836 
L 274.616955 96.22692 
L 276.484216 96.724836 
L 278.351478 95.231088 
L 280.21874 93.239423 
L 282.086001 89.75401 
L 285.820524 88.758177 
L 287.687786 89.256093 
L 289.555047 92.243591 
L 291.422309 93.737339 
L 293.289571 96.22692 
L 295.156832 94.235255 
L 297.024094 91.247758 
L 298.891355 90.251926 
L 300.758617 85.272764 
L 302.625878 83.281099 
L 304.49314 80.791518 
L 306.360402 77.306105 
L 308.227663 72.326943 
L 311.962186 73.322775 
L 313.829448 70.833194 
L 315.696709 64.8582 
L 317.563971 66.351949 
L 319.431233 65.356116 
L 321.298494 64.8582 
L 323.165756 61.870703 
L 325.033017 61.372787 
L 326.900279 63.364452 
L 330.634802 61.372787 
L 332.502064 59.879038 
L 334.369325 60.376954 
L 336.236587 57.887373 
L 338.103848 57.389457 
L 339.97111 53.904044 
L 341.838371 53.406128 
L 343.705633 51.414463 
L 345.572895 53.904044 
L 347.440156 53.406128 
L 349.307418 50.418631 
L 351.174679 52.908212 
L 353.041941 51.414463 
L 354.909202 45.937385 
L 356.776464 44.941553 
L 358.643726 44.443636 
L 358.643726 44.443636 
" clip-path="url(#ped55134e1f)" style="fill: none; stroke: #008000; stroke-width: 1.5; stroke-linecap: square"/>
   </g>
   <g id="line2d_19">
    <path d="M 71.085443 234.647621 
L 72.952705 233.651788 
L 74.819967 232.15804 
L 80.421751 229.170543 
L 82.289013 230.166375 
L 84.156274 230.166375 
L 86.023536 231.660124 
L 87.890798 232.15804 
L 89.758059 231.162207 
L 91.625321 230.664291 
L 93.492582 229.668459 
L 95.359844 229.170543 
L 97.227105 229.668459 
L 99.094367 228.672627 
L 100.961629 226.680962 
L 102.82889 225.187213 
L 104.696152 224.689297 
L 108.430675 226.680962 
L 110.297936 227.178878 
L 112.165198 224.689297 
L 114.03246 225.187213 
L 115.899721 227.676794 
L 117.766983 227.178878 
L 119.634244 226.183046 
L 123.368767 227.178878 
L 125.236029 228.17471 
L 127.103291 228.672627 
L 128.970552 227.676794 
L 130.837814 228.17471 
L 132.705075 225.187213 
L 134.572337 224.689297 
L 136.439598 223.693465 
L 138.30686 226.183046 
L 140.174122 225.187213 
L 142.041383 225.685129 
L 143.908645 221.203884 
L 145.775906 220.705967 
L 147.643168 221.7018 
L 149.510429 219.710135 
L 151.377691 220.208051 
L 153.244953 215.726806 
L 155.112214 213.735141 
L 158.846737 208.755979 
L 160.713999 206.764314 
L 162.58126 204.274733 
L 164.448522 205.768482 
L 168.183045 203.776817 
L 170.050307 203.278901 
L 171.917568 201.287236 
L 173.78483 200.291404 
L 175.652091 202.780985 
L 177.519353 199.793488 
L 179.386615 199.295571 
L 183.121138 201.287236 
L 184.988399 196.80599 
L 186.855661 197.303907 
L 188.722922 195.312242 
L 190.590184 194.316409 
L 192.457446 191.826828 
L 194.324707 193.818493 
L 196.191969 192.324745 
L 198.05923 190.33308 
L 199.926492 189.337248 
L 201.793753 189.835164 
L 203.661015 190.830996 
L 205.528277 188.839331 
L 207.395538 188.341415 
L 209.2628 183.860169 
L 211.130061 181.868505 
L 212.997323 182.366421 
L 214.864584 179.378924 
L 216.731846 177.387259 
L 218.599108 171.910181 
L 222.333631 168.922684 
L 224.200892 170.416432 
L 226.068154 168.424768 
L 227.935416 170.914349 
L 231.669939 169.918516 
L 233.5372 167.428935 
L 235.404462 166.433103 
L 237.271723 168.424768 
L 239.138985 173.403929 
L 241.006247 171.910181 
L 242.873508 170.914349 
L 244.74077 171.412265 
L 246.608031 169.4206 
L 248.475293 163.445606 
L 250.342554 161.951857 
L 252.209816 161.453941 
L 254.077078 163.445606 
L 255.944339 162.947689 
L 257.811601 164.939354 
L 259.678862 165.43727 
L 261.546124 164.939354 
L 263.413385 161.453941 
L 265.280647 163.943522 
L 267.147909 162.449773 
L 272.749693 160.956025 
L 274.616955 159.462276 
L 276.484216 158.96436 
L 280.21874 156.972695 
L 282.086001 153.487282 
L 283.953263 155.478947 
L 285.820524 160.458109 
L 287.687786 157.968528 
L 289.555047 158.466444 
L 291.422309 157.968528 
L 293.289571 156.972695 
L 295.156832 158.96436 
L 297.024094 158.466444 
L 298.891355 155.478947 
L 300.758617 153.985198 
L 302.625878 154.483114 
L 304.49314 153.487282 
L 306.360402 154.483114 
L 308.227663 152.989366 
L 310.094925 150.997701 
L 311.962186 150.499785 
L 313.829448 151.993533 
L 315.696709 150.001869 
L 317.563971 150.499785 
L 319.431233 150.001869 
L 321.298494 147.512288 
L 323.165756 146.018539 
L 325.033017 145.022707 
L 326.900279 144.52479 
L 328.76754 142.03521 
L 330.634802 138.05188 
L 332.502064 136.060215 
L 334.369325 132.076886 
L 338.103848 131.081053 
L 339.97111 128.093556 
L 341.838371 127.59564 
L 343.705633 130.085221 
L 345.572895 130.583137 
L 347.440156 125.603975 
L 349.307418 126.599808 
L 351.174679 129.587305 
L 353.041941 128.591472 
L 354.909202 129.089389 
L 358.643726 127.097724 
L 360.510987 128.093556 
L 362.378249 125.603975 
L 364.24551 126.599808 
L 366.112772 126.101891 
L 367.980033 126.599808 
L 369.847295 126.101891 
L 371.714557 125.106059 
L 373.581818 124.608143 
L 373.581818 124.608143 
" clip-path="url(#ped55134e1f)" style="fill: none; stroke: #0000ff; stroke-width: 1.5; stroke-linecap: square"/>
   </g>
   <g id="line2d_20">
    <path d="M 71.085443 233.153872 
L 72.952705 237.137202 
L 74.819967 239.128866 
L 76.687228 238.133034 
L 78.55449 242.116364 
L 80.421751 239.128866 
L 82.289013 238.63095 
L 84.156274 236.639286 
L 87.890798 234.647621 
L 89.758059 233.153872 
L 91.625321 228.672627 
L 93.492582 226.183046 
L 95.359844 226.680962 
L 97.227105 226.183046 
L 99.094367 225.187213 
L 100.961629 221.203884 
L 102.82889 219.212219 
L 106.563413 218.216387 
L 108.430675 219.710135 
L 110.297936 218.216387 
L 114.03246 217.220554 
L 115.899721 214.233057 
L 117.766983 209.751811 
L 119.634244 207.26223 
L 121.501506 206.266398 
L 123.368767 204.274733 
L 125.236029 207.760147 
L 127.103291 204.274733 
L 128.970552 203.776817 
L 130.837814 202.780985 
L 132.705075 203.776817 
L 134.572337 204.274733 
L 136.439598 202.780985 
L 140.174122 198.797655 
L 142.041383 197.303907 
L 143.908645 196.308074 
L 145.775906 196.80599 
L 147.643168 192.324745 
L 149.510429 187.345583 
L 151.377691 181.370589 
L 153.244953 180.374756 
L 155.112214 181.868505 
L 156.979476 179.378924 
L 158.846737 177.387259 
L 160.713999 177.885175 
L 162.58126 180.872672 
L 164.448522 180.374756 
L 166.315784 178.881008 
L 168.183045 175.89351 
L 170.050307 173.403929 
L 171.917568 171.412265 
L 173.78483 170.416432 
L 175.652091 168.922684 
L 177.519353 163.943522 
L 179.386615 161.951857 
L 181.253876 162.947689 
L 183.121138 161.951857 
L 184.988399 163.445606 
L 186.855661 164.441438 
L 188.722922 163.445606 
L 190.590184 161.951857 
L 192.457446 163.445606 
L 194.324707 162.449773 
L 196.191969 167.926851 
L 198.05923 166.931019 
L 199.926492 169.4206 
L 201.793753 167.428935 
L 203.661015 164.441438 
L 205.528277 162.449773 
L 207.395538 159.960192 
L 209.2628 160.458109 
L 211.130061 156.972695 
L 212.997323 155.478947 
L 220.466369 153.487282 
L 222.333631 152.49145 
L 224.200892 150.499785 
L 226.068154 149.503952 
L 227.935416 146.018539 
L 229.802677 147.512288 
L 231.669939 144.52479 
L 233.5372 139.047712 
L 235.404462 140.043545 
L 237.271723 141.537293 
L 239.138985 138.05188 
L 241.006247 141.039377 
L 242.873508 141.537293 
L 244.74077 141.039377 
L 246.608031 139.047712 
L 248.475293 133.570634 
L 250.342554 133.072718 
L 252.209816 135.064383 
L 254.077078 133.570634 
L 255.944339 130.583137 
L 257.811601 133.072718 
L 259.678862 131.57897 
L 261.546124 130.583137 
L 263.413385 129.089389 
L 265.280647 130.583137 
L 267.147909 124.110227 
L 269.01517 121.12273 
L 270.882432 118.633149 
L 272.749693 119.628981 
L 274.616955 116.641484 
L 276.484216 110.66649 
L 278.351478 104.193579 
L 280.21874 103.695663 
L 282.086001 101.703998 
L 283.953263 98.218585 
L 285.820524 93.737339 
L 289.555047 91.745674 
L 291.422309 97.222752 
L 293.289571 96.724836 
L 295.156832 93.737339 
L 297.024094 93.239423 
L 298.891355 94.235255 
L 300.758617 96.724836 
L 302.625878 94.235255 
L 304.49314 92.741507 
L 306.360402 93.737339 
L 308.227663 95.729004 
L 310.094925 96.22692 
L 311.962186 97.222752 
L 315.696709 96.22692 
L 317.563971 92.741507 
L 319.431233 90.251926 
L 321.298494 95.231088 
L 323.165756 91.745674 
L 325.033017 92.741507 
L 326.900279 90.251926 
L 328.76754 92.243591 
L 332.502064 93.239423 
L 334.369325 92.741507 
L 336.236587 91.745674 
L 338.103848 90.251926 
L 339.97111 90.749842 
L 343.705633 92.741507 
L 345.572895 91.247758 
L 347.440156 93.737339 
L 349.307418 97.222752 
L 351.174679 95.231088 
L 353.041941 90.251926 
L 354.909202 91.247758 
L 356.776464 90.749842 
L 358.643726 92.243591 
L 360.510987 89.256093 
L 364.24551 85.272764 
L 366.112772 83.779015 
L 367.980033 81.289434 
L 369.847295 80.293602 
L 371.714557 77.804021 
L 371.714557 77.804021 
" clip-path="url(#ped55134e1f)" style="fill: none; stroke: #ff7f0e; stroke-width: 1.5; stroke-linecap: square"/>
   </g>
   <g id="line2d_21">
    <path d="M 69.218182 231.162207 
L 71.085443 230.166375 
L 72.952705 230.664291 
L 74.819967 232.15804 
L 76.687228 230.166375 
L 78.55449 231.162207 
L 80.421751 229.668459 
L 82.289013 230.166375 
L 84.156274 228.672627 
L 86.023536 231.162207 
L 87.890798 230.166375 
L 89.758059 229.170543 
L 91.625321 230.664291 
L 93.492582 229.170543 
L 95.359844 228.672627 
L 97.227105 224.689297 
L 99.094367 222.697632 
L 100.961629 221.203884 
L 102.82889 218.714303 
L 104.696152 213.735141 
L 106.563413 212.241392 
L 110.297936 211.24556 
L 112.165198 210.747644 
L 114.03246 206.764314 
L 115.899721 207.26223 
L 117.766983 206.764314 
L 119.634244 207.760147 
L 121.501506 207.26223 
L 123.368767 206.764314 
L 125.236029 205.768482 
L 127.103291 201.785152 
L 128.970552 198.797655 
L 130.837814 199.295571 
L 132.705075 197.303907 
L 134.572337 195.312242 
L 136.439598 194.814326 
L 138.30686 194.316409 
L 140.174122 195.810158 
L 142.041383 194.814326 
L 143.908645 195.810158 
L 145.775906 198.299739 
L 147.643168 199.295571 
L 149.510429 198.797655 
L 151.377691 197.801823 
L 153.244953 195.312242 
L 155.112214 194.316409 
L 156.979476 195.312242 
L 158.846737 196.308074 
L 160.713999 192.324745 
L 164.448522 189.835164 
L 166.315784 189.337248 
L 168.183045 182.864337 
L 170.050307 181.370589 
L 171.917568 180.872672 
L 173.78483 177.885175 
L 175.652091 181.370589 
L 177.519353 179.87684 
L 179.386615 179.378924 
L 181.253876 175.395594 
L 183.121138 168.424768 
L 184.988399 167.428935 
L 186.855661 166.931019 
L 188.722922 166.433103 
L 190.590184 161.951857 
L 192.457446 159.960192 
L 194.324707 160.458109 
L 196.191969 159.462276 
L 198.05923 159.960192 
L 199.926492 159.462276 
L 201.793753 158.96436 
L 203.661015 159.960192 
L 205.528277 161.453941 
L 207.395538 159.960192 
L 209.2628 157.968528 
L 211.130061 157.470611 
L 212.997323 156.474779 
L 214.864584 156.972695 
L 218.599108 152.49145 
L 220.466369 150.001869 
L 222.333631 150.997701 
L 224.200892 152.49145 
L 226.068154 144.52479 
L 227.935416 144.026874 
L 229.802677 140.541461 
L 231.669939 141.039377 
L 233.5372 143.528958 
L 235.404462 144.026874 
L 237.271723 143.528958 
L 239.138985 144.026874 
L 241.006247 144.52479 
L 242.873508 138.05188 
L 244.74077 132.574802 
L 246.608031 133.072718 
L 248.475293 134.06855 
L 250.342554 133.570634 
L 252.209816 135.064383 
L 254.077078 132.076886 
L 255.944339 133.570634 
L 257.811601 134.06855 
L 259.678862 133.570634 
L 261.546124 130.583137 
L 263.413385 127.59564 
L 265.280647 128.591472 
L 269.01517 126.101891 
L 270.882432 127.097724 
L 272.749693 129.089389 
L 274.616955 129.587305 
L 276.484216 130.085221 
L 278.351478 131.57897 
L 280.21874 129.089389 
L 282.086001 129.587305 
L 283.953263 130.085221 
L 285.820524 130.583137 
L 287.687786 130.085221 
L 289.555047 131.57897 
L 291.422309 133.570634 
L 293.289571 134.566467 
L 295.156832 134.06855 
" clip-path="url(#ped55134e1f)" style="fill: none; stroke: #ff0000; stroke-width: 1.5; stroke-linecap: square"/>
   </g>
   <g id="patch_3">
    <path d="M 54 252 
L 54 34.56 
" style="fill: none; stroke: #000000; stroke-width: 0.8; stroke-linejoin: miter; stroke-linecap: square"/>
   </g>
   <g id="patch_4">
    <path d="M 388.8 252 
L 388.8 34.56 
" style="fill: none; stroke: #000000; stroke-width: 0.8; stroke-linejoin: miter; stroke-linecap: square"/>
   </g>
   <g id="patch_5">
    <path d="M 54 252 
L 388.8 252 
" style="fill: none; stroke: #000000; stroke-width: 0.8; stroke-linejoin: miter; stroke-linecap: square"/>
   </g>
   <g id="patch_6">
    <path d="M 54 34.56 
L 388.8 34.56 
" style="fill: none; stroke: #000000; stroke-width: 0.8; stroke-linejoin: miter; stroke-linecap: square"/>
   </g>
   <g id="text_20">
    <!-- Cumulative Run Differential -->
    <g transform="translate(138.445312 28.56)scale(0.12 -0.12)">
     <defs>
      <path id="DejaVuSans-43" d="M 4122 4306 
L 4122 3641 
Q 3803 3938 3442 4084 
Q 3081 4231 2675 4231 
Q 1875 4231 1450 3742 
Q 1025 3253 1025 2328 
Q 1025 1406 1450 917 
Q 1875 428 2675 428 
Q 3081 428 3442 575 
Q 3803 722 4122 1019 
L 4122 359 
Q 3791 134 3420 21 
Q 3050 -91 2638 -91 
Q 1578 -91 968 557 
Q 359 1206 359 2328 
Q 359 3453 968 4101 
Q 1578 4750 2638 4750 
Q 3056 4750 3426 4639 
Q 3797 4528 4122 4306 
z
" transform="scale(0.015625)"/>
      <path id="DejaVuSans-6c" d="M 603 4863 
L 1178 4863 
L 1178 0 
L 603 0 
L 603 4863 
z
" transform="scale(0.015625)"/>
      <path id="DejaVuSans-76" d="M 191 3500 
L 800 3500 
L 1894 563 
L 2988 3500 
L 3597 3500 
L 2284 0 
L 1503 0 
L 191 3500 
z
" transform="scale(0.015625)"/>
      <path id="DejaVuSans-44" d="M 1259 4147 
L 1259 519 
L 2022 519 
Q 2988 519 3436 956 
Q 3884 1394 3884 2338 
Q 3884 3275 3436 3711 
Q 2988 4147 2022 4147 
L 1259 4147 
z
M 628 4666 
L 1925 4666 
Q 3281 4666 3915 4102 
Q 4550 3538 4550 2338 
Q 4550 1131 3912 565 
Q 3275 0 1925 0 
L 628 0 
L 628 4666 
z
" transform="scale(0.015625)"/>
      <path id="DejaVuSans-66" d="M 2375 4863 
L 2375 4384 
L 1825 4384 
Q 1516 4384 1395 4259 
Q 1275 4134 1275 3809 
L 1275 3500 
L 2222 3500 
L 2222 3053 
L 1275 3053 
L 1275 0 
L 697 0 
L 697 3053 
L 147 3053 
L 147 3500 
L 697 3500 
L 697 3744 
Q 697 4328 969 4595 
Q 1241 4863 1831 4863 
L 2375 4863 
z
" transform="scale(0.015625)"/>
     </defs>
     <use xlink:href="#DejaVuSans-43"/>
     <use xlink:href="#DejaVuSans-75" x="69.824219"/>
     <use xlink:href="#DejaVuSans-6d" x="133.203125"/>
     <use xlink:href="#DejaVuSans-75" x="230.615234"/>
     <use xlink:href="#DejaVuSans-6c" x="293.994141"/>
     <use xlink:href="#DejaVuSans-61" x="321.777344"/>
     <use xlink:href="#DejaVuSans-74" x="383.056641"/>
     <use xlink:href="#DejaVuSans-69" x="422.265625"/>
     <use xlink:href="#DejaVuSans-76" x="450.048828"/>
     <use xlink:href="#DejaVuSans-65" x="509.228516"/>
     <use xlink:href="#DejaVuSans-20" x="570.751953"/>
     <use xlink:href="#DejaVuSans-52" x="602.539062"/>
     <use xlink:href="#DejaVuSans-75" x="667.521484"/>
     <use xlink:href="#DejaVuSans-6e" x="730.900391"/>
     <use xlink:href="#DejaVuSans-20" x="794.279297"/>
     <use xlink:href="#DejaVuSans-44" x="826.066406"/>
     <use xlink:href="#DejaVuSans-69" x="903.068359"/>
     <use xlink:href="#DejaVuSans-66" x="930.851562"/>
     <use xlink:href="#DejaVuSans-66" x="966.056641"/>
     <use xlink:href="#DejaVuSans-65" x="1001.261719"/>
     <use xlink:href="#DejaVuSans-72" x="1062.785156"/>
     <use xlink:href="#DejaVuSans-65" x="1101.648438"/>
     <use xlink:href="#DejaVuSans-6e" x="1163.171875"/>
     <use xlink:href="#DejaVuSans-74" x="1226.550781"/>
     <use xlink:href="#DejaVuSans-69" x="1265.759766"/>
     <use xlink:href="#DejaVuSans-61" x="1293.542969"/>
     <use xlink:href="#DejaVuSans-6c" x="1354.822266"/>
    </g>
   </g>
   <g id="legend_1">
    <g id="patch_7">
     <path d="M 321.171875 247 
L 381.8 247 
Q 383.8 247 383.8 245 
L 383.8 187.2875 
Q 383.8 185.2875 381.8 185.2875 
L 321.171875 185.2875 
Q 319.171875 185.2875 319.171875 187.2875 
L 319.171875 245 
Q 319.171875 247 321.171875 247 
z
" style="fill: #ffffff; opacity: 0.8; stroke: #cccccc; stroke-linejoin: miter"/>
    </g>
    <g id="line2d_22">
     <path d="M 323.171875 193.385938 
L 333.171875 193.385938 
L 343.171875 193.385938 
" style="fill: none; stroke: #008000; stroke-width: 1.5; stroke-linecap: square"/>
    </g>
    <g id="text_21">
     <!--  1927 -->
     <g transform="translate(351.171875 196.885938)scale(0.1 -0.1)">
      <defs>
       <path id="DejaVuSans-39" d="M 703 97 
L 703 672 
Q 941 559 1184 500 
Q 1428 441 1663 441 
Q 2288 441 2617 861 
Q 2947 1281 2994 2138 
Q 2813 1869 2534 1725 
Q 2256 1581 1919 1581 
Q 1219 1581 811 2004 
Q 403 2428 403 3163 
Q 403 3881 828 4315 
Q 1253 4750 1959 4750 
Q 2769 4750 3195 4129 
Q 3622 3509 3622 2328 
Q 3622 1225 3098 567 
Q 2575 -91 1691 -91 
Q 1453 -91 1209 -44 
Q 966 3 703 97 
z
M 1959 2075 
Q 2384 2075 2632 2365 
Q 2881 2656 2881 3163 
Q 2881 3666 2632 3958 
Q 2384 4250 1959 4250 
Q 1534 4250 1286 3958 
Q 1038 3666 1038 3163 
Q 1038 2656 1286 2365 
Q 1534 2075 1959 2075 
z
" transform="scale(0.015625)"/>
       <path id="DejaVuSans-37" d="M 525 4666 
L 3525 4666 
L 3525 4397 
L 1831 0 
L 1172 0 
L 2766 4134 
L 525 4134 
L 525 4666 
z
" transform="scale(0.015625)"/>
      </defs>
      <use xlink:href="#DejaVuSans-20"/>
      <use xlink:href="#DejaVuSans-31" x="31.787109"/>
      <use xlink:href="#DejaVuSans-39" x="95.410156"/>
      <use xlink:href="#DejaVuSans-32" x="159.033203"/>
      <use xlink:href="#DejaVuSans-37" x="222.65625"/>
     </g>
    </g>
    <g id="line2d_23">
     <path d="M 323.171875 208.064063 
L 333.171875 208.064063 
L 343.171875 208.064063 
" style="fill: none; stroke: #0000ff; stroke-width: 1.5; stroke-linecap: square"/>
    </g>
    <g id="text_22">
     <!--  1961 -->
     <g transform="translate(351.171875 211.564063)scale(0.1 -0.1)">
      <use xlink:href="#DejaVuSans-20"/>
      <use xlink:href="#DejaVuSans-31" x="31.787109"/>
      <use xlink:href="#DejaVuSans-39" x="95.410156"/>
      <use xlink:href="#DejaVuSans-36" x="159.033203"/>
      <use xlink:href="#DejaVuSans-31" x="222.65625"/>
     </g>
    </g>
    <g id="line2d_24">
     <path d="M 323.171875 222.742188 
L 333.171875 222.742188 
L 343.171875 222.742188 
" style="fill: none; stroke: #ff7f0e; stroke-width: 1.5; stroke-linecap: square"/>
    </g>
    <g id="text_23">
     <!--  1998 -->
     <g transform="translate(351.171875 226.242188)scale(0.1 -0.1)">
      <use xlink:href="#DejaVuSans-20"/>
      <use xlink:href="#DejaVuSans-31" x="31.787109"/>
      <use xlink:href="#DejaVuSans-39" x="95.410156"/>
      <use xlink:href="#DejaVuSans-39" x="159.033203"/>
      <use xlink:href="#DejaVuSans-38" x="222.65625"/>
     </g>
    </g>
    <g id="line2d_25">
     <path d="M 323.171875 237.420312 
L 333.171875 237.420312 
L 343.171875 237.420312 
" style="fill: none; stroke: #ff0000; stroke-width: 1.5; stroke-linecap: square"/>
    </g>
    <g id="text_24">
     <!--  2022 -->
     <g transform="translate(351.171875 240.920312)scale(0.1 -0.1)">
      <use xlink:href="#DejaVuSans-20"/>
      <use xlink:href="#DejaVuSans-32" x="31.787109"/>
      <use xlink:href="#DejaVuSans-30" x="95.410156"/>
      <use xlink:href="#DejaVuSans-32" x="159.033203"/>
      <use xlink:href="#DejaVuSans-32" x="222.65625"/>
     </g>
    </g>
   </g>
  </g>
 </g>
 <defs>
  <clipPath id="ped55134e1f">
   <rect x="54" y="34.56" width="334.8" height="217.44"/>
  </clipPath>
 </defs>
</svg>
