<?xml version="1.0" encoding="utf-8" standalone="no"?>
<!DOCTYPE svg PUBLIC "-//W3C//DTD SVG 1.1//EN"
  "http://www.w3.org/Graphics/SVG/1.1/DTD/svg11.dtd">
<svg xmlns:xlink="http://www.w3.org/1999/xlink" width="432pt" height="288pt" viewBox="0 0 432 288" xmlns="http://www.w3.org/2000/svg" version="1.1">
 <metadata>
  <rdf:RDF xmlns:dc="http://purl.org/dc/elements/1.1/" xmlns:cc="http://creativecommons.org/ns#" xmlns:rdf="http://www.w3.org/1999/02/22-rdf-syntax-ns#">
   <cc:Work>
    <dc:type rdf:resource="http://purl.org/dc/dcmitype/StillImage"/>
    <dc:date>2022-08-18T11:16:38.522834</dc:date>
    <dc:format>image/svg+xml</dc:format>
    <dc:creator>
     <cc:Agent>
      <dc:title>Matplotlib v3.5.2, https://matplotlib.org/</dc:title>
     </cc:Agent>
    </dc:creator>
   </cc:Work>
  </rdf:RDF>
 </metadata>
 <defs>
  <style type="text/css">*{stroke-linejoin: round; stroke-linecap: butt}</style>
 </defs>
 <g id="figure_1">
  <g id="patch_1">
   <path d="M 0 288 
L 432 288 
L 432 0 
L 0 0 
L 0 288 
z
" style="fill: none"/>
  </g>
  <g id="axes_1">
   <g id="patch_2">
    <path d="M 54 252 
L 388.8 252 
L 388.8 34.56 
L 54 34.56 
z
" style="fill: #ffffff"/>
   </g>
   <g id="matplotlib.axis_1">
    <g id="xtick_1">
     <g id="line2d_1">
      <defs>
       <path id="mdea2bac85b" d="M 0 0 
L 0 3.5 
" style="stroke: #000000; stroke-width: 0.8"/>
      </defs>
      <g>
       <use xlink:href="#mdea2bac85b" x="69.218182" y="252" style="stroke: #000000; stroke-width: 0.8"/>
      </g>
     </g>
     <g id="text_1">
      <!-- 0 -->
      <g transform="translate(66.036932 266.598437)scale(0.1 -0.1)">
       <defs>
        <path id="DejaVuSans-30" d="M 2034 4250 
Q 1547 4250 1301 3770 
Q 1056 3291 1056 2328 
Q 1056 1369 1301 889 
Q 1547 409 2034 409 
Q 2525 409 2770 889 
Q 3016 1369 3016 2328 
Q 3016 3291 2770 3770 
Q 2525 4250 2034 4250 
z
M 2034 4750 
Q 2819 4750 3233 4129 
Q 3647 3509 3647 2328 
Q 3647 1150 3233 529 
Q 2819 -91 2034 -91 
Q 1250 -91 836 529 
Q 422 1150 422 2328 
Q 422 3509 836 4129 
Q 1250 4750 2034 4750 
z
" transform="scale(0.015625)"/>
       </defs>
       <use xlink:href="#DejaVuSans-30"/>
      </g>
     </g>
    </g>
    <g id="xtick_2">
     <g id="line2d_2">
      <g>
       <use xlink:href="#mdea2bac85b" x="106.563413" y="252" style="stroke: #000000; stroke-width: 0.8"/>
      </g>
     </g>
     <g id="text_2">
      <!-- 20 -->
      <g transform="translate(100.200913 266.598437)scale(0.1 -0.1)">
       <defs>
        <path id="DejaVuSans-32" d="M 1228 531 
L 3431 531 
L 3431 0 
L 469 0 
L 469 531 
Q 828 903 1448 1529 
Q 2069 2156 2228 2338 
Q 2531 2678 2651 2914 
Q 2772 3150 2772 3378 
Q 2772 3750 2511 3984 
Q 2250 4219 1831 4219 
Q 1534 4219 1204 4116 
Q 875 4013 500 3803 
L 500 4441 
Q 881 4594 1212 4672 
Q 1544 4750 1819 4750 
Q 2544 4750 2975 4387 
Q 3406 4025 3406 3419 
Q 3406 3131 3298 2873 
Q 3191 2616 2906 2266 
Q 2828 2175 2409 1742 
Q 1991 1309 1228 531 
z
" transform="scale(0.015625)"/>
       </defs>
       <use xlink:href="#DejaVuSans-32"/>
       <use xlink:href="#DejaVuSans-30" x="63.623047"/>
      </g>
     </g>
    </g>
    <g id="xtick_3">
     <g id="line2d_3">
      <g>
       <use xlink:href="#mdea2bac85b" x="143.908645" y="252" style="stroke: #000000; stroke-width: 0.8"/>
      </g>
     </g>
     <g id="text_3">
      <!-- 40 -->
      <g transform="translate(137.546145 266.598437)scale(0.1 -0.1)">
       <defs>
        <path id="DejaVuSans-34" d="M 2419 4116 
L 825 1625 
L 2419 1625 
L 2419 4116 
z
M 2253 4666 
L 3047 4666 
L 3047 1625 
L 3713 1625 
L 3713 1100 
L 3047 1100 
L 3047 0 
L 2419 0 
L 2419 1100 
L 313 1100 
L 313 1709 
L 2253 4666 
z
" transform="scale(0.015625)"/>
       </defs>
       <use xlink:href="#DejaVuSans-34"/>
       <use xlink:href="#DejaVuSans-30" x="63.623047"/>
      </g>
     </g>
    </g>
    <g id="xtick_4">
     <g id="line2d_4">
      <g>
       <use xlink:href="#mdea2bac85b" x="181.253876" y="252" style="stroke: #000000; stroke-width: 0.8"/>
      </g>
     </g>
     <g id="text_4">
      <!-- 60 -->
      <g transform="translate(174.891376 266.598437)scale(0.1 -0.1)">
       <defs>
        <path id="DejaVuSans-36" d="M 2113 2584 
Q 1688 2584 1439 2293 
Q 1191 2003 1191 1497 
Q 1191 994 1439 701 
Q 1688 409 2113 409 
Q 2538 409 2786 701 
Q 3034 994 3034 1497 
Q 3034 2003 2786 2293 
Q 2538 2584 2113 2584 
z
M 3366 4563 
L 3366 3988 
Q 3128 4100 2886 4159 
Q 2644 4219 2406 4219 
Q 1781 4219 1451 3797 
Q 1122 3375 1075 2522 
Q 1259 2794 1537 2939 
Q 1816 3084 2150 3084 
Q 2853 3084 3261 2657 
Q 3669 2231 3669 1497 
Q 3669 778 3244 343 
Q 2819 -91 2113 -91 
Q 1303 -91 875 529 
Q 447 1150 447 2328 
Q 447 3434 972 4092 
Q 1497 4750 2381 4750 
Q 2619 4750 2861 4703 
Q 3103 4656 3366 4563 
z
" transform="scale(0.015625)"/>
       </defs>
       <use xlink:href="#DejaVuSans-36"/>
       <use xlink:href="#DejaVuSans-30" x="63.623047"/>
      </g>
     </g>
    </g>
    <g id="xtick_5">
     <g id="line2d_5">
      <g>
       <use xlink:href="#mdea2bac85b" x="218.599108" y="252" style="stroke: #000000; stroke-width: 0.8"/>
      </g>
     </g>
     <g id="text_5">
      <!-- 80 -->
      <g transform="translate(212.236608 266.598437)scale(0.1 -0.1)">
       <defs>
        <path id="DejaVuSans-38" d="M 2034 2216 
Q 1584 2216 1326 1975 
Q 1069 1734 1069 1313 
Q 1069 891 1326 650 
Q 1584 409 2034 409 
Q 2484 409 2743 651 
Q 3003 894 3003 1313 
Q 3003 1734 2745 1975 
Q 2488 2216 2034 2216 
z
M 1403 2484 
Q 997 2584 770 2862 
Q 544 3141 544 3541 
Q 544 4100 942 4425 
Q 1341 4750 2034 4750 
Q 2731 4750 3128 4425 
Q 3525 4100 3525 3541 
Q 3525 3141 3298 2862 
Q 3072 2584 2669 2484 
Q 3125 2378 3379 2068 
Q 3634 1759 3634 1313 
Q 3634 634 3220 271 
Q 2806 -91 2034 -91 
Q 1263 -91 848 271 
Q 434 634 434 1313 
Q 434 1759 690 2068 
Q 947 2378 1403 2484 
z
M 1172 3481 
Q 1172 3119 1398 2916 
Q 1625 2713 2034 2713 
Q 2441 2713 2670 2916 
Q 2900 3119 2900 3481 
Q 2900 3844 2670 4047 
Q 2441 4250 2034 4250 
Q 1625 4250 1398 4047 
Q 1172 3844 1172 3481 
z
" transform="scale(0.015625)"/>
       </defs>
       <use xlink:href="#DejaVuSans-38"/>
       <use xlink:href="#DejaVuSans-30" x="63.623047"/>
      </g>
     </g>
    </g>
    <g id="xtick_6">
     <g id="line2d_6">
      <g>
       <use xlink:href="#mdea2bac85b" x="255.944339" y="252" style="stroke: #000000; stroke-width: 0.8"/>
      </g>
     </g>
     <g id="text_6">
      <!-- 100 -->
      <g transform="translate(246.400589 266.598437)scale(0.1 -0.1)">
       <defs>
        <path id="DejaVuSans-31" d="M 794 531 
L 1825 531 
L 1825 4091 
L 703 3866 
L 703 4441 
L 1819 4666 
L 2450 4666 
L 2450 531 
L 3481 531 
L 3481 0 
L 794 0 
L 794 531 
z
" transform="scale(0.015625)"/>
       </defs>
       <use xlink:href="#DejaVuSans-31"/>
       <use xlink:href="#DejaVuSans-30" x="63.623047"/>
       <use xlink:href="#DejaVuSans-30" x="127.246094"/>
      </g>
     </g>
    </g>
    <g id="xtick_7">
     <g id="line2d_7">
      <g>
       <use xlink:href="#mdea2bac85b" x="293.289571" y="252" style="stroke: #000000; stroke-width: 0.8"/>
      </g>
     </g>
     <g id="text_7">
      <!-- 120 -->
      <g transform="translate(283.745821 266.598437)scale(0.1 -0.1)">
       <use xlink:href="#DejaVuSans-31"/>
       <use xlink:href="#DejaVuSans-32" x="63.623047"/>
       <use xlink:href="#DejaVuSans-30" x="127.246094"/>
      </g>
     </g>
    </g>
    <g id="xtick_8">
     <g id="line2d_8">
      <g>
       <use xlink:href="#mdea2bac85b" x="330.634802" y="252" style="stroke: #000000; stroke-width: 0.8"/>
      </g>
     </g>
     <g id="text_8">
      <!-- 140 -->
      <g transform="translate(321.091052 266.598437)scale(0.1 -0.1)">
       <use xlink:href="#DejaVuSans-31"/>
       <use xlink:href="#DejaVuSans-34" x="63.623047"/>
       <use xlink:href="#DejaVuSans-30" x="127.246094"/>
      </g>
     </g>
    </g>
    <g id="xtick_9">
     <g id="line2d_9">
      <g>
       <use xlink:href="#mdea2bac85b" x="367.980033" y="252" style="stroke: #000000; stroke-width: 0.8"/>
      </g>
     </g>
     <g id="text_9">
      <!-- 160 -->
      <g transform="translate(358.436283 266.598437)scale(0.1 -0.1)">
       <use xlink:href="#DejaVuSans-31"/>
       <use xlink:href="#DejaVuSans-36" x="63.623047"/>
       <use xlink:href="#DejaVuSans-30" x="127.246094"/>
      </g>
     </g>
    </g>
    <g id="text_10">
     <!-- Games -->
     <g transform="translate(203.910156 280.276563)scale(0.1 -0.1)">
      <defs>
       <path id="DejaVuSans-47" d="M 3809 666 
L 3809 1919 
L 2778 1919 
L 2778 2438 
L 4434 2438 
L 4434 434 
Q 4069 175 3628 42 
Q 3188 -91 2688 -91 
Q 1594 -91 976 548 
Q 359 1188 359 2328 
Q 359 3472 976 4111 
Q 1594 4750 2688 4750 
Q 3144 4750 3555 4637 
Q 3966 4525 4313 4306 
L 4313 3634 
Q 3963 3931 3569 4081 
Q 3175 4231 2741 4231 
Q 1884 4231 1454 3753 
Q 1025 3275 1025 2328 
Q 1025 1384 1454 906 
Q 1884 428 2741 428 
Q 3075 428 3337 486 
Q 3600 544 3809 666 
z
" transform="scale(0.015625)"/>
       <path id="DejaVuSans-61" d="M 2194 1759 
Q 1497 1759 1228 1600 
Q 959 1441 959 1056 
Q 959 750 1161 570 
Q 1363 391 1709 391 
Q 2188 391 2477 730 
Q 2766 1069 2766 1631 
L 2766 1759 
L 2194 1759 
z
M 3341 1997 
L 3341 0 
L 2766 0 
L 2766 531 
Q 2569 213 2275 61 
Q 1981 -91 1556 -91 
Q 1019 -91 701 211 
Q 384 513 384 1019 
Q 384 1609 779 1909 
Q 1175 2209 1959 2209 
L 2766 2209 
L 2766 2266 
Q 2766 2663 2505 2880 
Q 2244 3097 1772 3097 
Q 1472 3097 1187 3025 
Q 903 2953 641 2809 
L 641 3341 
Q 956 3463 1253 3523 
Q 1550 3584 1831 3584 
Q 2591 3584 2966 3190 
Q 3341 2797 3341 1997 
z
" transform="scale(0.015625)"/>
       <path id="DejaVuSans-6d" d="M 3328 2828 
Q 3544 3216 3844 3400 
Q 4144 3584 4550 3584 
Q 5097 3584 5394 3201 
Q 5691 2819 5691 2113 
L 5691 0 
L 5113 0 
L 5113 2094 
Q 5113 2597 4934 2840 
Q 4756 3084 4391 3084 
Q 3944 3084 3684 2787 
Q 3425 2491 3425 1978 
L 3425 0 
L 2847 0 
L 2847 2094 
Q 2847 2600 2669 2842 
Q 2491 3084 2119 3084 
Q 1678 3084 1418 2786 
Q 1159 2488 1159 1978 
L 1159 0 
L 581 0 
L 581 3500 
L 1159 3500 
L 1159 2956 
Q 1356 3278 1631 3431 
Q 1906 3584 2284 3584 
Q 2666 3584 2933 3390 
Q 3200 3197 3328 2828 
z
" transform="scale(0.015625)"/>
       <path id="DejaVuSans-65" d="M 3597 1894 
L 3597 1613 
L 953 1613 
Q 991 1019 1311 708 
Q 1631 397 2203 397 
Q 2534 397 2845 478 
Q 3156 559 3463 722 
L 3463 178 
Q 3153 47 2828 -22 
Q 2503 -91 2169 -91 
Q 1331 -91 842 396 
Q 353 884 353 1716 
Q 353 2575 817 3079 
Q 1281 3584 2069 3584 
Q 2775 3584 3186 3129 
Q 3597 2675 3597 1894 
z
M 3022 2063 
Q 3016 2534 2758 2815 
Q 2500 3097 2075 3097 
Q 1594 3097 1305 2825 
Q 1016 2553 972 2059 
L 3022 2063 
z
" transform="scale(0.015625)"/>
       <path id="DejaVuSans-73" d="M 2834 3397 
L 2834 2853 
Q 2591 2978 2328 3040 
Q 2066 3103 1784 3103 
Q 1356 3103 1142 2972 
Q 928 2841 928 2578 
Q 928 2378 1081 2264 
Q 1234 2150 1697 2047 
L 1894 2003 
Q 2506 1872 2764 1633 
Q 3022 1394 3022 966 
Q 3022 478 2636 193 
Q 2250 -91 1575 -91 
Q 1294 -91 989 -36 
Q 684 19 347 128 
L 347 722 
Q 666 556 975 473 
Q 1284 391 1588 391 
Q 1994 391 2212 530 
Q 2431 669 2431 922 
Q 2431 1156 2273 1281 
Q 2116 1406 1581 1522 
L 1381 1569 
Q 847 1681 609 1914 
Q 372 2147 372 2553 
Q 372 3047 722 3315 
Q 1072 3584 1716 3584 
Q 2034 3584 2315 3537 
Q 2597 3491 2834 3397 
z
" transform="scale(0.015625)"/>
      </defs>
      <use xlink:href="#DejaVuSans-47"/>
      <use xlink:href="#DejaVuSans-61" x="77.490234"/>
      <use xlink:href="#DejaVuSans-6d" x="138.769531"/>
      <use xlink:href="#DejaVuSans-65" x="236.181641"/>
      <use xlink:href="#DejaVuSans-73" x="297.705078"/>
     </g>
    </g>
   </g>
   <g id="matplotlib.axis_2">
    <g id="ytick_1">
     <g id="line2d_10">
      <defs>
       <path id="m49a35f337b" d="M 0 0 
L -3.5 0 
" style="stroke: #000000; stroke-width: 0.8"/>
      </defs>
      <g>
       <use xlink:href="#m49a35f337b" x="54" y="242.116364" style="stroke: #000000; stroke-width: 0.8"/>
      </g>
     </g>
     <g id="text_11">
      <!-- 0 -->
      <g transform="translate(40.6375 245.915582)scale(0.1 -0.1)">
       <use xlink:href="#DejaVuSans-30"/>
      </g>
     </g>
    </g>
    <g id="ytick_2">
     <g id="line2d_11">
      <g>
       <use xlink:href="#m49a35f337b" x="54" y="207.436938" style="stroke: #000000; stroke-width: 0.8"/>
      </g>
     </g>
     <g id="text_12">
      <!-- 20 -->
      <g transform="translate(34.275 211.236157)scale(0.1 -0.1)">
       <use xlink:href="#DejaVuSans-32"/>
       <use xlink:href="#DejaVuSans-30" x="63.623047"/>
      </g>
     </g>
    </g>
    <g id="ytick_3">
     <g id="line2d_12">
      <g>
       <use xlink:href="#m49a35f337b" x="54" y="172.757512" style="stroke: #000000; stroke-width: 0.8"/>
      </g>
     </g>
     <g id="text_13">
      <!-- 40 -->
      <g transform="translate(34.275 176.556731)scale(0.1 -0.1)">
       <use xlink:href="#DejaVuSans-34"/>
       <use xlink:href="#DejaVuSans-30" x="63.623047"/>
      </g>
     </g>
    </g>
    <g id="ytick_4">
     <g id="line2d_13">
      <g>
       <use xlink:href="#m49a35f337b" x="54" y="138.078086" style="stroke: #000000; stroke-width: 0.8"/>
      </g>
     </g>
     <g id="text_14">
      <!-- 60 -->
      <g transform="translate(34.275 141.877305)scale(0.1 -0.1)">
       <use xlink:href="#DejaVuSans-36"/>
       <use xlink:href="#DejaVuSans-30" x="63.623047"/>
      </g>
     </g>
    </g>
    <g id="ytick_5">
     <g id="line2d_14">
      <g>
       <use xlink:href="#m49a35f337b" x="54" y="103.39866" style="stroke: #000000; stroke-width: 0.8"/>
      </g>
     </g>
     <g id="text_15">
      <!-- 80 -->
      <g transform="translate(34.275 107.197879)scale(0.1 -0.1)">
       <use xlink:href="#DejaVuSans-38"/>
       <use xlink:href="#DejaVuSans-30" x="63.623047"/>
      </g>
     </g>
    </g>
    <g id="ytick_6">
     <g id="line2d_15">
      <g>
       <use xlink:href="#m49a35f337b" x="54" y="68.719234" style="stroke: #000000; stroke-width: 0.8"/>
      </g>
     </g>
     <g id="text_16">
      <!-- 100 -->
      <g transform="translate(27.9125 72.518453)scale(0.1 -0.1)">
       <use xlink:href="#DejaVuSans-31"/>
       <use xlink:href="#DejaVuSans-30" x="63.623047"/>
       <use xlink:href="#DejaVuSans-30" x="127.246094"/>
      </g>
     </g>
    </g>
    <g id="text_17">
     <!-- Win Count -->
     <g transform="translate(21.832812 169.106562)rotate(-90)scale(0.1 -0.1)">
      <defs>
       <path id="DejaVuSans-57" d="M 213 4666 
L 850 4666 
L 1831 722 
L 2809 4666 
L 3519 4666 
L 4500 722 
L 5478 4666 
L 6119 4666 
L 4947 0 
L 4153 0 
L 3169 4050 
L 2175 0 
L 1381 0 
L 213 4666 
z
" transform="scale(0.015625)"/>
       <path id="DejaVuSans-69" d="M 603 3500 
L 1178 3500 
L 1178 0 
L 603 0 
L 603 3500 
z
M 603 4863 
L 1178 4863 
L 1178 4134 
L 603 4134 
L 603 4863 
z
" transform="scale(0.015625)"/>
       <path id="DejaVuSans-6e" d="M 3513 2113 
L 3513 0 
L 2938 0 
L 2938 2094 
Q 2938 2591 2744 2837 
Q 2550 3084 2163 3084 
Q 1697 3084 1428 2787 
Q 1159 2491 1159 1978 
L 1159 0 
L 581 0 
L 581 3500 
L 1159 3500 
L 1159 2956 
Q 1366 3272 1645 3428 
Q 1925 3584 2291 3584 
Q 2894 3584 3203 3211 
Q 3513 2838 3513 2113 
z
" transform="scale(0.015625)"/>
       <path id="DejaVuSans-20" transform="scale(0.015625)"/>
       <path id="DejaVuSans-43" d="M 4122 4306 
L 4122 3641 
Q 3803 3938 3442 4084 
Q 3081 4231 2675 4231 
Q 1875 4231 1450 3742 
Q 1025 3253 1025 2328 
Q 1025 1406 1450 917 
Q 1875 428 2675 428 
Q 3081 428 3442 575 
Q 3803 722 4122 1019 
L 4122 359 
Q 3791 134 3420 21 
Q 3050 -91 2638 -91 
Q 1578 -91 968 557 
Q 359 1206 359 2328 
Q 359 3453 968 4101 
Q 1578 4750 2638 4750 
Q 3056 4750 3426 4639 
Q 3797 4528 4122 4306 
z
" transform="scale(0.015625)"/>
       <path id="DejaVuSans-6f" d="M 1959 3097 
Q 1497 3097 1228 2736 
Q 959 2375 959 1747 
Q 959 1119 1226 758 
Q 1494 397 1959 397 
Q 2419 397 2687 759 
Q 2956 1122 2956 1747 
Q 2956 2369 2687 2733 
Q 2419 3097 1959 3097 
z
M 1959 3584 
Q 2709 3584 3137 3096 
Q 3566 2609 3566 1747 
Q 3566 888 3137 398 
Q 2709 -91 1959 -91 
Q 1206 -91 779 398 
Q 353 888 353 1747 
Q 353 2609 779 3096 
Q 1206 3584 1959 3584 
z
" transform="scale(0.015625)"/>
       <path id="DejaVuSans-75" d="M 544 1381 
L 544 3500 
L 1119 3500 
L 1119 1403 
Q 1119 906 1312 657 
Q 1506 409 1894 409 
Q 2359 409 2629 706 
Q 2900 1003 2900 1516 
L 2900 3500 
L 3475 3500 
L 3475 0 
L 2900 0 
L 2900 538 
Q 2691 219 2414 64 
Q 2138 -91 1772 -91 
Q 1169 -91 856 284 
Q 544 659 544 1381 
z
M 1991 3584 
L 1991 3584 
z
" transform="scale(0.015625)"/>
       <path id="DejaVuSans-74" d="M 1172 4494 
L 1172 3500 
L 2356 3500 
L 2356 3053 
L 1172 3053 
L 1172 1153 
Q 1172 725 1289 603 
Q 1406 481 1766 481 
L 2356 481 
L 2356 0 
L 1766 0 
Q 1100 0 847 248 
Q 594 497 594 1153 
L 594 3053 
L 172 3053 
L 172 3500 
L 594 3500 
L 594 4494 
L 1172 4494 
z
" transform="scale(0.015625)"/>
      </defs>
      <use xlink:href="#DejaVuSans-57"/>
      <use xlink:href="#DejaVuSans-69" x="96.626953"/>
      <use xlink:href="#DejaVuSans-6e" x="124.410156"/>
      <use xlink:href="#DejaVuSans-20" x="187.789062"/>
      <use xlink:href="#DejaVuSans-43" x="219.576172"/>
      <use xlink:href="#DejaVuSans-6f" x="289.400391"/>
      <use xlink:href="#DejaVuSans-75" x="350.582031"/>
      <use xlink:href="#DejaVuSans-6e" x="413.960938"/>
      <use xlink:href="#DejaVuSans-74" x="477.339844"/>
     </g>
    </g>
   </g>
   <g id="line2d_16">
    <path d="M 71.085443 240.382392 
L 72.952705 238.648421 
L 74.819967 238.648421 
L 82.289013 231.712536 
L 86.023536 231.712536 
L 87.890798 229.978565 
L 89.758059 229.978565 
L 91.625321 228.244593 
L 93.492582 228.244593 
L 95.359844 226.510622 
L 97.227105 226.510622 
L 102.82889 221.308708 
L 106.563413 221.308708 
L 110.297936 217.840766 
L 112.165198 217.840766 
L 125.236029 205.702967 
L 128.970552 205.702967 
L 130.837814 203.968995 
L 134.572337 203.968995 
L 138.30686 200.501053 
L 140.174122 200.501053 
L 142.041383 198.767081 
L 143.908645 198.767081 
L 153.244953 190.097225 
L 155.112214 190.097225 
L 162.58126 183.16134 
L 164.448522 183.16134 
L 166.315784 181.427368 
L 168.183045 181.427368 
L 184.988399 165.821627 
L 190.590184 165.821627 
L 203.661015 153.683828 
L 205.528277 153.683828 
L 211.130061 148.481914 
L 212.997323 148.481914 
L 216.731846 145.013971 
L 220.466369 145.013971 
L 226.068154 139.812057 
L 227.935416 139.812057 
L 239.138985 129.40823 
L 241.006247 129.40823 
L 252.209816 119.004402 
L 254.077078 119.004402 
L 257.811601 115.536459 
L 261.546124 115.536459 
L 263.413385 113.802488 
L 265.280647 113.802488 
L 267.147909 112.068517 
L 269.01517 112.068517 
L 270.882432 110.334545 
L 272.749693 110.334545 
L 274.616955 108.600574 
L 276.484216 108.600574 
L 285.820524 99.930718 
L 293.289571 99.930718 
L 308.227663 86.058947 
L 311.962186 86.058947 
L 315.696709 82.591005 
L 317.563971 82.591005 
L 325.033017 75.65512 
L 326.900279 75.65512 
L 332.502064 70.453206 
L 334.369325 70.453206 
L 343.705633 61.783349 
L 345.572895 61.783349 
L 349.307418 58.315407 
L 351.174679 58.315407 
L 358.643726 51.379522 
L 358.643726 51.379522 
" clip-path="url(#p7f2e9310ef)" style="fill: none; stroke: #008000; stroke-width: 1.5; stroke-linecap: square"/>
   </g>
   <g id="line2d_17">
    <path d="M 71.085443 242.116364 
L 80.421751 233.446507 
L 87.890798 233.446507 
L 95.359844 226.510622 
L 97.227105 226.510622 
L 104.696152 219.574737 
L 110.297936 219.574737 
L 112.165198 217.840766 
L 115.899721 217.840766 
L 119.634244 214.372823 
L 127.103291 214.372823 
L 128.970552 212.638852 
L 130.837814 212.638852 
L 136.439598 207.436938 
L 138.30686 207.436938 
L 140.174122 205.702967 
L 142.041383 205.702967 
L 145.775906 202.235024 
L 147.643168 202.235024 
L 149.510429 200.501053 
L 151.377691 200.501053 
L 162.58126 190.097225 
L 164.448522 190.097225 
L 173.78483 181.427368 
L 175.652091 181.427368 
L 179.386615 177.959426 
L 183.121138 177.959426 
L 184.988399 176.225455 
L 186.855661 176.225455 
L 192.457446 171.023541 
L 194.324707 171.023541 
L 199.926492 165.821627 
L 203.661015 165.821627 
L 211.130061 158.885742 
L 212.997323 158.885742 
L 222.333631 150.215885 
L 224.200892 150.215885 
L 226.068154 148.481914 
L 227.935416 148.481914 
L 235.404462 141.546029 
L 239.138985 141.546029 
L 242.873508 138.078086 
L 244.74077 138.078086 
L 252.209816 131.142201 
L 254.077078 131.142201 
L 255.944339 129.40823 
L 259.678862 129.40823 
L 263.413385 125.940287 
L 265.280647 125.940287 
L 282.086001 110.334545 
L 285.820524 110.334545 
L 287.687786 108.600574 
L 289.555047 108.600574 
L 293.289571 105.132632 
L 295.156832 105.132632 
L 300.758617 99.930718 
L 302.625878 99.930718 
L 304.49314 98.196746 
L 306.360402 98.196746 
L 311.962186 92.994833 
L 313.829448 92.994833 
L 315.696709 91.260861 
L 317.563971 91.260861 
L 341.838371 68.719234 
L 345.572895 68.719234 
L 347.440156 66.985263 
L 351.174679 66.985263 
L 353.041941 65.251292 
L 354.909202 65.251292 
L 358.643726 61.783349 
L 360.510987 61.783349 
L 362.378249 60.049378 
L 364.24551 60.049378 
L 366.112772 58.315407 
L 367.980033 58.315407 
L 373.581818 53.113493 
L 373.581818 53.113493 
" clip-path="url(#p7f2e9310ef)" style="fill: none; stroke: #0000ff; stroke-width: 1.5; stroke-linecap: square"/>
   </g>
   <g id="line2d_18">
    <path d="M 71.085443 242.116364 
L 74.819967 242.116364 
L 76.687228 240.382392 
L 78.55449 240.382392 
L 93.492582 226.510622 
L 95.359844 226.510622 
L 106.563413 216.106794 
L 108.430675 216.106794 
L 123.368767 202.235024 
L 125.236029 202.235024 
L 130.837814 197.03311 
L 134.572337 197.03311 
L 143.908645 188.363254 
L 145.775906 188.363254 
L 153.244953 181.427368 
L 155.112214 181.427368 
L 158.846737 177.959426 
L 162.58126 177.959426 
L 179.386615 162.353684 
L 181.253876 162.353684 
L 183.121138 160.619713 
L 186.855661 160.619713 
L 190.590184 157.15177 
L 192.457446 157.15177 
L 194.324707 155.417799 
L 196.191969 155.417799 
L 198.05923 153.683828 
L 199.926492 153.683828 
L 207.395538 146.747943 
L 209.2628 146.747943 
L 227.935416 129.40823 
L 229.802677 129.40823 
L 233.5372 125.940287 
L 237.271723 125.940287 
L 239.138985 124.206316 
L 242.873508 124.206316 
L 250.342554 117.270431 
L 252.209816 117.270431 
L 255.944339 113.802488 
L 257.811601 113.802488 
L 263.413385 108.600574 
L 265.280647 108.600574 
L 270.882432 103.39866 
L 272.749693 103.39866 
L 289.555047 87.792919 
L 291.422309 87.792919 
L 297.024094 82.591005 
L 300.758617 82.591005 
L 304.49314 79.123062 
L 311.962186 79.123062 
L 319.431233 72.187177 
L 321.298494 72.187177 
L 323.165756 70.453206 
L 325.033017 70.453206 
L 326.900279 68.719234 
L 332.502064 68.719234 
L 338.103848 63.517321 
L 343.705633 63.517321 
L 345.572895 61.783349 
L 349.307418 61.783349 
L 353.041941 58.315407 
L 354.909202 58.315407 
L 356.776464 56.581435 
L 358.643726 56.581435 
L 371.714557 44.443636 
L 371.714557 44.443636 
" clip-path="url(#p7f2e9310ef)" style="fill: none; stroke: #ff7f0e; stroke-width: 1.5; stroke-linecap: square"/>
   </g>
   <g id="line2d_19">
    <path d="M 69.218182 240.382392 
L 71.085443 238.648421 
L 72.952705 238.648421 
L 74.819967 238.648421 
L 76.687228 236.91445 
L 78.55449 236.91445 
L 80.421751 235.180478 
L 82.289013 235.180478 
L 84.156274 233.446507 
L 86.023536 233.446507 
L 87.890798 231.712536 
L 89.758059 229.978565 
L 91.625321 229.978565 
L 93.492582 228.244593 
L 95.359844 226.510622 
L 97.227105 224.776651 
L 99.094367 223.042679 
L 100.961629 221.308708 
L 102.82889 219.574737 
L 104.696152 217.840766 
L 106.563413 216.106794 
L 110.297936 214.372823 
L 112.165198 212.638852 
L 114.03246 210.90488 
L 115.899721 210.90488 
L 117.766983 209.170909 
L 119.634244 209.170909 
L 121.501506 207.436938 
L 123.368767 205.702967 
L 125.236029 203.968995 
L 127.103291 202.235024 
L 128.970552 200.501053 
L 130.837814 200.501053 
L 132.705075 198.767081 
L 134.572337 197.03311 
L 136.439598 195.299139 
L 138.30686 193.565167 
L 140.174122 193.565167 
L 142.041383 191.831196 
L 143.908645 191.831196 
L 145.775906 191.831196 
L 147.643168 191.831196 
L 149.510429 190.097225 
L 151.377691 188.363254 
L 153.244953 186.629282 
L 155.112214 184.895311 
L 156.979476 184.895311 
L 158.846737 184.895311 
L 160.713999 183.16134 
L 164.448522 181.427368 
L 166.315784 179.693397 
L 168.183045 177.959426 
L 170.050307 176.225455 
L 171.917568 174.491483 
L 173.78483 172.757512 
L 175.652091 172.757512 
L 177.519353 171.023541 
L 179.386615 169.289569 
L 181.253876 167.555598 
L 183.121138 165.821627 
L 184.988399 164.087656 
L 186.855661 162.353684 
L 188.722922 160.619713 
L 190.590184 158.885742 
L 192.457446 157.15177 
L 194.324707 157.15177 
L 196.191969 155.417799 
L 198.05923 155.417799 
L 199.926492 153.683828 
L 201.793753 151.949856 
L 203.661015 151.949856 
L 205.528277 151.949856 
L 207.395538 150.215885 
L 209.2628 148.481914 
L 211.130061 146.747943 
L 212.997323 145.013971 
L 214.864584 145.013971 
L 218.599108 143.28 
L 220.466369 141.546029 
L 222.333631 141.546029 
L 224.200892 141.546029 
L 226.068154 139.812057 
L 227.935416 138.078086 
L 229.802677 136.344115 
L 231.669939 136.344115 
L 233.5372 136.344115 
L 235.404462 136.344115 
L 237.271723 134.610144 
L 239.138985 134.610144 
L 241.006247 134.610144 
L 242.873508 132.876172 
L 244.74077 131.142201 
L 246.608031 131.142201 
L 248.475293 131.142201 
L 250.342554 129.40823 
L 252.209816 129.40823 
L 254.077078 127.674258 
L 255.944339 127.674258 
L 257.811601 127.674258 
L 259.678862 125.940287 
L 261.546124 124.206316 
L 263.413385 122.472344 
L 265.280647 122.472344 
L 269.01517 120.738373 
L 270.882432 120.738373 
L 272.749693 120.738373 
L 274.616955 120.738373 
L 276.484216 120.738373 
L 278.351478 120.738373 
L 280.21874 119.004402 
L 282.086001 119.004402 
L 283.953263 119.004402 
L 285.820524 119.004402 
L 287.687786 117.270431 
L 289.555047 117.270431 
L 291.422309 117.270431 
L 293.289571 117.270431 
L 295.156832 115.536459 
" clip-path="url(#p7f2e9310ef)" style="fill: none; stroke: #ff0000; stroke-width: 1.5; stroke-linecap: square"/>
   </g>
   <g id="patch_3">
    <path d="M 54 252 
L 54 34.56 
" style="fill: none; stroke: #000000; stroke-width: 0.8; stroke-linejoin: miter; stroke-linecap: square"/>
   </g>
   <g id="patch_4">
    <path d="M 388.8 252 
L 388.8 34.56 
" style="fill: none; stroke: #000000; stroke-width: 0.8; stroke-linejoin: miter; stroke-linecap: square"/>
   </g>
   <g id="patch_5">
    <path d="M 54 252 
L 388.8 252 
" style="fill: none; stroke: #000000; stroke-width: 0.8; stroke-linejoin: miter; stroke-linecap: square"/>
   </g>
   <g id="patch_6">
    <path d="M 54 34.56 
L 388.8 34.56 
" style="fill: none; stroke: #000000; stroke-width: 0.8; stroke-linejoin: miter; stroke-linecap: square"/>
   </g>
   <g id="text_18">
    <!-- Winning Pace -->
    <g transform="translate(181.129688 28.56)scale(0.12 -0.12)">
     <defs>
      <path id="DejaVuSans-67" d="M 2906 1791 
Q 2906 2416 2648 2759 
Q 2391 3103 1925 3103 
Q 1463 3103 1205 2759 
Q 947 2416 947 1791 
Q 947 1169 1205 825 
Q 1463 481 1925 481 
Q 2391 481 2648 825 
Q 2906 1169 2906 1791 
z
M 3481 434 
Q 3481 -459 3084 -895 
Q 2688 -1331 1869 -1331 
Q 1566 -1331 1297 -1286 
Q 1028 -1241 775 -1147 
L 775 -588 
Q 1028 -725 1275 -790 
Q 1522 -856 1778 -856 
Q 2344 -856 2625 -561 
Q 2906 -266 2906 331 
L 2906 616 
Q 2728 306 2450 153 
Q 2172 0 1784 0 
Q 1141 0 747 490 
Q 353 981 353 1791 
Q 353 2603 747 3093 
Q 1141 3584 1784 3584 
Q 2172 3584 2450 3431 
Q 2728 3278 2906 2969 
L 2906 3500 
L 3481 3500 
L 3481 434 
z
" transform="scale(0.015625)"/>
      <path id="DejaVuSans-50" d="M 1259 4147 
L 1259 2394 
L 2053 2394 
Q 2494 2394 2734 2622 
Q 2975 2850 2975 3272 
Q 2975 3691 2734 3919 
Q 2494 4147 2053 4147 
L 1259 4147 
z
M 628 4666 
L 2053 4666 
Q 2838 4666 3239 4311 
Q 3641 3956 3641 3272 
Q 3641 2581 3239 2228 
Q 2838 1875 2053 1875 
L 1259 1875 
L 1259 0 
L 628 0 
L 628 4666 
z
" transform="scale(0.015625)"/>
      <path id="DejaVuSans-63" d="M 3122 3366 
L 3122 2828 
Q 2878 2963 2633 3030 
Q 2388 3097 2138 3097 
Q 1578 3097 1268 2742 
Q 959 2388 959 1747 
Q 959 1106 1268 751 
Q 1578 397 2138 397 
Q 2388 397 2633 464 
Q 2878 531 3122 666 
L 3122 134 
Q 2881 22 2623 -34 
Q 2366 -91 2075 -91 
Q 1284 -91 818 406 
Q 353 903 353 1747 
Q 353 2603 823 3093 
Q 1294 3584 2113 3584 
Q 2378 3584 2631 3529 
Q 2884 3475 3122 3366 
z
" transform="scale(0.015625)"/>
     </defs>
     <use xlink:href="#DejaVuSans-57"/>
     <use xlink:href="#DejaVuSans-69" x="96.626953"/>
     <use xlink:href="#DejaVuSans-6e" x="124.410156"/>
     <use xlink:href="#DejaVuSans-6e" x="187.789062"/>
     <use xlink:href="#DejaVuSans-69" x="251.167969"/>
     <use xlink:href="#DejaVuSans-6e" x="278.951172"/>
     <use xlink:href="#DejaVuSans-67" x="342.330078"/>
     <use xlink:href="#DejaVuSans-20" x="405.806641"/>
     <use xlink:href="#DejaVuSans-50" x="437.59375"/>
     <use xlink:href="#DejaVuSans-61" x="493.396484"/>
     <use xlink:href="#DejaVuSans-63" x="554.675781"/>
     <use xlink:href="#DejaVuSans-65" x="609.65625"/>
    </g>
   </g>
   <g id="legend_1">
    <g id="patch_7">
     <path d="M 321.171875 247 
L 381.8 247 
Q 383.8 247 383.8 245 
L 383.8 187.2875 
Q 383.8 185.2875 381.8 185.2875 
L 321.171875 185.2875 
Q 319.171875 185.2875 319.171875 187.2875 
L 319.171875 245 
Q 319.171875 247 321.171875 247 
z
" style="fill: #ffffff; opacity: 0.8; stroke: #cccccc; stroke-linejoin: miter"/>
    </g>
    <g id="line2d_20">
     <path d="M 323.171875 193.385938 
L 333.171875 193.385938 
L 343.171875 193.385938 
" style="fill: none; stroke: #008000; stroke-width: 1.5; stroke-linecap: square"/>
    </g>
    <g id="text_19">
     <!--  1927 -->
     <g transform="translate(351.171875 196.885938)scale(0.1 -0.1)">
      <defs>
       <path id="DejaVuSans-39" d="M 703 97 
L 703 672 
Q 941 559 1184 500 
Q 1428 441 1663 441 
Q 2288 441 2617 861 
Q 2947 1281 2994 2138 
Q 2813 1869 2534 1725 
Q 2256 1581 1919 1581 
Q 1219 1581 811 2004 
Q 403 2428 403 3163 
Q 403 3881 828 4315 
Q 1253 4750 1959 4750 
Q 2769 4750 3195 4129 
Q 3622 3509 3622 2328 
Q 3622 1225 3098 567 
Q 2575 -91 1691 -91 
Q 1453 -91 1209 -44 
Q 966 3 703 97 
z
M 1959 2075 
Q 2384 2075 2632 2365 
Q 2881 2656 2881 3163 
Q 2881 3666 2632 3958 
Q 2384 4250 1959 4250 
Q 1534 4250 1286 3958 
Q 1038 3666 1038 3163 
Q 1038 2656 1286 2365 
Q 1534 2075 1959 2075 
z
" transform="scale(0.015625)"/>
       <path id="DejaVuSans-37" d="M 525 4666 
L 3525 4666 
L 3525 4397 
L 1831 0 
L 1172 0 
L 2766 4134 
L 525 4134 
L 525 4666 
z
" transform="scale(0.015625)"/>
      </defs>
      <use xlink:href="#DejaVuSans-20"/>
      <use xlink:href="#DejaVuSans-31" x="31.787109"/>
      <use xlink:href="#DejaVuSans-39" x="95.410156"/>
      <use xlink:href="#DejaVuSans-32" x="159.033203"/>
      <use xlink:href="#DejaVuSans-37" x="222.65625"/>
     </g>
    </g>
    <g id="line2d_21">
     <path d="M 323.171875 208.064063 
L 333.171875 208.064063 
L 343.171875 208.064063 
" style="fill: none; stroke: #0000ff; stroke-width: 1.5; stroke-linecap: square"/>
    </g>
    <g id="text_20">
     <!--  1961 -->
     <g transform="translate(351.171875 211.564063)scale(0.1 -0.1)">
      <use xlink:href="#DejaVuSans-20"/>
      <use xlink:href="#DejaVuSans-31" x="31.787109"/>
      <use xlink:href="#DejaVuSans-39" x="95.410156"/>
      <use xlink:href="#DejaVuSans-36" x="159.033203"/>
      <use xlink:href="#DejaVuSans-31" x="222.65625"/>
     </g>
    </g>
    <g id="line2d_22">
     <path d="M 323.171875 222.742188 
L 333.171875 222.742188 
L 343.171875 222.742188 
" style="fill: none; stroke: #ff7f0e; stroke-width: 1.5; stroke-linecap: square"/>
    </g>
    <g id="text_21">
     <!--  1998 -->
     <g transform="translate(351.171875 226.242188)scale(0.1 -0.1)">
      <use xlink:href="#DejaVuSans-20"/>
      <use xlink:href="#DejaVuSans-31" x="31.787109"/>
      <use xlink:href="#DejaVuSans-39" x="95.410156"/>
      <use xlink:href="#DejaVuSans-39" x="159.033203"/>
      <use xlink:href="#DejaVuSans-38" x="222.65625"/>
     </g>
    </g>
    <g id="line2d_23">
     <path d="M 323.171875 237.420312 
L 333.171875 237.420312 
L 343.171875 237.420312 
" style="fill: none; stroke: #ff0000; stroke-width: 1.5; stroke-linecap: square"/>
    </g>
    <g id="text_22">
     <!--  2022 -->
     <g transform="translate(351.171875 240.920312)scale(0.1 -0.1)">
      <use xlink:href="#DejaVuSans-20"/>
      <use xlink:href="#DejaVuSans-32" x="31.787109"/>
      <use xlink:href="#DejaVuSans-30" x="95.410156"/>
      <use xlink:href="#DejaVuSans-32" x="159.033203"/>
      <use xlink:href="#DejaVuSans-32" x="222.65625"/>
     </g>
    </g>
   </g>
  </g>
 </g>
 <defs>
  <clipPath id="p7f2e9310ef">
   <rect x="54" y="34.56" width="334.8" height="217.44"/>
  </clipPath>
 </defs>
</svg>
